<svg width="32" height="32" viewBox="0 0 32 32" fill="none" xmlns="http://www.w3.org/2000/svg">
<path fill-rule="evenodd" clip-rule="evenodd" d="M13.958 8.65233L13.6416 8.10437C12.2792 5.7445 9.2616 4.93595 6.90173 6.29842C4.54187 7.66089 3.73332 10.6784 5.09579 13.0383L8.28416 18.5607C8.39812 18.3097 8.52534 18.062 8.66603 17.8183L13.958 8.65233ZM16 5.29879C13.4338 2.06302 8.81688 1.10869 5.1333 3.23541C1.08178 5.57456 -0.306377 10.7552 2.03277 14.8067L8.6621 26.2891C9.70997 28.104 11.3281 29.3845 13.1595 30.0349C14.0874 30.3666 15.048 30.5266 16 30.5259C16.952 30.5266 17.9126 30.3666 18.8405 30.0349C20.6719 29.3845 22.29 28.104 23.3379 26.2891L29.9672 14.8067C32.3064 10.7552 30.9182 5.57456 26.8667 3.23541C23.1831 1.10869 18.5662 2.06302 16 5.29879ZM16 12.1892L11.729 19.5867C10.3666 21.9466 11.1751 24.9641 13.535 26.3266C14.3128 26.7757 15.1621 26.9889 16 26.9884C16.4758 26.9882 16.9479 26.919 17.4012 26.7851C17.765 26.6768 18.1219 26.5247 18.465 26.3266C20.8249 24.9641 21.6334 21.9466 20.271 19.5867L16 12.1892ZM23.7158 18.5607C23.6019 18.3097 23.4747 18.062 23.334 17.8183L18.042 8.65233L18.3584 8.10437C19.7208 5.7445 22.7384 4.93595 25.0983 6.29842C27.4581 7.66089 28.2667 10.6784 26.9042 13.0383L23.7158 18.5607Z" fill="black"/>
</svg>
