<?xml version="1.0" encoding="UTF-8" standalone="no"?><!DOCTYPE svg PUBLIC "-//W3C//DTD SVG 1.1//EN" "http://www.w3.org/Graphics/SVG/1.1/DTD/svg11.dtd"><svg width="100%" height="100%" viewBox="0 0 966 608" version="1.1" xmlns="http://www.w3.org/2000/svg" xmlns:xlink="http://www.w3.org/1999/xlink" xml:space="preserve" xmlns:serif="http://www.serif.com/" style="fill-rule:evenodd;clip-rule:evenodd;stroke-linejoin:round;stroke-miterlimit:2;"><rect id="Blood-Pressure---Nigeria" serif:id="Blood Pressure - Nigeria" x="0" y="0" width="965.436" height="607.699" style="fill:none;"/><clipPath id="_clip1"><rect x="0" y="0" width="965.436" height="607.699"/></clipPath><g clip-path="url(#_clip1)"><g id="Layer1"><path d="M191.507,557.74l0.963,76.553l-18.46,0.471l-4.949,-84.105l22.446,7.081Z" style="fill:#6d85a8;"/><path d="M157.911,541.783l10.557,98.954l13.434,-0.493l-5.303,-89.85l-18.688,-8.611Z" style="fill:#d3dce9;"/><path d="M656.523,310.994c0.411,-0.409 -0.281,-1.138 -0.281,-1.719c0,-11.578 -10.746,-22.011 -1,-35.007c3.455,-4.606 10.947,-4.538 15.503,-1.5c0.352,0.234 2.018,1.983 2.501,1.5c2.539,-2.539 -0.862,-12.141 2.5,-15.503c4.102,-4.101 6.625,-3.377 10.502,0.5c0.334,0.334 1.001,1 1.001,1c0,0 0.5,-1.986 0.5,-3c0,-5.456 4.927,-9.978 9.502,-11.502c2.016,-0.672 14.924,-5.541 16.003,-5.001c1.227,0.613 3.053,6.725 3.501,6.501c4.356,-2.178 4.427,-10.573 10.502,-13.003c12.543,-5.017 29.106,1.602 31.506,16.003c0.487,2.922 -0.795,8.912 0.5,11.503c1.563,3.126 6.738,4.386 8.502,8.501c5.679,13.253 0.536,45.961 -8.502,58.012c-18.037,24.05 -100.52,38.256 -100.52,-4.001" style="fill:#e2ca72;"/><path d="M695.058,309.532c0,0 -127.567,57.073 -132.797,59.33c-5.231,2.257 102.608,58.993 102.608,58.993l30.189,-118.323Z" style="fill:#dbbd4f;"/><g><path d="M792.49,256.942c0,0 112.33,5.196 103.163,61.819c-9.713,60.003 -53.965,160.758 -53.965,160.758l-148.531,-34.54l99.333,-188.037Z" style="fill:#d3dce9;"/><path d="M777.246,248.697c0,0 112.33,5.196 103.164,61.819c-9.713,60.002 -53.965,160.757 -53.965,160.757l-148.532,-34.539l99.333,-188.037Z" style="fill:#9badc7;"/><clipPath id="_clip2"><path d="M777.246,248.697c0,0 112.33,5.196 103.164,61.819c-9.713,60.002 -53.965,160.757 -53.965,160.757l-148.532,-34.539l99.333,-188.037Z"/></clipPath><g clip-path="url(#_clip2)"><path d="M787.495,226.665c0,0 112.33,5.196 103.163,61.819c-9.713,60.003 -53.965,160.758 -53.965,160.758l-148.532,-34.54l99.334,-188.037Z" style="fill:#9badc7;"/><path d="M775.029,274.561c0,0 76.134,65.102 50.085,126.736c-26.049,61.633 -60.221,92.266 -60.221,92.266l-93.433,-58.998l103.569,-160.004Z" style="fill:#6d85a8;"/></g></g><path d="M260.736,605.401c0,0 -67.614,-35.835 -96.885,-51.348c-8.501,-4.506 -14.941,-12.114 -17.981,-21.243c-12.405,-37.252 -45.738,-137.345 -58.086,-174.425c-5.324,-15.987 -3.255,-33.515 5.647,-47.823c6.049,-9.723 15.638,-19.204 30.842,-24.796c41.049,-15.096 42.987,-15.315 41.017,-15.205c-1.97,0.109 -41.017,15.205 -41.017,15.205l140.635,270.867l-4.172,48.768Z" style="fill:#d3dce9;"/><path d="M168.028,534.957c-4.685,-2.587 -8.215,-6.853 -9.878,-11.938c-11.581,-35.403 -58.068,-177.517 -58.068,-177.517c-8.991,-27.459 5.414,-57.101 32.56,-66.998c11.254,-4.104 23.289,-8.492 34.739,-12.666c13.89,-5.065 29.256,-4.163 42.459,2.491c13.204,6.654 23.07,18.469 27.262,32.647c17.691,59.82 43.568,147.327 43.568,147.327l-11.4,7.934l99.881,52.981l-91.137,86.456c0,0 -84.367,-46.575 -109.986,-60.717Z" style="fill:#9badc7;"/><clipPath id="_clip3"><path d="M168.028,534.957c-4.685,-2.587 -8.215,-6.853 -9.878,-11.938c-11.581,-35.403 -58.068,-177.517 -58.068,-177.517c-8.991,-27.459 5.414,-57.101 32.56,-66.998c11.254,-4.104 23.289,-8.492 34.739,-12.666c13.89,-5.065 29.256,-4.163 42.459,2.491c13.204,6.654 23.07,18.469 27.262,32.647c17.691,59.82 43.568,147.327 43.568,147.327l-11.4,7.934l99.881,52.981l-91.137,86.456c0,0 -84.367,-46.575 -109.986,-60.717Z"/></clipPath><g clip-path="url(#_clip3)"><path d="M162.455,543.73c0,0 -0.514,-22.949 22.5,-35.394c23.015,-12.444 79.408,-39.372 79.408,-39.372l41.798,-37.892l-80.85,-203.468c0,0 -83.546,34.015 -102.669,96.983c-19.52,64.272 3.669,226.48 3.669,226.48l36.144,-7.337Z" style="fill:#6d85a8;"/></g><path d="M719.446,304.81c24.126,-17.075 27.23,-42.037 10.451,-74.458l61.068,-28.479c-2.14,31.245 -1.937,62.789 3.567,95.01c0,0 -8.183,13.358 -27.371,10.515c-13.403,-1.986 -47.715,-2.588 -47.715,-2.588Z" style="fill:#6c4e43;"/><clipPath id="_clip4"><path d="M719.446,304.81c24.126,-17.075 27.23,-42.037 10.451,-74.458l61.068,-28.479c-2.14,31.245 -1.937,62.789 3.567,95.01c0,0 -8.183,13.358 -27.371,10.515c-13.403,-1.986 -47.715,-2.588 -47.715,-2.588Z"/></clipPath><g clip-path="url(#_clip4)"><path d="M711.292,294.194c0,0 25.118,-57.553 42.761,-29.967c17.643,27.586 14.315,53.916 14.315,53.916l-57.076,-23.949Z" style="fill:#9b5e4b;"/><path d="M782.562,221.213c0,0 -0.135,2.453 -3.243,6.548c-0.916,1.206 -2.11,2.514 -3.565,4.02c-0.775,0.801 -1.622,1.656 -2.541,2.581c-0.998,1.006 -2.055,2.095 -3.251,3.245c-1.056,1.013 -2.147,2.087 -3.395,3.193c-0.349,0.245 -0.434,0.728 -0.189,1.077c0.246,0.35 0.728,0.434 1.078,0.189c1.277,-0.691 2.452,-1.349 3.554,-2.039c1.245,-0.78 2.364,-1.559 3.39,-2.343c0.77,-0.589 1.477,-1.177 2.12,-1.773c0.72,-0.667 1.358,-1.34 1.931,-1.999c1.426,-1.641 2.477,-3.177 3.27,-4.558c3.023,-5.267 2.45,-8.275 2.45,-8.275c-0.037,-0.444 -0.427,-0.774 -0.871,-0.737c-0.444,0.037 -0.775,0.427 -0.738,0.871Z" style="fill:#46332b;"/></g><path d="M221.799,511.863c0,0 -27.586,20.967 -9.034,39.79c18.553,18.823 54.22,31.763 54.22,31.763l19.36,-32.63l-64.546,-38.923Z" style="fill:#6d85a8;"/><path d="M200.462,469.202c0,0 -4.172,63.723 35.775,85.216c39.946,21.494 74.22,-14.345 74.22,-14.345l25.935,-74.64l-135.93,3.769Z" style="fill:#c6d0df;"/><path d="M673.144,305.562c0,0 8.63,-33.511 26.621,-21.621c7.866,5.198 11.879,7.624 14.392,6.911c4.023,-1.142 13.307,-17.289 19.386,-17.655c6.079,-0.366 12.008,15.546 17.086,15.457c5.079,-0.089 6.698,-14.092 13.385,-15.99c7.51,-2.131 23.229,-3.016 31.675,3.204c8.446,6.221 16.085,23.199 18.806,31.845c3.329,10.579 -1.056,24.891 -2.073,27.564c-6.068,15.939 -32.859,57.566 -51.883,68.882c-18.142,10.791 -32.327,16.749 -62.906,7.288c-20.383,-6.306 -24.512,-33.969 -24.512,-33.969l0.023,-71.916Z" style="fill:#dbbd4f;"/><clipPath id="_clip5"><path d="M673.144,305.562c0,0 8.63,-33.511 26.621,-21.621c7.866,5.198 11.879,7.624 14.392,6.911c4.023,-1.142 13.307,-17.289 19.386,-17.655c6.079,-0.366 12.008,15.546 17.086,15.457c5.079,-0.089 6.698,-14.092 13.385,-15.99c7.51,-2.131 23.229,-3.016 31.675,3.204c8.446,6.221 16.085,23.199 18.806,31.845c3.329,10.579 -1.056,24.891 -2.073,27.564c-6.068,15.939 -32.859,57.566 -51.883,68.882c-18.142,10.791 -32.327,16.749 -62.906,7.288c-20.383,-6.306 -24.512,-33.969 -24.512,-33.969l0.023,-71.916Z"/></clipPath><g clip-path="url(#_clip5)"><path d="M695.831,274.74c0,0 12.316,8.706 21.572,25.682c3.212,5.889 5.981,12.787 7.863,20.704c0.816,3.436 1.46,7.06 1.931,10.885c0.434,3.527 0.748,7.213 0.821,11.095c0.1,5.289 -0.157,10.892 -0.966,16.89c-0.721,5.348 -1.749,10.956 -3.367,16.89c-0.38,1.084 0.19,2.272 1.274,2.653c1.083,0.38 2.272,-0.19 2.652,-1.274c2.559,-5.894 4.551,-11.514 5.996,-16.963c1.673,-6.308 2.608,-12.305 2.98,-17.997c0.28,-4.286 0.214,-8.392 -0.16,-12.304c-0.411,-4.29 -1.199,-8.348 -2.244,-12.157c-2.389,-8.712 -6.054,-16.167 -10.126,-22.401c-11.448,-17.523 -25.946,-25.398 -25.946,-25.398c-1.019,-0.629 -2.358,-0.313 -2.988,0.707c-0.629,1.02 -0.312,2.359 0.708,2.988l0,0Z" style="fill:#a87332;"/><path d="M728.614,268.066c0,0 10.086,6.355 18.857,19.39c4.345,6.457 8.226,14.59 10.546,24.501c0.775,3.308 1.381,6.807 1.812,10.52c0.395,3.402 0.672,6.969 0.713,10.741c0.056,5.104 -0.229,10.531 -1.042,16.369c-0.72,5.172 -1.722,10.61 -3.283,16.387c-0.381,1.084 0.19,2.272 1.273,2.653c1.083,0.381 2.272,-0.19 2.653,-1.273c2.5,-5.727 4.464,-11.163 5.904,-16.421c1.682,-6.136 2.644,-11.943 3.062,-17.437c0.317,-4.18 0.29,-8.17 -0.043,-11.961c-0.369,-4.197 -1.118,-8.151 -2.127,-11.846c-2.336,-8.551 -5.987,-15.771 -10.069,-21.74c-11.482,-16.786 -26.19,-23.703 -26.19,-23.703c-1.054,-0.57 -2.372,-0.177 -2.942,0.877c-0.571,1.054 -0.178,2.372 0.876,2.943l0,0Z" style="fill:#a87332;"/><path d="M704.927,255.931c0,0 17.782,4.607 29.976,29.238c2.412,4.872 4.589,10.516 6.547,17.045c0.726,2.421 1.456,4.949 2.151,7.61c1.248,4.784 2.39,9.961 3.363,15.626c1.252,7.284 2.347,15.254 2.879,24.169c-0.011,1.148 0.911,2.09 2.06,2.101c1.148,0.012 2.09,-0.911 2.101,-2.059c0.735,-9.171 0.945,-17.468 0.519,-25.07c-0.341,-6.074 -1.074,-11.652 -2.082,-16.786c-0.572,-2.912 -1.251,-5.676 -2.04,-8.286c-2.168,-7.165 -4.922,-13.256 -7.918,-18.419c-15.51,-26.735 -36.756,-29.437 -36.756,-29.437c-1.177,-0.221 -2.313,0.556 -2.534,1.734c-0.22,1.178 0.556,2.313 1.734,2.534l0,0Z" style="fill:#f0d9a6;"/><path d="M662.509,370.325c0,0 27.893,99.517 89.184,58.524c61.292,-40.993 72.403,-96.095 73.483,-99.785c4.558,-15.573 -29.295,-55.302 -29.295,-55.302c0,0 29.493,69.412 -11.832,72.113c-17.023,1.113 12.654,-40.933 -26.993,-57.64c0,0 9.383,56.661 -1.434,78.972c0,0 -17.284,6.844 -22.016,-44.586c0,0 -3.045,43.948 -12.134,54.936c-9.337,11.289 4.686,-55.177 -14.508,-76.042c-19.194,-20.865 -44.157,7.767 -44.455,68.81Z" style="fill:#a87332;fill-opacity:0.59;"/></g><path d="M784.608,615.355l-587.455,-4.252l288.954,-275.968l366.155,100.15l0,33.413l-67.654,146.657Z" style="fill:#b69859;"/><clipPath id="_clip6"><path d="M784.608,615.355l-587.455,-4.252l288.954,-275.968l366.155,100.15l0,33.413l-67.654,146.657Z"/></clipPath><g clip-path="url(#_clip6)"><path d="M864.815,409.827l-135.236,286.403l57.272,-19.872l89.359,-214.215l-11.395,-52.316Z" style="fill:#7a6436;"/><path d="M248.189,502.408c0,0 194.188,42.276 274.849,-14.089c49.574,-34.643 -39.308,-54.026 -53.324,-101.843c-6.552,-22.353 78.98,-11.15 123.554,-10.58c12.999,0.166 17.373,11.094 38.485,22.12c16.398,8.564 20.477,-4.564 32.7,-0.801c19.934,6.137 26.219,14.441 33.55,15.621c67.283,10.83 87.513,-11.759 80.953,-19.526c-10.579,-12.525 -122.008,-33.68 -170.611,-35.503c-11.353,-0.425 -164.602,-14.907 -164.602,-14.907l-195.554,159.508Z" style="fill:#304154;fill-opacity:0.33;"/><g><g><path d="M376.083,506.201l-53.906,67.115l152.508,71.824l43.016,-80.589l-141.618,-58.35Z" style="fill:#664356;fill-opacity:0.49;"/><path d="M376.66,502.481l-53.906,67.115l152.508,71.823l43.017,-80.589l-141.619,-58.349Z" style="fill:#f7f8fa;"/><clipPath id="_clip7"><path d="M376.66,502.481l-53.906,67.115l152.508,71.823l43.017,-80.589l-141.619,-58.349Z"/></clipPath><g clip-path="url(#_clip7)"><path d="M343.923,511.243c0,0 29.81,9.026 62.791,-0.497c32.981,-9.523 -25.541,-15.643 -25.541,-15.643l-37.25,16.14Z" style="fill:#69bac9;"/></g></g><g><path d="M407.457,506.041l-64.9,56.553l137.447,97.6l56.558,-71.737l-129.105,-82.416Z" style="fill:#664356;fill-opacity:0.49;"/><path d="M408.682,502.481l-64.9,56.553l137.447,97.6l56.557,-71.737l-129.104,-82.416Z" style="fill:#f7f8fa;"/><clipPath id="_clip8"><path d="M408.682,502.481l-64.9,56.553l137.447,97.6l56.557,-71.737l-129.104,-82.416Z"/></clipPath><g clip-path="url(#_clip8)"><path d="M376.887,509.589c0,0 29.32,10.509 62.737,2.65c33.417,-7.859 -24.725,-16.903 -24.725,-16.903l-38.012,14.253Z" style="fill:#69bac9;"/></g></g></g></g><path d="M519.348,475.793c0.971,-3.26 2.245,-6.65 3.861,-10.16c8.031,-17.296 11.541,-27.731 11.448,-36.25c-0.087,-7.949 -3.425,-14.107 -8.827,-22.768c-7.631,-12.299 -17.105,-32.586 -15.569,-51.899c0.929,-11.678 5.782,-23.026 17.317,-32.131c7.834,-6.17 18.732,-11.491 33.679,-12.164c9.815,-0.443 21.404,1.118 35.042,5.818c0.942,0.315 1.452,1.336 1.137,2.278c-0.315,0.942 -1.335,1.452 -2.278,1.137c-13.151,-4.254 -24.275,-5.57 -33.67,-4.974c-13.761,0.874 -23.733,5.904 -30.851,11.719c-10.1,8.234 -14.262,18.345 -14.941,28.711c-1.182,18.063 8.025,36.856 15.294,48.259c6.221,9.806 9.827,16.89 9.965,25.931c0.139,9.144 -3.395,20.427 -11.996,38.999c-1.598,3.423 -2.839,6.716 -3.764,9.871c4.639,1.987 8.977,4.134 12.787,6.55c6.623,4.198 11.681,9.231 14.285,15.483c2.11,5.077 2.729,12.764 0.648,18.4c-1.736,4.702 -5.207,8.066 -10.807,8.304c-7.526,0.314 -17.674,-6.307 -22.516,-18.88c-2.793,-7.251 -3.851,-16.506 -1.493,-27.39c-7.978,-3.249 -16.601,-6.167 -24.779,-9.285c-10.42,-3.983 -16.748,-9.247 -20.55,-14.578c-8.713,-12.215 -4.334,-24.934 -4.334,-24.934c0.336,-1.007 1.426,-1.551 2.433,-1.215c1.006,0.336 1.551,1.426 1.215,2.433c0,0 -3.499,10.913 4.11,21.232c3.495,4.739 9.313,9.306 18.739,12.739c8.053,2.942 16.514,5.704 24.415,8.764Zm4.618,7.361c-1.233,6.18 -1.222,11.749 -0.339,16.618c1.558,8.593 5.809,14.946 10.573,18.431c2.588,1.892 5.285,2.943 7.693,2.866c3.816,-0.12 5.593,-3.184 6.308,-6.698c0.819,-4.028 0.291,-8.755 -1.045,-12.079c-2.794,-6.969 -9.334,-12.038 -17.492,-16.355c-1.825,-0.965 -3.731,-1.891 -5.698,-2.783Z" style="fill:#454545;"/><path d="M306.844,368.097c23.923,31.936 45.802,51.099 66.862,63.656l16.819,-11.391c-8.53,-11.082 -17.389,-23.993 -26.525,-38.439c-11.425,-18.065 -23.281,-38.53 -35.467,-60.82l-21.689,46.994Z" style="fill:#6c4e43;"/><path d="M172.022,463.514c0,0 -35.28,-121.998 -24.025,-166.578c11.256,-44.58 94.931,-103.428 94.931,-103.428l82.083,39.644c0,0 34.335,54.07 46.29,72.897c2.54,4 3.003,8.978 1.243,13.378c-4.312,10.782 -12.473,31.191 -16.282,40.714c-1.176,2.942 -4.344,4.564 -7.42,3.8c-3.196,-0.795 -6.635,-1.651 -6.635,-1.651l8.847,83.121l-79.19,28.333l-60.941,-10.342l-38.901,0.112Z" style="fill:#f5f7fa;"/><clipPath id="_clip9"><path d="M172.022,463.514c0,0 -35.28,-121.998 -24.025,-166.578c11.256,-44.58 94.931,-103.428 94.931,-103.428l82.083,39.644c0,0 34.335,54.07 46.29,72.897c2.54,4 3.003,8.978 1.243,13.378c-4.312,10.782 -12.473,31.191 -16.282,40.714c-1.176,2.942 -4.344,4.564 -7.42,3.8c-3.196,-0.795 -6.635,-1.651 -6.635,-1.651l8.847,83.121l-79.19,28.333l-60.941,-10.342l-38.901,0.112Z"/></clipPath><g clip-path="url(#_clip9)"><path d="M246.134,563.598c-10.818,-75.394 -34.447,-164.265 -60.235,-264.59c0,0 6.094,-22.909 14.442,-32.191c11.085,-12.324 24.644,-25.993 24.644,-25.993c2.464,31.587 12.822,58.368 20.793,69.393l26.188,-27.224c0,0 6.533,-90.972 25.545,-90.387c140.07,4.309 146.245,105.522 146.245,105.522l-71.796,233.126l-125.826,32.344Z" style="fill:#c6d0df;"/><clipPath id="_clip10"><path d="M246.134,563.598c-10.818,-75.394 -34.447,-164.265 -60.235,-264.59c0,0 6.094,-22.909 14.442,-32.191c11.085,-12.324 24.644,-25.993 24.644,-25.993c2.464,31.587 12.822,58.368 20.793,69.393l26.188,-27.224c0,0 6.533,-90.972 25.545,-90.387c140.07,4.309 146.245,105.522 146.245,105.522l-71.796,233.126l-125.826,32.344Z"/></clipPath><g clip-path="url(#_clip10)"><path d="M288.316,270.486l46.795,-4.052l-25.666,10.96l-15.527,14.644l-5.602,-21.552Z" style="fill:#9eaabb;"/><path d="M295.379,313.818c0,0 25.732,49.907 24.455,113.424c0,0 3.079,-55.971 -19.755,-112.884c-0.908,-2.263 -2.799,0.618 -4.7,-0.54" style="fill:#9eaabb;"/><path d="M278.436,275.87l-32.105,34.286l27.603,-16.067l17.983,-0.494l-13.481,-17.725Z" style="fill:#9eaabb;"/></g></g><path d="M231.342,212.582c0,0 0.165,55.541 40.473,70.387l8.78,0.231c7.37,9.674 14.354,27.666 18.416,39.044c0,0 7.821,-22.568 1.321,-86.94c0,0 16.445,0.767 25.374,-8.844c5.1,-5.489 4.172,-7.212 6.76,-9.57c3.638,-3.314 -0.376,-7.409 -0.376,-7.409c0,0 2.531,-1.118 4.268,-5.945c0.835,-2.32 -1.779,-6.702 -1.779,-6.702c0,0 7.728,-5.142 5.141,-10.746c-2.587,-5.603 -9.661,-14.073 -9.661,-14.073c0,0 9.778,-63.9 -26.911,-84.577c-34.936,-19.689 -67.779,-21.359 -89.818,1.636c-22.075,23.034 -27.191,63.867 -9.179,84.319c18.011,20.452 23.852,21.197 27.191,39.189Z" style="fill:#925846;"/><clipPath id="_clip11"><path d="M231.342,212.582c0,0 0.165,55.541 40.473,70.387l8.78,0.231c7.37,9.674 14.354,27.666 18.416,39.044c0,0 7.821,-22.568 1.321,-86.94c0,0 16.445,0.767 25.374,-8.844c5.1,-5.489 4.172,-7.212 6.76,-9.57c3.638,-3.314 -0.376,-7.409 -0.376,-7.409c0,0 2.531,-1.118 4.268,-5.945c0.835,-2.32 -1.779,-6.702 -1.779,-6.702c0,0 7.728,-5.142 5.141,-10.746c-2.587,-5.603 -9.661,-14.073 -9.661,-14.073c0,0 9.778,-63.9 -26.911,-84.577c-34.936,-19.689 -67.779,-21.359 -89.818,1.636c-22.075,23.034 -27.191,63.867 -9.179,84.319c18.011,20.452 23.852,21.197 27.191,39.189Z"/></clipPath><g clip-path="url(#_clip11)"><path d="M345.44,216.741c-4.458,4.151 -11.811,-0.725 -15.468,4.298c-9.646,13.251 -37.733,9.52 -53.336,3.497c-1.021,-0.432 -2.205,-0.126 -2.889,0.746c-0.684,0.873 -0.699,2.095 -0.037,2.984c6.58,8.206 14.016,14.879 18.049,22.949c1.434,2.869 -2.19,8.772 -0.889,11.558c7.442,15.933 12.783,30.693 16.756,46.337l37.814,-92.369Z" style="fill:#553d35;"/><path d="M269.419,72.912c0,0 52.802,32.965 50.538,69.545c-2.263,36.579 37.679,48.721 37.679,48.721c6.734,-0.545 4.816,-45.762 -13.378,-81.939c-11.589,-23.044 -48.073,-34.5 -74.839,-36.327Z" style="fill:#5a4138;"/><clipPath id="_clip12"><path d="M269.419,72.912c0,0 52.802,32.965 50.538,69.545c-2.263,36.579 37.679,48.721 37.679,48.721c6.734,-0.545 4.816,-45.762 -13.378,-81.939c-11.589,-23.044 -48.073,-34.5 -74.839,-36.327Z"/></clipPath><g clip-path="url(#_clip12)"><path d="M324.183,158.422c0.445,-1.783 4.154,-2.227 4.73,-0.893c0.437,1.012 0.722,2.312 0.769,3.734c0.108,3.296 -1.103,6.014 -2.703,6.067c-1.6,0.052 -2.987,-2.581 -3.095,-5.877c-0.036,-1.1 0.075,-2.136 0.299,-3.031Z" style="fill:#31231e;"/></g><path d="M279.721,169.272c0,0 10.051,-24.613 29.226,-16.134c6.269,2.772 5.884,8.473 5.026,11.775c-0.155,0.597 -0.585,1.086 -1.158,1.317c-0.572,0.23 -1.22,0.176 -1.747,-0.146c-10.468,-6.363 -21.428,-2.757 -31.347,3.188Z" style="fill:#5a4138;fill-opacity:0.47;"/><path d="M351.879,183.108c0,0 -3.737,22.284 -24.16,21.233c-6.589,-0.339 -7.648,-4.816 -7.646,-7.668c0.001,-0.578 0.258,-1.126 0.701,-1.496c0.444,-0.37 1.029,-0.524 1.597,-0.422c11.659,2.042 21.372,-4.026 29.508,-11.647Z" style="fill:#5a4138;fill-opacity:0.47;"/><g><path d="M338.191,207.711c-2.037,5.837 -5.435,8.498 -9.057,9.478c-1.879,0.508 -3.785,0.632 -5.596,0.498c-3.804,-0.281 -7.14,-1.473 -8.531,-2.346c-0.377,-0.284 -0.913,-0.209 -1.197,0.168c-0.284,0.377 -0.208,0.913 0.169,1.197c1.388,1.243 4.854,3.358 9.083,4.272c2.206,0.477 4.603,0.576 6.977,0.119c4.824,-0.931 9.528,-4.241 12.495,-11.773c0.445,-1.199 -0.167,-2.533 -1.365,-2.978c-1.199,-0.445 -2.533,0.167 -2.978,1.365Z" style="fill:#4b322b;fill-opacity:0.7;"/><path d="M333.947,209.868c0,0 0.765,5.509 -3.977,6c-16.224,1.683 -19.79,-8.42 -19.79,-8.42c0,0 4.13,3.84 17.754,0.962c4.368,-0.923 2.517,1.583 6.013,1.458Z" style="fill:#b27360;"/><path d="M309.788,207.069c0,0 2.774,0.135 11.477,-1.632c4.512,-0.917 8.734,-1.785 10.749,-0.219c3.332,-3.102 8.392,-3.088 8.645,-1.637c0.264,1.52 -4.042,4.598 -8.168,5.939c-11.138,3.617 -20.207,-0.551 -22.703,-2.451Z" style="fill:#523a32;"/></g><path d="M287.892,160.504c0,0 1.623,-1.764 4.187,-3.506c0.901,-0.612 1.925,-1.17 3.033,-1.701c0.494,-0.235 1.004,-0.456 1.526,-0.676c0.5,-0.211 0.998,-0.437 1.53,-0.62c0.779,-0.267 1.562,-0.524 2.436,-0.655c0.85,-0.127 1.698,-0.245 2.65,-0.191c0.454,0.111 0.912,-0.169 1.023,-0.623c0.11,-0.454 -0.169,-0.913 -0.624,-1.023c-1.723,-0.739 -3.356,-1.041 -4.97,-1.031c-1.204,0.008 -2.353,0.24 -3.423,0.614c-0.662,0.231 -1.281,0.548 -1.861,0.9c-0.898,0.545 -1.706,1.167 -2.412,1.841c-2.932,2.798 -4.299,5.911 -4.299,5.911c-0.209,0.332 -0.11,0.772 0.222,0.982c0.333,0.21 0.773,0.11 0.982,-0.222Z" style="fill:#31231e;"/><path d="M319.864,195.259c0,0 3.775,1.605 8.536,2.064c1.167,0.112 2.384,0.131 3.612,0.031c0.814,-0.066 1.634,-0.184 2.429,-0.398c1.356,-0.364 2.662,-0.914 3.831,-1.688c1.718,-1.137 3.147,-2.638 4.132,-4.656c0.26,-0.388 0.156,-0.915 -0.232,-1.175c-0.388,-0.26 -0.915,-0.156 -1.175,0.232c-1.008,1.122 -2.204,1.814 -3.457,2.411c-1.259,0.6 -2.606,0.913 -3.973,1.19c-0.669,0.135 -1.337,0.277 -2.006,0.386c-1.063,0.174 -2.112,0.312 -3.134,0.393c-4.439,0.354 -8.175,-0.16 -8.175,-0.16c-0.378,-0.107 -0.772,0.113 -0.879,0.491c-0.107,0.378 0.113,0.772 0.491,0.879Z" style="fill:#523a32;"/><path d="M340.132,148.967c0,0 -1.888,-1.768 -4.98,-3.001c-1.158,-0.462 -2.471,-0.809 -3.897,-0.937c-0.666,-0.06 -1.357,-0.056 -2.054,0.033c-0.669,0.086 -1.342,0.242 -2.01,0.483c-0.754,0.271 -1.498,0.596 -2.221,1.062c-0.961,0.618 -1.855,1.349 -2.727,2.315c-0.372,0.283 -0.444,0.815 -0.161,1.187c0.283,0.372 0.815,0.444 1.187,0.161c0.82,-0.406 1.604,-0.634 2.391,-0.866c0.815,-0.241 1.593,-0.346 2.363,-0.447c0.531,-0.07 1.046,-0.089 1.554,-0.125c0.533,-0.038 1.052,-0.072 1.56,-0.086c1.16,-0.03 2.244,-0.003 3.244,0.135c2.901,0.4 4.956,1.267 4.956,1.267c0.326,0.219 0.769,0.133 0.988,-0.193c0.22,-0.326 0.133,-0.769 -0.193,-0.988Z" style="fill:#31231e;"/><path d="M221.741,181.897c0,0 0.832,4.493 4.439,9.435c1.268,1.738 2.882,3.513 4.935,5.102c0.908,0.702 1.909,1.363 3.01,1.93c1.021,0.527 2.121,0.977 3.302,1.344c1.604,0.498 3.307,0.867 5.174,1.05c1.648,0.161 3.336,0.164 5.184,0.049c0.155,0.015 0.294,-0.1 0.308,-0.256c0.015,-0.156 -0.1,-0.294 -0.256,-0.309c-2.093,-0.518 -3.907,-1.21 -5.653,-1.927c-1.912,-0.786 -3.577,-1.688 -5.142,-2.6c-0.899,-0.524 -1.752,-1.048 -2.568,-1.571c-1.347,-0.862 -2.586,-1.716 -3.686,-2.617c-1.439,-1.179 -2.677,-2.349 -3.707,-3.502c-3.08,-3.449 -4.396,-6.417 -4.396,-6.417c-0.08,-0.26 -0.356,-0.407 -0.617,-0.328c-0.26,0.08 -0.407,0.356 -0.327,0.617Z" style="fill:#4c372f;"/><path d="M315.125,96.587c0,0 -3.361,12.823 -23.011,9.667c-21.974,-3.529 -36.294,-0.747 -44.413,7.844c-7.822,8.277 -6.162,27.613 2.98,35.42c3.881,3.314 7.151,16.403 7.151,16.403l-5.311,4.614c0,0 -8.549,-11.922 -18.118,-8.413c-3.967,1.455 -10.074,6.303 -10.396,12.903c-0.489,10.05 4.535,14.532 4.535,14.532l-1.485,14.16c0,0 -52.596,-31.344 -54.13,-31.991c-1.535,-0.647 13.082,-89.837 13.082,-89.837l92.495,-24.424l36.621,39.122Z" style="fill:#21292e;"/><clipPath id="_clip13"><path d="M315.125,96.587c0,0 -3.361,12.823 -23.011,9.667c-21.974,-3.529 -36.294,-0.747 -44.413,7.844c-7.822,8.277 -6.162,27.613 2.98,35.42c3.881,3.314 7.151,16.403 7.151,16.403l-5.311,4.614c0,0 -8.549,-11.922 -18.118,-8.413c-3.967,1.455 -10.074,6.303 -10.396,12.903c-0.489,10.05 4.535,14.532 4.535,14.532l-1.485,14.16c0,0 -52.596,-31.344 -54.13,-31.991c-1.535,-0.647 13.082,-89.837 13.082,-89.837l92.495,-24.424l36.621,39.122Z"/></clipPath><g clip-path="url(#_clip13)"><path d="M190.82,201.538c0,0 35.362,11.247 25.53,-7.272c-17.659,-33.265 -4.114,-82.612 19.682,-101.318c18,-14.149 54.423,-17.153 77.942,4.167c5.184,4.7 3.05,-6.34 3.05,-6.34c0,0 -39.161,-56.321 -115.076,-13.632c-44.448,24.994 -11.128,124.395 -11.128,124.395Z" style="fill:#303c44;"/></g><path d="M296.342,165.034c0.734,-1.895 6.148,-2.24 6.922,-0.791c0.588,1.1 0.941,2.502 0.941,4.027c0,3.535 -1.892,6.404 -4.221,6.404c-2.329,0 -4.221,-2.869 -4.221,-6.404c0,-1.18 0.211,-2.286 0.579,-3.236Z" style="fill:#31231e;"/><path d="M231.444,181.133c0,0 -0.288,-4.293 1.9,-7.497c0.433,-0.633 1,-1.177 1.69,-1.677c0.403,-0.291 0.864,-0.534 1.369,-0.783c0.776,-0.382 1.631,-0.801 2.715,-1.027c0.672,-0.195 1.561,-0.226 2.532,0.027c0.961,0.25 1.919,0.581 2.812,1.222c0.104,0.117 0.284,0.127 0.401,0.023c0.116,-0.105 0.126,-0.285 0.022,-0.401c-0.769,-1.355 -1.841,-2.344 -2.986,-3.063c-1.079,-0.677 -2.201,-0.879 -3.123,-0.932c-1.516,0.019 -2.816,0.236 -3.916,0.672c-0.843,0.334 -1.555,0.811 -2.156,1.337c-1.019,0.891 -1.765,1.926 -2.235,3.049c-0.668,1.594 -0.894,3.262 -0.831,4.781c0.104,2.541 0.842,4.485 0.842,4.485c0.06,0.265 0.324,0.433 0.59,0.374c0.265,-0.06 0.433,-0.324 0.374,-0.59Z" style="fill:#4f3931;"/></g><path d="M411.682,415.269c0,0 61.528,-4.936 80.992,-6.497c1.377,-0.11 2.727,0.433 3.644,1.468c0.916,1.035 1.293,2.44 1.017,3.794c-1.427,7.007 -3.761,18.462 -4.634,22.748c-0.225,1.106 -0.74,2.132 -1.492,2.974c-2.792,3.128 -10.029,11.235 -14.41,16.141c-2.176,2.438 -5.501,3.51 -8.692,2.8c-18.872,-4.194 -82.983,-18.442 -82.983,-18.442l26.558,-24.986Z" style="fill:#f7f8fa;"/><clipPath id="_clip14"><path d="M411.682,415.269c0,0 61.528,-4.936 80.992,-6.497c1.377,-0.11 2.727,0.433 3.644,1.468c0.916,1.035 1.293,2.44 1.017,3.794c-1.427,7.007 -3.761,18.462 -4.634,22.748c-0.225,1.106 -0.74,2.132 -1.492,2.974c-2.792,3.128 -10.029,11.235 -14.41,16.141c-2.176,2.438 -5.501,3.51 -8.692,2.8c-18.872,-4.194 -82.983,-18.442 -82.983,-18.442l26.558,-24.986Z"/></clipPath><g clip-path="url(#_clip14)"><path d="M507.406,438.325c0,0 -86.141,-0.233 -96.911,-0.262c-0.61,-0.002 -1.106,-0.494 -1.112,-1.104c-0.004,-0.359 -0.008,-0.776 -0.012,-1.208c-0.021,-1.999 0.855,-3.903 2.386,-5.188c4.697,-3.942 14.595,-12.25 14.595,-12.25l-54.257,19.646l15.648,32.055l86.064,12.336l33.599,-44.025Z" style="fill:#b1bfd3;"/><path d="M480.093,414.825c0.894,-0.053 1.761,0.319 2.338,1.004c0.578,0.685 0.797,1.603 0.594,2.475c-0.633,2.706 -1.489,6.366 -2.131,9.115c-0.536,2.29 -2.56,3.922 -4.911,3.96c-9.759,0.156 -34.681,0.556 -44.194,0.708c-0.783,0.012 -1.514,-0.391 -1.92,-1.061c-0.407,-0.67 -0.427,-1.505 -0.054,-2.193c1.415,-2.616 3.366,-6.22 4.691,-8.669c0.918,-1.695 2.646,-2.795 4.569,-2.909c8.434,-0.5 31.81,-1.885 41.018,-2.43Z" style="fill:#4b525e;"/></g><path d="M190.687,463.361c0,0 17.487,48.047 63.936,43.745c50.52,-4.679 95.116,-25.747 123.002,-32.087c7.501,-1.706 21.03,7.339 43.056,0.571c22.025,-6.768 30.07,-20.673 30.07,-20.673c0,0 -34.958,-7.959 -50.031,-11.391c-1.531,-0.348 -2.791,-1.431 -3.368,-2.891c-0.576,-1.461 -0.394,-3.113 0.486,-4.413c1.84,-2.716 3.638,-5.371 3.638,-5.371c0,0 11.536,-3.625 15.698,-5.899c4.224,-2.308 8.216,-6.424 11.312,-10.223c1.069,-1.307 1.181,-3.152 0.277,-4.578c-0.904,-1.427 -2.62,-2.113 -4.258,-1.703c-13.609,3.202 -36.508,8.671 -39.893,9.965c-4.217,1.612 -25.849,19.651 -25.849,19.651l-88.121,18.777c0,0 -16.398,-18.65 -17.688,-20.157c-0.464,-0.541 -13.818,15.804 -19.935,23.35c-1.905,2.351 -4.779,3.704 -7.805,3.673c-10.487,-0.105 -34.527,-0.346 -34.527,-0.346Z" style="fill:#9b5e4b;"/><clipPath id="_clip15"><path d="M190.687,463.361c0,0 17.487,48.047 63.936,43.745c50.52,-4.679 95.116,-25.747 123.002,-32.087c7.501,-1.706 21.03,7.339 43.056,0.571c22.025,-6.768 30.07,-20.673 30.07,-20.673c0,0 -34.958,-7.959 -50.031,-11.391c-1.531,-0.348 -2.791,-1.431 -3.368,-2.891c-0.576,-1.461 -0.394,-3.113 0.486,-4.413c1.84,-2.716 3.638,-5.371 3.638,-5.371c0,0 11.536,-3.625 15.698,-5.899c4.224,-2.308 8.216,-6.424 11.312,-10.223c1.069,-1.307 1.181,-3.152 0.277,-4.578c-0.904,-1.427 -2.62,-2.113 -4.258,-1.703c-13.609,3.202 -36.508,8.671 -39.893,9.965c-4.217,1.612 -25.849,19.651 -25.849,19.651l-88.121,18.777c0,0 -16.398,-18.65 -17.688,-20.157c-0.464,-0.541 -13.818,15.804 -19.935,23.35c-1.905,2.351 -4.779,3.704 -7.805,3.673c-10.487,-0.105 -34.527,-0.346 -34.527,-0.346Z"/></clipPath><g clip-path="url(#_clip15)"><path d="M193.869,448.627c0,0 50.34,-20.782 64.137,-14.158c7.196,3.455 16.571,17.645 13.867,20.779c-2.999,3.477 -23.999,2.304 -28.454,6.994c-11.526,12.138 -15.291,27.441 -11.546,29.031c41.497,17.62 119.625,-30.944 129.593,-34.309c9.968,-3.365 21.753,7.623 51.671,8.636c18.324,0.62 53.544,-39.585 58.396,-36.026c9.258,6.789 -25.916,65.173 -23.194,56.527c1.493,-4.743 -159.103,45.809 -159.103,45.809c0,0 -105.282,-16.335 -107.545,-15.875c-1.132,0.23 -12.167,-32.46 -8.835,-49.386c3.324,-16.893 21.013,-18.022 21.013,-18.022Z" style="fill:#6c4e43;"/><path d="M418.188,447.741c0,0 -15.18,-3.704 -26.03,-6.352c-2.196,-0.536 -3.937,-2.209 -4.559,-4.383c-0.622,-2.174 -0.03,-4.514 1.55,-6.131c3.523,-3.605 6.924,-7.084 6.924,-7.084l39.968,-12.384l-17.853,36.334Z" style="fill:#6c4e43;"/></g><path d="M582.821,339.451c-0.605,-9.956 1.567,-38.77 22.668,-40.371c16.716,-1.268 60.051,-2.87 77.343,-3.481c6.084,-0.22 12.03,1.851 16.661,5.803c2.308,1.982 4.864,4.542 7.449,7.813c6.347,8.033 8.94,15.998 9.97,20.493c0.212,0.931 0.01,1.909 -0.554,2.68c-0.563,0.772 -1.434,1.261 -2.386,1.342c-2.067,0.176 -4.26,0.363 -4.26,0.363c0,0 0.835,41.614 -19.295,45.327c-22.889,4.221 -76.641,6.705 -77.415,6.678c-13.133,-0.454 -27.83,-7.933 -30.181,-46.647Z" style="fill:#363f4c;"/><clipPath id="_clip16"><path d="M582.821,339.451c-0.605,-9.956 1.567,-38.77 22.668,-40.371c16.716,-1.268 60.051,-2.87 77.343,-3.481c6.084,-0.22 12.03,1.851 16.661,5.803c2.308,1.982 4.864,4.542 7.449,7.813c6.347,8.033 8.94,15.998 9.97,20.493c0.212,0.931 0.01,1.909 -0.554,2.68c-0.563,0.772 -1.434,1.261 -2.386,1.342c-2.067,0.176 -4.26,0.363 -4.26,0.363c0,0 0.835,41.614 -19.295,45.327c-22.889,4.221 -76.641,6.705 -77.415,6.678c-13.133,-0.454 -27.83,-7.933 -30.181,-46.647Z"/></clipPath><g clip-path="url(#_clip16)"><path d="M588.424,327.181c0,0 11.878,-18.042 20.16,-8.886c5.282,5.841 8.814,12.881 10.68,17.214c1.034,2.423 3.479,3.933 6.108,3.774c19.998,-1.207 99.443,-6.008 99.443,-6.008l-9.477,55.503l-137.358,16.404l-4.738,-49.328l15.182,-28.673Z" style="fill:#212933;"/><path d="M582.745,310.63c0,0 11.163,-9.122 19.418,-8.324c8.255,0.798 13.874,11.167 13.874,11.167l97.974,-2.351l-9.074,-21.664l-107.533,2.452l-14.659,18.72Z" style="fill:#4a5566;"/><path d="M584.94,322.743c0,0 2.522,-10.095 8.324,-15.912c2.642,-2.648 5.994,-4.382 10.181,-3.566c3.926,0.759 6.985,4.428 9.488,8.885c3.739,6.657 6.091,15.197 7.22,20.052c0.359,1.556 1.258,2.881 2.461,3.805c1.207,0.927 2.731,1.436 4.344,1.381c2.574,-0.106 6.224,-0.223 10.496,-0.434c4.692,-0.231 10.133,-0.546 15.734,-0.898c6.666,-0.419 13.546,-0.904 19.659,-1.349c11.115,-0.807 19.653,-1.509 19.653,-1.509c0.157,-0.006 0.279,-0.138 0.272,-0.294c-0.006,-0.157 -0.138,-0.279 -0.294,-0.273c0,0 -8.567,-0.03 -19.711,0.035c-6.129,0.036 -13.026,0.091 -19.704,0.196c-5.611,0.087 -11.061,0.198 -15.756,0.335c-4.276,0.124 -7.923,0.292 -10.498,0.387c-0.71,0.032 -1.383,-0.184 -1.921,-0.585c-0.542,-0.403 -0.959,-0.981 -1.134,-1.676c-1.326,-5.048 -4.012,-13.916 -8.16,-20.729c-3.122,-5.129 -7.086,-9.072 -11.73,-9.771c-5.035,-0.748 -8.992,1.378 -11.99,4.685c-5.765,6.36 -7.898,17.019 -7.898,17.019c-0.059,0.265 0.108,0.53 0.374,0.589c0.266,0.06 0.53,-0.108 0.59,-0.373Z" style="fill:#5a677b;"/></g><path d="M372.418,365.76c0.909,2.135 8.936,11.197 18.123,16.227c3.931,2.153 18.306,5.672 25.818,3.616c11.417,-3.126 36.772,-22.328 43.441,-22.224c16.035,0.251 82.556,3.559 116.316,5.274c8.201,0.417 14.469,0.74 17.61,0.903c1.674,0.087 3.341,-0.269 4.834,-1.031c4.493,-2.393 13.423,-8.683 14.757,-21.778c1.131,-11.106 -5.763,-20.068 -10.02,-24.461c-1.822,-1.869 -4.412,-2.781 -7.004,-2.468c-20.219,2.44 -114.704,13.821 -140.805,15.985c-6.756,0.56 -24.986,-0.163 -29.449,0.603c-2.659,0.457 -18.697,5.554 -30.1,3.11c-1.615,-0.346 -5.462,-0.694 -5.296,3.219c0.134,3.168 1.516,5.267 4.668,6.684c9.483,4.261 21.476,5.144 21.476,5.144c0,0 -9.029,2.13 -12.16,2.434c-5.427,0.527 -17.483,-2.816 -23.039,-2.723c-1.423,0.024 -4.998,1.038 -7.142,3.134c-1.86,1.819 -3.327,5.296 -2.028,8.352Z" style="fill:#9b5e4b;"/><clipPath id="_clip17"><path d="M372.418,365.76c0.909,2.135 8.936,11.197 18.123,16.227c3.931,2.153 18.306,5.672 25.818,3.616c11.417,-3.126 36.772,-22.328 43.441,-22.224c16.035,0.251 82.556,3.559 116.316,5.274c8.201,0.417 14.469,0.74 17.61,0.903c1.674,0.087 3.341,-0.269 4.834,-1.031c4.493,-2.393 13.423,-8.683 14.757,-21.778c1.131,-11.106 -5.763,-20.068 -10.02,-24.461c-1.822,-1.869 -4.412,-2.781 -7.004,-2.468c-20.219,2.44 -114.704,13.821 -140.805,15.985c-6.756,0.56 -24.986,-0.163 -29.449,0.603c-2.659,0.457 -18.697,5.554 -30.1,3.11c-1.615,-0.346 -5.462,-0.694 -5.296,3.219c0.134,3.168 1.516,5.267 4.668,6.684c9.483,4.261 21.476,5.144 21.476,5.144c0,0 -9.029,2.13 -12.16,2.434c-5.427,0.527 -17.483,-2.816 -23.039,-2.723c-1.423,0.024 -4.998,1.038 -7.142,3.134c-1.86,1.819 -3.327,5.296 -2.028,8.352Z"/></clipPath><g clip-path="url(#_clip17)"><path d="M636.814,325.474c0,0 -34.155,-15.15 -32.845,-2.903c2.383,22.26 -22.042,32.583 -48.066,34.699c-42.658,3.469 -84.085,-0.043 -97.903,-2.226c-7.19,-1.137 -30.245,1.636 -30.245,1.636c0,0 1.288,11.302 -12.844,18.056c-10.014,4.787 -26.504,1.233 -31.854,-13.402c-1.883,-5.151 -2.079,8.862 -2.284,8.416c-3.392,-7.384 0.042,-12.988 0.042,-12.988c-3.581,0.925 -4.633,2.41 -5.452,6.664c0,0 -2.18,-4.654 2.558,-8.06c7.221,-5.19 -13.513,2.77 -13.661,11.161c-0.22,12.485 5.901,30.165 8.63,30.632l99.669,12.654l125.916,-22.821l38.339,-61.518Z" style="fill:#6c4e43;"/><path d="M439.022,346.767c23.385,7.706 29.007,8.899 36.471,9.613c-2.788,7.653 -29.138,9.031 -35.895,4.903c-6.144,-3.753 -20.438,-6.624 -39.357,-10.043c-5.513,-0.997 17.731,-6.565 24.642,-7.438c6.683,-0.844 9.565,1.458 14.139,2.965Z" style="fill:#6c4e43;"/><path d="M388.831,350.891c0,0 12.826,-3.562 19.972,-6.127c17.802,-6.391 43.087,-5.366 47.421,-6.068c4.335,-0.701 43.102,3.054 72.522,0.792c55.289,-4.252 68.15,-20.846 70.04,-23.231c1.891,-2.386 -208.764,16.953 -208.764,16.953l-1.191,17.681Z" style="fill:#b17967;"/></g><path d="M792.988,224.788c0,0 0.566,38.353 12.043,43.713c11.477,5.359 12.571,-23.463 13.416,-35.342c0.845,-11.879 -25.459,-8.371 -25.459,-8.371Z" style="fill:#bc903d;"/><path d="M717.559,152.635c0,0 -6.195,-6.611 0,-13.529c6.196,-6.917 61.71,-39.904 78.264,-35.177c18.108,5.17 23.466,-3.422 36.153,9.948c12.686,13.369 44.751,46.665 50.711,55.41c0.907,1.33 4.172,5.563 -0.647,12.713c-4.105,6.091 -52.34,47.175 -66.546,59.217c-0.967,0.831 -2.235,1.225 -3.503,1.089c-1.268,-0.135 -2.423,-0.789 -3.193,-1.805c-5.865,-7.77 -13.889,-13.821 -26.301,-16.382l-64.938,-71.484Z" style="fill:#dbbd4f;"/><clipPath id="_clip18"><path d="M717.559,152.635c0,0 -6.195,-6.611 0,-13.529c6.196,-6.917 61.71,-39.904 78.264,-35.177c18.108,5.17 23.466,-3.422 36.153,9.948c12.686,13.369 44.751,46.665 50.711,55.41c0.907,1.33 4.172,5.563 -0.647,12.713c-4.105,6.091 -52.34,47.175 -66.546,59.217c-0.967,0.831 -2.235,1.225 -3.503,1.089c-1.268,-0.135 -2.423,-0.789 -3.193,-1.805c-5.865,-7.77 -13.889,-13.821 -26.301,-16.382l-64.938,-71.484Z"/></clipPath><g clip-path="url(#_clip18)"><path d="M808.289,251.499c0,0 52.766,-62.155 25.031,-145.643l69.142,66.671l-75.612,89.736l-18.561,-10.764Z" style="fill:#9a612d;fill-opacity:0.39;"/><path d="M811.339,242.39c0.035,0.025 0.28,-1.732 0.415,-3.075c0.271,-2.71 0.391,-5.443 0.52,-8.157c0.391,-8.204 -0.1,-16.436 0.174,-24.646c0.63,-18.903 0.772,-38.244 -0.868,-57.101c-0.346,-3.979 -2.011,-17.562 -9.372,-14.405c-5,2.144 -4.018,10.57 -3.645,15.794c0.683,9.557 3.693,19 5.207,28.464c2.212,13.821 3.572,27.887 6.075,41.654" style="fill:#a87332;"/><path d="M754.015,146.331c0,0 7.247,5.901 16.246,18.397c2.854,3.964 5.861,8.596 8.946,13.879c2.331,3.991 4.669,8.37 7.044,13.111c1.434,2.861 2.911,5.827 4.361,8.955c2.486,5.361 4.922,11.104 7.211,17.355c2.07,5.655 4.066,11.609 5.819,18.043c0.007,0.033 0.039,0.055 0.072,0.049c0.033,-0.007 0.055,-0.039 0.049,-0.072c-1.329,-11.564 -3.383,-21.953 -6.112,-31.297c-1.039,-3.559 -2.177,-6.938 -3.412,-10.159c-1.335,-3.482 -2.771,-6.765 -4.287,-9.846c-3.522,-7.155 -7.348,-13.273 -11.04,-18.452c-11.74,-16.469 -22.239,-23.545 -22.239,-23.545c-0.989,-0.733 -2.387,-0.526 -3.12,0.462c-0.733,0.988 -0.526,2.386 0.462,3.12Z" style="fill:#a87332;"/><path d="M793.704,137.658c0,0 4.111,-6.981 9.741,-9.368c3.186,-1.351 6.845,-0.907 10.542,3.755c2.697,3.318 3.671,9.176 4.065,16.684c0.273,5.221 0.106,11.206 -0.126,17.746c-0.135,3.819 -0.251,7.821 -0.403,11.964c-0.266,7.21 -0.593,14.802 -0.943,22.583c-0.338,7.513 -0.588,15.115 -0.885,22.685c-0.004,0.033 0.02,0.064 0.054,0.067c0.034,0.004 0.064,-0.02 0.068,-0.054c1.219,-6.513 2.511,-13.029 3.661,-19.536c1.182,-6.691 2.271,-13.272 3.127,-19.653c0.61,-4.553 1.119,-8.98 1.423,-13.237c0.338,-4.712 0.446,-9.208 0.356,-13.391c-0.143,-6.695 -0.815,-12.603 -1.997,-17.402c-1.212,-4.918 -2.999,-8.712 -5.378,-11.142c-4.307,-4.331 -8.243,-5.266 -11.671,-4.438c-2.405,0.582 -4.563,2.006 -6.354,3.786c-3.706,3.686 -5.864,8.654 -5.864,8.654c-0.082,0.161 -0.018,0.359 0.143,0.441c0.161,0.082 0.359,0.017 0.441,-0.144Z" style="fill:#f0d9a6;"/><path d="M836.734,148.596c0,0 1.988,8.228 0.557,22.654c-0.443,4.476 -1.239,9.532 -2.438,15.151c-0.891,4.175 -2.042,8.644 -3.416,13.434c-0.818,2.854 -1.673,5.823 -2.656,8.904c-1.662,5.213 -3.602,10.698 -5.971,16.508c-2.11,5.176 -4.446,10.551 -7.249,16.17c-0.018,0.029 -0.009,0.067 0.02,0.085c0.029,0.017 0.067,0.008 0.085,-0.021c6.449,-8.938 11.631,-17.335 15.669,-25.356c1.568,-3.114 2.943,-6.15 4.142,-9.127c1.312,-3.257 2.413,-6.424 3.319,-9.488c2.146,-7.263 3.332,-13.905 3.972,-19.765c2.114,-19.388 -1.757,-30.416 -1.757,-30.416c-0.35,-1.18 -1.592,-1.854 -2.772,-1.505c-1.18,0.35 -1.854,1.592 -1.505,2.772l0,0Z" style="fill:#a87332;"/><path d="M702.265,147.235c0,0 28.424,-6.96 40.952,-15.191c0,0 28.178,2.695 45.821,39.633c0,0 -16.672,-39.642 -30.707,-44.127c0,0 23.105,-13.241 31.438,-14.685c8.333,-1.444 8.858,3.93 16.936,2.873c8.077,-1.057 14.333,-10.352 27.327,-9.762c12.994,0.589 5.211,1.504 5.211,1.504l-41.176,-11.889l-70.251,32.884l-25.551,18.76Z" style="fill:#e2ca72;"/><path d="M726.655,145.982c0,0 -10.388,-15.447 -13.215,-1.463c-2.826,13.983 4.849,14.636 4.849,14.636l8.366,-13.173Z" style="fill:#a87332;"/><path d="M732.368,154.589c0,0 38.681,2.438 50.042,25.823c11.361,23.385 19.143,54.606 19.143,54.606l-45.765,-7.936l-23.42,-72.493Z" style="fill:#a87332;fill-opacity:0.61;"/></g><path d="M779.638,195.102c-13.155,-19.018 -31.827,-37.745 -59.517,-55.996c0,0 -0.026,2.522 -2.201,3.831c-3.952,2.376 -6.373,6.547 -7.85,8.926c-7.895,12.706 -3.677,25.854 -4.887,34.946c-1.161,8.722 -5.245,11.632 -7.611,15.563c-4.831,8.028 -3.281,10.541 1.023,14.05c0.136,0.111 -0.598,3.14 -1.574,4.177c-0.634,0.674 -0.962,0.642 -1.328,2.442c-0.517,2.542 1.963,3.545 1.963,3.545c0,0 -1.748,2.31 0.204,5.377c0.817,1.285 3.653,2.543 3.888,3.615c1.311,5.978 1.391,11.791 6.827,14.105c9.685,4.124 23.053,6.005 35.735,3.37c16.7,-3.47 29.48,-19.349 29.48,-19.349c5.909,-3.909 9.942,-13.764 9.942,-13.764c0,0 10.368,-3.207 12.029,-17.283c1.197,-10.146 -8.066,-12.984 -16.123,-7.555Z" style="fill:#9b5e4b;"/><clipPath id="_clip19"><path d="M779.638,195.102c-13.155,-19.018 -31.827,-37.745 -59.517,-55.996c0,0 -0.026,2.522 -2.201,3.831c-3.952,2.376 -6.373,6.547 -7.85,8.926c-7.895,12.706 -3.677,25.854 -4.887,34.946c-1.161,8.722 -5.245,11.632 -7.611,15.563c-4.831,8.028 -3.281,10.541 1.023,14.05c0.136,0.111 -0.598,3.14 -1.574,4.177c-0.634,0.674 -0.962,0.642 -1.328,2.442c-0.517,2.542 1.963,3.545 1.963,3.545c0,0 -1.748,2.31 0.204,5.377c0.817,1.285 3.653,2.543 3.888,3.615c1.311,5.978 1.391,11.791 6.827,14.105c9.685,4.124 23.053,6.005 35.735,3.37c16.7,-3.47 29.48,-19.349 29.48,-19.349c5.909,-3.909 9.942,-13.764 9.942,-13.764c0,0 10.368,-3.207 12.029,-17.283c1.197,-10.146 -8.066,-12.984 -16.123,-7.555Z"/></clipPath><g clip-path="url(#_clip19)"><g><path d="M690.863,232.27c3.306,3.152 6.756,4.25 9.888,4.168c1.511,-0.04 2.937,-0.334 4.215,-0.787c2.5,-0.887 4.395,-2.258 5.384,-3.005c0.289,-0.177 0.38,-0.555 0.203,-0.844c-0.177,-0.289 -0.555,-0.38 -0.844,-0.203c-1.019,0.494 -2.973,1.311 -5.358,1.745c-1.107,0.201 -2.301,0.288 -3.553,0.214c-2.453,-0.145 -5.108,-1.055 -7.587,-3.643c-0.649,-0.648 -1.703,-0.647 -2.351,0.003c-0.648,0.65 -0.647,1.703 0.003,2.352Z" style="fill:#4b322b;fill-opacity:0.7;"/><path d="M692.19,224.659c0,0 0.118,6.559 7.726,7.59c5.282,0.715 8.011,-1.014 10.521,-2.336c4.871,-2.565 5.334,-7.213 5.334,-7.213c0,0 -9.336,7.316 -23.581,1.959Z" style="fill:#be7866;"/><path d="M716.087,222.33c0,0 -7.66,2.368 -10.916,0.275c-1.436,-0.923 -5.037,-3.14 -5.9,-0.199c0.005,-2.874 -3.386,-1.797 -4.908,-1.32c-2.354,0.738 -3.13,1.476 -3.279,3.705c4.651,2.032 10.829,3.315 15.961,2.295c3.561,-0.709 5.858,-1.193 9.042,-4.756Z" style="fill:#523a32;"/></g><path d="M740.641,139.476c0,0 -13.302,15.278 -9.476,42.952c0,0 -8.074,-5.924 -14.937,-4.214c0,0 -10.783,7.321 13.19,19.189c3.406,1.686 8.875,4.366 6.549,10.767c-2.781,7.653 -18.953,8.614 -23.44,7.102c0,0 11.306,17.039 6.014,23.603c-3.648,4.525 -11.204,7.749 -18.694,2.661c5.83,26.643 45.073,28.875 73.321,20.352l37.558,-58.132l-27.285,-41.984c0,0 -42.538,-23.306 -42.8,-22.296Z" style="fill:#61463c;"/><path d="M721.648,189.704c1.186,0.149 2.12,1.152 2.556,2.547c0.249,0.795 0.336,1.718 0.215,2.681c-0.333,2.651 -2.116,4.614 -3.978,4.38c-1.863,-0.234 -3.105,-2.577 -2.772,-5.228c0.188,-1.492 0.834,-2.765 1.695,-3.552c0.669,-0.613 1.469,-0.931 2.284,-0.828Z" style="fill:#31231e;"/><path d="M702.544,185.473c1.425,0.179 2.323,2.379 2.005,4.909c-0.317,2.53 -1.732,4.439 -3.157,4.26c-1.425,-0.179 -2.324,-2.379 -2.006,-4.909c0.318,-2.53 1.733,-4.439 3.158,-4.26Z" style="fill:#31231e;"/><path d="M742.003,139.821c-0.165,-0.241 2.29,0.616 2.721,0.831c1.889,0.945 3.247,3.018 4.624,4.625c4.199,4.898 7.629,10.238 8.816,16.763c0.526,2.893 0.473,5.685 0,8.527c-0.698,4.183 -0.914,15.08 -0.73,15.815c0.579,2.317 2.645,5.734 3.218,8.136c0.928,3.885 13.441,3.244 18.033,0.183c2.37,-1.58 5.03,-2.794 7.226,-4.624c1.89,-1.576 3.569,-3.477 4.769,-5.637c1.653,-2.976 1.868,-6.632 1.589,-9.971c-0.869,-10.428 -7.443,-20.312 -14.307,-27.747c-3.644,-3.949 -7.502,-8.81 -12.428,-11.273c-2.363,-1.181 -4.983,-2.094 -7.515,-2.601c-2.463,-0.492 -5.053,1.01 -7.226,1.879c-4.027,1.611 -7.487,2.574 -10.694,5.781" style="fill:#221d1c;"/><path d="M732.637,183.49c0,0 -1.788,-2.891 -5.082,-5.253c-0.793,-0.569 -1.681,-1.072 -2.646,-1.486c-0.623,-0.268 -1.28,-0.495 -1.968,-0.632c-1.112,-0.221 -2.282,-0.29 -3.475,-0.129c-1.6,0.215 -3.175,0.742 -4.778,1.715c-0.434,0.172 -0.647,0.665 -0.474,1.1c0.172,0.434 0.665,0.646 1.1,0.474c0.934,-0.187 1.791,-0.189 2.65,-0.181c0.884,0.007 1.695,0.153 2.503,0.308c0.553,0.107 1.078,0.261 1.603,0.4c0.547,0.145 1.083,0.293 1.604,0.457c1.172,0.37 2.264,0.78 3.241,1.26c2.783,1.368 4.636,2.888 4.636,2.888c0.254,0.299 0.703,0.336 1.003,0.082c0.3,-0.254 0.337,-0.704 0.083,-1.003Z" style="fill:#31231e;"/><path d="M690.221,209.959c0,0 2.362,2.973 6.143,5.228c0.93,0.554 1.95,1.034 3.036,1.406c0.714,0.245 1.458,0.441 2.222,0.537c1.268,0.16 2.575,0.135 3.868,-0.156c1.768,-0.398 3.464,-1.181 5.07,-2.532c0.399,-0.244 0.524,-0.766 0.28,-1.164c-0.244,-0.399 -0.766,-0.525 -1.164,-0.281c-0.975,0.397 -1.911,0.56 -2.847,0.686c-0.961,0.128 -1.875,0.076 -2.788,-0.008c-0.621,-0.057 -1.223,-0.176 -1.824,-0.286c-0.624,-0.115 -1.238,-0.24 -1.84,-0.389c-1.33,-0.327 -2.594,-0.724 -3.739,-1.198c-3.184,-1.317 -5.432,-2.871 -5.432,-2.871c-0.284,-0.272 -0.735,-0.262 -1.007,0.022c-0.271,0.283 -0.262,0.734 0.022,1.006Z" style="fill:#523a32;"/><path d="M780.992,199.137c0,0 2.445,-0.489 4.893,0.086c0.72,0.169 1.359,0.546 2.021,1.033c0.372,0.274 0.803,0.519 1.144,0.955c0.481,0.464 0.941,0.977 1.392,1.711c0.422,0.686 0.851,1.317 1.259,2.235c0.016,0.155 0.156,0.269 0.312,0.253c0.155,-0.017 0.269,-0.156 0.253,-0.312c0.23,-1.075 0.328,-1.909 0.322,-2.79c-0.008,-1.185 -0.347,-2.094 -0.656,-2.958c-0.365,-0.737 -0.797,-1.352 -1.323,-1.823c-0.919,-0.822 -2.028,-1.25 -3.121,-1.387c-1.083,-0.136 -2.138,-0.058 -3.112,0.224c-2.237,0.645 -3.82,1.887 -3.82,1.887c-0.244,0.121 -0.345,0.417 -0.225,0.661c0.121,0.244 0.417,0.345 0.661,0.225Z" style="fill:#46332b;"/></g><path d="M791.169,216.244c2.015,1.345 3.56,3.347 4.563,5.737c0.878,2.091 1.231,4.463 0.997,6.969c-0.252,3.219 -1.662,5.977 -3.579,8.051c-1.843,1.994 -4.317,3.194 -7.024,3.073c-1.292,0.004 -2.509,-0.332 -3.634,-0.868c-1.193,-0.568 -2.312,-1.316 -3.249,-2.319c-1.907,-2.04 -3.321,-4.756 -3.583,-7.937c-0.296,-2.685 0.079,-5.219 1.058,-7.431c1.141,-2.576 2.912,-4.669 5.217,-5.966c0.031,-0.013 0.046,-0.049 0.033,-0.08c-0.013,-0.032 -0.049,-0.047 -0.08,-0.034c-2.775,0.763 -5.195,2.53 -7.047,4.973c-1.775,2.342 -2.842,5.276 -3.201,8.538c-0.361,4.383 0.916,8.441 3.145,11.577c1.289,1.814 2.964,3.266 4.844,4.29c1.958,1.068 4.184,1.583 6.497,1.59c4.486,-0.2 8.575,-2.341 11.202,-5.995c2.224,-3.093 3.488,-7.119 3.148,-11.462c-0.282,-3.029 -1.195,-5.788 -2.73,-8.058c-1.617,-2.392 -3.766,-4.226 -6.272,-5.227c-0.16,-0.084 -0.358,-0.023 -0.442,0.137c-0.084,0.16 -0.023,0.358 0.137,0.442Z" style="fill:#aec1cd;"/><path d="M791.221,216.146c2.169,1.198 3.971,3.112 5.188,5.469c1.107,2.144 1.723,4.657 1.674,7.335c-0.059,3.622 -1.342,6.893 -3.379,9.32c-2.169,2.585 -5.21,4.203 -8.578,4.167c-1.672,-0.005 -3.256,-0.425 -4.693,-1.155c-1.442,-0.733 -2.733,-1.782 -3.809,-3.073c-2.014,-2.416 -3.284,-5.664 -3.335,-9.259c-0.059,-2.853 0.644,-5.518 1.893,-7.747c1.378,-2.459 3.41,-4.392 5.832,-5.457c0.138,-0.057 0.204,-0.215 0.147,-0.353c-0.056,-0.138 -0.215,-0.204 -0.353,-0.147c-2.613,1.004 -4.86,2.947 -6.431,5.482c-1.444,2.33 -2.303,5.161 -2.366,8.222c-0.056,3.946 1.236,7.559 3.393,10.255c1.192,1.49 2.65,2.7 4.284,3.536c1.66,0.85 3.504,1.309 5.438,1.303c3.821,-0.041 7.267,-1.902 9.648,-4.9c2.133,-2.686 3.412,-6.274 3.348,-10.194c-0.052,-2.834 -0.794,-5.47 -2.053,-7.692c-1.366,-2.412 -3.33,-4.336 -5.647,-5.495c-0.106,-0.056 -0.237,-0.015 -0.292,0.091c-0.056,0.105 -0.015,0.236 0.091,0.292Z" style="fill:#fff;"/><path d="M388.662,363.599c0,0 4.284,3.321 8.841,5.746c2.447,1.302 4.979,2.274 6.969,2.527c2.607,0.243 5.364,0.043 7.838,-0.563c3.064,-0.752 5.663,-2.037 7.2,-2.953c0.594,-0.378 1.485,-1.186 2.387,-2.225c1.979,-2.278 4.192,-5.465 4.192,-5.465c0.162,-0.188 0.141,-0.471 -0.046,-0.633c-0.188,-0.161 -0.471,-0.14 -0.633,0.047c0,0 -2.217,2.064 -4.334,3.833c-1.115,0.933 -2.181,1.766 -2.836,2.046c-1.456,0.68 -3.933,1.388 -6.704,1.983c-2.182,0.469 -4.548,0.912 -6.839,0.796c-1.733,-0.029 -3.972,-0.711 -6.21,-1.56c-4.708,-1.788 -9.331,-4.328 -9.331,-4.328c-0.207,-0.136 -0.486,-0.079 -0.622,0.128c-0.136,0.206 -0.078,0.485 0.128,0.621Z" style="fill:#4f3931;"/><path d="M383.631,357.518c0,0 5.017,2.955 10.062,5.117c2.717,1.163 5.447,2.058 7.411,2.265c1.203,0.109 2.396,0.163 3.555,0.134c1.23,-0.03 2.423,-0.134 3.546,-0.312c2.869,-0.454 5.286,-1.311 6.85,-2.217c0.529,-0.319 1.366,-0.86 2.288,-1.49c2.3,-1.571 5.133,-3.635 5.133,-3.635c0.14,-0.088 0.183,-0.272 0.095,-0.412c-0.087,-0.14 -0.272,-0.183 -0.412,-0.096l-7.921,4.091c-1.221,0.584 -2.976,1.024 -5.024,1.337c-0.996,0.152 -2.059,0.264 -3.168,0.347c-1.529,0.115 -3.144,0.18 -4.786,0.085c-1.826,-0.069 -4.381,-0.79 -6.972,-1.658c-5.144,-1.724 -10.382,-4.087 -10.382,-4.087c-0.146,-0.076 -0.327,-0.019 -0.403,0.128c-0.076,0.146 -0.018,0.327 0.128,0.403Z" style="fill:#4f3931;"/></g></g></svg>