<svg width="24" height="24" viewBox="0 0 24 24" fill="none" xmlns="http://www.w3.org/2000/svg">
<path d="M21 24H3V0H15L21 6V24Z" fill="#187ED8"/>
<path d="M21 6H15V0L21 6Z" fill="#8CC2F2"/>
<g clip-path="url(#clip0)">
<path d="M19.4999 17.3863C19.6922 17.6555 19.6538 18.0018 19.4229 18.1941C19.1537 18.3865 18.769 18.348 18.5766 18.1172L17.2302 16.386L15.9222 18.0787C15.7298 18.348 15.3451 18.348 15.0758 18.1557C14.8065 17.9633 14.7681 17.6171 14.9604 17.3478L16.4992 15.3473L14.9604 13.3469C14.7681 13.0776 14.845 12.6929 15.0758 12.5006C15.3451 12.3082 15.7298 12.3851 15.9222 12.616L17.2302 14.3471L18.5766 12.6929C18.769 12.4236 19.1152 12.3851 19.4229 12.5775C19.6922 12.7698 19.6922 13.1545 19.4999 13.4238L17.9996 15.3858L19.4999 17.3863ZM12.4983 17.1554C11.4981 17.1554 10.6902 16.386 10.6902 15.3858C10.6902 14.4241 11.4981 13.6162 12.4983 13.6162C13.4986 13.6162 14.3064 14.4241 14.3064 15.3858C14.268 16.386 13.4601 17.1554 12.4983 17.1554ZM7.18947 17.1554C6.18925 17.1554 5.38138 16.386 5.38138 15.3858C5.38138 14.4241 6.18925 13.6162 7.18947 13.6162C8.18969 13.6162 8.99757 14.4241 8.99757 15.3858C8.99757 16.386 8.18969 17.1554 7.18947 17.1554ZM12.4983 12.4621C11.3827 12.4621 10.3825 13.0776 9.88238 14.0009C9.38227 13.0776 8.38205 12.4621 7.22794 12.4621C6.53548 12.4621 5.91996 12.6929 5.41985 13.0391V10.5771C5.41985 10.2693 5.15056 10 4.8428 10C4.49657 10 4.22728 10.2693 4.22728 10.5771V15.4243C4.26575 17.04 5.57373 18.3095 7.18947 18.3095C8.34358 18.3095 9.3438 17.6555 9.84391 16.7323C10.344 17.6555 11.3442 18.3095 12.4599 18.3095C14.1141 18.3095 15.4605 17.0015 15.4605 15.3473C15.499 13.7701 14.1526 12.4621 12.4983 12.4621Z" fill="white"/>
</g>
<defs>
<clipPath id="clip0">
<rect width="15.7727" height="8.46341" fill="white" transform="translate(4.22728 10)"/>
</clipPath>
</defs>
</svg>
