<svg width="24" height="24" viewBox="0 0 24 24" fill="none" xmlns="http://www.w3.org/2000/svg">
<g clip-path="url(#clip0)">
<rect width="24" height="24" fill="#2E6BAA"/>
<path fill-rule="evenodd" clip-rule="evenodd" d="M9.62613 20.2069L24 5.63651V5.48929H23.9266L9.40538 20.2069H9.62613ZM0.550384 20.2069L1.53148 5.48929H1.38441L0.40332 20.2069H0.550384ZM1.33544 20.2069L3.44484 5.48929H3.27306L1.18822 20.2069H1.33544V20.2069ZM2.16947 20.2069L5.4563 5.48929H5.28452L1.99754 20.2069H2.16947ZM3.07687 20.2069L7.76189 5.48929H7.61482L2.92981 20.2069H3.07687ZM3.93546 20.2069L9.96953 5.48929H9.79775L3.78824 20.2069H3.93546V20.2069ZM4.94111 20.2069L12.4715 5.48929H12.2998L4.76949 20.2069H4.94111V20.2069ZM16.2244 5.48929H16.0529L6.29017 20.2069H6.48651L16.2244 5.48929V5.48929ZM19.7077 5.48929H19.5113L7.66379 20.2069H7.86013L19.7077 5.48929V5.48929ZM24 11.0574V10.8613L12.2507 20.2069H12.496L24 11.0574V11.0574ZM24 15.1048V14.933L15.5623 20.2069H15.8321L24 15.1048ZM24 18.9068V18.7596L20.8848 20.2069H21.2531L24 18.9068Z" fill="white"/>
<path fill-rule="evenodd" clip-rule="evenodd" d="M5.06376 15.7179C2.53727 15.7179 0.795685 14.1482 0.795685 11.6216C0.795685 9.14423 2.63536 7.42706 5.08832 7.42706C5.72616 7.42706 6.46194 7.54971 7.00153 7.79502V9.02157C6.73165 8.65361 6.19206 8.01577 5.11273 8.01577C3.59204 8.01577 2.70889 9.41395 2.70889 11.4498C2.70889 13.5838 3.51836 15.08 5.25994 15.08C5.87307 15.08 6.65812 14.7859 7.00153 14.4424L7.29581 15.08C6.9524 15.3499 6.33928 15.7179 5.06376 15.7179ZM13.3546 11.5725C13.3546 14.7122 11.4167 14.9328 9.94495 14.9328V8.16299C11.4658 8.16299 13.3546 8.35933 13.3546 11.5725ZM11.3431 15.571C12.8884 15.571 15.2432 14.6143 15.2432 11.5481C15.2432 8.2858 12.9129 7.54986 11.1469 7.54986H8.22793V15.571H11.3431V15.571ZM20.4434 15.7179C17.8922 15.7179 16.1754 14.1482 16.1754 11.6216C16.1754 9.14423 18.0147 7.42706 20.4434 7.42706C21.1057 7.42706 21.8169 7.54971 22.3566 7.79502V9.02157C22.0868 8.65361 21.5472 8.01577 20.468 8.01577C18.947 8.01577 18.0886 9.41395 18.0886 11.4498C18.0886 13.5838 18.898 15.08 20.6395 15.08C21.2529 15.08 22.0132 14.7859 22.3566 14.4424L22.6511 15.08C22.3075 15.3499 21.6944 15.7179 20.4434 15.7179Z" fill="white"/>
</g>
<defs>
<clipPath id="clip0">
<rect width="24" height="24" fill="white"/>
</clipPath>
</defs>
</svg>
