<?xml version="1.0" encoding="UTF-8" standalone="no"?>
<!DOCTYPE svg PUBLIC "-//W3C//DTD SVG 1.1//EN" "http://www.w3.org/Graphics/SVG/1.1/DTD/svg11.dtd">
<svg width="100%" height="100%" viewBox="0 0 65 65" version="1.1" xmlns="http://www.w3.org/2000/svg" xmlns:xlink="http://www.w3.org/1999/xlink" xml:space="preserve" xmlns:serif="http://www.serif.com/" style="fill-rule:evenodd;clip-rule:evenodd;stroke-linejoin:round;stroke-miterlimit:2;">
    <rect id="Communication" x="0.683" y="0.22" width="64" height="64" style="fill:none;"/>
    <clipPath id="_clip1">
        <rect x="0.683" y="0.22" width="64" height="64"/>
    </clipPath>
    <g clip-path="url(#_clip1)">
        <path d="M57.775,53.044C57.179,52.075 56.122,51.485 54.985,51.485C46.979,51.485 15.437,51.485 15.437,51.485C15.437,51.485 12.509,56.426 10.864,59.202C10.641,59.578 10.637,60.044 10.854,60.424C11.07,60.804 11.474,61.039 11.911,61.039C20.375,61.039 51.536,61.039 60.36,61.039C60.834,61.039 61.271,60.782 61.502,60.368C61.733,59.954 61.722,59.448 61.473,59.045C60.374,57.26 58.784,54.681 57.775,53.044Z" style="fill:#cecfeb;fill-opacity:0.51;"/>
        <path d="M10.291,3.22L-11.765,15.493L10.291,27.766L32.347,15.493L10.291,3.22ZM54.423,3.22L32.367,15.493L54.423,27.766L76.48,15.493L54.423,3.22Z" style="fill:none;"/>
        <clipPath id="_clip2">
            <path d="M10.291,3.22L-11.765,15.493L10.291,27.766L32.347,15.493L10.291,3.22ZM54.423,3.22L32.367,15.493L54.423,27.766L76.48,15.493L54.423,3.22Z"/>
        </clipPath>
        <g clip-path="url(#_clip2)">
            <g>
                <path d="M32.387,-5.463C42.091,-5.364 51.214,2.107 53.004,11.8C54.765,21.339 49.026,31.724 39.98,35.286C28.967,39.623 14.821,32.795 11.82,20.798C8.77,8.607 18.563,-5.34 32.247,-5.373C32.247,-5.373 32.13,-5.464 32.387,-5.463ZM32.13,-3.053C23.51,-2.965 15.45,3.66 13.867,12.239C11.895,22.924 21.12,34.343 32.251,34.335C40.545,34.328 48.458,28.18 50.399,19.987C52.942,9.251 44.337,-2.859 32.371,-2.963C32.371,-2.963 32.276,-3.054 32.13,-3.053Z" style="fill:#cecfeb;"/>
                <path d="M32.45,0.243C42.585,0.446 50.904,12.443 46.123,22.335C42.03,30.804 29.396,33.682 22.058,27.158C15.902,21.685 15.394,10.958 21.274,4.947C24.118,2.041 28.113,0.354 32.243,0.332C32.243,0.332 32.079,0.241 32.45,0.243ZM32.082,2.653C23.511,2.825 16.519,12.955 20.548,21.288C24.004,28.435 34.656,30.859 40.844,25.356C48.351,18.678 44.397,2.806 32.243,2.742C32.243,2.742 32.402,2.651 32.082,2.653Z" style="fill:#cecfeb;"/>
                <path d="M32.381,5.527C39.084,5.665 44.504,13.549 41.36,20.045C37.876,27.245 24.572,27.239 22.437,17.936C21.112,12.165 25.789,5.729 32.121,5.617C32.121,5.617 32.229,5.526 32.381,5.527ZM32.151,7.937C26.256,8.06 21.965,16.5 26.945,21.231C31.217,25.289 40.175,22.157 39.904,15.367C39.749,11.492 36.293,8.045 32.243,8.026C32.243,8.026 32.331,7.936 32.151,7.937Z" style="fill:#cecfeb;"/>
            </g>
        </g>
        <path d="M51.576,30.187C51.235,29.591 50.601,29.224 49.914,29.224C44.458,29.224 20.519,29.224 14.715,29.224C13.929,29.224 13.204,29.645 12.815,30.327C11.59,32.473 9.008,36.999 9.008,36.999L55.535,37.106C55.535,37.106 52.78,32.291 51.576,30.187Z" style="fill:#f1765a;"/>
        <clipPath id="_clip3">
            <path d="M51.576,30.187C51.235,29.591 50.601,29.224 49.914,29.224C44.458,29.224 20.519,29.224 14.715,29.224C13.929,29.224 13.204,29.645 12.815,30.327C11.59,32.473 9.008,36.999 9.008,36.999L55.535,37.106C55.535,37.106 52.78,32.291 51.576,30.187Z"/>
        </clipPath>
        <g clip-path="url(#_clip3)">
            <path d="M46.223,25.48L54.02,39.927L59.766,40.645C59.766,40.645 53.599,26.636 52.94,26.456C52.281,26.275 46.223,25.48 46.223,25.48Z" style="fill:#f1b1af;fill-opacity:0.5;"/>
        </g>
        <path d="M55.838,38.373C55.886,37.797 55.69,37.226 55.299,36.801C54.907,36.375 54.355,36.133 53.776,36.133C45.744,36.133 18.524,36.133 10.616,36.133C10.057,36.133 9.524,36.367 9.145,36.778C8.767,37.189 8.578,37.74 8.625,38.296C9.01,42.923 9.91,53.718 10.28,58.165C10.373,59.277 11.303,60.133 12.419,60.133C19.692,60.133 44.932,60.133 52.108,60.133C53.191,60.133 54.094,59.302 54.184,58.223C54.549,53.836 55.447,43.062 55.838,38.373Z" style="fill:#cacce5;"/>
        <path d="M53.776,36.133C54.912,36.148 55.892,37.168 55.842,38.319C55.374,44.977 54.813,51.629 54.179,58.273C54.059,59.277 53.174,60.096 52.158,60.132C38.896,60.291 25.63,60.291 12.367,60.132C11.325,60.095 10.41,59.256 10.285,58.217C9.651,51.566 9.089,44.908 8.621,38.244C8.574,37.166 9.479,36.176 10.563,36.133C24.966,35.945 39.372,36.133 53.776,36.133ZM10.629,38.133L10.618,38.133L12.272,57.985L12.407,58.132C12.407,58.132 38.866,58.133 52.095,58.133C52.136,58.133 52.188,58.071 52.188,58.071L53.844,38.219L53.786,38.133L10.629,38.133Z" style="fill:#b0472f;"/>
        <path d="M42.252,40.721C46.608,40.039 50.652,42.734 51.279,46.735C51.906,50.737 48.879,54.539 44.524,55.221C40.168,55.904 36.124,53.209 35.497,49.208C34.87,45.206 37.897,41.404 42.252,40.721Z" style="fill:#494d94;"/>
        <path d="M19.803,49.773C21.471,49.778 22.821,51.027 22.817,52.56C22.812,54.092 21.453,55.332 19.785,55.327C18.117,55.322 16.766,54.073 16.771,52.54C16.776,51.007 18.134,49.767 19.803,49.773Z" style="fill:#494d94;fill-opacity:0.51;"/>
        <path d="M27.89,49.773C29.558,49.778 30.909,51.027 30.904,52.56C30.899,54.092 29.54,55.332 27.872,55.327C26.204,55.322 24.853,54.073 24.858,52.54C24.863,51.007 26.221,49.767 27.89,49.773Z" style="fill:#494d94;fill-opacity:0.51;"/>
        <path d="M34.67,14.396C36.318,14.62 35.646,15.755 35.238,16.145L14.79,34.007C13.936,34.688 12.531,33.403 13.475,32.501L33.922,14.639C34.249,14.379 34.255,14.378 34.67,14.396Z" style="fill:#494d94;"/>
        <path d="M33.339,41.864L14.133,41.864L14.568,47.62L33.198,47.6L33.339,41.864Z" style="fill:#494d94;fill-opacity:0.51;"/>
        <path d="M33.339,41.864L14.133,41.864L14.568,47.62L33.198,47.6L33.339,41.864Z" style="fill:none;"/>
        <clipPath id="_clip4">
            <path d="M33.339,41.864L14.133,41.864L14.568,47.62L33.198,47.6L33.339,41.864Z"/>
        </clipPath>
        <g clip-path="url(#_clip4)">
            <path d="M34.309,44.12L34.307,45.12L13.318,45.081L13.32,44.081C20.316,44.094 27.313,44.107 34.309,44.12Z" style="fill:#fff;"/>
        </g>
    </g>
</svg>
