<?xml version="1.0" encoding="UTF-8" standalone="no"?>
<!DOCTYPE svg PUBLIC "-//W3C//DTD SVG 1.1//EN" "http://www.w3.org/Graphics/SVG/1.1/DTD/svg11.dtd">
<svg width="100%" height="100%" viewBox="0 0 65 65" version="1.1" xmlns="http://www.w3.org/2000/svg" xmlns:xlink="http://www.w3.org/1999/xlink" xml:space="preserve" xmlns:serif="http://www.serif.com/" style="fill-rule:evenodd;clip-rule:evenodd;stroke-linejoin:round;stroke-miterlimit:2;">
    <rect id="Fruit-Veg-Color" x="0.853" y="0.675" width="64" height="64" style="fill:none;"/>
    <ellipse cx="31.016" cy="37.417" rx="14.265" ry="3.801" style="fill:#d8d8e7;"/>
    <ellipse cx="48.085" cy="47.227" rx="14.265" ry="3.801" style="fill:#d8d8e7;"/>
    <g>
        <path d="M20.37,25.35C20.37,25.35 23.276,27.422 23.761,31.952C24.245,36.481 23.683,38.204 23.683,38.204C23.683,38.204 24.291,40.549 28.891,40.169C33.49,39.789 33.581,37.487 33.581,37.487C33.581,37.487 32.378,29.973 34.47,25.873C34.47,25.873 28.441,22.425 20.37,25.35Z" style="fill:#c1ce79;"/>
        <clipPath id="_clip1">
            <path d="M20.37,25.35C20.37,25.35 23.276,27.422 23.761,31.952C24.245,36.481 23.683,38.204 23.683,38.204C23.683,38.204 24.291,40.549 28.891,40.169C33.49,39.789 33.581,37.487 33.581,37.487C33.581,37.487 32.378,29.973 34.47,25.873C34.47,25.873 28.441,22.425 20.37,25.35Z"/>
        </clipPath>
        <g clip-path="url(#_clip1)">
            <path d="M21.935,9.077C23.094,7.125 25.267,5.81 27.753,5.81C29.958,5.81 31.916,6.845 33.14,8.441C33.796,8.172 34.517,8.023 35.273,8.023C37.486,8.023 39.395,9.295 40.266,11.126C42.554,11.771 44.228,13.822 44.228,16.249C44.228,16.781 44.147,17.295 43.998,17.78C44.594,18.581 44.967,19.549 45.027,20.598C45.728,21.494 46.145,22.611 46.145,23.822C46.145,26.766 43.682,29.156 40.648,29.156C39.9,29.156 39.188,29.011 38.538,28.748C37.571,30.278 35.832,31.299 33.849,31.299C32.754,31.299 31.267,30.873 30.11,32.488C29.802,32.919 30.022,29.826 29.675,29.434C29.501,29.45 28.886,28.983 28.342,29.257C27.568,29.647 27.614,30.862 26.885,30.514C26.641,30.398 26.252,28.667 26.03,28.518C25.413,28.886 24.715,29.139 23.969,29.246C23.127,31.146 21.181,32.478 18.916,32.478C15.882,32.478 13.419,30.088 13.419,27.144C13.419,26.63 13.494,26.134 13.633,25.665C12.067,24.724 11.023,23.042 11.023,21.125C11.023,19.688 11.61,18.383 12.563,17.423C12.194,16.616 11.988,15.723 11.988,14.784C11.988,11.189 14.995,8.27 18.699,8.27C19.872,8.27 20.975,8.563 21.935,9.077Z" style="fill:#67be4f;"/>
            <path d="M27.722,40.427C27.722,40.427 27.305,36.8 27.305,34.687C27.305,34.687 26.43,39.689 24.93,40.292C23.43,40.895 27.722,40.427 27.722,40.427Z" style="fill:#6d72ba;fill-opacity:0.64;"/>
            <path d="M22.841,22.214C22.841,22.214 27.267,28.121 27.033,34.67L26.82,21.741L22.841,22.214Z" style="fill:#3d782c;fill-opacity:0.33;"/>
            <path d="M33.778,25.556C33.778,25.556 29.352,31.463 29.586,38.011L29.799,25.082L33.778,25.556Z" style="fill:#3d782c;fill-opacity:0.33;"/>
        </g>
        <path d="M21.935,6.199C23.094,4.247 25.267,2.932 27.753,2.932C29.958,2.932 31.916,3.966 33.14,5.562C33.796,5.293 34.517,5.145 35.273,5.145C37.486,5.145 39.395,6.416 40.266,8.247C42.554,8.893 44.228,10.943 44.228,13.371C44.228,13.902 44.147,14.416 43.998,14.901C44.594,15.702 44.967,16.671 45.027,17.719C45.728,18.615 46.145,19.732 46.145,20.943C46.145,23.887 43.682,26.278 40.648,26.278C39.9,26.278 39.188,26.133 38.538,25.87C37.571,27.399 35.832,28.42 33.849,28.42C32.18,28.42 30.684,27.696 29.675,26.555C29.501,26.571 29.324,26.58 29.145,26.58C27.989,26.58 26.915,26.233 26.03,25.64C25.413,26.007 24.715,26.26 23.969,26.367C23.127,28.267 21.181,29.6 18.916,29.6C15.882,29.6 13.419,27.209 13.419,24.265C13.419,23.752 13.494,23.256 13.633,22.786C12.067,21.845 11.023,20.163 11.023,18.246C11.023,16.809 11.61,15.504 12.563,14.544C12.194,13.737 11.988,12.844 11.988,11.905C11.988,8.31 14.995,5.392 18.699,5.392C19.872,5.392 20.975,5.684 21.935,6.199Z" style="fill:#43652f;"/>
        <clipPath id="_clip2">
            <path d="M21.935,6.199C23.094,4.247 25.267,2.932 27.753,2.932C29.958,2.932 31.916,3.966 33.14,5.562C33.796,5.293 34.517,5.145 35.273,5.145C37.486,5.145 39.395,6.416 40.266,8.247C42.554,8.893 44.228,10.943 44.228,13.371C44.228,13.902 44.147,14.416 43.998,14.901C44.594,15.702 44.967,16.671 45.027,17.719C45.728,18.615 46.145,19.732 46.145,20.943C46.145,23.887 43.682,26.278 40.648,26.278C39.9,26.278 39.188,26.133 38.538,25.87C37.571,27.399 35.832,28.42 33.849,28.42C32.18,28.42 30.684,27.696 29.675,26.555C29.501,26.571 29.324,26.58 29.145,26.58C27.989,26.58 26.915,26.233 26.03,25.64C25.413,26.007 24.715,26.26 23.969,26.367C23.127,28.267 21.181,29.6 18.916,29.6C15.882,29.6 13.419,27.209 13.419,24.265C13.419,23.752 13.494,23.256 13.633,22.786C12.067,21.845 11.023,20.163 11.023,18.246C11.023,16.809 11.61,15.504 12.563,14.544C12.194,13.737 11.988,12.844 11.988,11.905C11.988,8.31 14.995,5.392 18.699,5.392C19.872,5.392 20.975,5.684 21.935,6.199Z"/>
        </clipPath>
        <g clip-path="url(#_clip2)">
            <path d="M11.643,27.349C11.643,27.349 6.011,13.694 20.162,13.792C20.162,13.792 21.533,8.526 25.91,8.464C30.287,8.401 31.283,9.906 31.283,9.906C31.283,9.906 36.21,4.812 41.036,6.372C41.036,6.372 31.958,-1.738 19.894,1.913C7.829,5.564 4.332,19.032 11.643,27.349Z" style="fill:#649646;fill-opacity:0.74;"/>
            <path d="M12.465,14.538C12.465,14.538 12.569,6.065 22.859,8.06C22.859,8.06 21.325,2.342 14.444,3.903C6.368,5.735 11.48,15.682 12.465,14.538Z" style="fill:#9ab662;"/>
            <path d="M9.668,22.513C9.668,22.513 8.127,15.474 12.397,14.168C13.716,13.765 15.187,14.006 16,14.201C15.956,16.002 18.486,16.251 18.486,16.251C18.486,16.251 13.461,15.469 9.668,22.513Z" style="fill:#9ab662;"/>
            <path d="M35.253,12.115C35.253,12.115 37.061,8.195 40.219,8.458C43.378,8.722 46.173,13.985 46.173,13.985C46.173,13.985 43.513,11.522 40.578,11.028C37.977,10.591 35.253,12.115 35.253,12.115Z" style="fill:#649646;"/>
            <path d="M21.827,6.233C21.827,6.233 24.761,2.871 32.254,4.02C35.741,4.554 31.543,1.479 26.387,2.113C24.838,2.303 22.352,1.393 21.827,6.233Z" style="fill:#9ab662;"/>
        </g>
        <path d="M21.272,14.309C21.272,14.309 24.065,9.73 31.921,12.989C31.921,12.989 23.397,13.846 22.629,19.803C22.629,19.803 20.235,17.688 21.272,14.309Z" style="fill:#649646;fill-opacity:0.76;"/>
        <path d="M14.728,22.537C14.728,22.537 17.617,21.566 18.215,20.318C18.215,20.318 20.006,22.928 22.4,23.367C22.4,23.367 17.467,22.03 14.728,22.537Z" style="fill:#649646;"/>
    </g>
    <ellipse cx="52.479" cy="47.512" rx="5.575" ry="0.958" style="fill:#bebed7;"/>
    <g>
        <path d="M48.66,23.824C48.66,23.824 47.15,21.627 44.347,22.123C41.544,22.62 41.253,23.531 41.253,23.531C41.253,23.531 37.25,22.446 36.519,26.45C35.789,30.454 35.989,38.854 38.308,44.411C39.655,47.638 41.981,49.111 44.342,48.962C46.702,48.813 48.526,46.52 48.526,46.52C48.526,46.52 50.001,48.52 52.22,48.541C54.44,48.563 59.536,44.563 60.931,36.82C62.327,29.078 61.577,23.854 57.776,22.438C56.593,21.998 54.67,22.882 54.67,22.882C54.67,22.882 52.059,20.798 49.488,21.769C46.918,22.741 48.66,23.824 48.66,23.824Z" style="fill:#f1765a;"/>
        <clipPath id="_clip3">
            <path d="M48.66,23.824C48.66,23.824 47.15,21.627 44.347,22.123C41.544,22.62 41.253,23.531 41.253,23.531C41.253,23.531 37.25,22.446 36.519,26.45C35.789,30.454 35.989,38.854 38.308,44.411C39.655,47.638 41.981,49.111 44.342,48.962C46.702,48.813 48.526,46.52 48.526,46.52C48.526,46.52 50.001,48.52 52.22,48.541C54.44,48.563 59.536,44.563 60.931,36.82C62.327,29.078 61.577,23.854 57.776,22.438C56.593,21.998 54.67,22.882 54.67,22.882C54.67,22.882 52.059,20.798 49.488,21.769C46.918,22.741 48.66,23.824 48.66,23.824Z"/>
        </clipPath>
        <g clip-path="url(#_clip3)">
            <path d="M49.082,24.521C49.082,24.521 50.752,35.859 49.029,44C48.694,45.584 48.23,47.048 47.601,48.283C43.736,55.862 35.073,42.81 35.073,42.81C35.073,42.81 42.167,49.18 46.222,42.409C47.806,39.764 49.779,29.98 49.082,24.521Z" style="fill:#bf684e;"/>
            <path d="M37.986,27.068C37.986,27.068 38.462,39.126 36.74,47.267C36.405,48.851 37.134,47.048 36.504,48.283C32.64,55.862 23.976,42.81 23.976,42.81C23.976,42.81 29.112,52.015 33.167,45.244C34.751,42.599 38.682,32.528 37.986,27.068Z" style="fill:#bf684e;"/>
            <path d="M59.212,21.905C59.212,21.905 67.421,36.5 62.548,43.474C51.163,59.769 45.684,42.81 45.684,42.81C45.684,42.81 51.727,43.756 51.726,32.684C51.725,25.329 62.199,33.144 59.212,21.905Z" style="fill:#bf684e;"/>
            <path d="M50.48,24.141C50.48,24.141 53.07,23.044 54.676,22.894C56.282,22.745 50.921,20.258 50.48,24.141Z" style="fill:#bf684e;"/>
            <path d="M41.35,24.297C41.35,24.297 41.353,24.88 39.728,26.264C41.937,24.634 43.958,24.888 43.912,24.861C43.643,24.697 42.567,23.841 41.35,24.297Z" style="fill:#bf684e;"/>
            <path d="M45.419,21.854C45.419,21.854 46.083,23.518 44.458,24.902C46.584,24.152 47.549,24.686 47.504,24.658C47.234,24.495 46.636,21.398 45.419,21.854Z" style="fill:#bf684e;"/>
            <path d="M39.485,28.297C39.425,28.327 39.351,28.316 39.303,28.266C39.244,28.204 39.246,28.105 39.328,28.029C39.328,28.029 39.376,27.902 39.573,27.663C39.694,27.517 39.85,27.391 40.091,27.226C40.276,27.1 40.493,27.009 40.768,26.917C41.026,26.83 41.323,26.777 41.664,26.768C41.933,26.76 42.228,26.795 42.542,26.864C43.108,26.989 43.737,27.218 44.439,27.591C45.173,27.982 45.953,28.516 46.841,29.249C46.915,29.293 46.939,29.389 46.894,29.463C46.85,29.536 46.754,29.56 46.68,29.515C45.537,29.034 44.578,28.776 43.74,28.599C43.257,28.497 42.831,28.453 42.445,28.411C42.142,28.379 41.868,28.37 41.621,28.352C41.398,28.335 41.203,28.301 41.02,28.29C40.868,28.281 40.741,28.259 40.613,28.251C39.834,28.205 39.481,28.3 39.481,28.3L39.485,28.297Z" style="fill:#fff;fill-opacity:0.58;"/>
            <path d="M51.621,28.053C51.621,28.053 52.611,27.088 54.23,26.38C54.611,26.214 55.028,26.086 55.473,25.946C55.737,25.862 56.011,25.782 56.294,25.694C56.544,25.616 56.779,25.51 57.047,25.43C57.227,25.376 57.389,25.315 57.577,25.259C57.9,25.163 58.173,25.062 58.53,24.992C58.615,25.004 58.694,24.945 58.707,24.86C58.719,24.775 58.66,24.696 58.575,24.684C58.225,24.502 57.935,24.374 57.587,24.267C57.217,24.153 56.874,24.112 56.514,24.093C56.213,24.077 55.924,24.108 55.643,24.159C55.448,24.195 55.261,24.251 55.083,24.32C54.36,24.601 53.751,25 53.251,25.435C51.908,26.601 51.363,27.879 51.363,27.879C51.315,27.951 51.334,28.048 51.405,28.095C51.477,28.143 51.573,28.124 51.621,28.053Z" style="fill:#fff;fill-opacity:0.28;"/>
            <path d="M39.59,24.305C39.59,24.305 39.343,24.326 39.021,24.467C38.848,24.543 38.654,24.647 38.501,24.812C38.221,25.114 38.065,25.543 38.101,26.022C38.091,26.123 38.165,26.214 38.267,26.224C38.368,26.233 38.458,26.159 38.468,26.058C38.53,25.863 38.656,25.731 38.773,25.589C38.886,25.452 39.023,25.346 39.139,25.231C39.484,24.889 39.776,24.624 39.776,24.624C39.84,24.602 39.887,24.495 39.85,24.4C39.813,24.305 39.705,24.258 39.611,24.295L39.59,24.305Z" style="fill:#fff;fill-opacity:0.37;"/>
        </g>
        <path d="M46.585,24.655C47.744,24.509 48.881,24.589 49.95,25.401C49.95,25.401 49.572,22.988 49.235,21.569C48.898,20.151 46.122,14.605 43.511,14.598C41.569,14.592 41.22,15.363 41.22,15.363C41.22,15.363 40.639,16.048 41.174,16.799C41.709,17.55 42.405,17.947 43.146,17.721C43.888,17.494 43.653,17.458 43.653,17.458C43.653,17.458 45.005,17.983 45.864,20.484C46.433,22.144 47.067,24.064 46.585,24.655Z" style="fill:#799933;"/>
        <clipPath id="_clip4">
            <path d="M46.585,24.655C47.744,24.509 48.881,24.589 49.95,25.401C49.95,25.401 49.572,22.988 49.235,21.569C48.898,20.151 46.122,14.605 43.511,14.598C41.569,14.592 41.22,15.363 41.22,15.363C41.22,15.363 40.639,16.048 41.174,16.799C41.709,17.55 42.405,17.947 43.146,17.721C43.888,17.494 43.653,17.458 43.653,17.458C43.653,17.458 45.005,17.983 45.864,20.484C46.433,22.144 47.067,24.064 46.585,24.655Z"/>
        </clipPath>
        <g clip-path="url(#_clip4)">
            <path d="M40.062,17.037C40.062,17.037 42.67,15.519 45.386,17.159C47.043,18.16 49.318,21.468 50.234,25.345C50.234,25.345 48.08,13.181 42.555,13.623C38.87,13.918 40.062,17.037 40.062,17.037Z" style="fill:#a6ba4a;"/>
        </g>
    </g>
    <g>
        <ellipse cx="43.111" cy="44.258" rx="3.199" ry="0.852" style="fill:#e6e6f0;"/>
        <circle cx="42.6" cy="41.66" r="2.991" style="fill:#676fc1;"/>
        <clipPath id="_clip5">
            <circle cx="42.6" cy="41.66" r="2.991"/>
        </clipPath>
        <g clip-path="url(#_clip5)">
            <circle cx="41.644" cy="40.121" r="2.991" style="fill:#8d93d8;"/>
            <path d="M42.764,38.885C42.851,38.91 42.911,38.991 42.91,39.082C42.91,39.173 42.849,39.252 42.761,39.277C42.76,39.277 42.759,39.278 42.758,39.278C42.518,39.345 42.352,39.564 42.35,39.813C42.35,39.863 42.35,39.914 42.349,39.965C42.349,40.032 42.307,40.091 42.244,40.113C42.181,40.135 42.111,40.115 42.069,40.064C42.058,40.05 42.046,40.036 42.035,40.022C41.817,39.755 41.462,39.642 41.131,39.735C41.119,39.739 41.106,39.742 41.094,39.746C41.025,39.765 40.95,39.737 40.911,39.677C40.872,39.616 40.876,39.537 40.923,39.481C40.923,39.481 40.923,39.481 40.923,39.481C41.12,39.244 41.122,38.9 40.928,38.661C40.927,38.661 40.927,38.661 40.927,38.661C40.882,38.604 40.878,38.525 40.918,38.465C40.958,38.405 41.032,38.378 41.101,38.398C41.114,38.402 41.126,38.405 41.138,38.409C41.468,38.505 41.825,38.397 42.045,38.132C42.056,38.118 42.068,38.104 42.079,38.09C42.122,38.039 42.192,38.02 42.255,38.043C42.318,38.066 42.359,38.126 42.359,38.192C42.359,38.243 42.358,38.294 42.358,38.344C42.357,38.594 42.521,38.814 42.76,38.884C42.761,38.884 42.762,38.884 42.764,38.885Z" style="fill:#464e9c;"/>
        </g>
        <path d="M40.417,41.502C40.417,41.502 40.6,41.027 41.052,40.558C41.267,40.336 41.544,40.116 41.932,39.975C42.268,39.79 42.595,39.717 42.889,39.696C43.503,39.651 43.956,39.797 43.956,39.797C44.027,39.837 44.117,39.812 44.157,39.742C44.198,39.671 44.173,39.581 44.102,39.541C44.102,39.541 43.643,39.172 42.917,39.054C42.528,38.99 42.076,39.034 41.589,39.2C41.403,39.288 41.232,39.382 41.088,39.496C40.84,39.693 40.65,39.914 40.515,40.143C40.115,40.82 40.125,41.46 40.125,41.46C40.114,41.541 40.17,41.616 40.25,41.627C40.331,41.639 40.406,41.583 40.417,41.502Z" style="fill:#fff;fill-opacity:0.33;"/>
    </g>
    <g>
        <ellipse cx="36.242" cy="44.866" rx="3.594" ry="0.958" style="fill:#e6e6f0;"/>
        <circle cx="35.667" cy="41.948" r="3.36" style="fill:#676fc1;"/>
        <clipPath id="_clip6">
            <circle cx="35.667" cy="41.948" r="3.36"/>
        </clipPath>
        <g clip-path="url(#_clip6)">
            <circle cx="34.593" cy="40.219" r="3.36" style="fill:#8d93d8;"/>
        </g>
        <path d="M36.316,40.784C36.417,40.755 36.525,40.797 36.58,40.887C36.635,40.976 36.624,41.091 36.553,41.168C36.553,41.169 36.552,41.169 36.552,41.17C36.37,41.369 36.342,41.664 36.483,41.893C36.516,41.947 36.55,42.001 36.583,42.055C36.622,42.119 36.617,42.2 36.57,42.259C36.524,42.317 36.445,42.34 36.375,42.315C36.356,42.309 36.338,42.303 36.319,42.296C35.951,42.17 35.544,42.274 35.282,42.561C35.268,42.576 35.255,42.591 35.241,42.605C35.189,42.663 35.104,42.68 35.033,42.647C34.962,42.613 34.921,42.538 34.932,42.46C34.932,42.46 34.932,42.459 34.932,42.458C34.981,42.104 34.772,41.765 34.434,41.649C34.434,41.648 34.433,41.648 34.432,41.648C34.358,41.623 34.309,41.552 34.311,41.473C34.314,41.395 34.367,41.327 34.442,41.306C34.462,41.301 34.481,41.296 34.5,41.29C34.874,41.186 35.151,40.869 35.204,40.484C35.207,40.464 35.209,40.445 35.212,40.425C35.222,40.351 35.278,40.292 35.351,40.276C35.424,40.261 35.499,40.293 35.538,40.357C35.571,40.411 35.605,40.465 35.638,40.519C35.779,40.748 36.055,40.856 36.315,40.784C36.315,40.784 36.316,40.784 36.316,40.784Z" style="fill:#464e9c;"/>
        <path d="M33.216,41.771C33.216,41.771 33.421,41.237 33.929,40.71C34.17,40.461 34.482,40.214 34.917,40.056C35.294,39.848 35.662,39.766 35.992,39.742C36.681,39.691 37.191,39.855 37.191,39.855C37.271,39.9 37.372,39.873 37.417,39.793C37.462,39.713 37.434,39.612 37.355,39.567C37.355,39.567 36.839,39.153 36.024,39.02C35.586,38.949 35.079,38.998 34.532,39.184C34.322,39.283 34.13,39.389 33.969,39.517C33.691,39.739 33.477,39.987 33.325,40.244C32.876,41.004 32.888,41.724 32.888,41.724C32.875,41.814 32.937,41.898 33.028,41.911C33.118,41.924 33.203,41.861 33.216,41.771Z" style="fill:#fff;fill-opacity:0.33;"/>
    </g>
    <g>
        <ellipse cx="40.148" cy="46.401" rx="3.594" ry="0.958" style="fill:#e6e6f0;"/>
        <circle cx="39.574" cy="43.483" r="3.36" style="fill:#676fc1;"/>
        <clipPath id="_clip7">
            <circle cx="39.574" cy="43.483" r="3.36"/>
        </clipPath>
        <g clip-path="url(#_clip7)">
            <circle cx="38.5" cy="41.754" r="3.36" style="fill:#8d93d8;"/>
        </g>
        <path d="M40.223,42.318C40.324,42.29 40.431,42.332 40.486,42.422C40.541,42.511 40.53,42.626 40.459,42.703C40.459,42.704 40.459,42.704 40.458,42.705C40.277,42.904 40.249,43.199 40.39,43.428C40.423,43.482 40.456,43.536 40.489,43.59C40.529,43.654 40.523,43.735 40.477,43.794C40.43,43.852 40.352,43.875 40.281,43.85C40.263,43.844 40.244,43.838 40.225,43.831C39.858,43.705 39.45,43.809 39.188,44.096C39.175,44.111 39.161,44.126 39.148,44.14C39.095,44.198 39.011,44.215 38.94,44.182C38.869,44.148 38.827,44.073 38.838,43.995C38.838,43.994 38.838,43.994 38.838,43.993C38.887,43.639 38.679,43.3 38.341,43.184C38.34,43.183 38.339,43.183 38.339,43.183C38.264,43.157 38.215,43.087 38.218,43.008C38.22,42.93 38.273,42.862 38.349,42.841C38.368,42.836 38.387,42.83 38.406,42.825C38.781,42.721 39.057,42.404 39.11,42.019C39.113,41.999 39.116,41.98 39.118,41.96C39.129,41.886 39.184,41.827 39.257,41.811C39.331,41.796 39.405,41.828 39.445,41.892C39.478,41.946 39.511,42 39.544,42.054C39.685,42.283 39.961,42.391 40.221,42.319C40.222,42.319 40.222,42.319 40.223,42.318Z" style="fill:#464e9c;"/>
        <path d="M37.122,43.306C37.122,43.306 37.327,42.772 37.835,42.245C38.076,41.996 38.388,41.749 38.823,41.591C39.201,41.383 39.568,41.301 39.898,41.277C40.588,41.226 41.097,41.39 41.097,41.39C41.177,41.435 41.278,41.407 41.323,41.328C41.368,41.248 41.341,41.147 41.261,41.102C41.261,41.102 40.745,40.688 39.93,40.555C39.493,40.484 38.985,40.533 38.438,40.719C38.229,40.818 38.037,40.924 37.875,41.052C37.597,41.274 37.384,41.522 37.232,41.779C36.782,42.539 36.794,43.259 36.794,43.259C36.781,43.349 36.844,43.433 36.934,43.446C37.025,43.459 37.109,43.396 37.122,43.306Z" style="fill:#fff;fill-opacity:0.33;"/>
    </g>
    <ellipse cx="22.103" cy="55.963" rx="14.265" ry="3.801" style="fill:#e6e6f0;"/>
    <ellipse cx="21.842" cy="55.87" rx="11.292" ry="3.009" style="fill:#c8c8d6;"/>
    <g>
        <ellipse cx="45.497" cy="48.95" rx="3.594" ry="0.958" style="fill:#bebed7;"/>
        <circle cx="44.923" cy="46.033" r="3.36" style="fill:#676fc1;"/>
        <clipPath id="_clip8">
            <circle cx="44.923" cy="46.033" r="3.36"/>
        </clipPath>
        <g clip-path="url(#_clip8)">
            <circle cx="43.849" cy="44.304" r="3.36" style="fill:#8d93d8;"/>
        </g>
        <path d="M46.459,45.194C46.529,45.115 46.642,45.092 46.737,45.138C46.831,45.183 46.884,45.285 46.867,45.389C46.867,45.389 46.867,45.39 46.867,45.39C46.822,45.656 46.959,45.919 47.202,46.035C47.258,46.062 47.316,46.09 47.373,46.117C47.441,46.15 47.481,46.221 47.473,46.295C47.466,46.369 47.412,46.431 47.34,46.449C47.321,46.454 47.301,46.458 47.282,46.463C46.905,46.556 46.619,46.865 46.555,47.248C46.551,47.268 46.548,47.288 46.545,47.307C46.532,47.385 46.47,47.445 46.392,47.455C46.315,47.466 46.239,47.424 46.206,47.353C46.206,47.353 46.205,47.352 46.205,47.352C46.054,47.028 45.695,46.856 45.348,46.942C45.347,46.942 45.346,46.942 45.346,46.942C45.27,46.961 45.19,46.928 45.15,46.861C45.109,46.794 45.117,46.708 45.169,46.65C45.182,46.635 45.195,46.62 45.209,46.605C45.466,46.314 45.527,45.898 45.363,45.546C45.354,45.528 45.346,45.51 45.338,45.492C45.306,45.424 45.32,45.344 45.373,45.291C45.427,45.239 45.507,45.225 45.574,45.257C45.631,45.285 45.689,45.313 45.746,45.339C45.989,45.456 46.28,45.397 46.458,45.195C46.459,45.195 46.459,45.194 46.459,45.194Z" style="fill:#464e9c;"/>
        <path d="M42.471,45.855C42.471,45.855 42.676,45.321 43.184,44.795C43.425,44.545 43.737,44.298 44.172,44.14C44.55,43.932 44.918,43.85 45.247,43.826C45.937,43.775 46.447,43.939 46.447,43.939C46.526,43.985 46.627,43.957 46.673,43.877C46.718,43.798 46.69,43.696 46.61,43.651C46.61,43.651 46.094,43.237 45.279,43.104C44.842,43.033 44.334,43.082 43.787,43.268C43.578,43.367 43.386,43.473 43.224,43.601C42.946,43.823 42.733,44.071 42.581,44.328C42.131,45.089 42.143,45.808 42.143,45.808C42.13,45.898 42.193,45.982 42.284,45.995C42.374,46.008 42.458,45.946 42.471,45.855Z" style="fill:#fff;fill-opacity:0.33;"/>
    </g>
    <g>
        <ellipse cx="52.34" cy="55.783" rx="3.594" ry="0.958" style="fill:#e6e6f0;"/>
        <circle cx="51.765" cy="52.865" r="3.36" style="fill:#676fc1;"/>
        <clipPath id="_clip9">
            <circle cx="51.765" cy="52.865" r="3.36"/>
        </clipPath>
        <g clip-path="url(#_clip9)">
            <circle cx="50.692" cy="51.136" r="3.36" style="fill:#8d93d8;"/>
        </g>
        <path d="M51.34,52.253C51.41,52.174 51.523,52.151 51.618,52.196C51.712,52.242 51.765,52.344 51.748,52.447C51.748,52.448 51.748,52.449 51.748,52.449C51.703,52.715 51.84,52.978 52.083,53.094C52.139,53.121 52.197,53.149 52.254,53.176C52.322,53.208 52.362,53.28 52.354,53.354C52.346,53.428 52.293,53.49 52.22,53.508C52.201,53.512 52.182,53.517 52.163,53.522C51.786,53.615 51.5,53.924 51.436,54.307C51.432,54.327 51.429,54.346 51.426,54.366C51.413,54.444 51.351,54.503 51.273,54.514C51.196,54.524 51.12,54.483 51.087,54.412C51.087,54.412 51.086,54.411 51.086,54.41C50.935,54.086 50.576,53.915 50.229,54C50.228,54.001 50.227,54.001 50.227,54.001C50.15,54.02 50.071,53.987 50.03,53.92C49.99,53.853 49.998,53.767 50.05,53.708C50.063,53.694 50.076,53.679 50.089,53.664C50.347,53.373 50.408,52.957 50.243,52.604C50.235,52.587 50.227,52.569 50.218,52.551C50.187,52.483 50.201,52.403 50.254,52.35C50.307,52.298 50.388,52.284 50.455,52.316C50.512,52.344 50.57,52.371 50.627,52.398C50.87,52.514 51.16,52.456 51.339,52.254C51.34,52.254 51.34,52.253 51.34,52.253Z" style="fill:#464e9c;"/>
        <path d="M49.314,52.687C49.314,52.687 49.519,52.153 50.027,51.627C50.268,51.377 50.58,51.13 51.015,50.972C51.392,50.764 51.76,50.682 52.09,50.658C52.779,50.608 53.289,50.772 53.289,50.772C53.369,50.817 53.47,50.789 53.515,50.709C53.56,50.63 53.532,50.529 53.453,50.483C53.453,50.483 52.937,50.069 52.122,49.936C51.684,49.865 51.177,49.914 50.63,50.101C50.42,50.199 50.229,50.305 50.067,50.434C49.789,50.655 49.575,50.903 49.423,51.16C48.974,51.921 48.986,52.64 48.986,52.64C48.973,52.73 49.036,52.815 49.126,52.828C49.217,52.841 49.301,52.778 49.314,52.687Z" style="fill:#fff;fill-opacity:0.33;"/>
    </g>
    <g>
        <ellipse cx="34.256" cy="49.12" rx="3.594" ry="0.958" style="fill:#e6e6f0;"/>
        <circle cx="33.682" cy="46.202" r="3.36" style="fill:#676fc1;"/>
        <clipPath id="_clip10">
            <circle cx="33.682" cy="46.202" r="3.36"/>
        </clipPath>
        <g clip-path="url(#_clip10)">
            <circle cx="32.608" cy="44.473" r="3.36" style="fill:#8d93d8;"/>
        </g>
        <path d="M34.462,43.941C34.563,43.913 34.67,43.955 34.725,44.044C34.78,44.134 34.769,44.249 34.699,44.326C34.698,44.326 34.698,44.327 34.698,44.327C34.516,44.526 34.488,44.822 34.629,45.051C34.662,45.104 34.696,45.159 34.729,45.213C34.768,45.277 34.763,45.358 34.716,45.416C34.669,45.475 34.591,45.497 34.52,45.473C34.502,45.467 34.483,45.46 34.465,45.454C34.097,45.328 33.69,45.432 33.428,45.719C33.414,45.733 33.401,45.748 33.387,45.763C33.334,45.821 33.25,45.838 33.179,45.804C33.108,45.771 33.067,45.696 33.078,45.618C33.078,45.617 33.078,45.617 33.078,45.616C33.127,45.262 32.918,44.923 32.58,44.806C32.579,44.806 32.579,44.806 32.578,44.806C32.504,44.78 32.455,44.709 32.457,44.631C32.459,44.553 32.512,44.485 32.588,44.464C32.607,44.459 32.627,44.453 32.646,44.448C33.02,44.343 33.297,44.027 33.35,43.642C33.352,43.622 33.355,43.603 33.358,43.583C33.368,43.509 33.424,43.449 33.497,43.434C33.57,43.419 33.645,43.451 33.684,43.515C33.717,43.568 33.751,43.623 33.784,43.676C33.925,43.906 34.201,44.014 34.46,43.942C34.461,43.942 34.461,43.941 34.462,43.941Z" style="fill:#464e9c;"/>
        <path d="M31.23,46.025C31.23,46.025 31.435,45.491 31.943,44.964C32.184,44.714 32.496,44.467 32.931,44.309C33.309,44.101 33.677,44.019 34.006,43.995C34.696,43.945 35.206,44.109 35.206,44.109C35.285,44.154 35.386,44.126 35.432,44.047C35.477,43.967 35.449,43.866 35.369,43.821C35.369,43.821 34.853,43.406 34.038,43.274C33.601,43.202 33.093,43.251 32.546,43.438C32.337,43.537 32.145,43.642 31.983,43.771C31.705,43.992 31.492,44.241 31.34,44.498C30.89,45.258 30.902,45.977 30.902,45.977C30.889,46.068 30.952,46.152 31.043,46.165C31.133,46.178 31.217,46.115 31.23,46.025Z" style="fill:#fff;fill-opacity:0.33;"/>
    </g>
    <g>
        <ellipse cx="38.619" cy="49.894" rx="3.263" ry="0.818" style="fill:#e6e6f0;"/>
        <ellipse cx="38.098" cy="47.4" rx="3.051" ry="2.871" style="fill:#676fc1;"/>
        <clipPath id="_clip11">
            <ellipse cx="38.098" cy="47.4" rx="3.051" ry="2.871"/>
        </clipPath>
        <g clip-path="url(#_clip11)">
            <ellipse cx="37.122" cy="45.923" rx="3.051" ry="2.871" style="fill:#8d93d8;"/>
            <path d="M36.179,46.415C36.262,46.393 36.35,46.429 36.394,46.504C36.437,46.578 36.426,46.672 36.366,46.734C36.36,46.74 36.354,46.746 36.348,46.752C36.182,46.923 36.157,47.187 36.287,47.386C36.32,47.436 36.353,47.488 36.386,47.537C36.419,47.588 36.416,47.654 36.38,47.701C36.343,47.749 36.281,47.769 36.223,47.75C36.205,47.744 36.186,47.738 36.167,47.732C35.809,47.616 35.415,47.714 35.152,47.985C35.152,47.985 35.152,47.985 35.152,47.986C35.102,48.036 35.026,48.05 34.963,48.018C34.899,47.987 34.863,47.919 34.873,47.849C34.877,47.822 34.881,47.795 34.885,47.768C34.921,47.52 34.773,47.282 34.535,47.204C34.528,47.202 34.522,47.2 34.515,47.198C34.438,47.173 34.387,47.101 34.389,47.02C34.392,46.939 34.447,46.869 34.525,46.849C34.526,46.849 34.526,46.849 34.527,46.848C34.838,46.767 35.07,46.507 35.116,46.19C35.119,46.173 35.121,46.157 35.123,46.14C35.133,46.071 35.185,46.016 35.253,46.001C35.32,45.986 35.39,46.015 35.428,46.073C35.444,46.097 35.46,46.122 35.476,46.146C35.627,46.377 35.909,46.486 36.176,46.416C36.177,46.415 36.178,46.415 36.179,46.415Z" style="fill:#464e9c;"/>
        </g>
        <path d="M35.867,47.251C35.867,47.251 36.047,46.791 36.512,46.344C36.73,46.135 37.012,45.931 37.403,45.8C37.751,45.62 38.09,45.549 38.392,45.527C39.023,45.481 39.486,45.618 39.486,45.618C39.558,45.656 39.646,45.629 39.684,45.558C39.722,45.487 39.695,45.398 39.624,45.36C39.624,45.36 39.156,45.002 38.419,44.886C38.026,44.824 37.569,44.865 37.079,45.022C36.584,45.27 36.222,45.578 35.999,45.917C35.566,46.573 35.578,47.206 35.578,47.206C35.566,47.286 35.621,47.361 35.7,47.373C35.78,47.385 35.855,47.33 35.867,47.251Z" style="fill:#fff;fill-opacity:0.33;"/>
    </g>
    <g>
        <ellipse cx="42.619" cy="52.829" rx="3.594" ry="0.958" style="fill:#e6e6f0;"/>
        <circle cx="42.045" cy="49.911" r="3.36" style="fill:#676fc1;"/>
        <clipPath id="_clip12">
            <circle cx="42.045" cy="49.911" r="3.36"/>
        </clipPath>
        <g clip-path="url(#_clip12)">
            <circle cx="40.971" cy="48.182" r="3.36" style="fill:#8d93d8;"/>
        </g>
        <path d="M42.704,49.384C42.806,49.36 42.912,49.406 42.963,49.497C43.015,49.588 43,49.703 42.926,49.778C42.926,49.778 42.925,49.779 42.925,49.779C42.736,49.971 42.697,50.265 42.83,50.5C42.861,50.554 42.892,50.61 42.923,50.665C42.96,50.73 42.952,50.811 42.903,50.868C42.854,50.924 42.775,50.944 42.706,50.917C42.687,50.91 42.669,50.903 42.65,50.896C42.288,50.756 41.877,50.845 41.604,51.122C41.59,51.136 41.576,51.151 41.562,51.165C41.507,51.221 41.422,51.235 41.353,51.199C41.283,51.163 41.245,51.086 41.258,51.009C41.258,51.008 41.258,51.007 41.259,51.006C41.32,50.654 41.125,50.308 40.791,50.179C40.79,50.179 40.79,50.179 40.789,50.178C40.716,50.15 40.67,50.078 40.675,49.999C40.68,49.921 40.736,49.856 40.812,49.837C40.831,49.833 40.851,49.828 40.87,49.823C41.248,49.733 41.536,49.427 41.603,49.044C41.607,49.024 41.61,49.005 41.614,48.986C41.627,48.912 41.684,48.854 41.758,48.842C41.832,48.829 41.905,48.864 41.942,48.929C41.973,48.984 42.005,49.04 42.036,49.095C42.168,49.329 42.44,49.447 42.702,49.385C42.703,49.385 42.703,49.384 42.704,49.384Z" style="fill:#464e9c;"/>
        <path d="M39.593,49.734C39.593,49.734 39.798,49.2 40.306,48.673C40.547,48.424 40.859,48.177 41.294,48.019C41.672,47.811 42.039,47.729 42.369,47.705C43.059,47.654 43.568,47.818 43.568,47.818C43.648,47.863 43.749,47.835 43.794,47.756C43.839,47.676 43.812,47.575 43.732,47.53C43.732,47.53 43.216,47.116 42.401,46.983C41.964,46.912 41.456,46.96 40.909,47.147C40.7,47.246 40.508,47.352 40.346,47.48C40.068,47.702 39.855,47.95 39.703,48.207C39.253,48.967 39.265,49.687 39.265,49.687C39.252,49.777 39.315,49.861 39.405,49.874C39.496,49.887 39.58,49.824 39.593,49.734Z" style="fill:#fff;fill-opacity:0.33;"/>
    </g>
    <g>
        <ellipse cx="37.423" cy="55.173" rx="3.594" ry="0.958" style="fill:#e6e6f0;"/>
        <circle cx="36.849" cy="52.255" r="3.36" style="fill:#676fc1;"/>
        <clipPath id="_clip13">
            <circle cx="36.849" cy="52.255" r="3.36"/>
        </clipPath>
        <g clip-path="url(#_clip13)">
            <circle cx="35.775" cy="50.526" r="3.36" style="fill:#8d93d8;"/>
        </g>
        <path d="M37.629,49.994C37.73,49.966 37.837,50.008 37.892,50.097C37.947,50.187 37.936,50.302 37.866,50.379C37.865,50.379 37.865,50.38 37.864,50.38C37.683,50.579 37.655,50.875 37.796,51.104C37.829,51.157 37.863,51.212 37.896,51.266C37.935,51.33 37.93,51.411 37.883,51.469C37.836,51.528 37.758,51.55 37.687,51.526C37.669,51.52 37.65,51.513 37.631,51.507C37.264,51.381 36.857,51.485 36.595,51.772C36.581,51.786 36.567,51.801 36.554,51.816C36.501,51.874 36.417,51.891 36.346,51.857C36.275,51.824 36.234,51.748 36.244,51.671C36.245,51.67 36.245,51.669 36.245,51.669C36.294,51.315 36.085,50.975 35.747,50.859C35.746,50.859 35.746,50.859 35.745,50.859C35.671,50.833 35.622,50.762 35.624,50.684C35.626,50.606 35.679,50.538 35.755,50.517C35.774,50.512 35.793,50.506 35.813,50.501C36.187,50.396 36.464,50.08 36.517,49.695C36.519,49.675 36.522,49.655 36.525,49.636C36.535,49.562 36.591,49.502 36.664,49.487C36.737,49.472 36.812,49.504 36.851,49.567C36.884,49.621 36.918,49.676 36.95,49.729C37.092,49.959 37.368,50.067 37.627,49.995C37.628,49.994 37.628,49.994 37.629,49.994Z" style="fill:#464e9c;"/>
        <path d="M34.397,52.077C34.397,52.077 34.602,51.543 35.11,51.017C35.351,50.767 35.663,50.52 36.098,50.362C36.476,50.154 36.843,50.072 37.173,50.048C37.863,49.998 38.373,50.162 38.373,50.162C38.452,50.207 38.553,50.179 38.598,50.099C38.644,50.02 38.616,49.919 38.536,49.874C38.536,49.874 38.02,49.459 37.205,49.326C36.768,49.255 36.26,49.304 35.713,49.491C35.504,49.59 35.312,49.695 35.15,49.824C34.872,50.045 34.659,50.293 34.507,50.551C34.057,51.311 34.069,52.03 34.069,52.03C34.056,52.121 34.119,52.205 34.209,52.218C34.3,52.231 34.384,52.168 34.397,52.077Z" style="fill:#fff;fill-opacity:0.33;"/>
    </g>
    <g>
        <ellipse cx="45.882" cy="55.197" rx="3.594" ry="0.958" style="fill:#e6e6f0;"/>
        <circle cx="45.307" cy="52.279" r="3.36" style="fill:#676fc1;"/>
        <clipPath id="_clip14">
            <circle cx="45.307" cy="52.279" r="3.36"/>
        </clipPath>
        <g clip-path="url(#_clip14)">
            <circle cx="44.233" cy="50.55" r="3.36" style="fill:#8d93d8;"/>
        </g>
        <path d="M46.087,50.018C46.188,49.99 46.296,50.032 46.351,50.122C46.406,50.211 46.395,50.326 46.324,50.403C46.324,50.404 46.323,50.404 46.323,50.405C46.141,50.604 46.113,50.899 46.254,51.128C46.287,51.181 46.321,51.236 46.354,51.29C46.393,51.354 46.388,51.435 46.341,51.494C46.295,51.552 46.216,51.575 46.146,51.55C46.127,51.544 46.108,51.537 46.09,51.531C45.722,51.405 45.315,51.509 45.053,51.796C45.039,51.811 45.026,51.825 45.012,51.84C44.959,51.898 44.875,51.915 44.804,51.882C44.733,51.848 44.692,51.773 44.703,51.695C44.703,51.694 44.703,51.694 44.703,51.693C44.752,51.339 44.543,51 44.205,50.884C44.204,50.883 44.204,50.883 44.203,50.883C44.129,50.857 44.08,50.787 44.082,50.708C44.085,50.63 44.138,50.562 44.213,50.541C44.232,50.536 44.252,50.53 44.271,50.525C44.645,50.421 44.922,50.104 44.975,49.719C44.978,49.699 44.98,49.68 44.983,49.66C44.993,49.586 45.049,49.527 45.122,49.511C45.195,49.496 45.27,49.528 45.309,49.592C45.342,49.646 45.376,49.7 45.409,49.754C45.55,49.983 45.826,50.091 46.085,50.019C46.086,50.019 46.087,50.019 46.087,50.018Z" style="fill:#464e9c;"/>
        <path d="M42.855,52.102C42.855,52.102 43.061,51.568 43.569,51.041C43.81,50.791 44.121,50.544 44.556,50.386C44.934,50.178 45.302,50.096 45.632,50.072C46.321,50.022 46.831,50.186 46.831,50.186C46.91,50.231 47.012,50.203 47.057,50.124C47.102,50.044 47.074,49.943 46.994,49.898C46.994,49.898 46.479,49.484 45.664,49.351C45.226,49.279 44.718,49.328 44.171,49.515C43.962,49.614 43.77,49.719 43.609,49.848C43.331,50.069 43.117,50.318 42.965,50.575C42.516,51.335 42.527,52.054 42.527,52.054C42.514,52.145 42.577,52.229 42.668,52.242C42.758,52.255 42.842,52.192 42.855,52.102Z" style="fill:#fff;fill-opacity:0.33;"/>
    </g>
    <g>
        <ellipse cx="41.627" cy="57.365" rx="3.594" ry="0.958" style="fill:#e6e6f0;"/>
        <circle cx="41.053" cy="54.448" r="3.36" style="fill:#676fc1;"/>
        <clipPath id="_clip15">
            <circle cx="41.053" cy="54.448" r="3.36"/>
        </clipPath>
        <g clip-path="url(#_clip15)">
            <circle cx="39.979" cy="52.719" r="3.36" style="fill:#8d93d8;"/>
        </g>
        <path d="M40.352,52.248C40.422,52.169 40.535,52.146 40.63,52.191C40.724,52.237 40.777,52.339 40.76,52.442C40.76,52.443 40.76,52.444 40.76,52.444C40.715,52.71 40.852,52.973 41.095,53.089C41.151,53.116 41.209,53.144 41.266,53.171C41.334,53.203 41.374,53.275 41.366,53.349C41.359,53.423 41.305,53.485 41.233,53.503C41.213,53.507 41.194,53.512 41.175,53.517C40.798,53.61 40.512,53.919 40.448,54.302C40.444,54.322 40.441,54.341 40.438,54.361C40.425,54.438 40.363,54.498 40.285,54.509C40.208,54.519 40.132,54.478 40.099,54.407C40.099,54.407 40.098,54.406 40.098,54.405C39.947,54.081 39.588,53.91 39.241,53.995C39.24,53.996 39.239,53.996 39.239,53.996C39.163,54.015 39.083,53.982 39.042,53.915C39.002,53.848 39.01,53.762 39.062,53.703C39.075,53.689 39.088,53.674 39.102,53.659C39.359,53.368 39.42,52.952 39.256,52.599C39.247,52.582 39.239,52.564 39.231,52.546C39.199,52.478 39.213,52.398 39.266,52.345C39.319,52.293 39.4,52.279 39.467,52.311C39.524,52.339 39.582,52.366 39.639,52.393C39.882,52.509 40.172,52.451 40.351,52.249C40.352,52.249 40.352,52.248 40.352,52.248Z" style="fill:#464e9c;"/>
        <path d="M38.601,54.27C38.601,54.27 38.806,53.736 39.314,53.21C39.555,52.96 39.867,52.713 40.302,52.555C40.68,52.347 41.048,52.265 41.377,52.241C42.067,52.19 42.577,52.354 42.577,52.354C42.656,52.4 42.757,52.372 42.803,52.292C42.848,52.213 42.82,52.111 42.74,52.066C42.74,52.066 42.224,51.652 41.409,51.519C40.972,51.448 40.464,51.497 39.917,51.683C39.708,51.782 39.516,51.888 39.354,52.017C39.076,52.238 38.863,52.486 38.711,52.743C38.261,53.504 38.273,54.223 38.273,54.223C38.26,54.313 38.323,54.397 38.414,54.411C38.504,54.424 38.588,54.361 38.601,54.27Z" style="fill:#fff;fill-opacity:0.33;"/>
    </g>
    <g>
        <path d="M20.686,59.526C16.265,59.526 6.791,57.44 6.677,45.713C6.545,32.156 19.273,33.096 20.256,35.105C20.256,35.105 22.843,33.593 26.237,34.353C30.374,35.281 33.85,38.784 33.201,45.925C32.433,54.377 27.635,59.526 20.686,59.526Z" style="fill:#f1765a;"/>
        <clipPath id="_clip16">
            <path d="M20.686,59.526C16.265,59.526 6.791,57.44 6.677,45.713C6.545,32.156 19.273,33.096 20.256,35.105C20.256,35.105 22.843,33.593 26.237,34.353C30.374,35.281 33.85,38.784 33.201,45.925C32.433,54.377 27.635,59.526 20.686,59.526Z"/>
        </clipPath>
        <g clip-path="url(#_clip16)">
            <path d="M-2.327,43.782C-2.327,43.782 10.388,59.798 23.819,53.918C29.7,51.344 34.48,42.014 30.784,32.436C30.784,32.436 48.678,51.244 29.965,63.269C11.251,75.295 -2.323,43.112 -2.327,43.782Z" style="fill:#a46048;fill-opacity:0.65;"/>
        </g>
        <path d="M14.783,36.898C14.941,37.02 15.431,37.085 15.806,37.2C16.848,37.522 18.25,37.955 20.383,38.216L22.185,38.382C22.51,38.334 22.812,38.559 22.86,38.883C22.907,39.208 22.683,39.51 22.358,39.558L20.457,40.121C17.966,40.623 16.242,40.791 14.991,40.641C13.439,40.453 12.513,39.84 12.078,39.249C11.385,38.307 11.16,37.353 11.627,36.553C11.851,36.171 11.994,35.814 12.354,35.571C13.095,35.07 13.683,34.868 13.683,34.868C13.927,34.649 14.303,34.669 14.522,34.913C14.741,35.157 14.722,35.533 14.478,35.752C14.478,35.752 14.462,36.226 14.417,36.879C14.408,37.012 14.499,37.213 14.629,37.185C14.697,37.17 14.755,37.023 14.783,36.898C14.73,36.857 14.715,36.811 14.752,36.754C14.808,36.667 14.812,36.771 14.783,36.898Z" style="fill:#fff;fill-opacity:0.4;"/>
        <path d="M13.172,36.616C13.172,36.616 13.1,36.726 13.057,36.924C13.012,37.133 13.02,37.418 13.17,37.744C13.297,38.02 13.545,38.317 13.977,38.569C14.315,38.766 14.784,38.917 15.397,39.018C16.202,39.15 17.269,39.171 18.696,39.048C18.757,39.047 18.806,38.996 18.805,38.935C18.804,38.873 18.753,38.825 18.692,38.826C16.858,38.741 15.673,38.464 14.887,38.154C14.677,38.071 14.5,37.985 14.345,37.903C14.153,37.801 13.999,37.704 13.876,37.604C13.328,37.159 13.386,36.672 13.386,36.672C13.407,36.615 13.378,36.55 13.321,36.529C13.263,36.507 13.199,36.536 13.177,36.594L13.172,36.616Z" style="fill:#fff;fill-opacity:0.58;"/>
        <path d="M16.599,36.216C16.96,35.83 16.611,35.542 15.855,34.78C15.422,34.343 19.701,34.532 20.243,35.587C20.271,35.641 20.296,35.692 20.317,35.739C21.153,35.867 21.724,36.123 21.724,36.419C21.724,36.841 20.555,37.184 19.115,37.184C17.675,37.184 16.506,36.841 16.506,36.419C16.506,36.348 16.538,36.28 16.599,36.216Z" style="fill:#a46048;fill-opacity:0.63;"/>
        <path d="M18.857,35.919C18.857,35.919 20.25,32.86 19.992,31.967C19.733,31.073 22.32,32.624 22.32,32.624C22.32,32.624 20.387,35.274 19.862,36.163C19.862,36.163 19.211,37.092 18.857,35.919Z" style="fill:#6d4a3f;"/>
    </g>
</svg>
