<svg xmlns="http://www.w3.org/2000/svg" width="16" height="16" viewBox="0 0 16 16">
  <path fill="#818181" d="M14.7498225,9.58122222 C14.4659345,9.29655556 13.8421586,9.14566667 12.8963838,9.13244444 L12.7851619,9.13166667 C12.1746082,9.13166667 11.4536104,9.18922222 10.6945017,9.29733333 C10.3382805,9.08811111 9.97117055,8.85788889 9.68417144,8.58411111 C8.90795161,7.84366667 8.25928694,6.81777778 7.85251041,5.68844444 L7.91939909,5.40533333 C8.03839873,4.85622222 8.12162069,3.12955556 8.1247318,3.05644444 L8.11773182,2.98955556 C8.15039838,2.86511111 8.28339797,2.32066667 8.24528698,1.95511111 C8.21339819,1.65644444 7.95751009,1.00233333 7.36406747,1.00233333 L7.1704014,1 C6.74573604,1 6.39807045,1.22711111 6.3047374,1.567 C6.03484934,2.58355556 6.31018183,4.09477778 6.8102914,6.04933333 L6.68818066,6.35266667 C6.32884844,7.24555556 5.87851649,8.14777778 5.4802955,8.94266667 L5.4328512,9.03755556 C4.96618597,9.97088889 4.54774281,10.7455556 4.17363285,11.3872222 C4.1152997,11.3296667 4.02818886,11.3156667 3.9543002,11.3537778 C3.9543002,11.3537778 3.31885771,11.6975556 3.17730259,11.7862222 C1.95930634,12.5274444 1.15197549,13.3736667 1.01742035,14.0495556 C0.959864974,14.3365556 1.04697582,14.5947778 1.24841964,14.7106667 L1.58364083,14.8825556 C1.73608481,14.9611111 1.89630653,15 2.06119492,15 C2.93152557,15 3.93641136,13.9041111 5.31618489,11.4478889 C6.89584669,10.9236667 8.69561893,10.4865556 10.2776141,10.2438889 C11.4886103,10.9392222 12.9764946,11.4206667 13.9144917,11.4206667 C14.0840468,11.4206667 14.2302685,11.4051111 14.3484904,11.3724444 C14.5110455,11.3281111 14.6883782,11.2044444 14.7972668,11.052 C14.8618222,10.9477778 14.9240442,10.6887778 14.9551552,10.5441111 L14.9590441,10.4756667 C14.9652663,10.4461111 15.0049328,10.2664444 14.9994884,10.1521111 C14.9769329,9.91411111 14.8944887,9.72744444 14.7498225,9.58277778 L14.7498225,9.58122222 Z M4,12 C3.08282476,13.2413279 2.44202267,13.7926147 2,14 C2.22580645,13.5695636 2.90235397,12.7952257 3.84655623,12.1193584 L4,12.000746 L4,12 Z M13.557834,10.294262 C13.9416854,10.489262 13.9910285,10.639262 14,10.629262 L13.9974367,10.661262 L13.8974688,10.817262 C13.8711951,10.836262 13.8071131,10.869262 13.6751041,10.869262 C13.2944569,10.869262 12.6645306,10.600262 12,10.165262 C12.7106697,10.091262 13.2521628,10.137262 13.557834,10.293262 L13.557834,10.294262 Z M7.816,2.56838106 L7.826,2.63237873 L7.436,4 C7.267,3.30040912 7.174,2.6244886 7.174,2.06954997 C7.174,1.88106371 7.191,1.47516072 7.26,1.13851549 L7.294,1 C7.374,1.07977791 7.497,1.23845704 7.656,1.55230859 C7.818,1.8722969 7.817,2.264173 7.816,2.56838106 Z M6.4696293,9.0720339 C6.88767307,8.22245763 7.15564984,7.5529661 7.35596248,7 C7.75591782,7.77048023 8.25100491,8.42655367 8.83050469,8.95480226 L9,9.10240113 C7.86310853,9.34887006 6.87427423,9.64477401 6,10 C6.15140688,9.70621469 6.30951318,9.39759887 6.4696293,9.0720339 L6.4696293,9.0720339 Z"/>
</svg>
