<svg width="24" height="24" viewBox="0 0 24 24" fill="none" xmlns="http://www.w3.org/2000/svg">
<g clip-path="url(#clip0)">
<path fill-rule="evenodd" clip-rule="evenodd" d="M13.8456 6.57356L9.05904 14.864C8.07531 16.5679 8.6591 18.7467 10.363 19.7304C12.0669 20.7141 14.2456 20.1303 15.2293 18.4265L20.0158 10.136C20.9996 8.43209 20.4158 6.25335 18.7119 5.26962C17.008 4.28589 14.8293 4.86968 13.8456 6.57356ZM6.84748 13.5872C5.15856 16.5125 6.16084 20.253 9.08613 21.942C12.0114 23.6309 15.752 22.6286 17.4409 19.7033L22.2274 11.4128C23.9163 8.48753 22.914 4.74698 19.9888 3.05806C17.0635 1.36914 13.3229 2.37142 11.634 5.29671L6.84748 13.5872Z" fill="#FF3355"/>
<path fill-rule="evenodd" clip-rule="evenodd" d="M10.4399 6.57356L15.2264 14.864C16.2102 16.5679 15.6264 18.7467 13.9225 19.7304C12.2186 20.7141 10.0399 20.1303 9.05614 18.4265L4.26962 10.136C3.28589 8.43209 3.86968 6.25335 5.57355 5.26962C7.27743 4.28589 9.45617 4.86968 10.4399 6.57356ZM17.438 13.5872C19.1269 16.5125 18.1246 20.253 15.1993 21.942C12.274 23.6309 8.53349 22.6286 6.84457 19.7033L2.05806 11.4128C0.369142 8.48753 1.37142 4.74698 4.29671 3.05806C7.222 1.36914 10.9625 2.37142 12.6515 5.29671L17.438 13.5872Z" fill="#FF3355"/>
</g>
<defs>
<clipPath id="clip0">
<rect width="24" height="24" fill="white"/>
</clipPath>
</defs>
</svg>
