<svg width="24" height="24" viewBox="0 0 24 24" fill="none" xmlns="http://www.w3.org/2000/svg">
<path d="M21 24H3V0H15L21 6V24Z" fill="#E67B1A"/>
<path d="M21 6H15V0L21 6Z" fill="#FEE8B3"/>
<path fill-rule="evenodd" clip-rule="evenodd" d="M11.5999 12.949C11.8197 13.448 12.0718 13.901 12.3562 14.3081C12.6406 14.7152 12.9508 15.0632 13.2869 15.3521L13.7329 15.7067C13.2546 15.7986 12.6955 15.9266 12.0556 16.0908C11.4157 16.2549 10.7467 16.4749 10.0486 16.7506L9.93229 16.79L10.4752 15.6279C10.7209 15.142 10.9374 14.6758 11.1248 14.2293C11.3123 13.7828 11.4706 13.3561 11.5999 12.949ZM18.7358 17.2037C18.8392 17.1117 18.9168 17.0034 18.9685 16.8787C19.0202 16.7539 19.046 16.6193 19.046 16.4749C19.0719 16.3567 19.0719 16.2451 19.046 16.14C19.0202 16.0349 18.9749 15.943 18.9103 15.8642C18.7552 15.6016 18.4708 15.4046 18.0571 15.2733C17.6434 15.142 17.094 15.0763 16.4089 15.0763L14.9739 15.1551L14.0238 14.5051C13.6747 14.2162 13.3483 13.8255 13.0445 13.3331C12.7407 12.8406 12.479 12.2793 12.2592 11.6489L12.298 11.4914C12.479 10.7428 12.6115 9.97464 12.6955 9.18673C12.7795 8.39882 12.6406 7.82103 12.2786 7.45334C12.1881 7.36142 12.0847 7.29247 11.9683 7.24651C11.852 7.20055 11.7292 7.17757 11.5999 7.17757H11.3478C11.141 7.17757 10.9535 7.26949 10.7855 7.45334C10.6174 7.63718 10.514 7.83416 10.4752 8.04427C10.2684 8.79278 10.2038 9.41982 10.2813 9.92539C10.3589 10.431 10.5011 11.0252 10.7079 11.708V11.7277C10.5787 12.2136 10.4171 12.7356 10.2232 13.2937C10.0292 13.8518 9.79656 14.4197 9.52508 14.9975L8.45858 17.0264L7.46964 17.5779C6.81035 17.9981 6.31588 18.4249 5.98624 18.8583C5.65659 19.2916 5.46591 19.6527 5.4142 19.9416C5.38835 20.0467 5.37865 20.1485 5.38512 20.247C5.39158 20.3454 5.4142 20.4472 5.45299 20.5523L5.49177 20.6114L6.01532 20.9462L6.5001 21.0841C6.95255 21.0841 7.44055 20.8083 7.96411 20.2568C8.48767 19.7053 9.09201 18.832 9.77716 17.637L9.99047 17.5582C10.5593 17.3744 11.2056 17.2168 11.9296 17.0855C12.6535 16.9542 13.4873 16.8294 14.431 16.7112C14.9998 17.0001 15.588 17.2135 16.1956 17.3514C16.8032 17.4893 17.3202 17.5582 17.7468 17.5582C17.9795 17.5582 18.1799 17.5287 18.348 17.4696C18.516 17.4105 18.6453 17.3219 18.7358 17.2037ZM18.2898 16.4158L18.3867 16.534C18.3867 16.5996 18.377 16.639 18.3577 16.6521C18.3383 16.6653 18.3156 16.6784 18.2898 16.6915H18.251L18.0377 16.7112C17.7792 16.7112 17.4657 16.6587 17.0972 16.5537C16.7288 16.4486 16.3442 16.3107 15.9435 16.14C15.9952 16.0875 16.0372 16.0546 16.0695 16.0415C16.1018 16.0284 16.1439 16.0218 16.1956 16.0218C16.9712 16.0218 17.5012 16.0743 17.7856 16.1794C18.07 16.2844 18.2381 16.3632 18.2898 16.4158ZM8.16772 18.0507C7.81868 18.7204 7.48257 19.2391 7.15939 19.6068C6.83621 19.9745 6.55181 20.2043 6.30619 20.2962C6.33204 20.0861 6.46455 19.807 6.7037 19.4591C6.94286 19.1111 7.25634 18.7598 7.64416 18.4052L8.16772 18.0507ZM11.503 10.3095C11.3737 9.81049 11.3058 9.36073 11.2994 8.96021C11.2929 8.55969 11.3349 8.24124 11.4254 8.00487L11.503 7.88669L11.6775 7.92608C11.768 8.07053 11.8197 8.23796 11.8326 8.42837C11.8455 8.61878 11.8261 8.865 11.7744 9.16703L11.7356 9.34431L11.5611 10.2701L11.503 10.3095Z" fill="white"/>
</svg>
