<svg xmlns="http://www.w3.org/2000/svg" width="96" height="107" viewBox="0 0 96 107">
  <g fill="none" fill-rule="evenodd">
    <polygon fill="#E6541D" fill-rule="nonzero" points="95.769 106.363 14 106.363 14 0 70.216 0 95.769 25.324"/>
    <polygon fill="#FFA684" fill-rule="nonzero" points="92.275 28.058 68 28.058 68 4"/>
    <rect width="55" height="28" y="16" fill="#BA3C0D" rx="4"/>
    <path fill="#FFF" fill-rule="nonzero" d="M14.7792969,36 L14.7792969,31.4912109 L17.0908203,31.4912109 C18.6083984,31.4912109 19.7963867,31.1293945 20.6547852,30.4057617 C21.5131836,29.6821289 21.9423828,28.6933594 21.9423828,27.4394531 C21.9423828,26.6132812 21.7460938,25.8764648 21.3535156,25.2290039 C20.9609375,24.581543 20.3999023,24.0820312 19.6704102,23.7304688 C18.940918,23.3789062 18.0957031,23.203125 17.1347656,23.203125 L17.1347656,23.203125 L12.1425781,23.203125 L12.1425781,36 L14.7792969,36 Z M17.1347656,29.3554688 L14.7792969,29.3554688 L14.7792969,25.3388672 L17.1962891,25.3388672 C17.8466797,25.3505859 18.3564453,25.5498047 18.7255859,25.9365234 C19.0947266,26.3232422 19.2792969,26.8300781 19.2792969,27.4570312 C19.2792969,28.0664062 19.0961914,28.5351562 18.7299805,28.8632812 C18.3637695,29.1914062 17.8320312,29.3554688 17.1347656,29.3554688 L17.1347656,29.3554688 Z M25.9576484,36 L25.9576484,31.4912109 L28.2691719,31.4912109 C29.78675,31.4912109 30.9747383,31.1293945 31.8331367,30.4057617 C32.6915351,29.6821289 33.1207344,28.6933594 33.1207344,27.4394531 C33.1207344,26.6132812 32.9244453,25.8764648 32.5318672,25.2290039 C32.1392891,24.581543 31.5782539,24.0820312 30.8487617,23.7304688 C30.1192695,23.3789062 29.2740547,23.203125 28.3131172,23.203125 L28.3131172,23.203125 L23.3209297,23.203125 L23.3209297,36 L25.9576484,36 Z M28.3131172,29.3554688 L25.9576484,29.3554688 L25.9576484,25.3388672 L28.3746406,25.3388672 C29.0250312,25.3505859 29.5347969,25.5498047 29.9039375,25.9365234 C30.2730781,26.3232422 30.4576484,26.8300781 30.4576484,27.4570312 C30.4576484,28.0664062 30.274543,28.5351562 29.908332,28.8632812 C29.5421211,29.1914062 29.0103828,29.3554688 28.3131172,29.3554688 L28.3131172,29.3554688 Z M40.2121719,36 L40.2121719,25.3388672 L44.1320937,25.3388672 L44.1320937,23.203125 L33.7082656,23.203125 L33.7082656,25.3388672 L37.5754531,25.3388672 L37.5754531,36 L40.2121719,36 Z"/>
    <path fill="#FFF" d="M73,69.9960938 L57.0039062,69.9960938 L57.0039062,54 C59.2070423,54 61.2812403,54.4160115 63.2265625,55.2480469 C65.1718847,56.0800823 66.8652272,57.222649 68.3066406,58.6757812 C69.7480541,60.1289135 70.8906208,61.822256 71.734375,63.7558594 C72.5781292,65.6894628 73,67.7695201 73,69.9960938 Z M68.9921875,74.0039062 C68.9921875,75.3867257 68.8222673,76.7226498 68.4824219,78.0117188 C68.1425764,79.3007877 67.6621125,80.5195255 67.0410156,81.6679688 C66.4199188,82.816412 65.6699263,83.8652296 64.7910156,84.8144531 C63.912105,85.7636766 62.9335991,86.6015589 61.8554688,87.328125 L54.15625,74.0039062 L68.9921875,74.0039062 Z M52.9960938,90 C51.5898367,90 50.2421939,89.8300798 48.953125,89.4902344 C47.6640561,89.1503889 46.4511776,88.6640657 45.3144531,88.03125 C44.1777287,87.3984343 43.1289111,86.6425825 42.1679688,85.7636719 C41.2070264,84.8847612 40.3632849,83.917974 39.6367188,82.8632812 L52.6445312,75.3398438 L60.0976562,88.3125 C59.0429635,88.8515652 57.9121154,89.2675767 56.7050781,89.5605469 C55.4980408,89.8535171 54.2617251,90 52.9960938,90 Z M37,74.0039062 C37,71.7773326 37.4160115,69.691416 38.2480469,67.7460938 C39.0800823,65.8007715 40.222649,64.1074291 41.6757812,62.6660156 C43.1289135,61.2246022 44.822256,60.0820355 46.7558594,59.2382812 C48.6894628,58.394527 50.7695201,57.9726562 52.9960938,57.9726562 L52.9960938,72.84375 L38.6523438,81.1054688 C38.1132786,80.050776 37.7031264,78.9199279 37.421875,77.7128906 C37.1406236,76.5058533 37,75.2695376 37,74.0039062 Z"/>
  </g>
</svg>
