<?xml version="1.0" encoding="UTF-8" standalone="no"?>
<!DOCTYPE svg PUBLIC "-//W3C//DTD SVG 1.1//EN" "http://www.w3.org/Graphics/SVG/1.1/DTD/svg11.dtd">
<svg width="100%" height="100%" viewBox="0 0 65 65" version="1.1" xmlns="http://www.w3.org/2000/svg" xmlns:xlink="http://www.w3.org/1999/xlink" xml:space="preserve" xmlns:serif="http://www.serif.com/" style="fill-rule:evenodd;clip-rule:evenodd;stroke-linejoin:round;stroke-miterlimit:2;">
    <rect id="No-Trans-Fat" x="0.738" y="0.458" width="64" height="64" style="fill:none;"/>
    <path d="M33.261,8.458C33.261,8.458 17.784,31.224 17.784,40.981C17.784,49.523 24.719,56.458 33.261,56.458C41.803,56.458 48.738,49.523 48.738,40.981C48.738,31.224 33.261,8.458 33.261,8.458Z" style="fill:#b5b6db;"/>
    <clipPath id="_clip1">
        <path d="M33.261,8.458C33.261,8.458 17.784,31.224 17.784,40.981C17.784,49.523 24.719,56.458 33.261,56.458C41.803,56.458 48.738,49.523 48.738,40.981C48.738,31.224 33.261,8.458 33.261,8.458Z"/>
    </clipPath>
    <g clip-path="url(#_clip1)">
        <path d="M34.56,4.652C34.56,4.652 20.597,25.189 20.597,33.991C20.597,41.697 26.854,47.954 34.56,47.954C42.266,47.954 48.522,41.697 48.522,33.991C48.522,25.189 34.56,4.652 34.56,4.652Z" style="fill:#cdceeb;"/>
        <path d="M36.957,25.384L36.884,25.209L36.886,25.213L36.727,24.837L36.729,24.842L36.571,24.469L36.573,24.474L36.414,24.105L36.417,24.11L36.381,24.029L36.264,23.743L36.267,23.748L36.116,23.384L36.119,23.389L35.969,23.032L35.972,23.037L35.823,22.685L35.825,22.69L35.809,22.651L35.682,22.341L35.685,22.347L35.542,22.004L35.545,22.01L35.404,21.674L35.407,21.68L35.267,21.351L35.27,21.357L35.244,21.297L35.135,21.034L35.139,21.04L35.006,20.725L35.009,20.731L34.878,20.424L34.882,20.431L34.751,20.132L34.755,20.139L34.626,19.85L34.63,19.858L34.503,19.578L34.507,19.586L34.381,19.317L34.385,19.323L34.323,19.192L34.325,19.196L34.263,19.068L34.266,19.073L34.204,18.947L34.207,18.952L34.157,18.851L34.146,18.829L34.149,18.834L34.09,18.713L34.094,18.718L34.035,18.6L34.038,18.605L33.98,18.49L33.984,18.495L33.926,18.383L33.93,18.388L33.873,18.279L33.876,18.285L33.82,18.179L33.824,18.184L33.768,18.082L33.772,18.087L33.716,17.988L33.721,17.994L33.666,17.898L33.671,17.904L33.616,17.811L33.621,17.818L33.567,17.728L33.573,17.735L33.52,17.649L33.526,17.656L33.473,17.573L33.479,17.581L33.427,17.502L33.434,17.51L33.383,17.434L33.39,17.443L33.339,17.37L33.348,17.379L33.297,17.311L33.307,17.32L33.257,17.256L33.267,17.266L33.218,17.205L33.229,17.215L33.216,17.199L33.181,17.158L33.152,16.272L34.038,16.243L34.081,16.275L34.098,16.287L34.11,16.298L34.172,16.346L34.182,16.356L34.245,16.407L34.254,16.417L34.319,16.472L34.328,16.481L34.394,16.539L34.402,16.547L34.47,16.609L34.477,16.617L34.546,16.682L34.552,16.69L34.623,16.758L34.629,16.765L34.701,16.836L34.707,16.843L34.78,16.918L34.785,16.924L34.86,17.002L34.865,17.008L34.941,17.089L34.946,17.095L35.023,17.178L35.028,17.184L35.106,17.271L35.11,17.277L35.19,17.366L35.194,17.371L35.275,17.464L35.279,17.469L35.361,17.564L35.365,17.569L35.448,17.667L35.451,17.672L35.536,17.773L35.539,17.778L35.625,17.881L35.628,17.886L35.643,17.905L35.713,17.993L35.716,17.997L35.802,18.107L35.805,18.111L35.892,18.224L35.895,18.228L35.983,18.343L35.987,18.349L36.166,18.586L36.171,18.594L36.354,18.841L36.358,18.848L36.544,19.104L36.548,19.111L36.738,19.376L36.742,19.382L36.934,19.655L36.938,19.662L37.134,19.943L37.137,19.95L37.298,20.184L37.334,20.239L37.337,20.245L37.532,20.544L37.536,20.55L37.733,20.857L37.736,20.862L37.935,21.175L37.938,21.181L38.116,21.464L38.138,21.5L38.141,21.506L38.337,21.834L38.34,21.839L38.538,22.172L38.541,22.178L38.74,22.516L38.742,22.521L38.898,22.788L38.941,22.866L38.943,22.87L39.136,23.222L39.138,23.227L39.332,23.583L39.334,23.587L39.528,23.947L39.53,23.951L39.62,24.118L39.72,24.316L39.722,24.32L39.908,24.69L39.91,24.694L39.951,24.774L40.091,25.068L40.093,25.072L40.256,25.414L40.272,25.45L40.274,25.454L40.444,25.837L40.446,25.841L40.557,26.094L40.612,26.226L40.614,26.23L40.774,26.619L40.776,26.623L40.87,26.852L40.932,27.014L40.934,27.017L41.084,27.41L41.085,27.414L41.234,27.807L41.235,27.81L41.383,28.202L41.384,28.206L41.507,28.537L41.529,28.598L41.53,28.601L41.667,28.994L41.668,28.997L41.804,29.388L41.805,29.391L41.938,29.78L41.939,29.783L42.071,30.169L42.072,30.172L42.128,30.338L42.198,30.557L42.199,30.56L42.321,30.941L42.323,30.944L42.442,31.322L42.444,31.325L42.561,31.698L42.562,31.701L42.677,32.07L42.678,32.073L42.692,32.12L42.786,32.438L42.787,32.441L42.892,32.801L42.893,32.804L42.996,33.158L42.997,33.161L43.096,33.508L43.097,33.511L43.193,33.852L43.194,33.855L43.287,34.189L43.288,34.192L43.377,34.519L43.378,34.522L43.465,34.84L43.466,34.843L43.529,35.082L43.547,35.154L43.549,35.157L43.625,35.459L43.626,35.463L43.698,35.756L43.699,35.759L43.768,36.043L43.769,36.047L43.82,36.265L43.833,36.321L43.453,37.126L42.652,36.738L42.627,36.687L42.529,36.484L42.531,36.488L42.403,36.225L42.404,36.228L42.27,35.957L42.271,35.96L42.132,35.68L42.133,35.683L42.1,35.617L41.991,35.395L41.992,35.398L41.845,35.103L41.846,35.105L41.695,34.803L41.696,34.805L41.539,34.496L41.54,34.499L41.38,34.183L41.381,34.186L41.215,33.864L41.216,33.867L41.047,33.54L41.048,33.542L40.875,33.21L40.876,33.213L40.722,32.919L40.699,32.875L40.7,32.878L40.524,32.534L40.525,32.537L40.345,32.189L40.346,32.192L40.163,31.841L40.164,31.844L39.978,31.489L39.98,31.492L39.872,31.289L39.793,31.133L39.794,31.136L39.607,30.773L39.609,30.776L39.419,30.411L39.421,30.415L39.229,30.048L39.231,30.051L39.037,29.682L39.039,29.686L39.008,29.629L38.849,29.313L38.851,29.317L38.661,28.943L38.663,28.947L38.471,28.573L38.473,28.576L38.28,28.202L38.282,28.206L38.202,28.052L38.093,27.829L38.095,27.833L37.908,27.456L37.91,27.46L37.846,27.332L37.728,27.082L37.729,27.086L37.549,26.708L37.551,26.712L37.534,26.676L37.378,26.332L37.38,26.336L37.245,26.039L37.209,25.957L37.211,25.961L37.045,25.582L37.047,25.586L36.957,25.384Z" style="fill:#fff;"/>
    </g>
    <path d="M56.617,4.337L3.83,57.124L8.073,61.366L60.86,8.58L56.617,4.337Z" style="fill:#f3775b;"/>
</svg>
