<svg width="24" height="24" viewBox="0 0 24 24" fill="none" xmlns="http://www.w3.org/2000/svg">
<path d="M19.2187 5.55511C19.6593 6.08607 20.4275 6.39108 20.8794 6.92204C20.5518 5.36307 19.3543 4.08652 17.9309 3.7815C18.6313 4.30116 18.7782 5.02416 19.2187 5.55511ZM2.13782 9.50903C3.12065 7.37392 4.57795 7.82579 5.19928 5.80365C4.83778 6.41368 3.24491 6.67351 2.51062 8.26637C2.89471 7.31743 2.70266 5.87143 3.33529 5.08064C1.42611 6.50405 2.23949 8.78603 2.13782 9.50903ZM3.90013 14.6152C4.08088 15.4399 3.56123 16.6487 4.3859 17.7897C3.53863 16.8407 1.73113 16.5922 0.99683 15.1462C1.91188 18.6821 4.30682 17.9591 5.38003 18.7273C4.49887 17.4508 5.22187 16.6035 3.90013 14.6152ZM3.62901 16.8407C3.09805 14.8638 4.0357 14.1747 3.32399 12.2768C3.25621 13.35 2.53321 13.8696 3.01898 15.824C2.17171 14.1634 0.861268 13.542 0.477173 12.4123C0.499767 15.519 2.99638 15.9822 3.62901 16.8407ZM7.45866 20.1507C6.72436 19.134 7.22142 18.5579 5.16539 16.7165C5.60597 17.3943 5.15409 18.2415 6.54361 19.552C5.18798 18.7499 3.3014 19.0888 2.39765 18.0156C3.95662 20.998 6.69047 19.7779 7.45866 20.1507ZM17.4564 19.552C18.8459 18.2302 18.3941 17.383 18.8346 16.7165C16.7673 18.5579 17.2757 19.134 16.5301 20.1507C17.3096 19.7779 20.0434 20.998 21.5911 18.0156C20.6986 19.1001 18.812 18.7499 17.4564 19.552ZM19.6141 17.7897C20.4388 16.6487 19.9191 15.4512 20.0886 14.6152C18.7669 16.6035 19.4899 17.4508 18.6087 18.7273C19.6932 17.9591 22.0769 18.6821 22.9919 15.1462C22.2576 16.5922 20.4614 16.8407 19.6141 17.7897ZM16.3154 20.2976C15.5811 20.1055 14.8242 19.9813 14.0561 19.9587C13.3556 19.9474 12.6552 20.0603 12 20.3089C11.3448 20.0603 10.6444 19.9474 9.94398 19.9587C9.17579 19.9813 8.4189 20.1055 7.6846 20.2976C6.44194 20.6252 5.36873 20.885 4.43109 20.4105C5.32354 21.2013 6.37416 21.495 7.88794 21.3256C9.1419 21.19 10.1586 20.5574 11.3448 20.5687H11.39C10.6444 20.9415 9.97787 21.4612 9.43562 22.0938L10.0118 22.1729C10.0118 22.1729 10.6105 20.9641 12 20.6478C13.3895 20.9641 13.9883 22.1729 13.9883 22.1729L14.5644 22.0938C14.0222 21.4612 13.3556 20.9415 12.61 20.5687H12.6552C13.8414 20.5574 14.8581 21.19 16.1121 21.3256C17.6259 21.4837 18.6652 21.2013 19.5689 20.4105C18.6313 20.885 17.5581 20.6252 16.3154 20.2976ZM3.41437 10.1304C2.90601 11.1132 2.10393 11.3391 2.1943 13.3613C1.76502 11.5651 0.737002 10.8873 0.748299 9.74627C0.0365936 12.7512 1.93447 13.1014 2.43154 14.3667C2.35246 12.5592 3.50474 12.1977 3.41437 10.1304ZM4.12607 7.81449C3.94532 8.06303 3.82106 8.176 3.34659 8.56009C2.63488 9.12494 2.13782 9.92702 1.96836 10.8195C2.01355 9.71237 1.33574 8.13081 1.78761 6.97852C0.0365937 9.45255 1.88929 10.9324 1.95707 11.8362C2.39765 10.1078 3.44826 10.0965 4.12607 7.81449ZM22.0317 10.8195C21.8509 9.92702 21.3651 9.12494 20.6534 8.56009C20.179 8.1647 20.0547 8.06303 19.874 7.81449C20.5518 10.0965 21.6024 10.1078 22.0543 11.8362C22.122 10.9437 23.9747 9.46384 22.2237 6.97852C22.6756 8.13081 21.9978 9.71237 22.0317 10.8195ZM23.5229 12.4123C23.1388 13.5533 21.8283 14.1634 20.9811 15.824C21.4668 13.8696 20.7438 13.35 20.676 12.2768C19.9643 14.1747 20.902 14.8638 20.371 16.8407C21.0036 15.9822 23.5003 15.519 23.5229 12.4123ZM20.5857 10.1304C20.484 12.1977 21.6476 12.5592 21.5685 14.3667C22.0543 13.1127 23.9634 12.7512 23.2517 9.74627C23.263 10.8985 22.235 11.5651 21.8057 13.3726C21.8961 11.3278 21.1053 11.1132 20.5857 10.1304ZM4.78129 5.55511C5.22187 5.02416 5.36873 4.30116 6.06914 3.7815C4.63443 4.08652 3.43696 5.35177 3.10935 6.91074C3.56123 6.37979 4.34071 6.07477 4.78129 5.55511ZM18.812 5.78105C19.4334 7.81449 20.8907 7.36262 21.8735 9.48644C21.7718 8.77473 22.5852 6.48146 20.676 5.08064C21.32 5.86013 21.1279 7.31743 21.5007 8.26637C20.7551 6.67351 19.1623 6.41368 18.812 5.78105ZM13.8414 6.94463C13.4686 6.78648 13.0732 6.6848 12.6778 6.62832C12.6778 6.7187 12.6778 6.79777 12.6778 6.88815C13.0506 6.94463 13.4121 7.04631 13.751 7.18187C13.7962 7.10279 13.8301 7.02371 13.8414 6.94463ZM13.5477 4.42542L13.6268 4.35764L13.4799 4.28986L13.0845 4.27856L12.9828 4.34635L12.7569 4.32375V4.38024C12.9038 4.39153 13.0506 4.40283 13.1636 4.42542L13.3556 4.41413L13.5477 4.42542ZM12.8021 12.8529C12.8021 12.7851 12.7117 12.7174 12.5875 12.6609H12.5649C12.5649 12.7174 12.5536 12.9772 12.5536 13.1127C12.7004 13.0337 12.8021 12.9659 12.8021 12.8529ZM8.27204 7.89357C8.28333 7.84839 8.29463 7.7919 8.30593 7.74671C8.24944 7.75801 8.20425 7.76931 8.14777 7.75801L8.27204 7.89357ZM6.45323 6.07477L7.37958 7.00112C6.26119 8.1647 5.62856 9.72367 5.60597 11.3391H4.29553C4.31812 9.36217 5.08631 7.48688 6.45323 6.07477ZM5.88839 13.2822L5.80931 13.2709L5.73023 13.1918L5.35744 13.1579L5.4704 13.3161L5.1315 13.2483L5.22187 13.1692L5.14279 13.0901L4.89426 13.1918L4.80389 13.35L4.83778 13.7228L5.1202 14.4006L5.25576 14.6152L5.33484 14.6378L5.1202 14.2311L5.07501 14.0278L5.1202 13.9826L5.08631 13.8696L5.21058 13.8922L5.41392 14.1859L5.45911 14.2085V13.9939L5.53819 14.0391L5.56078 14.1521L5.76412 14.2085L5.8545 14.1408L5.88839 14.1634V14.3215L5.97876 14.4345L6.09173 14.4571L6.34027 14.8638L6.48713 14.909L6.53231 14.7169C6.79214 15.1349 7.08586 15.5303 7.43607 15.8805L6.50972 16.8068C5.1315 15.4173 4.34071 13.5533 4.29553 11.599H5.60597C5.61726 12.1638 5.71894 12.7399 5.88839 13.2822ZM7.17624 11.5877C7.17624 11.7119 7.18753 11.8362 7.21013 11.9718L7.05197 12.0056L7.01808 12.1638L6.67917 12.5931L6.69047 13.1805L6.35156 13.2935H6.15952C5.97876 12.7399 5.88839 12.1751 5.8658 11.5877H7.17624V11.5877ZM7.46996 15.2817L7.76368 15.4512L7.82016 15.4964L7.60552 15.711C7.50385 15.6094 7.41347 15.5077 7.3231 15.3947L7.46996 15.2817ZM8.66743 8.28896L9.59377 9.21531C9.40173 9.42995 9.23227 9.66719 9.10801 9.92702H9.04023L8.90466 9.96091H8.85947L8.72391 10.0852L8.90466 10.0626L9.06282 10.0287L9.02893 10.0739L8.89337 10.1643H8.82558L8.62224 10.3224L8.43019 10.2998L8.14777 10.8308L8.20425 10.9324L8.0461 11.1132L8.0235 11.3391H7.43607C7.44736 10.1981 7.88794 9.11364 8.66743 8.28896ZM9.61637 12.1186L9.68415 12.0847L9.8536 12.209L9.77452 12.2655L9.96657 12.3897L9.95527 12.2542L10.0569 12.0847L10.1699 12.1977L10.2829 12.3558L10.0795 12.4123L10.1699 12.5931L10.3055 12.514L10.2829 12.4575L10.3846 12.3897L10.441 12.1073C10.5201 12.2768 10.6218 12.4349 10.7461 12.5705L9.81971 13.4968C9.36784 13.0224 9.08541 12.4123 9.00633 11.7571L9.19838 11.9605H9.37913L9.61637 12.1186ZM8.28333 11.1358L8.30593 10.876L8.46408 10.7856L8.74651 10.8308L8.79169 10.876C8.7691 11.0228 8.7578 11.181 8.74651 11.3278H8.43019L8.28333 11.1358ZM7.85405 12.0395L7.72978 12.2316H7.51514L7.50385 12.2203C7.46996 12.0169 7.44736 11.8023 7.43607 11.599H7.83146L7.74108 11.9153L7.85405 12.0395ZM8.72391 14.5926C8.63354 14.491 8.53186 14.3893 8.45279 14.2876L8.49797 13.96L8.36241 13.6437L8.32852 13.1466L8.17036 12.8416L8.20425 12.6496L8.01221 12.2881L7.85405 12.209L7.92183 12.0169L7.85405 11.8701L7.92183 11.7006H8.10258L8.17036 11.599H8.47538L8.52057 11.6893L8.45279 11.9943L8.4189 12.0508L8.53187 12.2994L8.45279 12.3446L8.3963 12.2768L8.37371 12.2994L8.43019 12.4462L8.52057 12.6157H8.56576L8.58835 12.4575L8.54316 12.401V12.2994L8.53187 12.0847L8.59965 11.7006L8.53187 11.599H8.74651C8.79169 12.3784 9.10801 13.1127 9.65026 13.6776L8.72391 14.5926ZM16.6092 15.8579C17.7275 14.7056 18.3715 13.1805 18.4054 11.5877H19.7158C19.6706 13.5307 18.8911 15.3947 17.5242 16.7842L16.6092 15.8579ZM16.2477 15.4964L16.3493 15.3834L16.2477 14.8751L16.1799 14.8525L16.2251 14.7621L16.0104 14.6943L15.9652 14.8751L15.9426 15.101L15.8974 15.1462L15.5021 14.7508C16.3267 13.8922 16.8012 12.7738 16.8464 11.5877H18.1568C18.1116 13.124 17.5016 14.5813 16.4284 15.6771L16.2477 15.4964ZM15.0954 16.7278L15.2196 16.4679L15.1744 16.355L15.3552 16.1968V16.1064L15.197 16.0047L15.3213 15.7449L15.5134 15.4964L15.3213 15.293H15.1744L15.0841 15.1462C15.1631 15.0784 15.2422 15.0106 15.31 14.9428L16.2364 15.8692C15.8974 16.1968 15.5134 16.4905 15.0954 16.7278ZM14.9146 14.1747L14.7903 14.0504L14.8807 13.9261L15.005 13.6776L14.9598 13.6098L15.0389 13.4291L15.0276 13.2596L14.9824 13.0901L14.8694 13.0563L14.8242 13.1466L14.7565 13.124C14.8581 12.9772 14.9485 12.8077 15.0276 12.6496L15.1406 12.6044L15.2083 12.514L15.2422 12.5479L15.3213 12.4575L15.2535 12.3784L15.31 12.3671L15.4117 12.4123H15.615L15.7393 12.3446L16.0556 12.2542L15.9991 12.1525L15.9765 12.0282L16.146 12.1073L16.2138 12.0734L16.1799 11.9379L15.9652 12.0169L15.7393 11.9718L15.5585 11.6103H16.564C16.5188 12.7286 16.0669 13.7906 15.2987 14.5926L15.1631 14.4571L15.2196 14.2763L15.118 13.8696L14.9146 14.1747ZM14.4401 9.2492L15.3665 8.32286C15.5811 8.56009 15.7732 8.81992 15.9426 9.09105L15.8297 9.12494L15.841 9.32828L16.1799 9.54292C16.2702 9.73497 16.338 9.92702 16.3945 10.1304L16.338 10.2207L16.2138 10.3111L16.1799 10.5032L16.0895 10.5483L16.0217 10.6387L15.9539 10.6048H15.8297L15.8974 10.5032L15.9539 10.2433L16.0443 10.1868L15.7958 9.94961L15.615 10.0174L15.5698 10.1981L15.4569 10.3224L15.3326 10.2207L15.2874 10.1078L15.3552 10.0626L15.3891 10.1304L15.4456 10.1078L15.423 9.9948H15.3439V10.04L15.2874 10.0513L15.005 9.71237L14.9033 9.6333L14.9372 9.59941L15.0276 9.56551L14.9372 9.53162C14.9372 9.53162 14.8355 9.55422 14.8242 9.55422L14.8807 9.6333H14.7339C14.6435 9.48644 14.5531 9.36217 14.4401 9.2492ZM14.587 14.2989L14.3046 14.2198L14.2142 14.2537L14.0561 14.1295L13.9092 14.073C13.9883 14.0165 14.0561 13.96 14.1238 13.9035L14.3611 14.073L14.5418 14.1634L14.6322 14.2537L14.587 14.2989ZM14.0899 9.94961L14.2029 9.92702V9.90442L14.0899 9.82534L14.1238 9.57681L14.2594 9.42995C14.3498 9.53162 14.4288 9.6333 14.5079 9.74627L14.4627 9.89313L14.3385 9.80275L14.2368 9.82534L14.282 9.91572H14.3272L14.2707 10.0513L14.2368 9.9948L14.0899 9.94961ZM15.6602 10.8534L15.8974 10.7291L16.1347 10.6952L16.1912 10.5822L16.3267 10.5032L16.3832 10.3902L16.4284 10.1981C16.451 10.2659 16.4623 10.3337 16.4849 10.4015L16.3606 10.7743V10.8985L16.5188 10.6387C16.5527 10.8647 16.5753 11.1019 16.5866 11.3278H15.4343L15.4117 11.2262L15.5472 11.1245L15.5698 11.0567L15.6263 11.0115L15.7845 10.9889L15.7958 10.9211L15.6602 10.8534ZM15.92 7.7806L16.2364 7.7919L16.3154 7.88228L16.2815 8.01784L16.7221 8.28896L16.8125 8.27767L17.366 8.92159L17.592 8.84251C17.9535 9.622 18.1455 10.4806 18.1568 11.3391H16.8464C16.8464 11.0002 16.8012 10.6726 16.7221 10.345L16.7786 10.2659L16.8577 9.84794L16.8012 9.40736L16.643 8.899L16.2815 8.36804L16.3719 8.41323L16.4171 8.36804L16.1234 8.1647L16.1008 8.23248L16.3945 8.65047L16.564 8.98937L16.6769 9.32828L16.7108 9.55422L16.7673 9.93831L16.6543 9.94961C16.6543 9.94961 16.5301 9.71237 16.4849 9.6107L16.5414 9.52033L16.4284 9.36217V9.21531L16.3493 9.11364L16.2477 9.12494C16.2138 9.05715 16.1799 8.98937 16.1347 8.93289L16.2025 8.96678L16.2251 8.94419L16.1912 8.86511L16.2815 8.81992L16.2477 8.77473L16.1234 8.81992L16.1686 8.61657L16.0895 8.57139L16.0217 8.72954C15.8749 8.5149 15.7167 8.31156 15.5472 8.11951L15.92 7.7806ZM17.592 6.09737C18.9476 7.50948 19.7045 9.38476 19.7271 11.3391H18.4167C18.4054 10.3676 18.1794 9.40736 17.7388 8.5375L17.7501 8.5149L17.8405 8.56009L17.8631 8.49231L17.6259 8.08562L17.3434 7.70153L17.0158 7.4304C16.9029 7.29484 16.7899 7.15927 16.6656 7.02371L17.592 6.09737ZM12.0113 19.3825C16.4171 19.3825 19.9869 15.8014 19.9756 11.3956C19.9756 7.30613 16.8803 3.88317 12.8134 3.46519L12.8021 3.51037C12.7908 3.58945 12.7682 3.65723 12.7569 3.72502C14.5079 3.89447 16.146 4.66266 17.3999 5.89402L16.5188 6.77518L16.5527 6.61702L16.4397 6.56054L16.2928 6.57184L16.3267 6.47016L16.2251 6.10866L16.0104 5.87143L15.3213 5.50993L15.2648 5.57771L15.1406 5.6116C15.3778 5.95051 15.5021 6.35719 15.5021 6.76388C15.5021 6.82037 15.5021 6.86555 15.5021 6.92204L15.841 7.35132L15.6828 7.38521L15.7845 7.54337L15.4795 7.84839L15.3552 7.62245C15.2987 7.7806 15.2196 7.93876 15.1293 8.07432L15.197 8.13081L14.2594 9.05715C14.2029 9.00067 14.1464 8.95548 14.0899 8.899C13.9996 8.94419 13.9092 8.97808 13.8188 9.01197L13.8979 9.06845L13.8527 9.11364L13.7397 9.17012L13.6945 9.28309L13.6268 9.21531L13.4347 9.28309L13.4912 9.37347L13.6268 9.33958L13.7171 9.35087L13.7284 9.30569L13.7962 9.2718L13.8188 9.2379L13.9431 9.20401H14.0335L14.0899 9.2492L13.7284 9.622L13.7058 9.58811L13.3218 9.65589L13.2314 9.74627L13.1523 9.75756L13.3895 9.53162L13.2992 9.48644L13.0732 9.78016L13.141 9.76886V9.88183L13.2201 9.91572L13.2314 10.0287L13.0958 10.0061L12.9603 10.0287L12.6213 9.85923C12.6213 9.85923 12.5988 10.763 12.5988 11.2149C13.3895 11.486 14.2368 11.8701 14.2368 12.8868C14.2481 13.3161 14.0222 13.7228 13.6607 13.96L13.6381 13.9713L13.6155 13.9939C13.2992 14.2085 12.8812 14.3215 12.5197 14.4345L12.5084 15.1462C13.0845 15.4286 13.7736 15.8466 13.7058 17.0215C13.6945 17.3152 13.5816 17.3943 13.4912 17.4169C13.1523 17.4959 12.8021 17.5524 12.4632 17.575C12.4632 17.6654 12.4632 17.7558 12.4632 17.8348C13.9544 17.7332 15.3552 17.1118 16.4397 16.0838L17.366 17.0102C14.395 19.8796 9.68415 19.8796 6.70177 17.0328L7.62811 16.1064C8.70132 17.1118 10.0908 17.7219 11.5594 17.8348C11.5594 17.7558 11.5594 17.6654 11.5594 17.575C10.1586 17.462 8.84818 16.8859 7.83146 15.9144L8.06869 15.6658L8.4076 15.6997L8.58835 15.5077L9.06282 15.5303L9.1306 15.3608L9.10801 15.293C9.80842 15.824 10.6444 16.1629 11.5255 16.2533C11.5255 16.1516 11.5255 16.0612 11.5255 15.9935C10.554 15.8805 9.65026 15.4738 8.92726 14.8073L9.8536 13.8809C10.0795 14.0843 10.3281 14.2537 10.6105 14.3893C10.6331 14.2989 10.6557 14.2198 10.7009 14.1408C10.4636 14.0165 10.2377 13.8696 10.0456 13.7002L10.972 12.7738C11.1189 12.8868 11.2883 12.9885 11.4578 13.045C11.4578 12.9546 11.4578 12.8529 11.4578 12.7625C11.3448 12.7174 11.2431 12.6496 11.1527 12.5818L11.4126 12.322C11.3222 12.2994 11.2318 12.2655 11.1414 12.2316L10.9607 12.4123C10.8703 12.3107 10.7912 12.1977 10.7348 12.0847C10.5766 12.0169 10.4184 11.9379 10.2716 11.8362C9.72934 11.5086 9.40173 10.9098 9.41302 10.2659C9.40173 9.83664 9.52599 9.40736 9.78582 9.06845L8.85947 8.14211C9.53729 7.48688 10.4072 7.0689 11.3335 6.92204C11.3335 6.83166 11.3335 6.74129 11.3335 6.66221C10.3394 6.80907 9.40173 7.26095 8.67872 7.96135L8.52057 7.8032C8.48668 7.85968 8.44149 7.93876 8.3963 8.04043L8.49797 8.14211C7.6733 9.01197 7.21013 10.1643 7.18753 11.3617H5.8658C5.88839 9.81405 6.48713 8.33415 7.56033 7.20446L7.97832 7.62245C8.00091 7.62245 8.01221 7.62245 8.0348 7.62245C8.11388 7.61115 8.20425 7.58856 8.27204 7.55467L7.74108 7.02371C8.0235 6.75259 8.32852 6.50405 8.65613 6.28941C8.67872 6.22163 8.69002 6.15385 8.72391 6.09737C8.7804 6.00699 8.84818 5.91662 8.92726 5.82624C8.43019 6.09737 7.97832 6.43627 7.57163 6.83166L6.64528 5.90532C7.88794 4.69655 9.5034 3.93966 11.2431 3.75891C11.2431 3.72502 11.2318 3.70242 11.2318 3.70242C11.2205 3.63464 11.2092 3.57816 11.1979 3.49908C6.80344 3.95095 3.62901 7.87098 4.09218 12.2542C4.52146 16.3098 7.93313 19.3938 12.0113 19.3825ZM15.9313 5.589L15.8523 5.46474L15.6828 5.37436L15.5472 5.47604L15.7167 5.56641L15.9087 5.70197L15.9313 5.589ZM15.1406 9.29439L15.1518 9.39606L15.3778 9.32828L15.4456 9.19272L15.2874 8.98937L15.3665 8.86511L15.5811 9.01197L15.615 8.97808L15.5698 8.94419L15.5246 8.85381L15.615 8.80862L15.5246 8.69565L15.3213 8.79733L15.2535 8.92159L15.2083 9.03456L15.2987 9.18142L15.2648 9.2492L15.1406 9.29439ZM5.67375 15.1688L5.68505 15.1123L5.57208 14.8525L5.43651 14.796L5.67375 15.1688ZM11.0172 10.2433C11.0172 10.4693 11.1527 10.6161 11.39 10.7517C11.39 10.7517 11.39 10.7178 11.39 10.65L11.2431 10.4919L11.3222 10.345L11.39 10.3224C11.3787 10.0626 11.3787 9.78016 11.3787 9.73497H11.3674C11.1414 9.87053 11.0285 10.0287 11.0172 10.2433Z" fill="#009CDE"/>
<path d="M12.4857 15.9257C12.8924 16.129 13.2765 16.4227 13.4347 16.965C13.5025 16.0612 12.9941 15.6771 12.497 15.406L12.4857 15.9257Z" fill="#009CDE"/>
<path d="M15.2196 6.76388C15.2196 5.93921 14.6209 5.03546 13.1636 4.71914C13.0167 4.69655 12.8698 4.67396 12.723 4.66266C12.723 4.78692 12.7117 5.06935 12.7117 5.06935C12.7117 5.15972 12.7004 5.48733 12.7004 5.55511C12.7908 5.56641 12.8924 5.57771 12.9828 5.589C13.8301 5.79235 14.1351 6.27812 14.1351 6.75259C14.1351 7.53207 13.4686 7.82579 12.6552 8.05173L12.3841 8.11951C12.1355 8.176 11.8757 8.24378 11.6272 8.31156C11.5368 8.33415 11.4464 8.35675 11.3561 8.39064C10.4523 8.66176 9.67282 9.10234 9.67282 10.2207C9.67282 11.3391 10.5653 11.7458 11.4351 12.0169C11.4351 11.7006 11.4238 11.373 11.4125 11.0567C11.0172 10.876 10.7573 10.6387 10.7573 10.2433C10.7573 9.84794 11.0059 9.622 11.3787 9.45255C11.4577 9.41866 11.5481 9.38476 11.6498 9.35087C11.8644 9.2718 12.113 9.21531 12.3615 9.14753L12.6326 9.07975C13.8527 8.78603 15.2309 8.40193 15.2196 6.76388Z" fill="#009CDE"/>
<path d="M10.8252 14.5926C10.8252 15.0445 11.1528 15.2817 11.4804 15.4738C11.4804 15.3947 11.4691 14.7056 11.4691 14.6943C11.4804 14.5587 11.6047 14.4684 11.7176 14.4232C11.8871 14.3441 12.0678 14.2763 12.2486 14.2198C12.3502 14.1859 12.4293 14.1521 12.5197 14.1295C13.1862 13.9261 13.9544 13.6776 13.9544 12.8642C13.9544 12.0508 13.2992 11.7232 12.5762 11.4747C12.5649 11.7345 12.5649 12.1073 12.5536 12.3671C12.8586 12.4801 13.062 12.627 13.062 12.8642C13.062 13.1579 12.7569 13.3161 12.531 13.4065C12.4406 13.4403 12.3051 13.4855 12.2599 13.4968C12.0791 13.5533 11.8984 13.6098 11.7176 13.6776C11.6272 13.7115 11.5369 13.7454 11.4465 13.7906C11.1528 13.9487 10.8252 14.1859 10.8252 14.5926Z" fill="#009CDE"/>
<path d="M11.277 4.78693C11.0059 4.8773 10.7348 4.97897 10.4749 5.11454C10.1925 5.20491 9.78581 5.22751 9.36783 5.67938C9.23226 5.83754 9.108 6.00699 8.98373 6.17645C8.85947 6.3572 8.84817 6.65092 8.75779 6.79777C8.62223 7.02371 8.65612 7.15928 8.65612 7.15928C8.63353 7.26095 8.57704 7.36262 8.50926 7.4417C8.3737 7.59986 8.17035 7.67893 7.96701 7.64504C8.15906 7.73542 8.41889 7.61115 8.41889 7.61115C8.3737 7.73542 8.33981 7.85968 8.31721 7.98395C8.53186 7.49818 8.7239 7.32873 8.79168 7.27224C8.88206 7.29484 9.07411 7.28354 9.42431 7.0802C9.8197 6.85426 10.4184 6.48146 10.5879 6.24423C10.7686 6.00699 11.0059 5.81494 11.2883 5.71327C11.2883 5.37437 11.277 5.05805 11.277 4.78693ZM9.60506 6.28941L9.40172 6.3346L9.65025 5.92791L9.93267 5.93921L9.60506 6.28941Z" fill="#009CDE"/>
<path d="M12.1017 14.5361C12.0678 14.5474 11.9661 14.5926 11.8983 14.6152C11.8305 14.6378 11.7515 14.6717 11.7515 14.6943C11.7515 14.6943 11.8192 18.1737 11.8192 18.2415C11.8192 18.9532 12.1807 18.9645 12.1807 18.2415C12.1807 18.1963 12.2598 14.4797 12.2598 14.4797C12.2598 14.4797 12.1582 14.5136 12.1017 14.5361Z" fill="#009CDE"/>
<path d="M11.7176 13.3839C11.8305 13.35 11.9435 13.3048 12.0452 13.2822C12.1243 13.2596 12.192 13.237 12.2711 13.2144C12.2711 12.9998 12.3389 9.9722 12.3502 9.42995C12.113 9.48643 11.8757 9.55421 11.6498 9.63329C11.6611 10.04 11.7176 13.0563 11.7176 13.3839Z" fill="#009CDE"/>
<path d="M12.0226 1.82713C11.0058 1.82713 11.4351 3.34092 11.5142 3.83798C11.5142 3.86058 11.5933 7.26094 11.6159 8.04043C11.774 7.99524 11.9209 7.96135 12.079 7.92746L12.3841 7.84838C12.3954 7.09149 12.4744 3.84928 12.4744 3.82668C12.5422 3.30703 13.0732 1.82713 12.0226 1.82713Z" fill="#009CDE"/>
</svg>
