<svg width="24" height="24" viewBox="0 0 24 24" fill="none" xmlns="http://www.w3.org/2000/svg">
<rect x="8.17548" y="7.45361" width="10.6186" height="10.1027" fill="white"/>
<path d="M11.993 4.06721C11.993 4.06721 4.90735 4.06722 3.12896 4.52933C2.17674 4.79539 1.39267 5.57947 1.1266 6.54569C0.6645 8.32409 0.66449 12.007 0.66449 12.007C0.66449 12.007 0.6645 15.7039 1.1266 17.4543C1.39267 18.4205 2.16274 19.1906 3.12896 19.4567C4.92136 19.9328 11.993 19.9328 11.993 19.9328C11.993 19.9328 19.0927 19.9328 20.871 19.4707C21.8372 19.2046 22.6073 18.4485 22.8594 17.4683C23.3355 15.7039 23.3355 12.021 23.3355 12.021C23.3355 12.021 23.3495 8.32409 22.8594 6.54569C22.6073 5.57947 21.8372 4.80941 20.871 4.55735C19.0927 4.06724 11.993 4.06721 11.993 4.06721V4.06721ZM9.73845 8.6043L15.6339 12.007L9.73845 15.3957V8.6043V8.6043Z" fill="#FF0000"/>
</svg>
