<?xml version="1.0" encoding="UTF-8" standalone="no"?><!DOCTYPE svg PUBLIC "-//W3C//DTD SVG 1.1//EN" "http://www.w3.org/Graphics/SVG/1.1/DTD/svg11.dtd"><svg width="100%" height="100%" viewBox="0 0 151 80" version="1.1" xmlns="http://www.w3.org/2000/svg" xmlns:xlink="http://www.w3.org/1999/xlink" xml:space="preserve" xmlns:serif="http://www.serif.com/" style="fill-rule:evenodd;clip-rule:evenodd;stroke-linejoin:round;stroke-miterlimit:2;"><g><g><path d="M31.764,41.155l9.936,0l0,-40.718l-9.936,0l0,40.718Zm-21.842,-8.863l0,-31.853l-9.921,0l0,40.738l27.034,0l0,-8.885l-17.113,0Zm111.044,3.951c1.282,1.303 1.024,2.494 2.744,3.226c6.027,2.567 12.207,2.911 18.397,0.748c3.791,-1.322 6.563,-3.882 7.78,-7.842c0.841,-2.739 0.656,-5.508 -0.048,-8.25c-0.709,-2.75 -2.278,-4.877 -4.876,-6.046c-1.53,-0.688 -3.175,-1.184 -4.82,-1.53c-2.125,-0.45 -4.301,-0.633 -6.447,-0.99c-1.954,-0.325 -3.122,-1.795 -2.854,-3.558c0.216,-1.423 1.12,-2.359 2.433,-2.795c2.343,-0.779 4.739,-0.616 7.047,0.096c1.154,0.354 2.186,1.105 3.098,1.586c2.056,-2.003 4.139,-4.037 6.317,-6.16c-0.996,-0.737 -1.93,-1.586 -3.003,-2.192c-4.785,-2.7 -9.937,-3.027 -15.206,-1.993c-4.091,0.802 -7.297,2.956 -9.202,6.776c-1.372,2.752 -1.452,5.661 -0.923,8.629c0.552,3.09 2.144,5.437 4.908,6.964c1.621,0.894 3.363,1.435 5.183,1.72c2.147,0.336 4.307,0.605 6.451,0.973c1.227,0.212 2.147,0.881 2.481,2.172c0.574,2.203 -0.47,3.953 -2.709,4.521c-2.075,0.527 -4.161,0.397 -6.246,0.073c-2.18,-0.336 -4.199,-1.074 -5.87,-2.538c-2.129,2.152 -2.496,4.244 -4.635,6.41m-21.531,-11.776c0.236,0.409 0.411,0.707 0.58,1.008c2.834,5.038 5.672,10.078 8.491,15.126c0.244,0.434 0.488,0.641 1.032,0.637c3.401,-0.034 6.803,-0.016 10.204,-0.02c0.22,0 0.44,-0.03 0.731,-0.055c-0.173,-0.315 -0.291,-0.547 -0.423,-0.771c-4.497,-7.605 -8.991,-15.214 -13.504,-22.809c-0.298,-0.499 -0.344,-0.814 0.069,-1.299c4.273,-5.014 8.515,-10.054 12.765,-15.086c0.191,-0.226 0.37,-0.464 0.639,-0.802c-4.069,0 -7.949,-0.008 -11.829,0.021c-0.252,0.002 -0.566,0.244 -0.745,0.462c-2.552,3.094 -5.089,6.202 -7.629,9.306c-1.219,1.49 -2.441,2.979 -3.817,4.66l0,-14.408l-9.97,0l0,40.736l9.966,0l0,-0.91c0,-3.721 -0.004,-7.44 0.008,-11.161c0,-0.301 0.023,-0.682 0.196,-0.889c1.03,-1.248 2.109,-2.453 3.236,-3.746m-41.487,-3.747c0.269,0.388 0.403,0.57 0.525,0.761c4.049,6.359 8.102,12.716 12.132,19.088c0.308,0.484 0.627,0.678 1.205,0.667c2.099,-0.036 4.2,-0.016 6.298,-0.016l1.657,0l0,-40.763l-10.009,0l0,20.383c-0.258,-0.371 -0.409,-0.572 -0.543,-0.786c-4.043,-6.333 -8.081,-12.665 -12.12,-19c-0.228,-0.356 -0.399,-0.684 -0.955,-0.674c-2.579,0.039 -5.156,0.014 -7.735,0.02c-0.149,0 -0.297,0.047 -0.438,0.072l0,40.705l9.983,0l0,-20.457Z" style="fill:#ec1c24;fill-rule:nonzero;"/><path d="M57.949,20.719l0,20.458l-9.985,0l0,-40.706c0.143,-0.022 0.289,-0.071 0.44,-0.071c2.577,-0.004 5.156,0.018 7.733,-0.02c0.558,-0.01 0.729,0.317 0.955,0.674c4.038,6.334 8.079,12.667 12.12,19c0.136,0.214 0.287,0.415 0.545,0.788l0,-20.385l10.007,0l0,40.763l-1.655,0c-2.1,0 -4.201,-0.018 -6.3,0.016c-0.578,0.01 -0.895,-0.183 -1.203,-0.667c-4.03,-6.372 -8.083,-12.729 -12.132,-19.086c-0.122,-0.194 -0.256,-0.375 -0.525,-0.764" style="fill:#ec1c24;fill-rule:nonzero;"/><path d="M99.435,24.467c-1.128,1.294 -2.207,2.499 -3.237,3.745c-0.173,0.208 -0.195,0.588 -0.195,0.89c-0.012,3.721 -0.008,7.442 -0.008,11.163l0,0.908l-9.966,0l0,-40.735l9.97,0l0,14.406c1.376,-1.679 2.597,-3.169 3.817,-4.659c2.542,-3.104 5.076,-6.213 7.629,-9.307c0.179,-0.218 0.493,-0.458 0.745,-0.46c3.88,-0.03 7.76,-0.022 11.829,-0.022c-0.269,0.338 -0.448,0.576 -0.639,0.802c-4.251,5.034 -8.493,10.074 -12.765,15.085c-0.414,0.487 -0.367,0.8 -0.07,1.299c4.513,7.597 9.008,15.204 13.505,22.809c0.132,0.226 0.25,0.456 0.423,0.771c-0.291,0.025 -0.511,0.057 -0.729,0.057c-3.403,0.003 -6.805,-0.014 -10.206,0.019c-0.544,0.004 -0.788,-0.202 -1.03,-0.635c-2.822,-5.051 -5.659,-10.089 -8.493,-15.129c-0.169,-0.299 -0.344,-0.598 -0.58,-1.007" style="fill:#ec1c24;fill-rule:nonzero;"/><path d="M119.259,36.243c2.142,-2.164 4.212,-4.259 6.341,-6.408c1.673,1.461 3.69,2.202 5.871,2.538c2.084,0.322 4.171,0.452 6.247,-0.073c2.237,-0.57 3.283,-2.321 2.707,-4.523c-0.334,-1.291 -1.254,-1.96 -2.481,-2.172c-2.144,-0.369 -4.303,-0.637 -6.451,-0.973c-1.82,-0.285 -3.56,-0.825 -5.181,-1.72c-2.766,-1.527 -4.356,-3.874 -4.907,-6.964c-0.532,-2.968 -0.452,-5.875 0.92,-8.629c1.905,-3.821 5.113,-5.974 9.205,-6.776c5.268,-1.032 10.418,-0.707 15.206,1.992c1.07,0.607 2.005,1.456 3.002,2.193c-2.18,2.125 -4.263,4.156 -6.316,6.16c-0.914,-0.481 -1.946,-1.232 -3.099,-1.586c-2.31,-0.711 -4.704,-0.876 -7.047,-0.096c-1.315,0.436 -2.219,1.374 -2.434,2.795c-0.267,1.765 0.901,3.233 2.854,3.558c2.145,0.358 4.323,0.54 6.446,0.99c1.645,0.346 3.29,0.842 4.821,1.53c2.599,1.169 4.166,3.296 4.875,6.046c0.706,2.744 0.889,5.51 0.049,8.252c-1.216,3.957 -3.99,6.518 -7.778,7.839c-6.191,2.164 -12.373,1.82 -18.398,-0.747c-1.722,-0.73 -3.167,-1.921 -4.452,-3.226" style="fill:#ec1c24;fill-rule:nonzero;"/><path d="M9.921,32.293l17.114,0l0,8.883l-27.035,0l0,-40.736l9.921,0l0,31.853Z" style="fill:#ec1c24;fill-rule:nonzero;"/><rect x="31.764" y="0.437" width="9.936" height="40.718" style="fill:#ec1c24;"/></g><g transform="matrix(1,0,0,1,-1184,-316.704)"><g transform="matrix(14,0,0,14,1184,379.975)"><path d="M0.633,0l-0.26,-0.712l-0.109,0l-0.259,0.712l0.145,0l0.043,-0.126l0.253,0l0.042,0.126l0.145,0Zm-0.224,-0.243l-0.177,0l0.09,-0.259l0.087,0.259Z" style="fill:#ec1c24;fill-rule:nonzero;"/></g><g transform="matrix(14,0,0,14,1196.18,379.975)"><path d="M0.482,-0.019l0,-0.502l-0.126,0l0,0.049c-0.036,-0.04 -0.072,-0.055 -0.127,-0.055c-0.051,0 -0.096,0.017 -0.125,0.046c-0.049,0.049 -0.053,0.115 -0.053,0.206c0,0.091 0.004,0.158 0.053,0.207c0.029,0.029 0.073,0.046 0.124,0.046c0.051,0 0.09,-0.014 0.124,-0.052l0,0.053c0,0.053 -0.027,0.108 -0.105,0.108c-0.044,0 -0.073,-0.012 -0.102,-0.04l-0.081,0.082c0.054,0.052 0.109,0.068 0.189,0.068c0.14,0 0.229,-0.091 0.229,-0.216Zm-0.13,-0.256c0,0.069 -0.009,0.136 -0.086,0.136c-0.077,0 -0.085,-0.067 -0.085,-0.136c0,-0.069 0.008,-0.135 0.085,-0.135c0.077,0 0.086,0.066 0.086,0.135Z" style="fill:#ec1c24;fill-rule:nonzero;"/></g><g transform="matrix(14,0,0,14,1203.95,379.975)"><path d="M0.294,0l0,-0.11l-0.05,0c-0.033,0 -0.046,-0.016 -0.046,-0.047l0,-0.555l-0.13,0l0,0.563c0,0.074 0.045,0.149 0.152,0.149l0.074,0Z" style="fill:#ec1c24;fill-rule:nonzero;"/></g><g transform="matrix(14,0,0,14,1208.5,379.975)"><path d="M0.492,-0.261c0,-0.094 -0.012,-0.153 -0.059,-0.202c-0.032,-0.034 -0.085,-0.064 -0.162,-0.064c-0.077,0 -0.129,0.03 -0.161,0.064c-0.047,0.049 -0.059,0.108 -0.059,0.202c0,0.095 0.012,0.154 0.059,0.203c0.032,0.034 0.084,0.064 0.161,0.064c0.077,0 0.13,-0.03 0.162,-0.064c0.047,-0.049 0.059,-0.108 0.059,-0.203Zm-0.13,0c0,0.054 -0.003,0.1 -0.03,0.127c-0.015,0.015 -0.035,0.023 -0.061,0.023c-0.026,0 -0.045,-0.008 -0.06,-0.023c-0.027,-0.027 -0.03,-0.073 -0.03,-0.127c0,-0.054 0.003,-0.099 0.03,-0.126c0.015,-0.015 0.034,-0.023 0.06,-0.023c0.026,0 0.046,0.008 0.061,0.023c0.027,0.027 0.03,0.072 0.03,0.126Z" style="fill:#ec1c24;fill-rule:nonzero;"/></g><g transform="matrix(14,0,0,14,1216.1,379.975)"><path d="M0.509,-0.261c0,-0.078 -0.001,-0.167 -0.053,-0.219c-0.029,-0.029 -0.076,-0.047 -0.127,-0.047c-0.053,0 -0.092,0.014 -0.126,0.052l0,-0.237l-0.13,0l0,0.712l0.126,0l0,-0.049c0.036,0.04 0.075,0.055 0.13,0.055c0.051,0 0.098,-0.018 0.127,-0.047c0.052,-0.052 0.053,-0.142 0.053,-0.22Zm-0.13,0c0,0.085 -0.01,0.15 -0.088,0.15c-0.078,0 -0.088,-0.065 -0.088,-0.15c0,-0.085 0.01,-0.149 0.088,-0.149c0.078,0 0.088,0.064 0.088,0.149Z" style="fill:#ec1c24;fill-rule:nonzero;"/></g><g transform="matrix(14,0,0,14,1223.94,379.975)"><path d="M0.467,0l0,-0.343c0,-0.122 -0.076,-0.184 -0.222,-0.184c-0.087,0 -0.137,0.016 -0.188,0.072l0.083,0.081c0.027,-0.031 0.05,-0.043 0.1,-0.043c0.069,0 0.097,0.025 0.097,0.082l0,0.026l-0.123,0c-0.121,0 -0.178,0.068 -0.178,0.151c0,0.046 0.015,0.088 0.043,0.117c0.031,0.031 0.074,0.046 0.133,0.046c0.06,0 0.093,-0.015 0.128,-0.05l0,0.045l0.127,0Zm-0.13,-0.192c0,0.032 -0.005,0.053 -0.019,0.066c-0.023,0.022 -0.046,0.025 -0.082,0.025c-0.051,0 -0.075,-0.024 -0.075,-0.06c0,-0.037 0.026,-0.059 0.073,-0.059l0.103,0l0,0.028Z" style="fill:#ec1c24;fill-rule:nonzero;"/></g><g transform="matrix(14,0,0,14,1231.42,379.975)"><path d="M0.294,0l0,-0.11l-0.05,0c-0.033,0 -0.046,-0.016 -0.046,-0.047l0,-0.555l-0.13,0l0,0.563c0,0.074 0.045,0.149 0.152,0.149l0.074,0Z" style="fill:#ec1c24;fill-rule:nonzero;"/></g><g transform="matrix(14,0,0,14,1239.22,379.975)"><path d="M0.452,-0.065l-0.088,-0.087c-0.027,0.029 -0.05,0.041 -0.084,0.041c-0.031,0 -0.055,-0.011 -0.074,-0.034c-0.02,-0.025 -0.029,-0.061 -0.029,-0.116c0,-0.055 0.009,-0.09 0.029,-0.115c0.019,-0.023 0.043,-0.034 0.074,-0.034c0.034,0 0.057,0.012 0.084,0.041l0.088,-0.088c-0.046,-0.048 -0.1,-0.07 -0.172,-0.07c-0.104,0 -0.233,0.055 -0.233,0.266c0,0.211 0.129,0.267 0.233,0.267c0.072,0 0.126,-0.023 0.172,-0.071Z" style="fill:#ec1c24;fill-rule:nonzero;"/></g><g transform="matrix(14,0,0,14,1245.94,379.975)"><path d="M0.492,-0.261c0,-0.094 -0.012,-0.153 -0.059,-0.202c-0.032,-0.034 -0.085,-0.064 -0.162,-0.064c-0.077,0 -0.129,0.03 -0.161,0.064c-0.047,0.049 -0.059,0.108 -0.059,0.202c0,0.095 0.012,0.154 0.059,0.203c0.032,0.034 0.084,0.064 0.161,0.064c0.077,0 0.13,-0.03 0.162,-0.064c0.047,-0.049 0.059,-0.108 0.059,-0.203Zm-0.13,0c0,0.054 -0.003,0.1 -0.03,0.127c-0.015,0.015 -0.035,0.023 -0.061,0.023c-0.026,0 -0.045,-0.008 -0.06,-0.023c-0.027,-0.027 -0.03,-0.073 -0.03,-0.127c0,-0.054 0.003,-0.099 0.03,-0.126c0.015,-0.015 0.034,-0.023 0.06,-0.023c0.026,0 0.046,0.008 0.061,0.023c0.027,0.027 0.03,0.072 0.03,0.126Z" style="fill:#ec1c24;fill-rule:nonzero;"/></g><g transform="matrix(14,0,0,14,1253.54,379.975)"><path d="M0.809,0l0,-0.333c0,-0.057 -0.015,-0.106 -0.057,-0.148c-0.029,-0.029 -0.076,-0.046 -0.128,-0.046c-0.065,0 -0.112,0.02 -0.156,0.066c-0.033,-0.045 -0.08,-0.066 -0.138,-0.066c-0.048,0 -0.096,0.019 -0.13,0.054l0,-0.048l-0.127,0l0,0.521l0.13,0l0,-0.315c0,-0.071 0.046,-0.095 0.087,-0.095c0.041,0 0.086,0.024 0.086,0.095l0,0.315l0.13,0l0,-0.318c0,-0.068 0.047,-0.092 0.087,-0.092c0.041,0 0.086,0.024 0.086,0.095l0,0.315l0.13,0Z" style="fill:#ec1c24;fill-rule:nonzero;"/></g><g transform="matrix(14,0,0,14,1265.8,379.975)"><path d="M0.809,0l0,-0.333c0,-0.057 -0.015,-0.106 -0.057,-0.148c-0.029,-0.029 -0.076,-0.046 -0.128,-0.046c-0.065,0 -0.112,0.02 -0.156,0.066c-0.033,-0.045 -0.08,-0.066 -0.138,-0.066c-0.048,0 -0.096,0.019 -0.13,0.054l0,-0.048l-0.127,0l0,0.521l0.13,0l0,-0.315c0,-0.071 0.046,-0.095 0.087,-0.095c0.041,0 0.086,0.024 0.086,0.095l0,0.315l0.13,0l0,-0.318c0,-0.068 0.047,-0.092 0.087,-0.092c0.041,0 0.086,0.024 0.086,0.095l0,0.315l0.13,0Z" style="fill:#ec1c24;fill-rule:nonzero;"/></g><g transform="matrix(14,0,0,14,1278.07,379.975)"><path d="M0.5,0l0,-0.521l-0.13,0l0,0.315c0,0.071 -0.046,0.095 -0.087,0.095c-0.041,0 -0.086,-0.024 -0.086,-0.095l0,-0.315l-0.13,0l0,0.333c0,0.057 0.011,0.106 0.053,0.148c0.029,0.029 0.071,0.046 0.123,0.046c0.048,0 0.096,-0.018 0.13,-0.054l0,0.048l0.127,0Z" style="fill:#ec1c24;fill-rule:nonzero;"/></g><g transform="matrix(14,0,0,14,1286.09,379.975)"><path d="M0.506,0l0,-0.333c0,-0.057 -0.011,-0.106 -0.053,-0.148c-0.029,-0.029 -0.071,-0.046 -0.123,-0.046c-0.048,0 -0.096,0.018 -0.13,0.054l0,-0.048l-0.127,0l0,0.521l0.13,0l0,-0.315c0,-0.071 0.046,-0.095 0.087,-0.095c0.041,0 0.086,0.024 0.086,0.095l0,0.315l0.13,0Z" style="fill:#ec1c24;fill-rule:nonzero;"/></g><g transform="matrix(14,0,0,14,1294.11,379.975)"><path d="M0.204,-0.61l0,-0.106l-0.133,0l0,0.106l0.133,0Zm-0.001,0.61l0,-0.521l-0.13,0l0,0.521l0.13,0Z" style="fill:#ec1c24;fill-rule:nonzero;"/></g><g transform="matrix(14,0,0,14,1297.96,379.975)"><path d="M0.307,0l0,-0.11l-0.047,0c-0.031,0 -0.045,-0.017 -0.045,-0.047l0,-0.25l0.092,0l0,-0.099l-0.092,0l0,-0.154l-0.13,0l0,0.154l-0.055,0l0,0.099l0.055,0l0,0.258c0,0.074 0.045,0.149 0.151,0.149l0.071,0Z" style="fill:#ec1c24;fill-rule:nonzero;"/></g><g transform="matrix(14,0,0,14,1302.89,379.975)"><path d="M0.49,-0.521l-0.137,0l-0.104,0.322l-0.108,-0.322l-0.137,0l0.178,0.484l-0.022,0.064c-0.013,0.038 -0.028,0.047 -0.065,0.047l-0.03,0l0,0.117l0.051,0c0.043,0 0.082,-0.01 0.112,-0.04c0.016,-0.016 0.028,-0.038 0.039,-0.067l0.223,-0.605Z" style="fill:#ec1c24;fill-rule:nonzero;"/></g><g transform="matrix(14,0,0,14,1313.05,379.975)"><path d="M0.315,-0.407l0,-0.099l-0.096,0l0,-0.057c0,-0.03 0.014,-0.047 0.045,-0.047l0.051,0l0,-0.11l-0.074,0c-0.106,0 -0.152,0.075 -0.152,0.149l0,0.065l-0.054,0l0,0.099l0.054,0l0,0.407l0.13,0l0,-0.407l0.096,0Z" style="fill:#ec1c24;fill-rule:nonzero;"/></g><g transform="matrix(14,0,0,14,1317.84,379.975)"><path d="M0.492,-0.261c0,-0.094 -0.012,-0.153 -0.059,-0.202c-0.032,-0.034 -0.085,-0.064 -0.162,-0.064c-0.077,0 -0.129,0.03 -0.161,0.064c-0.047,0.049 -0.059,0.108 -0.059,0.202c0,0.095 0.012,0.154 0.059,0.203c0.032,0.034 0.084,0.064 0.161,0.064c0.077,0 0.13,-0.03 0.162,-0.064c0.047,-0.049 0.059,-0.108 0.059,-0.203Zm-0.13,0c0,0.054 -0.003,0.1 -0.03,0.127c-0.015,0.015 -0.035,0.023 -0.061,0.023c-0.026,0 -0.045,-0.008 -0.06,-0.023c-0.027,-0.027 -0.03,-0.073 -0.03,-0.127c0,-0.054 0.003,-0.099 0.03,-0.126c0.015,-0.015 0.034,-0.023 0.06,-0.023c0.026,0 0.046,0.008 0.061,0.023c0.027,0.027 0.03,0.072 0.03,0.126Z" style="fill:#ec1c24;fill-rule:nonzero;"/></g><g transform="matrix(14,0,0,14,1325.44,379.975)"><path d="M0.454,-0.478c-0.036,-0.036 -0.072,-0.049 -0.123,-0.049c-0.056,0 -0.106,0.026 -0.131,0.056l0,-0.05l-0.127,0l0,0.521l0.13,0l0,-0.314c0,-0.066 0.044,-0.096 0.084,-0.096c0.032,0 0.049,0.011 0.069,0.031l0.098,-0.099Z" style="fill:#ec1c24;fill-rule:nonzero;"/></g><g transform="matrix(14,0,0,14,1184,396.559)"><path d="M0.452,-0.065l-0.088,-0.087c-0.027,0.029 -0.05,0.041 -0.084,0.041c-0.031,0 -0.055,-0.011 -0.074,-0.034c-0.02,-0.025 -0.029,-0.061 -0.029,-0.116c0,-0.055 0.009,-0.09 0.029,-0.115c0.019,-0.023 0.043,-0.034 0.074,-0.034c0.034,0 0.057,0.012 0.084,0.041l0.088,-0.088c-0.046,-0.048 -0.1,-0.07 -0.172,-0.07c-0.104,0 -0.233,0.055 -0.233,0.266c0,0.211 0.129,0.267 0.233,0.267c0.072,0 0.126,-0.023 0.172,-0.071Z" style="fill:#ec1c24;fill-rule:nonzero;"/></g><g transform="matrix(14,0,0,14,1190.72,396.559)"><path d="M0.467,0l0,-0.343c0,-0.122 -0.076,-0.184 -0.222,-0.184c-0.087,0 -0.137,0.016 -0.188,0.072l0.083,0.081c0.027,-0.031 0.05,-0.043 0.1,-0.043c0.069,0 0.097,0.025 0.097,0.082l0,0.026l-0.123,0c-0.121,0 -0.178,0.068 -0.178,0.151c0,0.046 0.015,0.088 0.043,0.117c0.031,0.031 0.074,0.046 0.133,0.046c0.06,0 0.093,-0.015 0.128,-0.05l0,0.045l0.127,0Zm-0.13,-0.192c0,0.032 -0.005,0.053 -0.019,0.066c-0.023,0.022 -0.046,0.025 -0.082,0.025c-0.051,0 -0.075,-0.024 -0.075,-0.06c0,-0.037 0.026,-0.059 0.073,-0.059l0.103,0l0,0.028Z" style="fill:#ec1c24;fill-rule:nonzero;"/></g><g transform="matrix(14,0,0,14,1198.2,396.559)"><path d="M0.454,-0.478c-0.036,-0.036 -0.072,-0.049 -0.123,-0.049c-0.056,0 -0.106,0.026 -0.131,0.056l0,-0.05l-0.127,0l0,0.521l0.13,0l0,-0.314c0,-0.066 0.044,-0.096 0.084,-0.096c0.032,0 0.049,0.011 0.069,0.031l0.098,-0.099Z" style="fill:#ec1c24;fill-rule:nonzero;"/></g><g transform="matrix(14,0,0,14,1204.57,396.559)"><path d="M0.488,0l0,-0.712l-0.13,0l0,0.237c-0.034,-0.038 -0.074,-0.052 -0.127,-0.052c-0.051,0 -0.098,0.018 -0.127,0.047c-0.052,0.052 -0.053,0.141 -0.053,0.219c0,0.078 0.001,0.168 0.053,0.22c0.029,0.029 0.077,0.047 0.128,0.047c0.055,0 0.093,-0.015 0.129,-0.055l0,0.049l0.127,0Zm-0.13,-0.261c0,0.085 -0.011,0.15 -0.089,0.15c-0.078,0 -0.088,-0.065 -0.088,-0.15c0,-0.085 0.01,-0.149 0.088,-0.149c0.078,0 0.089,0.064 0.089,0.149Z" style="fill:#ec1c24;fill-rule:nonzero;"/></g><g transform="matrix(14,0,0,14,1212.42,396.559)"><path d="M0.204,-0.61l0,-0.106l-0.133,0l0,0.106l0.133,0Zm-0.001,0.61l0,-0.521l-0.13,0l0,0.521l0.13,0Z" style="fill:#ec1c24;fill-rule:nonzero;"/></g><g transform="matrix(14,0,0,14,1216.27,396.559)"><path d="M0.492,-0.261c0,-0.094 -0.012,-0.153 -0.059,-0.202c-0.032,-0.034 -0.085,-0.064 -0.162,-0.064c-0.077,0 -0.129,0.03 -0.161,0.064c-0.047,0.049 -0.059,0.108 -0.059,0.202c0,0.095 0.012,0.154 0.059,0.203c0.032,0.034 0.084,0.064 0.161,0.064c0.077,0 0.13,-0.03 0.162,-0.064c0.047,-0.049 0.059,-0.108 0.059,-0.203Zm-0.13,0c0,0.054 -0.003,0.1 -0.03,0.127c-0.015,0.015 -0.035,0.023 -0.061,0.023c-0.026,0 -0.045,-0.008 -0.06,-0.023c-0.027,-0.027 -0.03,-0.073 -0.03,-0.127c0,-0.054 0.003,-0.099 0.03,-0.126c0.015,-0.015 0.034,-0.023 0.06,-0.023c0.026,0 0.046,0.008 0.061,0.023c0.027,0.027 0.03,0.072 0.03,0.126Z" style="fill:#ec1c24;fill-rule:nonzero;"/></g><g transform="matrix(14,0,0,14,1223.87,396.559)"><path d="M0.489,-0.521l-0.137,0l-0.105,0.322l-0.106,-0.322l-0.137,0l0.192,0.521l0.102,0l0.191,-0.521Z" style="fill:#ec1c24;fill-rule:nonzero;"/></g><g transform="matrix(14,0,0,14,1230.77,396.559)"><path d="M0.467,0l0,-0.343c0,-0.122 -0.076,-0.184 -0.222,-0.184c-0.087,0 -0.137,0.016 -0.188,0.072l0.083,0.081c0.027,-0.031 0.05,-0.043 0.1,-0.043c0.069,0 0.097,0.025 0.097,0.082l0,0.026l-0.123,0c-0.121,0 -0.178,0.068 -0.178,0.151c0,0.046 0.015,0.088 0.043,0.117c0.031,0.031 0.074,0.046 0.133,0.046c0.06,0 0.093,-0.015 0.128,-0.05l0,0.045l0.127,0Zm-0.13,-0.192c0,0.032 -0.005,0.053 -0.019,0.066c-0.023,0.022 -0.046,0.025 -0.082,0.025c-0.051,0 -0.075,-0.024 -0.075,-0.06c0,-0.037 0.026,-0.059 0.073,-0.059l0.103,0l0,0.028Z" style="fill:#ec1c24;fill-rule:nonzero;"/></g><g transform="matrix(14,0,0,14,1238.25,396.559)"><path d="M0.465,-0.164c0,-0.088 -0.052,-0.143 -0.155,-0.153l-0.082,-0.008c-0.046,-0.004 -0.054,-0.026 -0.054,-0.045c0,-0.026 0.022,-0.05 0.074,-0.05c0.045,0 0.091,0.008 0.121,0.035l0.08,-0.081c-0.05,-0.047 -0.118,-0.061 -0.199,-0.061c-0.106,0 -0.201,0.058 -0.201,0.166c0,0.096 0.058,0.137 0.152,0.146l0.082,0.008c0.041,0.004 0.055,0.022 0.055,0.048c0,0.039 -0.047,0.054 -0.092,0.054c-0.04,0 -0.096,-0.006 -0.139,-0.049l-0.085,0.085c0.066,0.066 0.14,0.075 0.222,0.075c0.123,0 0.221,-0.055 0.221,-0.17Z" style="fill:#ec1c24;fill-rule:nonzero;"/></g><g transform="matrix(14,0,0,14,1245.26,396.559)"><path d="M0.452,-0.065l-0.088,-0.087c-0.027,0.029 -0.05,0.041 -0.084,0.041c-0.031,0 -0.055,-0.011 -0.074,-0.034c-0.02,-0.025 -0.029,-0.061 -0.029,-0.116c0,-0.055 0.009,-0.09 0.029,-0.115c0.019,-0.023 0.043,-0.034 0.074,-0.034c0.034,0 0.057,0.012 0.084,0.041l0.088,-0.088c-0.046,-0.048 -0.1,-0.07 -0.172,-0.07c-0.104,0 -0.233,0.055 -0.233,0.266c0,0.211 0.129,0.267 0.233,0.267c0.072,0 0.126,-0.023 0.172,-0.071Z" style="fill:#ec1c24;fill-rule:nonzero;"/></g><g transform="matrix(14,0,0,14,1251.98,396.559)"><path d="M0.5,0l0,-0.521l-0.13,0l0,0.315c0,0.071 -0.046,0.095 -0.087,0.095c-0.041,0 -0.086,-0.024 -0.086,-0.095l0,-0.315l-0.13,0l0,0.333c0,0.057 0.011,0.106 0.053,0.148c0.029,0.029 0.071,0.046 0.123,0.046c0.048,0 0.096,-0.018 0.13,-0.054l0,0.048l0.127,0Z" style="fill:#ec1c24;fill-rule:nonzero;"/></g><g transform="matrix(14,0,0,14,1260.01,396.559)"><path d="M0.294,0l0,-0.11l-0.05,0c-0.033,0 -0.046,-0.016 -0.046,-0.047l0,-0.555l-0.13,0l0,0.563c0,0.074 0.045,0.149 0.152,0.149l0.074,0Z" style="fill:#ec1c24;fill-rule:nonzero;"/></g><g transform="matrix(14,0,0,14,1264.56,396.559)"><path d="M0.467,0l0,-0.343c0,-0.122 -0.076,-0.184 -0.222,-0.184c-0.087,0 -0.137,0.016 -0.188,0.072l0.083,0.081c0.027,-0.031 0.05,-0.043 0.1,-0.043c0.069,0 0.097,0.025 0.097,0.082l0,0.026l-0.123,0c-0.121,0 -0.178,0.068 -0.178,0.151c0,0.046 0.015,0.088 0.043,0.117c0.031,0.031 0.074,0.046 0.133,0.046c0.06,0 0.093,-0.015 0.128,-0.05l0,0.045l0.127,0Zm-0.13,-0.192c0,0.032 -0.005,0.053 -0.019,0.066c-0.023,0.022 -0.046,0.025 -0.082,0.025c-0.051,0 -0.075,-0.024 -0.075,-0.06c0,-0.037 0.026,-0.059 0.073,-0.059l0.103,0l0,0.028Z" style="fill:#ec1c24;fill-rule:nonzero;"/></g><g transform="matrix(14,0,0,14,1272.03,396.559)"><path d="M0.454,-0.478c-0.036,-0.036 -0.072,-0.049 -0.123,-0.049c-0.056,0 -0.106,0.026 -0.131,0.056l0,-0.05l-0.127,0l0,0.521l0.13,0l0,-0.314c0,-0.066 0.044,-0.096 0.084,-0.096c0.032,0 0.049,0.011 0.069,0.031l0.098,-0.099Z" style="fill:#ec1c24;fill-rule:nonzero;"/></g><g transform="matrix(14,0,0,14,1281.65,396.559)"><path d="M0.502,0l0,-0.337c0,-0.11 -0.06,-0.19 -0.174,-0.19c-0.046,0 -0.09,0.018 -0.125,0.054l0,-0.239l-0.13,0l0,0.712l0.13,0l0,-0.318c0,-0.068 0.043,-0.092 0.084,-0.092c0.041,0 0.085,0.023 0.085,0.092l0,0.318l0.13,0Z" style="fill:#ec1c24;fill-rule:nonzero;"/></g><g transform="matrix(14,0,0,14,1289.62,396.559)"><path d="M0.501,-0.22l0,-0.058c0,-0.143 -0.082,-0.249 -0.227,-0.249c-0.135,0 -0.227,0.096 -0.227,0.266c0,0.211 0.118,0.267 0.241,0.267c0.094,0 0.145,-0.029 0.198,-0.082l-0.079,-0.077c-0.033,0.033 -0.061,0.049 -0.118,0.049c-0.073,0 -0.114,-0.049 -0.114,-0.116l0.326,0Zm-0.128,-0.089l-0.198,0c0.001,-0.023 0.004,-0.037 0.012,-0.056c0.014,-0.031 0.043,-0.054 0.087,-0.054c0.044,0 0.073,0.023 0.087,0.054c0.008,0.019 0.011,0.033 0.012,0.056Z" style="fill:#ec1c24;fill-rule:nonzero;"/></g><g transform="matrix(14,0,0,14,1297.29,396.559)"><path d="M0.467,0l0,-0.343c0,-0.122 -0.076,-0.184 -0.222,-0.184c-0.087,0 -0.137,0.016 -0.188,0.072l0.083,0.081c0.027,-0.031 0.05,-0.043 0.1,-0.043c0.069,0 0.097,0.025 0.097,0.082l0,0.026l-0.123,0c-0.121,0 -0.178,0.068 -0.178,0.151c0,0.046 0.015,0.088 0.043,0.117c0.031,0.031 0.074,0.046 0.133,0.046c0.06,0 0.093,-0.015 0.128,-0.05l0,0.045l0.127,0Zm-0.13,-0.192c0,0.032 -0.005,0.053 -0.019,0.066c-0.023,0.022 -0.046,0.025 -0.082,0.025c-0.051,0 -0.075,-0.024 -0.075,-0.06c0,-0.037 0.026,-0.059 0.073,-0.059l0.103,0l0,0.028Z" style="fill:#ec1c24;fill-rule:nonzero;"/></g><g transform="matrix(14,0,0,14,1304.76,396.559)"><path d="M0.294,0l0,-0.11l-0.05,0c-0.033,0 -0.046,-0.016 -0.046,-0.047l0,-0.555l-0.13,0l0,0.563c0,0.074 0.045,0.149 0.152,0.149l0.074,0Z" style="fill:#ec1c24;fill-rule:nonzero;"/></g><g transform="matrix(14,0,0,14,1309.31,396.559)"><path d="M0.307,0l0,-0.11l-0.047,0c-0.031,0 -0.045,-0.017 -0.045,-0.047l0,-0.25l0.092,0l0,-0.099l-0.092,0l0,-0.154l-0.13,0l0,0.154l-0.055,0l0,0.099l0.055,0l0,0.258c0,0.074 0.045,0.149 0.151,0.149l0.071,0Z" style="fill:#ec1c24;fill-rule:nonzero;"/></g><g transform="matrix(14,0,0,14,1314.24,396.559)"><path d="M0.502,0l0,-0.337c0,-0.11 -0.06,-0.19 -0.174,-0.19c-0.046,0 -0.09,0.018 -0.125,0.054l0,-0.239l-0.13,0l0,0.712l0.13,0l0,-0.318c0,-0.068 0.043,-0.092 0.084,-0.092c0.041,0 0.085,0.023 0.085,0.092l0,0.318l0.13,0Z" style="fill:#ec1c24;fill-rule:nonzero;"/></g></g></g></svg>