<svg width="513" height="513" viewBox="0 0 513 513" fill="none" xmlns="http://www.w3.org/2000/svg">
<g clip-path="url(#clip0)">
<rect width="512" height="512" transform="translate(0.273315 0.273315)" fill="white"/>
<path fill-rule="evenodd" clip-rule="evenodd" d="M289.322 144.773L196.038 306.346C176.866 339.553 188.243 382.014 221.45 401.186C254.657 420.358 297.118 408.98 316.29 375.774L409.574 214.201C428.746 180.994 417.369 138.533 384.162 119.361C350.955 100.189 308.494 111.566 289.322 144.773ZM152.937 281.462C120.022 338.472 139.555 411.372 196.566 444.287C253.576 477.202 326.476 457.669 359.391 400.658L452.675 239.085C485.59 182.074 466.057 109.175 409.046 76.2598C352.035 43.3447 279.136 62.878 246.221 119.889L152.937 281.462Z" fill="#FF3355"/>
<path fill-rule="evenodd" clip-rule="evenodd" d="M222.95 144.773L316.235 306.346C335.406 339.553 324.029 382.014 290.822 401.186C257.616 420.358 215.154 408.98 195.982 375.774L102.698 214.201C83.5263 180.994 94.9038 138.533 128.111 119.361C161.317 100.189 203.779 111.566 222.95 144.773ZM359.336 281.462C392.251 338.472 372.717 411.372 315.707 444.287C258.696 477.202 185.796 457.669 152.881 400.658L59.5972 239.085C26.682 182.074 46.2154 109.175 103.226 76.2598C160.237 43.3447 233.136 62.878 266.051 119.889L359.336 281.462Z" fill="#FF3355"/>
</g>
<defs>
<clipPath id="clip0">
<rect width="512" height="512" fill="white" transform="translate(0.273315 0.273315)"/>
</clipPath>
</defs>
</svg>
