<svg width="180" height="20" viewBox="0 0 180 20" fill="none" xmlns="http://www.w3.org/2000/svg">
<g clip-path="url(#clip0)">
<path d="M15.2659 19.7782H20.0408V0.210005H15.2659V19.7782ZM4.76921 15.5188V0.210984H0.00116354V19.7889H12.9934V15.5188H4.76921ZM58.1343 17.4176C58.7506 18.0437 58.6264 18.616 59.453 18.9682C62.3496 20.2017 65.3196 20.3671 68.2945 19.3272C70.116 18.6923 71.4484 17.4616 72.0334 15.5589C72.4375 14.2422 72.3484 12.9117 72.01 11.594C71.6695 10.2724 70.9153 9.25011 69.667 8.68859C68.9314 8.35794 68.1409 8.11924 67.3505 7.95294C66.3292 7.73674 65.2834 7.6487 64.2524 7.47751C63.3132 7.32098 62.7517 6.61468 62.8808 5.76751C62.9845 5.0837 63.4189 4.6337 64.0499 4.42435C65.1758 4.04968 66.3272 4.12794 67.4366 4.47033C67.9913 4.64055 68.4872 5.00153 68.9255 5.2324C69.9136 4.26979 70.9143 3.29251 71.961 2.27218C71.4827 1.91805 71.0337 1.51011 70.5181 1.21859C68.2182 -0.0785815 65.7422 -0.236082 63.2105 0.260875C61.2442 0.64631 59.7034 1.68131 58.7878 3.51751C58.1284 4.84011 58.0903 6.23805 58.3446 7.66435C58.6097 9.14935 59.3747 10.2773 60.7032 11.011C61.4819 11.4404 62.3193 11.7007 63.1939 11.8376C64.2259 11.999 65.2639 12.1282 66.294 12.3052C66.8839 12.407 67.3261 12.7288 67.4865 13.349C67.7624 14.4075 67.2605 15.2488 66.1844 15.5217C65.1876 15.7751 64.1849 15.7125 63.1831 15.557C62.1354 15.3955 61.165 15.0404 60.3618 14.3371C59.3386 15.3711 59.1625 16.3767 58.1343 17.4176ZM47.7872 11.7584C47.9007 11.955 47.9849 12.0978 48.0661 12.2426C49.4278 14.6638 50.7915 17.086 52.1464 19.5121C52.2638 19.7204 52.3812 19.8202 52.6424 19.8183C54.277 19.8016 55.9117 19.8104 57.5464 19.8085C57.652 19.8085 57.7577 19.7938 57.8976 19.7821C57.8144 19.6304 57.7577 19.5189 57.6941 19.4113C55.5331 15.7565 53.3731 12.0998 51.2043 8.4499C51.0615 8.21022 51.039 8.05859 51.2376 7.82577C53.2909 5.41631 55.3296 2.99414 57.3722 0.575875C57.4642 0.467288 57.5503 0.352832 57.6794 0.19044C55.7239 0.19044 53.8593 0.186527 51.9947 0.200223C51.8734 0.201201 51.7228 0.317614 51.6367 0.422288C50.41 1.90924 49.1911 3.40305 47.9702 4.8949C47.3842 5.61098 46.7972 6.32609 46.1359 7.13414V0.210005H41.3444V19.787H46.134V19.3497C46.134 17.5614 46.132 15.7741 46.1379 13.9859C46.1379 13.8411 46.1487 13.6582 46.2318 13.5584C46.7268 12.9587 47.2453 12.3796 47.7872 11.7584ZM27.8493 9.9574C27.9784 10.1442 28.043 10.2313 28.1017 10.3233C30.0475 13.3794 31.9952 16.4345 33.9321 19.4964C34.0799 19.7292 34.2334 19.8222 34.5113 19.8173C35.5199 19.7997 36.5294 19.8095 37.538 19.8095H38.3343V0.219788H33.5242V10.0151C33.4 9.83707 33.3276 9.74022 33.263 9.63751C31.3202 6.59414 29.3793 3.55077 27.4384 0.506418C27.3289 0.335223 27.2467 0.177723 26.9796 0.182614C25.7402 0.201201 24.5017 0.189462 23.2622 0.192397C23.1908 0.192397 23.1194 0.214897 23.0519 0.226636V19.7889H27.8493V9.9574Z" fill="#EC1C24"/>
<path d="M27.8489 9.95733V19.7889H23.0506V0.226567C23.119 0.215807 23.1895 0.192328 23.2619 0.192328C24.5003 0.190372 25.7398 0.201133 26.9783 0.182546C27.2463 0.177654 27.3285 0.335155 27.4371 0.50635C29.378 3.5507 31.3198 6.59407 33.2616 9.63744C33.3272 9.74016 33.3996 9.837 33.5238 10.016V0.21972H38.333V19.8094H37.5376C36.5281 19.8094 35.5185 19.8006 34.5099 19.8172C34.2321 19.8221 34.0795 19.7292 33.9318 19.4963C31.9948 16.4344 30.0471 13.3793 28.1013 10.3242C28.0426 10.2312 27.9781 10.1442 27.8489 9.95733Z" fill="#EC1C24"/>
<path d="M47.7863 11.7581C47.2443 12.3803 46.7259 12.9594 46.2309 13.5581C46.1477 13.6579 46.1369 13.8408 46.1369 13.9856C46.1311 15.7739 46.133 17.5621 46.133 19.3504V19.7867H41.3435V0.210711H46.135V7.13386C46.7963 6.3268 47.3832 5.61071 47.9692 4.89462C49.1911 3.40278 50.409 1.90897 51.6357 0.422015C51.7218 0.317341 51.8725 0.201906 51.9938 0.200928C53.8584 0.186254 55.7229 0.190167 57.6785 0.190167C57.5493 0.352558 57.4632 0.467015 57.3713 0.575602C55.3287 2.99484 53.29 5.41702 51.2366 7.82549C51.038 8.0593 51.0605 8.20995 51.2034 8.44962C53.3722 12.1005 55.5322 15.7563 57.6931 19.411C57.7567 19.5196 57.8135 19.6302 57.8966 19.7818C57.7567 19.7935 57.6511 19.8092 57.5464 19.8092C55.9107 19.8102 54.2761 19.8023 52.6414 19.818C52.3802 19.82 52.2628 19.7211 52.1464 19.5128C50.7905 17.0857 49.4268 14.6645 48.0651 12.2423C47.9839 12.0985 47.8998 11.9547 47.7863 11.7581Z" fill="#EC1C24"/>
<path d="M57.3133 17.4175C58.3424 16.3777 59.3373 15.371 60.3606 14.338C61.1647 15.0404 62.1341 15.3965 63.1819 15.5579C64.1836 15.7124 65.1863 15.775 66.1841 15.5227C67.2592 15.2487 67.7621 14.4074 67.4852 13.349C67.3248 12.7287 66.8826 12.4069 66.2927 12.3052C65.2626 12.1281 64.2247 11.999 63.1926 11.8375C62.3181 11.7006 61.4816 11.4414 60.7029 11.0109C59.3735 10.2772 58.6095 9.14929 58.3444 7.66429C58.089 6.23798 58.1272 4.84102 58.7865 3.51744C59.7022 1.68124 61.2439 0.646242 63.2102 0.260808C65.742 -0.235171 68.217 -0.078649 70.5178 1.21852C71.0324 1.51005 71.4814 1.91798 71.9608 2.27211C70.9131 3.29342 69.9123 4.26972 68.9252 5.23233C68.486 5.00146 67.99 4.64048 67.4363 4.47026C66.326 4.12885 65.1756 4.04961 64.0496 4.42429C63.4176 4.63363 62.9833 5.08461 62.8796 5.76744C62.7514 6.61559 63.3129 7.32092 64.2511 7.47744C65.2822 7.64961 66.3289 7.73668 67.3492 7.95287C68.1397 8.11918 68.9301 8.35787 69.6658 8.68852C70.915 9.25005 71.6683 10.2723 72.0087 11.594C72.3482 12.9127 72.4362 14.2421 72.0322 15.5598C71.4482 17.4616 70.1148 18.6922 68.2942 19.3271C65.3194 20.367 62.3484 20.2017 59.4527 18.9681C58.6251 18.6169 57.9306 18.0446 57.3133 17.4175Z" fill="#EC1C24"/>
<path d="M4.76804 15.5192H12.9923V19.7884H0V0.211405H4.76804V15.5192Z" fill="#EC1C24"/>
<path d="M20.04 0.210031H15.2651V19.7782H20.04V0.210031Z" fill="#EC1C24"/>
<path d="M85.9136 4.99726L84.8845 1.88932H84.8649L83.8348 4.99726H85.9136ZM86.2208 5.954H83.5227L82.9769 7.54465H81.8343L84.4208 0.429758H85.3227L87.9093 7.54465H86.7725L86.2208 5.954Z" fill="#EC1C24"/>
<path d="M91.8118 5.01633C91.8118 5.40373 91.8255 5.67079 91.8519 5.81655C91.8735 5.97014 91.9282 6.09633 92.0124 6.1971C92.0809 6.28905 92.1845 6.3722 92.3235 6.44655C92.4575 6.53753 92.6238 6.58351 92.8224 6.58351C93.021 6.58351 93.1863 6.53753 93.3193 6.44655C93.4534 6.3722 93.5541 6.28905 93.6236 6.1971C93.7067 6.09633 93.7644 5.97014 93.7928 5.81655C93.8124 5.67079 93.8222 5.40373 93.8222 5.01633C93.8222 4.62307 93.8124 4.34916 93.7928 4.19655C93.7644 4.04394 93.7067 3.92068 93.6236 3.82579C93.5541 3.73481 93.4534 3.64579 93.3193 3.55775C93.1863 3.4834 93.021 3.44231 92.8224 3.43644C92.6238 3.44231 92.4575 3.4834 92.3235 3.55775C92.1845 3.64579 92.0809 3.73481 92.0124 3.82579C91.9282 3.92068 91.8735 4.04394 91.8519 4.19655C91.8255 4.34916 91.8118 4.62307 91.8118 5.01633ZM93.8222 7.01199C93.4876 7.39351 93.0523 7.59014 92.5152 7.60286C92.1865 7.59601 91.9136 7.52557 91.6954 7.39351C91.4675 7.26633 91.2943 7.12938 91.174 6.98362C91.04 6.81731 90.9441 6.61383 90.8854 6.37318C90.8238 6.13644 90.7925 5.68351 90.7925 5.01633C90.7925 4.33742 90.8238 3.87666 90.8854 3.63601C90.9441 3.39829 91.04 3.19873 91.174 3.03633C91.2943 2.8759 91.4675 2.73307 91.6954 2.6059C91.9136 2.48557 92.1865 2.42296 92.5152 2.41612C93.019 2.41612 93.4553 2.61666 93.8222 3.01579V2.4797H94.8425V7.42188C94.8288 8.18297 94.6087 8.74351 94.1831 9.10057C93.7537 9.4684 93.2401 9.65133 92.6414 9.65133C91.9547 9.6396 91.3706 9.35688 90.8854 8.80318L91.6759 8.17416C91.806 8.29449 91.9547 8.39623 92.1249 8.48133C92.297 8.57525 92.4761 8.62514 92.661 8.63199C93.0102 8.63199 93.289 8.53612 93.5013 8.34438C93.7087 8.14873 93.8163 7.8797 93.8222 7.53438V7.01199Z" fill="#EC1C24"/>
<path d="M96.1595 0.429741H97.1789V6.2367C97.1789 6.46757 97.306 6.583 97.5604 6.583H97.9106V7.54365H97.4577C97.0869 7.54365 96.7817 7.4517 96.541 7.26583C96.2867 7.07702 96.1595 6.76007 96.1595 6.31496V0.429741Z" fill="#EC1C24"/>
<path d="M101.645 5.01633C101.645 4.65536 101.627 4.3922 101.595 4.2259C101.562 4.06644 101.496 3.92753 101.395 3.8072C101.32 3.69275 101.21 3.60373 101.063 3.53818C100.925 3.4697 100.761 3.43644 100.575 3.43644C100.402 3.43644 100.244 3.4697 100.097 3.53818C99.957 3.60373 99.8435 3.69275 99.7555 3.8072C99.6675 3.92753 99.6039 4.06644 99.5657 4.2259C99.5266 4.3922 99.506 4.65242 99.506 5.00655C99.506 5.35873 99.5266 5.61503 99.5657 5.77742C99.6039 5.94373 99.6675 6.09047 99.7555 6.21764C99.8435 6.31449 99.957 6.40057 100.097 6.47492C100.244 6.54633 100.402 6.58351 100.575 6.58351C100.761 6.58351 100.925 6.54633 101.063 6.47492C101.21 6.40057 101.32 6.31449 101.395 6.21764C101.496 6.09047 101.562 5.94373 101.595 5.77742C101.627 5.61503 101.645 5.36166 101.645 5.01633ZM98.4867 5.00655C98.4867 4.4734 98.5307 4.06351 98.6188 3.77688C98.7097 3.4971 98.8496 3.26133 99.0384 3.07057C99.1783 2.90133 99.374 2.7497 99.6244 2.61666C99.8719 2.48949 100.189 2.42296 100.575 2.41612C100.975 2.42296 101.298 2.48949 101.547 2.61666C101.789 2.7497 101.979 2.90133 102.113 3.07057C102.315 3.26133 102.456 3.4971 102.542 3.77688C102.623 4.06351 102.664 4.4734 102.664 5.00655C102.664 5.54068 102.623 5.94666 102.542 6.22644C102.456 6.50623 102.315 6.74883 102.113 6.95329C102.048 7.02862 101.967 7.10199 101.873 7.1734C101.788 7.2546 101.68 7.32405 101.547 7.38275C101.298 7.52362 100.975 7.59601 100.575 7.60286C100.189 7.59601 99.8719 7.52362 99.6244 7.38275C99.374 7.25655 99.1783 7.11373 99.0384 6.95329C98.8496 6.74883 98.7097 6.50623 98.6188 6.22644C98.5307 5.94666 98.4867 5.54068 98.4867 5.00655Z" fill="#EC1C24"/>
<path d="M105.752 3.43624C105.525 3.43624 105.343 3.4832 105.21 3.57809C105.07 3.67102 104.969 3.79526 104.904 3.94787C104.841 4.10146 104.8 4.26776 104.782 4.4458C104.761 4.62483 104.752 4.81167 104.752 5.00635C104.752 5.18537 104.761 5.3683 104.782 5.5532C104.8 5.742 104.841 5.91222 104.904 6.0658C104.969 6.21939 105.07 6.34265 105.21 6.43657C105.343 6.53439 105.525 6.5833 105.752 6.5833C105.993 6.5833 106.183 6.53733 106.324 6.44635C106.463 6.35146 106.562 6.23113 106.621 6.08537C106.686 5.93276 106.73 5.75961 106.752 5.56885C106.759 5.38591 106.762 5.19907 106.762 5.00635C106.762 4.80483 106.759 4.6082 106.752 4.41646C106.73 4.23744 106.686 4.07113 106.621 3.91852C106.562 3.76591 106.463 3.64559 106.324 3.55754C106.183 3.47635 105.993 3.43624 105.752 3.43624ZM103.733 0.430044H104.752V3.01559C104.937 2.83754 105.141 2.6908 105.363 2.57733C105.567 2.46972 105.8 2.41591 106.059 2.41591C106.681 2.43254 107.135 2.65363 107.42 3.08015C107.561 3.23961 107.657 3.44896 107.709 3.70917C107.758 3.96646 107.781 4.39787 107.781 5.00635C107.781 5.60602 107.758 6.0345 107.709 6.2957C107.657 6.56863 107.561 6.78483 107.42 6.94428C107.28 7.13896 107.097 7.29548 106.87 7.41189C106.644 7.53222 106.375 7.5958 106.059 7.60265C105.527 7.58994 105.09 7.3933 104.752 7.01178V7.54396H103.733V0.430044Z" fill="#EC1C24"/>
<path d="M111.578 5.39746H110.358C109.766 5.41017 109.474 5.61365 109.479 6.00691C109.479 6.18007 109.557 6.32583 109.709 6.44615C109.855 6.5792 110.097 6.64572 110.436 6.64572C110.863 6.65257 111.163 6.6017 111.339 6.49507C111.498 6.38844 111.578 6.14387 111.578 5.76333V5.39746ZM111.578 7.09474H111.558C111.464 7.26789 111.318 7.39409 111.119 7.47528C110.924 7.56039 110.654 7.60246 110.309 7.60246C109.744 7.59561 109.308 7.44691 109.002 7.15344C108.679 6.86778 108.519 6.50191 108.519 6.05583C108.519 5.62931 108.659 5.27713 108.938 4.99735C109.218 4.71072 109.627 4.56398 110.168 4.55811H111.578V4.02691C111.585 3.58083 111.237 3.36463 110.539 3.37735C110.285 3.37735 110.085 3.40376 109.938 3.45561C109.786 3.51724 109.665 3.62191 109.577 3.76767L108.777 3.15724C109.164 2.64952 109.735 2.403 110.49 2.41572C111.127 2.40887 111.637 2.5292 112.017 2.7767C112.398 3.03104 112.59 3.46637 112.598 4.08463V7.54376H111.578V7.09474Z" fill="#EC1C24"/>
<path d="M113.915 0.429741H114.935V6.2367C114.935 6.46757 115.061 6.583 115.316 6.583H115.667V7.54365H115.213C114.842 7.54365 114.537 7.4517 114.296 7.26583C114.043 7.07702 113.915 6.76007 113.915 6.31496V0.429741Z" fill="#EC1C24"/>
<path d="M122.614 6.72447C122.392 6.97881 122.132 7.18523 121.834 7.34468C121.534 7.51001 121.188 7.5961 120.795 7.60197C120.195 7.60197 119.67 7.39947 119.218 6.99251C118.75 6.58555 118.51 5.92816 118.496 5.01642C118.51 4.09588 118.75 3.42968 119.218 3.01588C119.67 2.6099 120.195 2.40936 120.795 2.4162C121.188 2.42305 121.534 2.50425 121.834 2.66077C122.132 2.81925 122.392 3.03251 122.614 3.29957L121.862 3.96773C121.606 3.62631 121.263 3.44827 120.833 3.43653C119.967 3.42284 119.529 3.95012 119.516 5.01642C119.529 6.07686 119.967 6.59925 120.833 6.58262C121.263 6.57675 121.606 6.40066 121.862 6.05534L122.614 6.72447Z" fill="#EC1C24"/>
<path d="M126.229 5.01633C126.229 4.65536 126.213 4.3922 126.18 4.2259C126.148 4.06644 126.081 3.92753 125.98 3.8072C125.905 3.69275 125.795 3.60373 125.648 3.53818C125.509 3.4697 125.346 3.43644 125.16 3.43644C124.988 3.43644 124.828 3.4697 124.683 3.53818C124.543 3.60373 124.428 3.69275 124.34 3.8072C124.253 3.92753 124.19 4.06644 124.15 4.2259C124.111 4.3922 124.092 4.65242 124.092 5.00655C124.092 5.35873 124.111 5.61503 124.15 5.77742C124.19 5.94373 124.253 6.09047 124.34 6.21764C124.428 6.31449 124.543 6.40057 124.683 6.47492C124.828 6.54633 124.988 6.58351 125.16 6.58351C125.346 6.58351 125.509 6.54633 125.648 6.47492C125.795 6.40057 125.905 6.31449 125.98 6.21764C126.081 6.09047 126.148 5.94373 126.18 5.77742C126.213 5.61503 126.229 5.36166 126.229 5.01633ZM123.071 5.00655C123.071 4.4734 123.115 4.06351 123.203 3.77688C123.295 3.4971 123.435 3.26133 123.624 3.07057C123.764 2.90133 123.959 2.7497 124.209 2.61666C124.457 2.48949 124.774 2.42296 125.16 2.41612C125.561 2.42296 125.884 2.48949 126.131 2.61666C126.375 2.7497 126.565 2.90133 126.698 3.07057C126.899 3.26133 127.042 3.4971 127.126 3.77688C127.208 4.06351 127.249 4.4734 127.249 5.00655C127.249 5.54068 127.208 5.94666 127.126 6.22644C127.042 6.50623 126.899 6.74883 126.698 6.95329C126.632 7.02862 126.553 7.10199 126.458 7.1734C126.373 7.2546 126.264 7.32405 126.131 7.38275C125.884 7.52362 125.561 7.59601 125.16 7.60286C124.774 7.59601 124.457 7.52362 124.209 7.38275C123.959 7.25655 123.764 7.11373 123.624 6.95329C123.435 6.74883 123.295 6.50623 123.203 6.22644C123.115 5.94666 123.071 5.54068 123.071 5.00655Z" fill="#EC1C24"/>
<path d="M128.376 2.4799H129.397V3.01599H129.415C129.751 2.61686 130.191 2.41631 130.738 2.41631C131.089 2.42218 131.373 2.48283 131.587 2.59631C131.798 2.72349 131.992 2.88392 132.167 3.07957C132.564 2.63055 133.097 2.40946 133.764 2.41631C134.183 2.41631 134.567 2.56403 134.915 2.86044C135.26 3.15881 135.439 3.59903 135.451 4.17718V7.54436H134.431V4.52936C134.431 4.17425 134.34 3.90425 134.154 3.71936C133.969 3.52957 133.73 3.43664 133.436 3.43664C133.144 3.43664 132.903 3.52957 132.714 3.71936C132.522 3.90425 132.427 4.17425 132.427 4.52936V7.54436H131.407V4.52936C131.407 4.17425 131.314 3.90425 131.128 3.71936C130.941 3.52957 130.7 3.43664 130.406 3.43664C130.113 3.43664 129.874 3.52957 129.689 3.71936C129.495 3.90425 129.397 4.17425 129.397 4.52936V7.54436H128.376V2.4799Z" fill="#EC1C24"/>
<path d="M136.891 2.4799H137.911V3.01599H137.93C138.266 2.61686 138.705 2.41631 139.253 2.41631C139.603 2.42218 139.887 2.48283 140.102 2.59631C140.312 2.72349 140.507 2.88392 140.682 3.07957C141.078 2.63055 141.611 2.40946 142.279 2.41631C142.697 2.41631 143.081 2.56403 143.429 2.86044C143.774 3.15881 143.953 3.59903 143.965 4.17718V7.54436H142.946V4.52936C142.946 4.17425 142.854 3.90425 142.668 3.71936C142.483 3.52957 142.244 3.43664 141.951 3.43664C141.657 3.43664 141.417 3.52957 141.229 3.71936C141.036 3.90425 140.941 4.17425 140.941 4.52936V7.54436H139.921V4.52936C139.921 4.17425 139.829 3.90425 139.643 3.71936C139.454 3.52957 139.214 3.43664 138.921 3.43664C138.628 3.43664 138.388 3.52957 138.203 3.71936C138.008 3.90425 137.911 4.17425 137.911 4.52936V7.54436H136.891V2.4799Z" fill="#EC1C24"/>
<path d="M145.346 2.47989H146.367V5.49489C146.367 5.8363 146.463 6.10336 146.654 6.2951C146.842 6.48684 147.083 6.58271 147.375 6.58271C147.669 6.58271 147.908 6.48684 148.094 6.2951C148.282 6.10336 148.377 5.8363 148.377 5.49489V2.47989H149.396V7.54434H148.377V7.00239H148.356C148.021 7.40249 147.584 7.60206 147.045 7.60206C146.625 7.59521 146.246 7.44358 145.908 7.14423C145.539 6.85173 145.353 6.41836 145.346 5.84608V2.47989Z" fill="#EC1C24"/>
<path d="M150.714 2.47989H151.734V3.01598H151.753C152.088 2.61685 152.528 2.41631 153.071 2.41631C153.49 2.41631 153.874 2.56402 154.222 2.86044C154.567 3.15881 154.747 3.59902 154.764 4.17717V7.54435H153.745V4.52935C153.745 4.17424 153.65 3.90424 153.462 3.71935C153.276 3.52957 153.037 3.43663 152.743 3.43663C152.451 3.43663 152.21 3.52957 152.022 3.71935C151.83 3.90424 151.734 4.17424 151.734 4.52935V7.54435H150.714V2.47989Z" fill="#EC1C24"/>
<path d="M156.109 2.4796H157.13V7.54406H156.109V2.4796ZM156.109 0.430142H157.13V1.45047H156.109V0.430142Z" fill="#EC1C24"/>
<path d="M158.535 0.937957H159.555V2.4797H160.296V3.25546H159.555V6.20785C159.549 6.46415 159.669 6.58937 159.916 6.5835H160.296V7.54415H159.765C159.407 7.54415 159.114 7.43361 158.886 7.21252C158.653 7.00024 158.535 6.69502 158.535 6.29589V3.25546H158.028V2.4797H158.535V0.937957Z" fill="#EC1C24"/>
<path d="M160.525 2.47989H161.604L162.804 6.02707H162.824L164.019 2.47989H165.102L162.921 8.59305C162.782 8.97359 162.587 9.23674 162.34 9.38348C162.09 9.52337 161.808 9.59283 161.492 9.59283H161.156V8.63218H161.452C161.586 8.63218 161.71 8.59598 161.823 8.52555C161.937 8.45022 162.017 8.33968 162.063 8.19294L162.34 7.34478L160.525 2.47989Z" fill="#EC1C24"/>
<path d="M168.245 3.25565H167.733V2.47989H168.245V1.81076C168.245 1.32946 168.379 0.975325 168.645 0.74739C168.905 0.536086 169.233 0.429455 169.626 0.429455H170.284V1.39206H169.703C169.398 1.3813 169.251 1.52217 169.265 1.81076V2.47989H170.284V3.25565H169.265V7.54435H168.245V3.25565Z" fill="#EC1C24"/>
<path d="M173.768 5.01633C173.768 4.65536 173.75 4.3922 173.718 4.2259C173.686 4.06644 173.619 3.92753 173.518 3.8072C173.443 3.69275 173.333 3.60373 173.187 3.53818C173.048 3.4697 172.884 3.43644 172.699 3.43644C172.525 3.43644 172.367 3.4697 172.22 3.53818C172.08 3.60373 171.967 3.69275 171.879 3.8072C171.791 3.92753 171.727 4.06644 171.689 4.2259C171.65 4.3922 171.629 4.65242 171.629 5.00655C171.629 5.35873 171.65 5.61503 171.689 5.77742C171.727 5.94373 171.791 6.09047 171.879 6.21764C171.967 6.31449 172.08 6.40057 172.22 6.47492C172.367 6.54633 172.525 6.58351 172.699 6.58351C172.884 6.58351 173.048 6.54633 173.187 6.47492C173.333 6.40057 173.443 6.31449 173.518 6.21764C173.619 6.09047 173.686 5.94373 173.718 5.77742C173.75 5.61503 173.768 5.36166 173.768 5.01633ZM170.61 5.00655C170.61 4.4734 170.654 4.06351 170.742 3.77688C170.833 3.4971 170.973 3.26133 171.162 3.07057C171.302 2.90133 171.497 2.7497 171.748 2.61666C171.995 2.48949 172.312 2.42296 172.699 2.41612C173.099 2.42296 173.421 2.48949 173.67 2.61666C173.913 2.7497 174.102 2.90133 174.236 3.07057C174.438 3.26133 174.58 3.4971 174.665 3.77688C174.746 4.06351 174.787 4.4734 174.787 5.00655C174.787 5.54068 174.746 5.94666 174.665 6.22644C174.58 6.50623 174.438 6.74883 174.236 6.95329C174.171 7.02862 174.091 7.10199 173.997 7.1734C173.912 7.2546 173.803 7.32405 173.67 7.38275C173.421 7.52362 173.099 7.59601 172.699 7.60286C172.312 7.59601 171.995 7.52362 171.748 7.38275C171.497 7.25655 171.302 7.11373 171.162 6.95329C170.973 6.74883 170.833 6.50623 170.742 6.22644C170.654 5.94666 170.61 5.54068 170.61 5.00655Z" fill="#EC1C24"/>
<path d="M175.856 2.47989H176.876V3.01598H176.895C177.23 2.61685 177.67 2.41631 178.212 2.41631C178.619 2.42217 178.974 2.55228 179.276 2.80663L178.535 3.68902C178.32 3.51978 178.098 3.43663 177.867 3.43663C177.607 3.43663 177.383 3.51978 177.198 3.68902C176.989 3.85533 176.883 4.12435 176.876 4.49511V7.54435H175.856V2.47989Z" fill="#EC1C24"/>
<path d="M86.2112 18.7148C85.9901 18.9692 85.7299 19.1756 85.4305 19.335C85.1312 19.5004 84.7849 19.5864 84.3916 19.5923C83.7929 19.5923 83.2676 19.3898 82.8157 18.9829C82.3471 18.5759 82.1064 17.9185 82.0937 17.0068C82.1064 16.0862 82.3471 15.42 82.8157 15.0062C83.2676 14.6003 83.7929 14.3997 84.3916 14.4066C84.7849 14.4134 85.1312 14.4946 85.4305 14.6511C85.7299 14.8096 85.9901 15.0229 86.2112 15.2899L85.4599 15.9581C85.2026 15.6167 84.8602 15.4386 84.4308 15.4269C83.565 15.4132 83.1258 15.9405 83.113 17.0068C83.1258 18.0672 83.565 18.5896 84.4308 18.573C84.8602 18.5671 85.2026 18.391 85.4599 18.0457L86.2112 18.7148Z" fill="#EC1C24"/>
<path d="M89.5778 17.3879H88.3579C87.766 17.4006 87.4735 17.6041 87.4794 17.9974C87.4794 18.1705 87.5567 18.3163 87.7093 18.4366C87.8551 18.5696 88.0977 18.6362 88.4361 18.6362C88.8627 18.643 89.163 18.5921 89.3391 18.4855C89.4976 18.3789 89.5778 18.1343 89.5778 17.7538V17.3879ZM89.5778 19.0852H89.5582C89.4643 19.2583 89.3176 19.3845 89.119 19.4657C88.9243 19.5508 88.6543 19.5929 88.309 19.5929C87.7435 19.5861 87.3072 19.4374 87.002 19.1439C86.6792 18.8582 86.5188 18.4924 86.5188 18.0463C86.5188 17.6198 86.6586 17.2676 86.9384 16.9878C87.2172 16.7012 87.6271 16.5544 88.1681 16.5486H89.5778V16.0174C89.5846 15.5713 89.2373 15.3551 88.5389 15.3678C88.2845 15.3678 88.0849 15.3942 87.9382 15.4461C87.7856 15.5077 87.6653 15.6124 87.5772 15.7581L86.777 15.1477C87.1644 14.64 87.7347 14.3935 88.4899 14.4062C89.1278 14.3993 89.6365 14.5196 90.017 14.7671C90.3976 15.0215 90.5913 15.4568 90.5971 16.0751V19.5342H89.5778V19.0852Z" fill="#EC1C24"/>
<path d="M91.9149 14.4703H92.9353V15.0064H92.9539C93.2884 14.6073 93.7286 14.4067 94.2716 14.4067C94.6775 14.4126 95.0336 14.5427 95.3349 14.7971L94.5934 15.6795C94.3792 15.5102 94.1561 15.4271 93.9253 15.4271C93.665 15.4271 93.442 15.5102 93.2561 15.6795C93.0478 15.8458 92.9411 16.1148 92.9353 16.4856V19.5348H91.9149V14.4703Z" fill="#EC1C24"/>
<path d="M97.6527 15.4266C97.4121 15.4266 97.2282 15.4667 97.102 15.5479C96.9611 15.6359 96.8594 15.7563 96.7948 15.9089C96.7322 16.0615 96.6921 16.2278 96.6725 16.4068C96.653 16.5985 96.6432 16.7952 96.6432 16.9967C96.6432 17.1894 96.653 17.3763 96.6725 17.5592C96.6921 17.75 96.7322 17.9231 96.7948 18.0757C96.8594 18.2215 96.9611 18.3418 97.102 18.4367C97.2282 18.5277 97.4121 18.5737 97.6527 18.5737C97.8934 18.5737 98.0842 18.5247 98.2241 18.4269C98.3639 18.333 98.4588 18.2097 98.5117 18.0562C98.5762 17.9026 98.6202 17.7324 98.6437 17.5435C98.6506 17.3587 98.6525 17.1757 98.6525 16.9967C98.6525 16.802 98.6506 16.6152 98.6437 16.4362C98.6202 16.2581 98.5762 16.0918 98.5117 15.9382C98.4588 15.7856 98.3639 15.6614 98.2241 15.5684C98.0842 15.4735 97.8934 15.4266 97.6527 15.4266ZM98.6525 19.0021C98.318 19.3837 97.8797 19.5803 97.3417 19.593C97.0345 19.5862 96.7733 19.5226 96.5551 19.4022C96.3272 19.2858 96.1374 19.1293 95.9848 18.9346C95.8439 18.7752 95.752 18.559 95.706 18.286C95.6502 18.0249 95.6238 17.5964 95.6238 16.9967C95.6238 16.3882 95.6502 15.9568 95.706 15.6995C95.752 15.4393 95.8439 15.23 95.9848 15.0705C96.2705 14.644 96.7224 14.4229 97.3417 14.4063C97.6009 14.4063 97.8416 14.4601 98.0626 14.5677C98.2681 14.6812 98.4647 14.8279 98.6525 15.0059V12.4204H99.6719V19.5343H98.6525V19.0021Z" fill="#EC1C24"/>
<path d="M100.838 14.4701H101.858V19.5346H100.838V14.4701ZM100.838 12.4197H101.858V13.44H100.838V12.4197Z" fill="#EC1C24"/>
<path d="M106.113 17.0067C106.113 16.6457 106.097 16.3825 106.064 16.2162C106.032 16.0568 105.966 15.9179 105.865 15.7975C105.789 15.6831 105.68 15.5941 105.532 15.5285C105.393 15.46 105.231 15.4268 105.045 15.4268C104.872 15.4268 104.712 15.46 104.567 15.5285C104.426 15.5941 104.313 15.6831 104.225 15.7975C104.137 15.9179 104.074 16.0568 104.034 16.2162C103.996 16.3825 103.976 16.6428 103.976 16.9969C103.976 17.3491 103.996 17.6054 104.034 17.7678C104.074 17.9341 104.137 18.0808 104.225 18.208C104.313 18.3048 104.426 18.3909 104.567 18.4653C104.712 18.5367 104.872 18.5738 105.045 18.5738C105.231 18.5738 105.393 18.5367 105.532 18.4653C105.68 18.3909 105.789 18.3048 105.865 18.208C105.966 18.0808 106.032 17.9341 106.064 17.7678C106.097 17.6054 106.113 17.352 106.113 17.0067ZM102.956 16.9969C102.956 16.4637 103 16.0538 103.088 15.7672C103.178 15.4874 103.319 15.2517 103.507 15.0609C103.647 14.8917 103.844 14.74 104.094 14.607C104.341 14.4798 104.658 14.4133 105.045 14.4065C105.444 14.4133 105.768 14.4798 106.015 14.607C106.259 14.74 106.448 14.8917 106.582 15.0609C106.784 15.2517 106.926 15.4874 107.011 15.7672C107.092 16.0538 107.134 16.4637 107.134 16.9969C107.134 17.531 107.092 17.937 107.011 18.2168C106.926 18.4966 106.784 18.7392 106.582 18.9436C106.516 19.019 106.437 19.0923 106.342 19.1637C106.258 19.2449 106.149 19.3144 106.015 19.3731C105.768 19.514 105.444 19.5863 105.045 19.5932C104.658 19.5863 104.341 19.514 104.094 19.3731C103.844 19.2469 103.647 19.1041 103.507 18.9436C103.319 18.7392 103.178 18.4966 103.088 18.2168C103 17.937 102.956 17.531 102.956 16.9969Z" fill="#EC1C24"/>
<path d="M107.484 14.4703H108.563L109.752 18.0175H109.772L110.959 14.4703H112.041L110.183 19.5348H109.342L107.484 14.4703Z" fill="#EC1C24"/>
<path d="M115.296 17.3879H114.076C113.484 17.4006 113.192 17.6041 113.198 17.9974C113.198 18.1705 113.275 18.3163 113.428 18.4366C113.573 18.5696 113.815 18.6362 114.155 18.6362C114.581 18.643 114.881 18.5921 115.057 18.4855C115.216 18.3789 115.296 18.1343 115.296 17.7538V17.3879ZM115.296 19.0852H115.277C115.183 19.2583 115.036 19.3845 114.837 19.4657C114.643 19.5508 114.373 19.5929 114.027 19.5929C113.462 19.5861 113.027 19.4374 112.72 19.1439C112.398 18.8582 112.237 18.4924 112.237 18.0463C112.237 17.6198 112.377 17.2676 112.657 16.9878C112.937 16.7012 113.346 16.5544 113.886 16.5486H115.296V16.0174C115.303 15.5713 114.956 15.3551 114.257 15.3678C114.003 15.3678 113.803 15.3942 113.657 15.4461C113.504 15.5077 113.384 15.6124 113.296 15.7581L112.495 15.1477C112.883 14.64 113.453 14.3935 114.208 14.4062C114.845 14.3993 115.356 14.5196 115.735 14.7671C116.116 15.0215 116.309 15.4568 116.316 16.0751V19.5342H115.296V19.0852Z" fill="#EC1C24"/>
<path d="M119.384 18.6365C119.677 18.6365 119.916 18.5798 120.101 18.4654C120.287 18.3519 120.38 18.1924 120.38 17.988C120.38 17.805 120.324 17.6788 120.214 17.6074C120.099 17.5321 119.948 17.492 119.761 17.4851L118.863 17.4069C118.436 17.3677 118.09 17.2259 117.823 16.9784C117.55 16.7377 117.409 16.4002 117.403 15.9679C117.409 15.4474 117.594 15.0571 117.955 14.7969C118.306 14.5367 118.752 14.4065 119.291 14.4065C119.526 14.4065 119.736 14.4202 119.921 14.4506C120.106 14.4829 120.28 14.5288 120.443 14.5865C120.755 14.7137 121.035 14.8849 121.282 15.0992L120.653 15.8368C120.458 15.6959 120.252 15.5805 120.034 15.4895C119.818 15.4083 119.571 15.3672 119.291 15.3672C118.973 15.3672 118.75 15.4249 118.624 15.5384C118.49 15.6519 118.424 15.7996 118.424 15.9776C118.417 16.0911 118.468 16.1909 118.574 16.275C118.671 16.3699 118.844 16.4296 119.092 16.456L119.931 16.5196C120.458 16.5587 120.838 16.7172 121.073 16.997C121.291 17.2709 121.401 17.6172 121.401 18.0369C121.393 18.528 121.193 18.9065 120.799 19.1736C120.409 19.4465 119.91 19.5864 119.301 19.5933C118.475 19.5933 117.732 19.291 117.072 18.6855L117.784 17.988C118.197 18.4204 118.731 18.6365 119.384 18.6365Z" fill="#EC1C24"/>
<path d="M126.157 18.7148C125.936 18.9692 125.676 19.1756 125.376 19.335C125.077 19.5004 124.731 19.5864 124.337 19.5923C123.739 19.5923 123.213 19.3898 122.76 18.9829C122.293 18.5759 122.052 17.9185 122.038 17.0068C122.052 16.0862 122.293 15.42 122.76 15.0062C123.213 14.6003 123.739 14.3997 124.337 14.4066C124.731 14.4134 125.077 14.4946 125.376 14.6511C125.676 14.8096 125.936 15.0229 126.157 15.2899L125.405 15.9581C125.149 15.6167 124.805 15.4386 124.376 15.4269C123.511 15.4132 123.072 15.9405 123.059 17.0068C123.072 18.0672 123.511 18.5896 124.376 18.573C124.805 18.5671 125.149 18.391 125.405 18.0457L126.157 18.7148Z" fill="#EC1C24"/>
<path d="M126.865 14.4703H127.884V17.4853C127.884 17.8268 127.981 18.0938 128.172 18.2856C128.361 18.4773 128.601 18.5732 128.894 18.5732C129.186 18.5732 129.426 18.4773 129.612 18.2856C129.8 18.0938 129.895 17.8268 129.895 17.4853V14.4703H130.914V19.5348H129.895V18.9928H129.874C129.54 19.393 129.102 19.5925 128.562 19.5925C128.144 19.5857 127.764 19.434 127.426 19.1347C127.058 18.8422 126.871 18.4088 126.865 17.8365V14.4703Z" fill="#EC1C24"/>
<path d="M132.232 12.4202H133.251V18.2272C133.251 18.458 133.378 18.5735 133.633 18.5735H133.983V19.5341H133.529C133.158 19.5341 132.853 19.4422 132.612 19.2563C132.358 19.0675 132.232 18.7505 132.232 18.3054V12.4202Z" fill="#EC1C24"/>
<path d="M137.467 17.3879H136.247C135.655 17.4006 135.362 17.6041 135.369 17.9974C135.369 18.1705 135.446 18.3163 135.599 18.4366C135.744 18.5696 135.986 18.6362 136.325 18.6362C136.751 18.643 137.053 18.5921 137.229 18.4855C137.387 18.3789 137.467 18.1343 137.467 17.7538V17.3879ZM137.467 19.0852H137.447C137.353 19.2583 137.206 19.3845 137.009 19.4657C136.813 19.5508 136.543 19.5929 136.199 19.5929C135.632 19.5861 135.197 19.4374 134.891 19.1439C134.569 18.8582 134.407 18.4924 134.407 18.0463C134.407 17.6198 134.548 17.2676 134.827 16.9878C135.107 16.7012 135.517 16.5544 136.058 16.5486H137.467V16.0174C137.473 15.5713 137.127 15.3551 136.429 15.3678C136.174 15.3678 135.974 15.3942 135.828 15.4461C135.675 15.5077 135.555 15.6124 135.467 15.7581L134.667 15.1477C135.053 14.64 135.623 14.3935 136.379 14.4062C137.016 14.3993 137.526 14.5196 137.906 14.7671C138.287 15.0215 138.48 15.4568 138.487 16.0751V19.5342H137.467V19.0852Z" fill="#EC1C24"/>
<path d="M139.804 14.4703H140.824V15.0064H140.842C141.177 14.6073 141.617 14.4067 142.16 14.4067C142.566 14.4126 142.922 14.5427 143.224 14.7971L142.482 15.6795C142.268 15.5102 142.045 15.4271 141.814 15.4271C141.554 15.4271 141.331 15.5102 141.145 15.6795C140.936 15.8458 140.83 16.1148 140.824 16.4856V19.5348H139.804V14.4703Z" fill="#EC1C24"/>
<path d="M146.088 12.4202H147.108V15.0067H147.127C147.461 14.6066 147.902 14.4061 148.445 14.4061C148.864 14.4061 149.248 14.5548 149.596 14.8502C149.94 15.1495 150.121 15.5888 150.138 16.1679V19.5341H149.119V16.5191C149.119 16.165 149.024 15.895 148.836 15.7091C148.65 15.5203 148.41 15.4264 148.117 15.4264C147.824 15.4264 147.584 15.5203 147.396 15.7091C147.204 15.895 147.108 16.165 147.108 16.5191V19.5341H146.088V12.4202Z" fill="#EC1C24"/>
<path d="M154.363 16.5482C154.349 16.1549 154.245 15.8575 154.046 15.656C153.851 15.4643 153.601 15.3674 153.295 15.3674C152.99 15.3674 152.738 15.4643 152.543 15.656C152.351 15.8575 152.246 16.1549 152.226 16.5482H154.363ZM152.226 17.3875C152.226 17.7935 152.344 18.1036 152.577 18.3149C152.795 18.5291 153.081 18.6368 153.437 18.6368C153.849 18.6368 154.218 18.4724 154.544 18.1437L155.28 18.7727C154.763 19.3264 154.155 19.5994 153.455 19.5925C153.189 19.5925 152.928 19.5534 152.675 19.4761C152.548 19.434 152.424 19.3773 152.304 19.3049C152.178 19.2433 152.059 19.167 151.948 19.076C151.733 18.8872 151.559 18.624 151.426 18.2856C151.28 17.9598 151.206 17.5372 151.206 17.0168C151.206 16.5159 151.27 16.0991 151.396 15.7675C151.524 15.429 151.687 15.163 151.885 14.9673C152.086 14.7697 152.312 14.6259 152.563 14.5378C152.81 14.4498 153.054 14.4068 153.295 14.4068C153.874 14.4126 154.363 14.6034 154.763 14.9781C155.169 15.3576 155.376 15.881 155.383 16.5482V17.3875H152.226Z" fill="#EC1C24"/>
<path d="M159.111 17.3879H157.891C157.299 17.4006 157.006 17.6041 157.013 17.9974C157.013 18.1705 157.09 18.3163 157.243 18.4366C157.388 18.5696 157.63 18.6362 157.969 18.6362C158.395 18.643 158.697 18.5921 158.873 18.4855C159.031 18.3789 159.111 18.1343 159.111 17.7538V17.3879ZM159.111 19.0852H159.091C158.997 19.2583 158.85 19.3845 158.653 19.4657C158.457 19.5508 158.187 19.5929 157.843 19.5929C157.276 19.5861 156.841 19.4374 156.535 19.1439C156.213 18.8582 156.051 18.4924 156.051 18.0463C156.051 17.6198 156.192 17.2676 156.471 16.9878C156.751 16.7012 157.161 16.5544 157.702 16.5486H159.111V16.0174C159.117 15.5713 158.771 15.3551 158.073 15.3678C157.818 15.3678 157.618 15.3942 157.472 15.4461C157.319 15.5077 157.199 15.6124 157.111 15.7581L156.311 15.1477C156.697 14.64 157.267 14.3935 158.023 14.4062C158.661 14.3993 159.17 14.5196 159.55 14.7671C159.931 15.0215 160.124 15.4568 160.131 16.0751V19.5342H159.111V19.0852Z" fill="#EC1C24"/>
<path d="M161.448 12.4202H162.468V18.2272C162.468 18.458 162.594 18.5735 162.848 18.5735H163.2V19.5341H162.745C162.374 19.5341 162.069 19.4422 161.828 19.2563C161.575 19.0675 161.448 18.7505 161.448 18.3054V12.4202Z" fill="#EC1C24"/>
<path d="M164.083 12.9284H165.102V14.4701H165.845V15.2459H165.102V18.1983C165.096 18.4546 165.216 18.5798 165.463 18.574H165.845V19.5346H165.313C164.955 19.5346 164.662 19.4241 164.434 19.203C164.199 18.9907 164.083 18.6855 164.083 18.2863V15.2459H163.574V14.4701H164.083V12.9284Z" fill="#EC1C24"/>
<path d="M166.8 12.4202H167.82V15.0067H167.839C168.174 14.6066 168.613 14.4061 169.157 14.4061C169.576 14.4061 169.959 14.5548 170.308 14.8502C170.653 15.1495 170.833 15.5888 170.851 16.1679V19.5341H169.83V16.5191C169.83 16.165 169.736 15.895 169.548 15.7091C169.362 15.5203 169.123 15.4264 168.83 15.4264C168.536 15.4264 168.295 15.5203 168.109 15.7091C167.916 15.895 167.82 16.165 167.82 16.5191V19.5341H166.8V12.4202Z" fill="#EC1C24"/>
</g>
<defs>
<clipPath id="clip0">
<rect width="180" height="20" fill="white"/>
</clipPath>
</defs>
</svg>
