<?xml version="1.0" encoding="UTF-8" standalone="no"?>
<!DOCTYPE svg PUBLIC "-//W3C//DTD SVG 1.1//EN" "http://www.w3.org/Graphics/SVG/1.1/DTD/svg11.dtd">
<svg width="100%" height="100%" viewBox="0 0 65 65" version="1.1" xmlns="http://www.w3.org/2000/svg" xmlns:xlink="http://www.w3.org/1999/xlink" xml:space="preserve" xmlns:serif="http://www.serif.com/" style="fill-rule:evenodd;clip-rule:evenodd;stroke-linejoin:round;stroke-miterlimit:1;">
    <rect id="Admin" x="0.855" y="0.988" width="64" height="64" style="fill:none;"/>
    <path d="M36.772,4.816L51.327,19.371L51.327,59.16C51.327,60.265 50.432,61.16 49.327,61.16C42.499,61.16 20.155,61.16 13.327,61.16C12.223,61.16 11.327,60.265 11.327,59.16C11.327,50.412 11.327,15.564 11.327,6.816C11.327,5.711 12.223,4.816 13.327,4.816L36.772,4.816Z" style="fill:#f1765a;"/>
    <clipPath id="_clip1">
        <path d="M36.772,4.816L51.327,19.371L51.327,59.16C51.327,60.265 50.432,61.16 49.327,61.16C42.499,61.16 20.155,61.16 13.327,61.16C12.223,61.16 11.327,60.265 11.327,59.16C11.327,50.412 11.327,15.564 11.327,6.816C11.327,5.711 12.223,4.816 13.327,4.816L36.772,4.816Z"/>
    </clipPath>
    <g clip-path="url(#_clip1)">
        <path d="M56.094,18.846L38.617,21.67C37.139,21.67 35.94,20.471 35.94,18.992L35.94,2.181L56.094,18.846Z" style="fill:#d25950;"/>
    </g>
    <path d="M51.327,19.371L38.772,19.371C37.667,19.371 36.772,18.476 36.772,17.371L36.772,4.816L51.327,19.371Z" style="fill:#f8b9ab;"/>
    <rect x="14.577" y="22.993" width="33.5" height="32.095" style="fill:none;stroke:#fff;stroke-width:1px;"/>
    <rect x="14.577" y="22.993" width="33.5" height="32.095" style="fill:none;stroke:#fff;stroke-width:1px;"/>
    <rect x="21.329" y="22.993" width="26.748" height="32.095" style="fill:none;stroke:#fff;stroke-width:1px;"/>
    <rect x="30.025" y="22.993" width="18.052" height="32.095" style="fill:none;stroke:#fff;stroke-width:1px;"/>
    <path d="M14.577,27.457L48.077,27.457" style="fill:none;stroke:#fff;stroke-width:1px;"/>
    <path d="M14.577,27.457L48.077,27.457" style="fill:none;stroke:#fff;stroke-width:1px;"/>
    <path d="M14.577,33.07L48.077,33.07" style="fill:none;stroke:#fff;stroke-width:1px;"/>
    <path d="M14.577,38.683L48.077,38.683" style="fill:none;stroke:#fff;stroke-width:1px;"/>
    <path d="M14.577,44.296L48.077,44.296" style="fill:none;stroke:#fff;stroke-width:1px;"/>
    <path d="M14.577,49.909L48.077,49.909" style="fill:none;stroke:#fff;stroke-width:1px;"/>
    <path d="M14.568,17.09L21.769,17.09" style="fill:none;stroke:#fff;stroke-width:1px;"/>
    <path d="M14.568,12.631L26.999,12.631" style="fill:none;stroke:#fff;stroke-width:1px;"/>
    <g>
        <path d="M60.973,50.391C61.661,50.261 62.055,49.298 61.854,48.241C61.854,48.24 61.854,48.239 61.854,48.238C61.653,47.181 60.933,46.43 60.246,46.561C55.9,47.386 41.667,50.09 41.667,50.09L37.221,53.695L42.394,53.921C42.394,53.921 56.628,51.217 60.973,50.391Z" style="fill:#2b307e;fill-opacity:0.24;"/>
        <path d="M58.019,22.387C58.35,21.808 58.437,21.121 58.261,20.478C58.085,19.835 57.661,19.288 57.082,18.957C57.082,18.957 57.081,18.957 57.081,18.957C56.502,18.626 55.815,18.539 55.172,18.715C54.529,18.89 53.982,19.314 53.651,19.894C49.598,26.994 37.05,48.975 37.05,48.975L37.251,53.695L41.418,51.468C41.418,51.468 53.966,29.487 58.019,22.387Z" style="fill:#2b307e;"/>
        <clipPath id="_clip2">
            <path d="M58.019,22.387C58.35,21.808 58.437,21.121 58.261,20.478C58.085,19.835 57.661,19.288 57.082,18.957C57.082,18.957 57.081,18.957 57.081,18.957C56.502,18.626 55.815,18.539 55.172,18.715C54.529,18.89 53.982,19.314 53.651,19.894C49.598,26.994 37.05,48.975 37.05,48.975L37.251,53.695L41.418,51.468C41.418,51.468 53.966,29.487 58.019,22.387Z"/>
        </clipPath>
        <g clip-path="url(#_clip2)">
            <path d="M55.334,19.313C55.705,18.665 55.83,17.911 55.682,17.219C55.535,16.526 55.126,15.951 54.547,15.621C54.547,15.62 54.547,15.62 54.546,15.62C53.967,15.289 53.265,15.23 52.593,15.455C51.922,15.68 51.337,16.171 50.966,16.82C46.425,24.776 32.365,49.405 32.365,49.405L32.327,54.544L36.732,51.899C36.732,51.899 50.792,27.269 55.334,19.313Z" style="fill:#5a60a7;"/>
            <path d="M40.525,50.187L38.428,48.842L36.163,49.048L35.887,56.835L42.942,53.844L40.525,50.187Z" style="fill:#c2c5e7;"/>
            <clipPath id="_clip3">
                <path d="M40.525,50.187L38.428,48.842L36.163,49.048L35.887,56.835L42.942,53.844L40.525,50.187Z"/>
            </clipPath>
            <g clip-path="url(#_clip3)">
                <path d="M37.229,54.418L38.642,48.098L36.001,48.456L37.229,54.418Z" style="fill:#fff;fill-opacity:0.87;"/>
            </g>
            <path d="M38.418,51.859L32.176,51.952L34.292,59.697L41.583,57.705L38.418,51.859Z" style="fill:#2b307e;"/>
        </g>
    </g>
</svg>
