<?xml version="1.0" encoding="UTF-8" standalone="no"?>
<!DOCTYPE svg PUBLIC "-//W3C//DTD SVG 1.1//EN" "http://www.w3.org/Graphics/SVG/1.1/DTD/svg11.dtd">
<svg width="100%" height="100%" viewBox="0 0 65 65" version="1.1" xmlns="http://www.w3.org/2000/svg" xmlns:xlink="http://www.w3.org/1999/xlink" xml:space="preserve" xmlns:serif="http://www.serif.com/" style="fill-rule:evenodd;clip-rule:evenodd;stroke-linejoin:round;stroke-miterlimit:2;">
    <rect id="Binoculars" x="0.738" y="0.458" width="64" height="64" style="fill:none;"/>
    <path d="M39.235,14.511C37.558,15.089 36.666,16.919 37.243,18.596C37.821,20.273 39.652,21.166 41.329,20.588C43.006,20.01 43.899,18.179 43.321,16.502C42.743,14.825 40.912,13.933 39.235,14.511Z" style="fill:#2b307e;"/>
    <clipPath id="_clip1">
        <path d="M39.235,14.511C37.558,15.089 36.666,16.919 37.243,18.596C37.821,20.273 39.652,21.166 41.329,20.588C43.006,20.01 43.899,18.179 43.321,16.502C42.743,14.825 40.912,13.933 39.235,14.511Z"/>
    </clipPath>
    <g clip-path="url(#_clip1)">
        <path d="M33.454,14.493L36.588,48.458L42.738,37.659L36.738,9.878L33.454,14.493Z" style="fill:#aaacdd;fill-opacity:0.75;"/>
    </g>
    <path d="M34.578,24.874C34.564,24.68 34.557,24.484 34.557,24.286C34.557,19.822 38.181,16.198 42.644,16.198C44.872,16.198 46.891,17.101 48.354,18.56L48.354,18.56L48.364,18.571C48.503,18.709 48.636,18.853 48.764,19.001L57.324,28.209L35.131,38.824L34.577,24.874L34.578,24.874Z" style="fill:#2b307e;"/>
    <clipPath id="_clip2">
        <path d="M34.578,24.874C34.564,24.68 34.557,24.484 34.557,24.286C34.557,19.822 38.181,16.198 42.644,16.198C44.872,16.198 46.891,17.101 48.354,18.56L48.354,18.56L48.364,18.571C48.503,18.709 48.636,18.853 48.764,19.001L57.324,28.209L35.131,38.824L34.577,24.874L34.578,24.874Z"/>
    </clipPath>
    <g clip-path="url(#_clip2)">
        <path d="M36.679,14.335L39.813,48.3L50.336,37.779L38.802,10.997L36.679,14.335Z" style="fill:#aaacdd;fill-opacity:0.75;"/>
    </g>
    <path d="M25.47,14.48C27.147,15.057 28.04,16.888 27.462,18.565C26.884,20.242 25.053,21.135 23.376,20.557C21.699,19.979 20.807,18.148 21.385,16.471C21.962,14.794 23.793,13.902 25.47,14.48Z" style="fill:#2b307e;"/>
    <path d="M16.351,18.529C17.815,17.07 19.833,16.167 22.061,16.167C26.525,16.167 30.149,19.791 30.149,24.255C30.149,24.453 30.142,24.649 30.128,24.843L30.128,24.843L29.575,38.792L7.381,28.178L15.941,18.97C16.069,18.822 16.202,18.678 16.341,18.54L16.351,18.529L16.351,18.529Z" style="fill:#2b307e;"/>
    <clipPath id="_clip3">
        <path d="M16.351,18.529C17.815,17.07 19.833,16.167 22.061,16.167C26.525,16.167 30.149,19.791 30.149,24.255C30.149,24.453 30.142,24.649 30.128,24.843L30.128,24.843L29.575,38.792L7.381,28.178L15.941,18.97C16.069,18.822 16.202,18.678 16.341,18.54L16.351,18.529L16.351,18.529Z"/>
    </clipPath>
    <g clip-path="url(#_clip3)">
        <path d="M25.161,13.232L9.887,35.563C9.887,35.563 0.487,28.666 0.591,29.195C0.695,29.724 15.451,13.286 15.451,13.286L25.161,13.232Z" style="fill:#aaacdd;fill-opacity:0.71;"/>
    </g>
    <path d="M29.637,21.589C29.695,20.166 30.868,19.029 32.305,19.029C33.744,19.029 34.918,20.17 34.973,21.596L34.975,21.596L35.957,28.908L28.652,28.965L29.634,21.589L29.637,21.589Z" style="fill:#2b307e;"/>
    <clipPath id="_clip4">
        <path d="M29.637,21.589C29.695,20.166 30.868,19.029 32.305,19.029C33.744,19.029 34.918,20.17 34.973,21.596L34.975,21.596L35.957,28.908L28.652,28.965L29.634,21.589L29.637,21.589Z"/>
    </clipPath>
    <g clip-path="url(#_clip4)">
        <path d="M32.738,18.458L30.162,18.458L28.738,30.458L32.738,31.846L32.738,18.458Z" style="fill:#8a8dc5;"/>
    </g>
    <circle cx="32.305" cy="29.4" r="3.652" style="fill:#2b307e;"/>
    <circle cx="16.461" cy="37.571" r="13.22" style="fill:#f1765a;"/>
    <clipPath id="_clip5">
        <circle cx="16.461" cy="37.571" r="13.22"/>
    </clipPath>
    <g clip-path="url(#_clip5)">
        <circle cx="17.808" cy="39.333" r="9.948" style="fill:#f1b1af;"/>
    </g>
    <path d="M16.632,24.352L16.802,24.355L16.972,24.361L17.141,24.368L17.31,24.378L17.478,24.39L17.645,24.404L17.812,24.419L17.978,24.437L18.144,24.457L18.309,24.479L18.473,24.504L18.637,24.53L18.8,24.558L18.962,24.588L19.124,24.62L19.285,24.654L19.445,24.69L19.605,24.728L19.763,24.768L19.921,24.809L20.079,24.853L20.235,24.898L20.391,24.946L20.545,24.995L20.699,25.046L20.852,25.099L21.005,25.154L21.156,25.21L21.307,25.269L21.456,25.329L21.605,25.391L21.753,25.454L21.9,25.52L22.045,25.587L22.19,25.656L22.334,25.726L22.477,25.798L22.619,25.872L22.76,25.948L22.9,26.025L23.039,26.104L23.177,26.184L23.314,26.266L23.45,26.35L23.584,26.435L23.718,26.522L23.85,26.61L23.982,26.7L24.112,26.791L24.241,26.884L24.369,26.979L24.495,27.075L24.621,27.172L24.745,27.271L24.868,27.371L24.99,27.473L25.111,27.576L25.23,27.681L25.348,27.787L25.465,27.894L25.58,28.003L25.694,28.113L25.807,28.225L25.919,28.338L26.029,28.452L26.138,28.567L26.245,28.684L26.351,28.802L26.456,28.921L26.559,29.042L26.661,29.164L26.761,29.287L26.86,29.411L26.957,29.537L27.053,29.663L27.148,29.791L27.241,29.92L27.332,30.05L27.422,30.182L27.51,30.314L27.597,30.448L27.682,30.582L27.766,30.718L27.848,30.855L27.928,30.993L28.007,31.132L28.084,31.272L28.16,31.413L28.234,31.555L28.306,31.698L28.376,31.842L28.445,31.987L28.512,32.132L28.578,32.279L28.641,32.427L28.703,32.576L28.763,32.725L28.822,32.876L28.878,33.027L28.933,33.18L28.986,33.333L29.037,33.487L29.086,33.641L29.134,33.797L29.179,33.953L29.223,34.111L29.264,34.269L29.304,34.427L29.342,34.587L29.378,34.747L29.412,34.908L29.444,35.07L29.474,35.232L29.502,35.395L29.528,35.559L29.553,35.723L29.575,35.888L29.595,36.054L29.613,36.22L29.628,36.387L29.642,36.554L29.654,36.722L29.664,36.891L29.671,37.06L29.677,37.23L29.68,37.4L29.681,37.571L29.68,37.741L29.677,37.912L29.671,38.081L29.664,38.251L29.654,38.419L29.642,38.587L29.628,38.755L29.613,38.922L29.595,39.088L29.575,39.253L29.553,39.418L29.528,39.583L29.502,39.746L29.474,39.91L29.444,40.072L29.412,40.233L29.378,40.394L29.342,40.555L29.304,40.714L29.264,40.873L29.223,41.031L29.179,41.188L29.134,41.344L29.086,41.5L29.037,41.655L28.986,41.809L28.933,41.962L28.878,42.114L28.822,42.265L28.763,42.416L28.703,42.566L28.641,42.714L28.578,42.862L28.512,43.009L28.445,43.155L28.376,43.3L28.306,43.444L28.234,43.587L28.16,43.729L28.084,43.87L28.007,44.01L27.928,44.149L27.848,44.287L27.766,44.423L27.682,44.559L27.597,44.694L27.51,44.827L27.422,44.96L27.332,45.091L27.241,45.221L27.148,45.35L27.053,45.478L26.957,45.605L26.86,45.73L26.761,45.854L26.661,45.978L26.559,46.099L26.456,46.22L26.351,46.339L26.245,46.457L26.138,46.574L26.029,46.69L25.919,46.804L25.807,46.917L25.694,47.028L25.58,47.138L25.465,47.247L25.348,47.354L25.23,47.46L25.111,47.565L24.99,47.668L24.868,47.77L24.745,47.87L24.621,47.969L24.495,48.067L24.369,48.163L24.241,48.257L24.112,48.35L23.982,48.441L23.85,48.531L23.718,48.62L23.584,48.706L23.45,48.792L23.314,48.875L23.177,48.957L23.039,49.038L22.9,49.117L22.76,49.194L22.619,49.269L22.477,49.343L22.334,49.415L22.19,49.486L22.045,49.555L21.9,49.622L21.753,49.687L21.605,49.751L21.456,49.813L21.307,49.873L21.156,49.931L21.005,49.988L20.852,50.042L20.699,50.095L20.545,50.146L20.391,50.196L20.235,50.243L20.079,50.288L19.921,50.332L19.763,50.374L19.605,50.414L19.445,50.452L19.285,50.487L19.124,50.521L18.962,50.554L18.8,50.584L18.637,50.612L18.473,50.638L18.309,50.662L18.144,50.684L17.978,50.704L17.812,50.722L17.645,50.738L17.478,50.752L17.31,50.763L17.141,50.773L16.972,50.781L16.802,50.786L16.632,50.789L16.461,50.79L16.291,50.789L16.12,50.786L15.951,50.781L15.781,50.773L15.613,50.763L15.445,50.752L15.277,50.738L15.11,50.722L14.944,50.704L14.779,50.684L14.614,50.662L14.449,50.638L14.286,50.612L14.123,50.584L13.96,50.554L13.799,50.521L13.638,50.487L13.477,50.452L13.318,50.414L13.159,50.374L13.001,50.332L12.844,50.288L12.688,50.243L12.532,50.196L12.377,50.146L12.223,50.095L12.07,50.042L11.918,49.988L11.767,49.931L11.616,49.873L11.466,49.813L11.318,49.751L11.17,49.687L11.023,49.622L10.877,49.555L10.732,49.486L10.588,49.415L10.445,49.343L10.303,49.269L10.162,49.194L10.022,49.117L9.883,49.038L9.745,48.957L9.609,48.875L9.473,48.792L9.338,48.706L9.205,48.62L9.072,48.531L8.941,48.441L8.811,48.35L8.682,48.257L8.554,48.163L8.427,48.067L8.302,47.969L8.178,47.87L8.054,47.77L7.933,47.668L7.812,47.565L7.693,47.46L7.575,47.354L7.458,47.247L7.342,47.138L7.228,47.028L7.116,46.917L7.004,46.804L6.894,46.69L6.785,46.574L6.678,46.457L6.572,46.339L6.467,46.22L6.364,46.099L6.262,45.978L6.162,45.854L6.063,45.73L5.965,45.605L5.869,45.478L5.775,45.35L5.682,45.221L5.591,45.091L5.501,44.96L5.412,44.827L5.326,44.694L5.24,44.559L5.157,44.423L5.075,44.287L4.994,44.149L4.915,44.01L4.838,43.87L4.763,43.729L4.689,43.587L4.617,43.444L4.546,43.3L4.477,43.155L4.41,43.009L4.345,42.862L4.281,42.714L4.219,42.566L4.159,42.416L4.101,42.265L4.044,42.114L3.99,41.962L3.937,41.809L3.886,41.655L3.836,41.5L3.789,41.344L3.744,41.188L3.7,41.031L3.658,40.873L3.618,40.714L3.581,40.555L3.545,40.394L3.511,40.233L3.478,40.072L3.448,39.91L3.42,39.746L3.394,39.583L3.37,39.418L3.348,39.253L3.328,39.088L3.31,38.922L3.294,38.755L3.28,38.587L3.269,38.419L3.259,38.251L3.251,38.081L3.246,37.912L3.243,37.741L3.242,37.571L3.243,37.4L3.246,37.23L3.251,37.06L3.259,36.891L3.269,36.722L3.28,36.554L3.294,36.387L3.31,36.22L3.328,36.054L3.348,35.888L3.37,35.723L3.394,35.559L3.42,35.395L3.448,35.232L3.478,35.07L3.511,34.908L3.545,34.747L3.581,34.587L3.618,34.427L3.658,34.269L3.7,34.111L3.744,33.953L3.789,33.797L3.836,33.641L3.886,33.487L3.937,33.333L3.99,33.18L4.044,33.027L4.101,32.876L4.159,32.725L4.219,32.576L4.281,32.427L4.345,32.279L4.41,32.132L4.477,31.987L4.546,31.842L4.617,31.698L4.689,31.555L4.763,31.413L4.838,31.272L4.915,31.132L4.994,30.993L5.075,30.855L5.157,30.718L5.24,30.582L5.326,30.448L5.412,30.314L5.501,30.182L5.591,30.05L5.682,29.92L5.775,29.791L5.869,29.663L5.965,29.537L6.063,29.411L6.162,29.287L6.262,29.164L6.364,29.042L6.467,28.921L6.572,28.802L6.678,28.684L6.785,28.567L6.894,28.452L7.004,28.338L7.116,28.225L7.228,28.113L7.342,28.003L7.458,27.894L7.575,27.787L7.693,27.681L7.812,27.576L7.933,27.473L8.054,27.371L8.178,27.271L8.302,27.172L8.427,27.075L8.554,26.979L8.682,26.884L8.811,26.791L8.941,26.7L9.072,26.61L9.205,26.522L9.338,26.435L9.473,26.35L9.609,26.266L9.745,26.184L9.883,26.104L10.022,26.025L10.162,25.948L10.303,25.872L10.445,25.798L10.588,25.726L10.732,25.656L10.877,25.587L11.023,25.52L11.17,25.454L11.318,25.391L11.466,25.329L11.616,25.269L11.767,25.21L11.918,25.154L12.07,25.099L12.223,25.046L12.377,24.995L12.532,24.946L12.688,24.898L12.844,24.853L13.001,24.809L13.159,24.768L13.318,24.728L13.477,24.69L13.638,24.654L13.799,24.62L13.96,24.588L14.123,24.558L14.286,24.53L14.449,24.504L14.614,24.479L14.779,24.457L14.944,24.437L15.11,24.419L15.277,24.404L15.445,24.39L15.613,24.378L15.781,24.368L15.951,24.361L16.12,24.355L16.291,24.352L16.461,24.351L16.632,24.352ZM16.322,26.852L16.184,26.855L16.046,26.859L15.908,26.865L15.771,26.873L15.635,26.883L15.499,26.894L15.364,26.907L15.229,26.921L15.094,26.937L14.96,26.955L14.827,26.975L14.695,26.996L14.563,27.019L14.431,27.043L14.3,27.069L14.17,27.097L14.04,27.126L13.911,27.156L13.783,27.189L13.655,27.222L13.527,27.258L13.401,27.295L13.275,27.333L13.15,27.373L13.025,27.414L12.901,27.457L12.778,27.501L12.656,27.547L12.534,27.594L12.413,27.643L12.292,27.693L12.172,27.745L12.054,27.797L11.935,27.852L11.818,27.907L11.702,27.965L11.585,28.023L11.47,28.083L11.356,28.144L11.243,28.207L11.13,28.271L11.018,28.336L10.907,28.402L10.797,28.47L10.688,28.539L10.58,28.61L10.472,28.682L10.366,28.754L10.26,28.829L10.155,28.904L10.052,28.981L9.949,29.059L9.847,29.138L9.746,29.218L9.646,29.3L9.547,29.382L9.449,29.466L9.352,29.551L9.256,29.637L9.162,29.724L9.068,29.813L8.975,29.902L8.883,29.993L8.793,30.084L8.703,30.177L8.615,30.271L8.528,30.366L8.441,30.462L8.356,30.559L8.273,30.656L8.19,30.755L8.109,30.855L8.028,30.956L7.949,31.058L7.871,31.161L7.795,31.265L7.719,31.37L7.645,31.475L7.572,31.581L7.5,31.689L7.43,31.797L7.361,31.906L7.293,32.016L7.226,32.128L7.161,32.24L7.097,32.352L7.035,32.465L6.974,32.58L6.914,32.695L6.855,32.811L6.798,32.927L6.742,33.045L6.688,33.163L6.635,33.282L6.584,33.402L6.534,33.522L6.485,33.643L6.438,33.765L6.392,33.888L6.348,34.011L6.305,34.135L6.263,34.26L6.224,34.384L6.185,34.51L6.148,34.637L6.113,34.764L6.079,34.892L6.047,35.021L6.016,35.15L5.987,35.279L5.96,35.41L5.934,35.54L5.909,35.672L5.887,35.804L5.866,35.936L5.846,36.07L5.828,36.204L5.812,36.338L5.797,36.473L5.784,36.608L5.773,36.744L5.764,36.881L5.756,37.017L5.75,37.155L5.745,37.294L5.743,37.431L5.742,37.571L5.743,37.71L5.745,37.848L5.75,37.986L5.756,38.124L5.764,38.261L5.773,38.397L5.784,38.533L5.797,38.669L5.812,38.803L5.828,38.937L5.846,39.072L5.866,39.205L5.887,39.337L5.909,39.47L5.934,39.601L5.96,39.732L5.987,39.862L6.016,39.992L6.047,40.121L6.079,40.249L6.113,40.377L6.148,40.504L6.185,40.631L6.224,40.757L6.263,40.882L6.305,41.007L6.348,41.131L6.392,41.254L6.438,41.377L6.485,41.499L6.534,41.62L6.584,41.74L6.635,41.86L6.688,41.978L6.742,42.096L6.798,42.214L6.855,42.331L6.914,42.446L6.974,42.562L7.035,42.676L7.097,42.789L7.161,42.902L7.226,43.014L7.293,43.125L7.361,43.235L7.43,43.344L7.5,43.452L7.572,43.56L7.645,43.666L7.719,43.772L7.795,43.877L7.871,43.981L7.949,44.084L8.028,44.185L8.109,44.286L8.19,44.386L8.273,44.485L8.356,44.583L8.441,44.68L8.528,44.776L8.615,44.87L8.703,44.964L8.793,45.057L8.883,45.149L8.975,45.239L9.068,45.329L9.162,45.417L9.256,45.504L9.352,45.59L9.449,45.676L9.547,45.759L9.646,45.842L9.746,45.923L9.847,46.004L9.949,46.083L10.052,46.161L10.155,46.237L10.26,46.313L10.366,46.387L10.472,46.46L10.58,46.532L10.688,46.602L10.797,46.671L10.907,46.739L11.018,46.806L11.13,46.871L11.243,46.935L11.356,46.997L11.47,47.058L11.585,47.118L11.702,47.177L11.818,47.234L11.935,47.29L12.054,47.344L12.172,47.397L12.292,47.448L12.413,47.499L12.534,47.547L12.656,47.594L12.778,47.64L12.901,47.684L13.025,47.727L13.15,47.769L13.275,47.808L13.401,47.847L13.528,47.884L13.655,47.919L13.783,47.953L13.911,47.985L14.04,48.016L14.17,48.045L14.3,48.072L14.431,48.098L14.563,48.123L14.695,48.145L14.827,48.167L14.96,48.186L15.094,48.204L15.229,48.22L15.364,48.235L15.499,48.248L15.635,48.259L15.771,48.268L15.908,48.276L16.046,48.282L16.184,48.287L16.322,48.289L16.461,48.29L16.6,48.289L16.739,48.287L16.877,48.282L17.014,48.276L17.151,48.268L17.288,48.259L17.424,48.248L17.559,48.235L17.694,48.22L17.828,48.204L17.962,48.186L18.095,48.167L18.228,48.145L18.36,48.123L18.492,48.098L18.623,48.072L18.753,48.045L18.882,48.016L19.011,47.985L19.14,47.953L19.268,47.919L19.395,47.884L19.522,47.847L19.648,47.808L19.773,47.769L19.897,47.727L20.021,47.684L20.144,47.64L20.267,47.594L20.389,47.547L20.51,47.499L20.63,47.448L20.75,47.397L20.869,47.344L20.987,47.29L21.105,47.234L21.221,47.177L21.337,47.118L21.452,47.058L21.566,46.997L21.68,46.935L21.793,46.871L21.905,46.805L22.015,46.739L22.125,46.671L22.235,46.602L22.343,46.531L22.45,46.46L22.557,46.387L22.663,46.313L22.767,46.237L22.871,46.161L22.974,46.083L23.076,46.004L23.177,45.923L23.277,45.842L23.376,45.759L23.473,45.676L23.57,45.59L23.666,45.504L23.761,45.417L23.855,45.329L23.948,45.239L24.039,45.149L24.13,45.057L24.219,44.964L24.308,44.871L24.395,44.775L24.481,44.68L24.566,44.583L24.65,44.485L24.732,44.386L24.814,44.286L24.894,44.185L24.973,44.084L25.051,43.98L25.128,43.877L25.203,43.772L25.278,43.666L25.35,43.56L25.422,43.452L25.493,43.344L25.562,43.235L25.63,43.124L25.696,43.014L25.761,42.902L25.825,42.789L25.888,42.676L25.949,42.562L26.009,42.446L26.067,42.331L26.124,42.214L26.18,42.096L26.235,41.978L26.287,41.86L26.339,41.74L26.389,41.619L26.438,41.499L26.485,41.377L26.531,41.254L26.575,41.131L26.618,41.007L26.659,40.882L26.699,40.757L26.737,40.631L26.774,40.504L26.81,40.377L26.843,40.249L26.876,40.121L26.906,39.992L26.935,39.862L26.963,39.732L26.989,39.601L27.013,39.47L27.036,39.337L27.057,39.204L27.077,39.071L27.095,38.938L27.111,38.804L27.125,38.669L27.138,38.533L27.149,38.397L27.159,38.261L27.167,38.123L27.173,37.986L27.177,37.848L27.18,37.71L27.181,37.571L27.18,37.431L27.177,37.293L27.173,37.155L27.167,37.018L27.159,36.881L27.149,36.744L27.138,36.608L27.125,36.473L27.111,36.337L27.095,36.203L27.077,36.07L27.057,35.937L27.036,35.804L27.013,35.672L26.989,35.54L26.963,35.41L26.935,35.279L26.906,35.15L26.876,35.021L26.843,34.892L26.81,34.764L26.774,34.637L26.737,34.51L26.699,34.384L26.659,34.259L26.618,34.135L26.575,34.011L26.531,33.888L26.485,33.765L26.438,33.643L26.389,33.522L26.339,33.402L26.287,33.282L26.235,33.163L26.18,33.045L26.124,32.927L26.067,32.811L26.009,32.695L25.949,32.58L25.888,32.465L25.825,32.352L25.761,32.239L25.696,32.127L25.63,32.017L25.562,31.907L25.493,31.797L25.422,31.689L25.35,31.581L25.278,31.475L25.203,31.369L25.128,31.265L25.051,31.161L24.973,31.058L24.894,30.956L24.814,30.855L24.732,30.755L24.65,30.656L24.566,30.558L24.481,30.462L24.395,30.366L24.308,30.271L24.219,30.177L24.13,30.084L24.039,29.993L23.948,29.902L23.855,29.813L23.761,29.724L23.666,29.637L23.57,29.551L23.473,29.466L23.376,29.382L23.277,29.3L23.177,29.218L23.076,29.138L22.974,29.059L22.871,28.981L22.767,28.904L22.663,28.829L22.557,28.754L22.45,28.681L22.343,28.61L22.235,28.539L22.125,28.47L22.015,28.402L21.905,28.336L21.793,28.271L21.68,28.207L21.566,28.144L21.452,28.083L21.337,28.023L21.221,27.965L21.105,27.907L20.987,27.852L20.869,27.798L20.75,27.745L20.63,27.693L20.51,27.643L20.389,27.594L20.267,27.547L20.144,27.501L20.021,27.457L19.897,27.414L19.773,27.373L19.648,27.333L19.522,27.295L19.395,27.258L19.268,27.222L19.14,27.189L19.011,27.156L18.882,27.126L18.753,27.097L18.623,27.069L18.492,27.043L18.36,27.019L18.228,26.996L18.095,26.975L17.962,26.955L17.828,26.937L17.694,26.921L17.559,26.907L17.424,26.894L17.288,26.883L17.151,26.873L17.014,26.865L16.877,26.859L16.739,26.855L16.6,26.852L16.461,26.851L16.322,26.852Z" style="fill:#2b307f;"/>
    <circle cx="48.318" cy="37.602" r="13.22" style="fill:#f1765a;"/>
    <clipPath id="_clip6">
        <circle cx="48.318" cy="37.602" r="13.22"/>
    </clipPath>
    <g clip-path="url(#_clip6)">
        <circle cx="49.665" cy="39.364" r="9.948" style="fill:#f1b1af;"/>
    </g>
    <path d="M48.489,24.383L48.659,24.387L48.829,24.392L48.998,24.399L49.167,24.409L49.335,24.421L49.502,24.435L49.669,24.451L49.835,24.469L50.001,24.489L50.166,24.511L50.33,24.535L50.494,24.561L50.657,24.589L50.819,24.619L50.981,24.651L51.142,24.685L51.302,24.721L51.461,24.759L51.62,24.799L51.778,24.841L51.935,24.884L52.092,24.93L52.247,24.977L52.402,25.026L52.556,25.077L52.709,25.13L52.861,25.185L53.013,25.242L53.163,25.3L53.313,25.36L53.462,25.422L53.609,25.485L53.756,25.551L53.902,25.618L54.047,25.687L54.191,25.757L54.334,25.829L54.476,25.903L54.617,25.979L54.757,26.056L54.896,26.135L55.034,26.215L55.171,26.297L55.306,26.381L55.441,26.466L55.575,26.553L55.707,26.641L55.838,26.731L55.969,26.823L56.098,26.916L56.225,27.01L56.352,27.106L56.478,27.203L56.602,27.302L56.725,27.403L56.847,27.504L56.967,27.608L57.087,27.712L57.205,27.818L57.321,27.926L57.437,28.034L57.551,28.145L57.664,28.256L57.775,28.369L57.886,28.483L57.994,28.598L58.102,28.715L58.208,28.833L58.312,28.953L58.416,29.073L58.517,29.195L58.618,29.318L58.717,29.442L58.814,29.568L58.91,29.694L59.004,29.822L59.097,29.951L59.189,30.082L59.279,30.213L59.367,30.345L59.454,30.479L59.539,30.613L59.623,30.749L59.705,30.886L59.785,31.024L59.864,31.163L59.941,31.303L60.017,31.444L60.09,31.586L60.163,31.729L60.233,31.873L60.302,32.018L60.369,32.164L60.434,32.31L60.498,32.458L60.56,32.607L60.62,32.757L60.678,32.907L60.735,33.058L60.79,33.211L60.843,33.364L60.894,33.518L60.943,33.673L60.99,33.828L61.036,33.985L61.079,34.142L61.121,34.3L61.161,34.458L61.199,34.618L61.235,34.778L61.269,34.939L61.301,35.101L61.331,35.263L61.359,35.426L61.385,35.59L61.409,35.754L61.431,35.919L61.451,36.085L61.469,36.251L61.485,36.418L61.499,36.585L61.511,36.753L61.52,36.922L61.528,37.091L61.533,37.261L61.537,37.431L61.538,37.602L61.537,37.773L61.533,37.943L61.528,38.113L61.52,38.282L61.511,38.45L61.499,38.618L61.485,38.786L61.469,38.953L61.451,39.119L61.431,39.285L61.409,39.45L61.385,39.614L61.359,39.778L61.331,39.941L61.301,40.103L61.269,40.265L61.235,40.426L61.199,40.586L61.161,40.745L61.121,40.904L61.079,41.062L61.036,41.219L60.99,41.376L60.943,41.531L60.894,41.686L60.843,41.84L60.79,41.993L60.735,42.145L60.678,42.297L60.62,42.447L60.56,42.597L60.498,42.745L60.434,42.893L60.369,43.04L60.302,43.186L60.233,43.331L60.163,43.475L60.09,43.618L60.017,43.76L59.941,43.901L59.864,44.041L59.785,44.18L59.705,44.318L59.623,44.455L59.539,44.59L59.454,44.725L59.367,44.858L59.279,44.991L59.189,45.122L59.097,45.252L59.004,45.381L58.91,45.509L58.814,45.636L58.717,45.761L58.618,45.886L58.517,46.009L58.416,46.131L58.312,46.251L58.208,46.37L58.102,46.488L57.994,46.605L57.886,46.721L57.775,46.835L57.664,46.948L57.551,47.059L57.437,47.169L57.321,47.278L57.205,47.386L57.087,47.492L56.967,47.596L56.847,47.699L56.725,47.801L56.602,47.901L56.478,48L56.352,48.098L56.225,48.194L56.098,48.288L55.969,48.381L55.838,48.473L55.707,48.562L55.575,48.651L55.441,48.738L55.306,48.823L55.171,48.906L55.034,48.988L54.896,49.069L54.757,49.148L54.617,49.225L54.476,49.3L54.334,49.374L54.191,49.446L54.047,49.517L53.902,49.586L53.756,49.653L53.609,49.718L53.462,49.782L53.313,49.844L53.163,49.904L53.013,49.962L52.861,50.019L52.709,50.073L52.556,50.126L52.402,50.177L52.247,50.227L52.092,50.274L51.935,50.32L51.778,50.363L51.62,50.405L51.461,50.445L51.302,50.483L51.142,50.519L50.981,50.553L50.819,50.585L50.657,50.615L50.494,50.643L50.33,50.669L50.166,50.693L50.001,50.715L49.835,50.735L49.669,50.753L49.502,50.769L49.335,50.783L49.167,50.795L48.998,50.804L48.829,50.812L48.659,50.817L48.489,50.82L48.318,50.821L48.147,50.82L47.977,50.817L47.807,50.812L47.638,50.804L47.47,50.795L47.302,50.783L47.134,50.769L46.967,50.753L46.801,50.735L46.635,50.715L46.47,50.693L46.306,50.669L46.142,50.643L45.979,50.615L45.817,50.585L45.655,50.553L45.494,50.519L45.334,50.483L45.175,50.445L45.016,50.405L44.858,50.363L44.701,50.32L44.544,50.274L44.389,50.227L44.234,50.177L44.08,50.126L43.927,50.073L43.775,50.019L43.623,49.962L43.473,49.904L43.323,49.844L43.174,49.782L43.027,49.718L42.88,49.653L42.734,49.586L42.589,49.517L42.445,49.446L42.302,49.374L42.16,49.3L42.019,49.225L41.879,49.148L41.74,49.069L41.602,48.988L41.465,48.906L41.33,48.823L41.195,48.738L41.061,48.651L40.929,48.562L40.798,48.473L40.668,48.381L40.539,48.288L40.411,48.194L40.284,48.098L40.159,48L40.034,47.901L39.911,47.801L39.789,47.699L39.669,47.596L39.549,47.492L39.431,47.386L39.315,47.278L39.199,47.169L39.085,47.059L38.972,46.948L38.861,46.835L38.751,46.721L38.642,46.605L38.534,46.488L38.428,46.37L38.324,46.251L38.221,46.131L38.119,46.009L38.018,45.886L37.92,45.761L37.822,45.636L37.726,45.509L37.632,45.381L37.539,45.252L37.447,45.122L37.357,44.991L37.269,44.858L37.182,44.725L37.097,44.59L37.013,44.455L36.931,44.318L36.851,44.18L36.772,44.041L36.695,43.901L36.619,43.76L36.546,43.618L36.473,43.475L36.403,43.331L36.334,43.186L36.267,43.04L36.202,42.893L36.138,42.745L36.076,42.597L36.016,42.447L35.958,42.297L35.901,42.145L35.846,41.993L35.794,41.84L35.742,41.686L35.693,41.531L35.646,41.376L35.6,41.219L35.557,41.062L35.515,40.904L35.475,40.745L35.437,40.586L35.401,40.426L35.367,40.265L35.335,40.103L35.305,39.941L35.277,39.778L35.251,39.614L35.227,39.45L35.205,39.285L35.185,39.119L35.167,38.953L35.151,38.786L35.137,38.618L35.125,38.45L35.116,38.282L35.108,38.113L35.103,37.943L35.1,37.773L35.098,37.602L35.1,37.431L35.103,37.261L35.108,37.091L35.116,36.922L35.125,36.753L35.137,36.585L35.151,36.418L35.167,36.251L35.185,36.085L35.205,35.919L35.227,35.754L35.251,35.59L35.277,35.426L35.305,35.263L35.335,35.101L35.367,34.939L35.401,34.778L35.437,34.618L35.475,34.458L35.515,34.3L35.557,34.142L35.6,33.985L35.646,33.828L35.693,33.673L35.742,33.518L35.794,33.364L35.846,33.211L35.901,33.058L35.958,32.907L36.016,32.757L36.076,32.607L36.138,32.458L36.202,32.31L36.267,32.164L36.334,32.018L36.403,31.873L36.473,31.729L36.546,31.586L36.619,31.444L36.695,31.303L36.772,31.163L36.851,31.024L36.931,30.886L37.013,30.749L37.097,30.613L37.182,30.479L37.269,30.345L37.357,30.213L37.447,30.082L37.539,29.951L37.632,29.822L37.726,29.694L37.822,29.568L37.92,29.442L38.018,29.318L38.119,29.195L38.221,29.073L38.324,28.953L38.428,28.833L38.534,28.715L38.642,28.598L38.751,28.483L38.861,28.369L38.972,28.256L39.085,28.145L39.199,28.034L39.315,27.926L39.431,27.818L39.549,27.712L39.669,27.608L39.789,27.504L39.911,27.403L40.034,27.302L40.159,27.203L40.284,27.106L40.411,27.01L40.539,26.916L40.668,26.823L40.798,26.731L40.929,26.641L41.061,26.553L41.195,26.466L41.33,26.381L41.465,26.297L41.602,26.215L41.74,26.135L41.879,26.056L42.019,25.979L42.16,25.903L42.302,25.829L42.445,25.757L42.589,25.687L42.734,25.618L42.88,25.551L43.027,25.485L43.174,25.422L43.323,25.36L43.473,25.3L43.623,25.242L43.775,25.185L43.927,25.13L44.08,25.077L44.234,25.026L44.389,24.977L44.544,24.93L44.701,24.884L44.858,24.841L45.016,24.799L45.175,24.759L45.334,24.721L45.494,24.685L45.655,24.651L45.817,24.619L45.979,24.589L46.142,24.561L46.306,24.535L46.47,24.511L46.635,24.489L46.801,24.469L46.967,24.451L47.134,24.435L47.302,24.421L47.47,24.409L47.638,24.399L47.807,24.392L47.977,24.387L48.147,24.383L48.318,24.382L48.489,24.383ZM48.179,26.883L48.04,26.886L47.902,26.89L47.765,26.896L47.628,26.904L47.491,26.914L47.355,26.925L47.22,26.938L47.085,26.952L46.951,26.969L46.817,26.986L46.684,27.006L46.551,27.027L46.419,27.05L46.288,27.074L46.157,27.1L46.027,27.128L45.897,27.157L45.768,27.188L45.639,27.22L45.512,27.254L45.385,27.289L45.258,27.326L45.132,27.364L45.007,27.404L44.882,27.445L44.758,27.488L44.635,27.532L44.512,27.578L44.39,27.625L44.269,27.674L44.149,27.724L44.029,27.776L43.91,27.829L43.792,27.883L43.675,27.939L43.558,27.996L43.442,28.054L43.327,28.114L43.213,28.175L43.099,28.238L42.987,28.302L42.875,28.367L42.764,28.434L42.654,28.501L42.545,28.571L42.436,28.641L42.329,28.713L42.222,28.786L42.117,28.86L42.012,28.935L41.908,29.012L41.806,29.09L41.704,29.169L41.602,29.249L41.503,29.331L41.404,29.413L41.306,29.497L41.209,29.582L41.113,29.668L41.018,29.756L40.924,29.844L40.832,29.933L40.74,30.024L40.649,30.116L40.56,30.208L40.472,30.302L40.384,30.397L40.298,30.493L40.213,30.589L40.13,30.688L40.047,30.787L39.965,30.886L39.885,30.987L39.806,31.089L39.728,31.192L39.651,31.296L39.576,31.4L39.502,31.506L39.429,31.613L39.357,31.72L39.287,31.828L39.217,31.938L39.15,32.048L39.083,32.159L39.018,32.27L38.954,32.383L38.891,32.497L38.83,32.611L38.771,32.726L38.712,32.842L38.655,32.958L38.599,33.076L38.545,33.194L38.492,33.314L38.44,33.433L38.39,33.553L38.341,33.675L38.294,33.796L38.249,33.918L38.204,34.042L38.161,34.166L38.12,34.29L38.08,34.416L38.042,34.541L38.005,34.668L37.97,34.796L37.936,34.924L37.904,35.051L37.873,35.181L37.844,35.31L37.817,35.44L37.79,35.572L37.766,35.704L37.743,35.835L37.722,35.968L37.703,36.101L37.685,36.235L37.669,36.369L37.654,36.504L37.641,36.639L37.63,36.776L37.62,36.911L37.613,37.048L37.606,37.186L37.602,37.324L37.599,37.463L37.599,37.602L37.599,37.741L37.602,37.88L37.606,38.017L37.613,38.155L37.62,38.292L37.63,38.428L37.641,38.564L37.654,38.7L37.669,38.834L37.685,38.969L37.703,39.102L37.722,39.236L37.743,39.369L37.766,39.5L37.79,39.632L37.817,39.763L37.844,39.893L37.873,40.023L37.904,40.152L37.936,40.28L37.97,40.408L38.005,40.536L38.042,40.662L38.08,40.788L38.12,40.913L38.161,41.038L38.204,41.162L38.249,41.285L38.294,41.408L38.341,41.529L38.39,41.651L38.44,41.771L38.492,41.89L38.545,42.01L38.599,42.128L38.655,42.245L38.712,42.362L38.771,42.478L38.83,42.592L38.891,42.707L38.954,42.82L39.018,42.933L39.083,43.045L39.15,43.156L39.217,43.266L39.287,43.375L39.357,43.484L39.429,43.591L39.502,43.698L39.576,43.803L39.651,43.908L39.728,44.012L39.806,44.114L39.885,44.216L39.965,44.317L40.047,44.417L40.13,44.516L40.213,44.614L40.298,44.711L40.384,44.807L40.472,44.902L40.56,44.995L40.649,45.088L40.74,45.18L40.832,45.27L40.924,45.36L41.018,45.448L41.113,45.535L41.209,45.622L41.306,45.706L41.404,45.791L41.503,45.873L41.602,45.954L41.704,46.035L41.806,46.114L41.908,46.192L42.012,46.268L42.117,46.344L42.222,46.418L42.329,46.491L42.436,46.563L42.545,46.633L42.654,46.702L42.764,46.77L42.875,46.837L42.987,46.902L43.1,46.966L43.213,47.028L43.327,47.09L43.442,47.149L43.558,47.208L43.675,47.265L43.792,47.321L43.91,47.375L44.029,47.428L44.149,47.48L44.269,47.53L44.39,47.578L44.512,47.626L44.635,47.671L44.758,47.716L44.882,47.758L45.007,47.8L45.132,47.84L45.258,47.878L45.384,47.915L45.512,47.95L45.64,47.984L45.768,48.016L45.897,48.047L46.027,48.076L46.157,48.103L46.288,48.129L46.419,48.154L46.551,48.177L46.684,48.198L46.817,48.217L46.951,48.235L47.085,48.251L47.22,48.266L47.355,48.279L47.492,48.29L47.628,48.3L47.765,48.307L47.902,48.313L48.04,48.318L48.179,48.32L48.318,48.321L48.457,48.32L48.596,48.318L48.734,48.313L48.871,48.307L49.008,48.3L49.144,48.29L49.281,48.279L49.416,48.266L49.551,48.251L49.685,48.235L49.819,48.217L49.952,48.198L50.085,48.177L50.217,48.154L50.348,48.129L50.479,48.103L50.609,48.076L50.739,48.047L50.868,48.016L50.997,47.984L51.125,47.95L51.252,47.915L51.378,47.878L51.504,47.84L51.629,47.8L51.754,47.758L51.878,47.716L52.001,47.671L52.124,47.626L52.245,47.578L52.367,47.53L52.487,47.479L52.607,47.428L52.726,47.375L52.844,47.321L52.961,47.265L53.078,47.208L53.194,47.149L53.309,47.09L53.423,47.028L53.537,46.966L53.649,46.902L53.761,46.837L53.872,46.77L53.982,46.702L54.091,46.633L54.2,46.563L54.307,46.491L54.414,46.418L54.519,46.344L54.624,46.268L54.728,46.192L54.83,46.114L54.933,46.035L55.034,45.954L55.133,45.873L55.232,45.79L55.33,45.706L55.427,45.622L55.523,45.535L55.618,45.448L55.712,45.36L55.804,45.27L55.896,45.18L55.987,45.088L56.076,44.995L56.165,44.902L56.252,44.807L56.338,44.711L56.423,44.614L56.507,44.516L56.589,44.417L56.671,44.317L56.751,44.216L56.83,44.115L56.908,44.012L56.985,43.908L57.06,43.803L57.134,43.698L57.207,43.591L57.279,43.484L57.349,43.375L57.419,43.266L57.486,43.156L57.553,43.045L57.618,42.933L57.682,42.82L57.745,42.707L57.806,42.593L57.865,42.478L57.924,42.362L57.981,42.245L58.037,42.128L58.091,42.009L58.144,41.89L58.196,41.771L58.246,41.651L58.295,41.529L58.342,41.408L58.388,41.285L58.432,41.162L58.474,41.038L58.516,40.913L58.556,40.788L58.594,40.662L58.631,40.535L58.666,40.408L58.7,40.281L58.732,40.152L58.763,40.023L58.792,39.893L58.82,39.763L58.846,39.632L58.87,39.501L58.893,39.368L58.914,39.236L58.933,39.103L58.951,38.969L58.968,38.834L58.982,38.7L58.995,38.564L59.006,38.428L59.016,38.292L59.024,38.155L59.03,38.017L59.034,37.88L59.037,37.74L59.038,37.602L59.037,37.463L59.034,37.324L59.03,37.186L59.024,37.048L59.016,36.911L59.006,36.776L58.995,36.639L58.982,36.504L58.968,36.369L58.951,36.235L58.933,36.101L58.914,35.968L58.893,35.835L58.87,35.703L58.846,35.572L58.82,35.441L58.792,35.31L58.763,35.181L58.732,35.051L58.7,34.923L58.666,34.795L58.631,34.668L58.594,34.542L58.556,34.416L58.516,34.29L58.474,34.165L58.432,34.042L58.388,33.919L58.342,33.796L58.295,33.675L58.246,33.553L58.196,33.432L58.144,33.314L58.092,33.195L58.037,33.076L57.981,32.958L57.924,32.842L57.865,32.726L57.806,32.611L57.745,32.497L57.682,32.383L57.618,32.27L57.553,32.159L57.486,32.048L57.419,31.938L57.349,31.828L57.279,31.72L57.207,31.613L57.134,31.506L57.06,31.4L56.985,31.296L56.908,31.192L56.83,31.089L56.751,30.987L56.671,30.887L56.589,30.787L56.507,30.688L56.423,30.589L56.338,30.493L56.252,30.397L56.165,30.302L56.076,30.208L55.987,30.116L55.896,30.024L55.804,29.933L55.712,29.844L55.618,29.756L55.523,29.668L55.427,29.582L55.33,29.497L55.232,29.413L55.133,29.33L55.034,29.249L54.933,29.169L54.83,29.09L54.728,29.012L54.624,28.935L54.519,28.86L54.414,28.786L54.307,28.713L54.2,28.641L54.091,28.571L53.982,28.501L53.872,28.434L53.761,28.367L53.649,28.302L53.537,28.238L53.423,28.175L53.309,28.114L53.194,28.054L53.078,27.996L52.961,27.939L52.844,27.883L52.726,27.829L52.607,27.776L52.487,27.724L52.367,27.674L52.245,27.625L52.124,27.578L52.001,27.532L51.878,27.488L51.754,27.445L51.629,27.404L51.504,27.364L51.378,27.326L51.252,27.289L51.125,27.254L50.997,27.22L50.868,27.188L50.739,27.157L50.609,27.128L50.479,27.1L50.348,27.074L50.217,27.05L50.085,27.027L49.952,27.006L49.819,26.986L49.685,26.969L49.551,26.952L49.416,26.938L49.281,26.925L49.145,26.914L49.008,26.904L48.871,26.896L48.734,26.89L48.596,26.886L48.457,26.883L48.318,26.882L48.179,26.883Z" style="fill:#2b307f;"/>
    <ellipse cx="16.645" cy="37.602" rx="7.842" ry="7.725" style="fill:none;"/>
    <clipPath id="_clip7">
        <ellipse cx="16.645" cy="37.602" rx="7.842" ry="7.725"/>
    </clipPath>
    <g clip-path="url(#_clip7)">
        <path d="M17.211,27.638L1.695,17.09L6.318,42.837C8.373,40.337 14.917,37.922 17.328,38.434C16.063,35.838 15.767,32.449 17.211,27.638Z" style="fill:#fff;"/>
    </g>
    <ellipse cx="48.736" cy="37.602" rx="7.842" ry="7.725" style="fill:none;"/>
    <clipPath id="_clip8">
        <ellipse cx="48.736" cy="37.602" rx="7.842" ry="7.725"/>
    </clipPath>
    <g clip-path="url(#_clip8)">
        <path d="M49.302,27.638L33.786,17.09L38.41,42.837C40.464,40.337 47.009,37.922 49.419,38.434C48.154,35.838 47.859,32.449 49.302,27.638Z" style="fill:#fff;"/>
    </g>
</svg>
