<?xml version="1.0" encoding="UTF-8" standalone="no"?>
<!DOCTYPE svg PUBLIC "-//W3C//DTD SVG 1.1//EN" "http://www.w3.org/Graphics/SVG/1.1/DTD/svg11.dtd">
<svg width="100%" height="100%" viewBox="0 0 235 235" version="1.1" xmlns="http://www.w3.org/2000/svg" xmlns:xlink="http://www.w3.org/1999/xlink" xml:space="preserve" xmlns:serif="http://www.serif.com/" style="fill-rule:evenodd;clip-rule:evenodd;stroke-linecap:round;stroke-miterlimit:1;">
    <rect id="BP-Monitor" x="0.885" y="0.388" width="233.626" height="233.626" style="fill:none;"/>
    <g>
        <path d="M74.797,224.012C74.797,224.012 93.141,228.331 101.356,230.265C103.888,230.861 106.545,230.639 108.943,229.631C122.154,224.078 167.167,205.158 183.492,198.296C184.719,197.781 185.575,196.648 185.737,195.327C185.899,194.007 185.341,192.701 184.276,191.904C165.385,177.788 101.417,129.988 101.417,129.988L74.797,224.012Z" style="fill:#dadae8;"/>
        <path d="M80.848,53.113C78.765,53.726 77.339,55.645 77.354,57.817C77.368,59.989 78.82,61.889 80.912,62.473C102.91,68.619 141.307,79.347 158.975,84.284C165.106,85.997 171.596,85.941 177.697,84.124C185.164,81.899 195.886,78.705 205.191,75.933C207.649,75.201 209.321,72.926 209.287,70.362C209.254,67.799 207.522,65.569 205.046,64.902C174.609,56.704 119.298,41.805 119.298,41.805C119.298,41.805 96.983,48.368 80.848,53.113Z" style="fill:#dadae8;"/>
        <path d="M92.511,46.169C99.837,46.19 103.8,57.674 89.964,57.74C67.121,57.944 42.977,57.801 23.076,65.741C17.933,67.793 14.461,70.437 17.812,73.716C21.185,77.017 30.393,81.613 38.27,84.229C87.039,100.427 145.332,95.257 179.981,120.694C185.97,125.091 192.37,132.218 188.056,140.428C182.479,151.043 167.318,152.376 153.362,154.217C138.848,156.133 124.197,156.677 109.549,156.755C107.998,156.763 98.714,153.111 103.631,147.261C105.849,144.621 110.174,145.193 113.724,145.148C134.147,144.836 156.174,145.942 173.652,137.346C176.274,136.057 178.002,133.804 173.671,130.421C151.804,113.343 117.473,111.746 90.585,107.794C64.565,103.932 37.446,100.023 15.261,86.912C8.57,82.959 1.684,76.692 3.899,68.435C7.509,54.977 24.524,52.512 35.977,50.386C54.544,46.94 73.661,46.148 92.511,46.169Z" style="fill:#8c90c9;"/>
        <path d="M94.03,49.79C94.03,49.79 32.473,49.082 14.924,61.312C-11.579,79.781 61.33,96.732 104.158,101.578C180.273,110.19 233.464,148.295 108.057,148.812" style="fill:none;stroke:#ecedf5;stroke-opacity:0.5;stroke-width:4.05px;"/>
        <path d="M97.143,65.59C87.966,63.913 80.881,50.539 78.789,36.788C77.774,30.111 79.186,16.667 79.575,13.242C79.599,13.035 79.709,12.848 79.878,12.726C80.048,12.605 80.261,12.56 80.464,12.603C82.642,13.065 88.542,14.316 88.544,14.301C89.454,7.813 98.121,3.111 104.158,1.494C107.477,0.605 110.632,0.75 113.478,1.767L184.417,20.221L168.685,84.802L97.133,65.629L97.143,65.59Z" style="fill:#f3775b;"/>
        <clipPath id="_clip1">
            <path d="M97.143,65.59C87.966,63.913 80.881,50.539 78.789,36.788C77.774,30.111 79.186,16.667 79.575,13.242C79.599,13.035 79.709,12.848 79.878,12.726C80.048,12.605 80.261,12.56 80.464,12.603C82.642,13.065 88.542,14.316 88.544,14.301C89.454,7.813 98.121,3.111 104.158,1.494C107.477,0.605 110.632,0.75 113.478,1.767L184.417,20.221L168.685,84.802L97.133,65.629L97.143,65.59Z"/>
        </clipPath>
        <g clip-path="url(#_clip1)">
            <path d="M84.922,3.285L186.871,29.63L203.846,8.785L101.417,-13.932L84.922,3.285Z" style="fill:#fac9be;fill-opacity:0.55;"/>
            <path d="M65.536,13.204L149.06,34.199L148.274,28.209L69.439,9.182L65.536,13.204Z" style="fill:#f7a491;"/>
            <path d="M84.765,11.192C84.765,11.192 139.4,25.891 149.869,28.707C150.291,28.821 150.635,29.126 150.798,29.531C150.961,29.936 150.925,30.394 150.7,30.768C148.861,34.326 145.122,43.699 147.7,56.958C151.033,74.099 158.056,79.694 167.936,85.527" style="fill:none;stroke:#b85050;stroke-width:4.05px;stroke-linejoin:round;"/>
            <path d="M65.536,38.265L149.06,59.419C147.306,54.296 146.836,47.107 149.06,35.584L161.544,38.929L189.047,102.256L62.087,74.669L65.536,38.265Z" style="fill:#b85050;fill-opacity:0.38;"/>
        </g>
        <path d="M176.228,20.259C188.86,16.874 199.116,28.504 199.116,46.214C199.116,63.924 188.86,81.051 176.228,84.436C163.595,87.821 153.339,76.19 153.339,58.48C153.339,40.77 163.595,23.644 176.228,20.259Z" style="fill:#5f64b9;"/>
        <clipPath id="_clip2">
            <path d="M176.228,20.259C188.86,16.874 199.116,28.504 199.116,46.214C199.116,63.924 188.86,81.051 176.228,84.436C163.595,87.821 153.339,76.19 153.339,58.48C153.339,40.77 163.595,23.644 176.228,20.259Z"/>
        </clipPath>
        <g clip-path="url(#_clip2)">
            <path d="M165.976,-6.574C182.093,-10.892 195.177,4.753 195.177,28.341C195.177,51.93 182.093,74.587 165.976,78.905C149.859,83.224 136.774,67.579 136.774,43.99C136.774,20.402 149.859,-2.255 165.976,-6.574Z" style="fill:#2b307e;"/>
        </g>
        <g>
            <path d="M6.828,115.246C6.828,115.246 9.07,140.623 10.562,157.51C11.397,166.958 15.871,175.711 23.039,181.922C34.646,191.979 52.82,207.725 65.277,218.518C73.615,225.742 85.391,227.46 95.445,222.919C112.423,215.251 138.29,203.568 152.098,197.332C158.191,194.579 163.051,189.671 165.743,183.55C168.115,178.155 171.851,168.931 171.851,168.931C171.851,168.931 6.752,113.576 6.828,115.246Z" style="fill:#a4a6cf;"/>
            <clipPath id="_clip3">
                <path d="M6.828,115.246C6.828,115.246 9.07,140.623 10.562,157.51C11.397,166.958 15.871,175.711 23.039,181.922C34.646,191.979 52.82,207.725 65.277,218.518C73.615,225.742 85.391,227.46 95.445,222.919C112.423,215.251 138.29,203.568 152.098,197.332C158.191,194.579 163.051,189.671 165.743,183.55C168.115,178.155 171.851,168.931 171.851,168.931C171.851,168.931 6.752,113.576 6.828,115.246Z"/>
            </clipPath>
            <g clip-path="url(#_clip3)">
                <path d="M75.309,193.109L64.037,234.7L121.099,231.885L176.04,197.088L184.342,158.554L75.309,193.109Z" style="fill:#5558a4;"/>
            </g>
            <path d="M17.732,99.141C12.66,100.788 8.712,104.808 7.157,109.909C5.603,115.009 6.637,120.548 9.929,124.744C25.478,144.565 50.082,175.928 65.608,195.719C74.072,206.509 88.745,210.238 101.334,204.8C119.897,196.78 146.465,185.303 163.859,177.788C168.007,175.996 171.058,172.342 172.081,167.941C173.104,163.541 171.978,158.916 169.046,155.478C152.749,136.369 124.533,103.284 109.225,85.334C102.799,77.799 92.465,74.879 83.046,77.937C65.676,83.577 37.426,92.748 17.732,99.141Z" style="fill:#e7e7f4;"/>
            <clipPath id="_clip4">
                <path d="M17.732,99.141C12.66,100.788 8.712,104.808 7.157,109.909C5.603,115.009 6.637,120.548 9.929,124.744C25.478,144.565 50.082,175.928 65.608,195.719C74.072,206.509 88.745,210.238 101.334,204.8C119.897,196.78 146.465,185.303 163.859,177.788C168.007,175.996 171.058,172.342 172.081,167.941C173.104,163.541 171.978,158.916 169.046,155.478C152.749,136.369 124.533,103.284 109.225,85.334C102.799,77.799 92.465,74.879 83.046,77.937C65.676,83.577 37.426,92.748 17.732,99.141Z"/>
            </clipPath>
            <g clip-path="url(#_clip4)">
                <path d="M194.782,158.345C194.782,158.345 186.55,176.789 184.706,174.92C180.944,171.104 184.862,163.452 181.027,159.707C170.422,149.352 155.376,131.492 141.014,128.436C122.998,124.603 107.391,133.542 96.728,132.064C85.383,130.492 76.724,125.209 65.344,124.125C52.715,122.923 41.478,121.719 28.856,120.113C20.763,119.083 5.694,115.676 -0.856,121.859C-5.234,125.992 -4.713,135.6 -5.129,141.273C-6.258,156.658 -5.179,172.329 -6.146,187.788C-6.951,200.669 -9.846,223.153 -5.32,235.531C-2.835,242.328 4.444,243.846 10.578,244.595C23.988,246.232 37.524,244.897 50.783,243.921C62.892,243.03 74.832,241.301 86.838,239.767C95.671,238.638 104.502,237.51 113.292,236.15C119.837,235.137 126.339,233.903 132.726,232.265C159.843,225.308 194.499,211.93 197.398,178.778C198.012,171.758 197.812,165.028 194.782,158.345Z" style="fill:#d1d2e8;"/>
            </g>
            <path d="M32.801,128.79C29.96,125.192 29.04,120.44 30.334,116.042C31.627,111.645 34.973,108.147 39.31,106.661C51.695,102.416 67.711,96.926 79.452,92.901C89.054,89.61 99.692,92.55 106.242,100.304C116.555,112.513 131.919,130.702 141.873,142.486C144.139,145.169 144.972,148.781 144.108,152.186C143.244,155.59 140.79,158.369 137.518,159.647C124.629,164.682 105.623,172.106 92.176,177.359C82.635,181.086 71.779,178.141 65.431,170.102C56.111,158.302 42.587,141.18 32.801,128.79Z" style="fill:#2b307e;"/>
            <clipPath id="_clip5">
                <path d="M32.801,128.79C29.96,125.192 29.04,120.44 30.334,116.042C31.627,111.645 34.973,108.147 39.31,106.661C51.695,102.416 67.711,96.926 79.452,92.901C89.054,89.61 99.692,92.55 106.242,100.304C116.555,112.513 131.919,130.702 141.873,142.486C144.139,145.169 144.972,148.781 144.108,152.186C143.244,155.59 140.79,158.369 137.518,159.647C124.629,164.682 105.623,172.106 92.176,177.359C82.635,181.086 71.779,178.141 65.431,170.102C56.111,158.302 42.587,141.18 32.801,128.79Z"/>
            </clipPath>
            <g clip-path="url(#_clip5)">
                <path d="M54.184,77.992C53.853,78.582 54.525,76.884 54.53,76.842C54.608,76.109 55.148,75.663 55.984,74.988C57.835,73.495 59.976,72.427 62.038,71.241C68.516,67.514 74.939,63.71 81.661,60.409C95.832,53.449 132.443,33.072 147.84,34.722C161.427,36.179 164.192,46.972 168.038,58.364C174.58,77.739 179.703,97.182 184.869,116.937C185.383,118.902 193.525,143.983 193.524,143.989C193.448,144.696 191.749,143.124 191.617,143.031C190.059,141.933 188.208,141.204 186.504,140.348C181.924,138.047 173.993,149.322 169.903,146.284C152.263,133.179 137.74,125.46 122.21,124.618C107.699,123.83 98.913,130.948 84.722,131.447C64.772,132.147 40.254,115.829 14.3,116.143C9.488,116.202 -1.043,106.675 -2.221,101.278C-3.609,94.924 12.834,79.697 17.071,75.966C23.204,70.564 29.052,64.749 35.847,60.145" style="fill:#fff;fill-opacity:0.35;"/>
            </g>
            <path d="M126.092,174.189C124.661,173.591 123.07,173.512 121.887,173.978C118.656,175.252 111.929,177.905 106.612,180.002C105.087,180.604 104.346,181.85 104.675,183.26C105.004,184.67 106.353,186.021 108.198,186.792C108.198,186.792 108.198,186.792 108.198,186.792C109.63,187.39 111.221,187.469 112.404,187.003C115.635,185.729 122.361,183.076 127.679,180.979C129.204,180.377 129.945,179.131 129.616,177.721C129.287,176.312 127.938,174.96 126.093,174.189C126.093,174.189 126.093,174.189 126.092,174.189Z" style="fill:#be88be;"/>
            <path d="M155.16,162.84C153.729,162.242 152.138,162.162 150.955,162.629C147.723,163.903 140.997,166.556 135.68,168.653C134.155,169.254 133.414,170.501 133.743,171.911C134.072,173.32 135.42,174.672 137.266,175.442C137.266,175.442 137.266,175.443 137.266,175.443C138.698,176.04 140.289,176.12 141.472,175.654C144.703,174.379 151.429,171.727 156.747,169.63C158.272,169.028 159.013,167.781 158.684,166.372C158.354,164.962 157.006,163.611 155.16,162.84C155.16,162.84 155.16,162.84 155.16,162.84Z" style="fill:#be88be;"/>
        </g>
    </g>
    <g>
        <g>
            <path d="M229.649,222.856C229.518,222.104 228.851,221.478 227.794,221.114C226.737,220.75 225.377,220.678 224.012,220.915C218.444,221.883 209.615,223.417 204.047,224.385C202.682,224.622 201.426,225.148 200.554,225.847C199.681,226.546 199.265,227.361 199.395,228.113C199.395,228.113 199.395,228.113 199.395,228.113C199.526,228.865 200.193,229.491 201.25,229.855C202.307,230.219 203.667,230.291 205.032,230.053C210.6,229.086 219.429,227.552 224.997,226.584C226.362,226.347 227.618,225.821 228.49,225.122C229.363,224.423 229.779,223.608 229.649,222.856C229.649,222.856 229.649,222.856 229.649,222.856Z" style="fill:#e0e0ec;"/>
            <clipPath id="_clip6">
                <path d="M229.649,222.856C229.518,222.104 228.851,221.478 227.794,221.114C226.737,220.75 225.377,220.678 224.012,220.915C218.444,221.883 209.615,223.417 204.047,224.385C202.682,224.622 201.426,225.148 200.554,225.847C199.681,226.546 199.265,227.361 199.395,228.113C199.395,228.113 199.395,228.113 199.395,228.113C199.526,228.865 200.193,229.491 201.25,229.855C202.307,230.219 203.667,230.291 205.032,230.053C210.6,229.086 219.429,227.552 224.997,226.584C226.362,226.347 227.618,225.821 228.49,225.122C229.363,224.423 229.779,223.608 229.649,222.856C229.649,222.856 229.649,222.856 229.649,222.856Z"/>
            </clipPath>
            <g clip-path="url(#_clip6)">
                <path d="M229.649,222.856C229.518,222.104 228.851,221.478 227.794,221.114C226.737,220.75 225.377,220.678 224.012,220.915C218.444,221.883 209.615,223.417 204.047,224.385C202.682,224.622 201.426,225.148 200.554,225.847C199.681,226.546 199.265,227.361 199.395,228.113C199.395,228.113 199.395,228.113 199.395,228.113C199.526,228.865 200.193,229.491 201.25,229.855C202.307,230.219 203.667,230.291 205.032,230.053C210.6,229.086 219.429,227.552 224.997,226.584C226.362,226.347 227.618,225.821 228.49,225.122C229.363,224.423 229.779,223.608 229.649,222.856C229.649,222.856 229.649,222.856 229.649,222.856Z" style="fill:#dadcf1;fill-opacity:0.75;"/>
                <path d="M229.649,222.856C229.518,222.104 228.851,221.478 227.794,221.114C226.737,220.75 225.377,220.678 224.012,220.915C218.444,221.883 209.615,223.417 204.047,224.385C202.682,224.622 201.426,225.148 200.554,225.847C199.681,226.546 199.265,227.361 199.395,228.113C199.395,228.113 199.395,228.113 199.395,228.113C199.526,228.865 200.193,229.491 201.25,229.855C202.307,230.219 203.667,230.291 205.032,230.053C210.6,229.086 219.429,227.552 224.997,226.584C226.362,226.347 227.618,225.821 228.49,225.122C229.363,224.423 229.779,223.608 229.649,222.856C229.649,222.856 229.649,222.856 229.649,222.856Z" style="fill:#2b307f;fill-opacity:0.01;"/>
                <path d="M213.342,222.304L198.04,225.021L199.854,231.487L214.243,228.864C214.243,228.864 216.503,227.203 216.206,225.332C215.881,223.283 213.342,222.304 213.342,222.304Z" style="fill:none;"/>
            </g>
        </g>
        <ellipse cx="198.816" cy="219.998" rx="11.55" ry="4.134" style="fill:#d5d6e6;fill-opacity:0.75;"/>
        <ellipse cx="186.919" cy="207.422" rx="6.526" ry="2.335" style="fill:#d5d6e6;fill-opacity:0.75;"/>
        <g>
            <ellipse cx="184.413" cy="208.148" rx="5.96" ry="2.303" style="fill:#aeb1e0;"/>
            <rect x="178.452" y="204.419" width="11.921" height="3.801" style="fill:#aeb1e0;"/>
            <ellipse cx="184.413" cy="204.438" rx="5.96" ry="2.303" style="fill:#dadcf1;"/>
        </g>
        <g>
            <ellipse cx="193.736" cy="220.358" rx="10.696" ry="4.134" style="fill:#aeb1e0;"/>
            <rect x="183.04" y="213.666" width="21.392" height="6.82" style="fill:#aeb1e0;"/>
            <ellipse cx="193.736" cy="213.7" rx="10.696" ry="4.134" style="fill:#dadcf1;"/>
        </g>
        <g>
            <g>
                <path d="M227.438,219.918C227.201,218.554 226.432,217.34 225.3,216.543C224.168,215.746 222.765,215.431 221.401,215.668C215.833,216.635 207.004,218.17 201.435,219.137C200.071,219.374 198.857,220.143 198.06,221.276C197.263,222.408 196.948,223.81 197.185,225.175C197.185,225.175 197.185,225.175 197.185,225.175C197.422,226.539 198.191,227.753 199.324,228.55C200.456,229.347 201.858,229.662 203.223,229.425C208.791,228.457 217.62,226.923 223.189,225.956C224.553,225.719 225.767,224.95 226.564,223.817C227.361,222.685 227.676,221.282 227.439,219.918C227.439,219.918 227.438,219.918 227.438,219.918Z" style="fill:none;"/>
                <clipPath id="_clip7">
                    <path d="M227.438,219.918C227.201,218.554 226.432,217.34 225.3,216.543C224.168,215.746 222.765,215.431 221.401,215.668C215.833,216.635 207.004,218.17 201.435,219.137C200.071,219.374 198.857,220.143 198.06,221.276C197.263,222.408 196.948,223.81 197.185,225.175C197.185,225.175 197.185,225.175 197.185,225.175C197.422,226.539 198.191,227.753 199.324,228.55C200.456,229.347 201.858,229.662 203.223,229.425C208.791,228.457 217.62,226.923 223.189,225.956C224.553,225.719 225.767,224.95 226.564,223.817C227.361,222.685 227.676,221.282 227.439,219.918C227.439,219.918 227.438,219.918 227.438,219.918Z"/>
                </clipPath>
                <g clip-path="url(#_clip7)">
                    <path d="M227.438,219.918C227.201,218.554 226.432,217.34 225.3,216.543C224.168,215.746 222.765,215.431 221.401,215.668C215.833,216.635 207.004,218.17 201.435,219.137C200.071,219.374 198.857,220.143 198.06,221.276C197.263,222.408 196.948,223.81 197.185,225.175C197.185,225.175 197.185,225.175 197.185,225.175C197.422,226.539 198.191,227.753 199.324,228.55C200.456,229.347 201.858,229.662 203.223,229.425C208.791,228.457 217.62,226.923 223.189,225.956C224.553,225.719 225.767,224.95 226.564,223.817C227.361,222.685 227.676,221.282 227.439,219.918C227.439,219.918 227.438,219.918 227.438,219.918Z" style="fill:#2b307f;fill-opacity:0.01;"/>
                    <path d="M227.438,219.918C227.201,218.554 226.432,217.34 225.3,216.543C224.168,215.746 222.765,215.431 221.401,215.668C215.833,216.635 207.004,218.17 201.435,219.137C200.071,219.374 198.857,220.143 198.06,221.276C197.263,222.408 196.948,223.81 197.185,225.175C197.185,225.175 197.185,225.175 197.185,225.175C197.422,226.539 198.191,227.753 199.324,228.55C200.456,229.347 201.858,229.662 203.223,229.425C208.791,228.457 217.62,226.923 223.189,225.956C224.553,225.719 225.767,224.95 226.564,223.817C227.361,222.685 227.676,221.282 227.439,219.918C227.439,219.918 227.438,219.918 227.438,219.918Z" style="fill:#dadcf1;"/>
                    <path d="M210.667,216.688L195.373,219.451L198.119,231.281L212.49,228.56C212.49,228.56 214.577,225.897 214.015,222.504C213.401,218.791 210.667,216.688 210.667,216.688Z" style="fill:none;"/>
                    <clipPath id="_clip8">
                        <path d="M210.667,216.688L195.373,219.451L198.119,231.281L212.49,228.56C212.49,228.56 214.577,225.897 214.015,222.504C213.401,218.791 210.667,216.688 210.667,216.688Z"/>
                    </clipPath>
                    <g clip-path="url(#_clip8)">
                        <path d="M227.438,219.917C227.201,218.553 226.432,217.339 225.3,216.542C224.168,215.745 222.766,215.431 221.402,215.668C215.833,216.635 207.003,218.17 201.434,219.137C200.07,219.374 198.856,220.143 198.059,221.275C197.263,222.408 196.948,223.81 197.185,225.174C197.185,225.174 197.185,225.175 197.185,225.176C197.422,226.54 198.191,227.754 199.324,228.551C200.456,229.348 201.858,229.662 203.222,229.425C208.79,228.458 217.621,226.923 223.189,225.956C224.553,225.719 225.767,224.95 226.564,223.817C227.361,222.685 227.676,221.283 227.439,219.919C227.439,219.918 227.438,219.918 227.438,219.917Z" style="fill:#676fcb;fill-opacity:0.75;"/>
                    </g>
                    <path d="M227.347,219.496C227.383,219.634 227.414,219.775 227.438,219.918C227.438,219.918 227.439,219.918 227.439,219.918C227.932,222.759 226.029,225.462 223.189,225.956C217.62,226.923 208.791,228.457 203.223,229.425C200.382,229.919 197.679,228.016 197.185,225.175C197.185,225.175 197.185,225.175 197.185,225.175C197.03,224.279 197.112,223.397 197.387,222.594C198.062,225.199 200.636,226.891 203.333,226.423C208.902,225.455 217.731,223.921 223.299,222.953C225.245,222.615 226.75,221.241 227.347,219.496Z" style="fill:#2b307e;fill-opacity:0.24;"/>
                    <path d="M202.559,221.388L222.078,217.996L202.559,221.388Z" style="fill:#2b307f;fill-opacity:0.15;stroke:#fff;stroke-width:1.2px;stroke-linejoin:round;stroke-miterlimit:1.5;"/>
                </g>
            </g>
        </g>
        <ellipse cx="164.786" cy="219.568" rx="9.83" ry="3.518" style="fill:#d5d6e6;fill-opacity:0.75;"/>
        <g>
            <ellipse cx="161.011" cy="220.662" rx="8.978" ry="3.47" style="fill:#aeb1e0;"/>
            <rect x="152.033" y="215.045" width="17.957" height="5.725" style="fill:#aeb1e0;"/>
            <ellipse cx="161.011" cy="215.073" rx="8.978" ry="3.47" style="fill:#dadcf1;"/>
        </g>
        <ellipse cx="180.809" cy="228.751" rx="11.55" ry="4.134" style="fill:#d5d6e6;fill-opacity:0.75;"/>
        <g>
            <ellipse cx="175.776" cy="229.097" rx="11.55" ry="4.134" style="fill:#f1765a;"/>
            <rect x="164.226" y="222.404" width="23.101" height="6.82" style="fill:#f1765a;"/>
            <ellipse cx="175.776" cy="222.438" rx="11.55" ry="4.134" style="fill:#fac9be;"/>
        </g>
        <g>
            <ellipse cx="175.776" cy="229.097" rx="11.55" ry="4.134" style="fill:#f1765a;"/>
            <rect x="164.226" y="222.404" width="23.101" height="6.82" style="fill:#f1765a;"/>
            <ellipse cx="175.776" cy="222.438" rx="11.55" ry="4.134" style="fill:#fac9be;"/>
        </g>
    </g>
</svg>
