<?xml version="1.0" encoding="UTF-8" standalone="no"?><!DOCTYPE svg PUBLIC "-//W3C//DTD SVG 1.1//EN" "http://www.w3.org/Graphics/SVG/1.1/DTD/svg11.dtd"><svg width="884px" height="590px" version="1.1" xmlns="http://www.w3.org/2000/svg" xmlns:xlink="http://www.w3.org/1999/xlink" xml:space="preserve" xmlns:serif="http://www.serif.com/" style="fill-rule:evenodd;clip-rule:evenodd;stroke-linejoin:round;stroke-miterlimit:2;"><rect id="BP-Taken" x="0" y="0" width="883.489" height="589.954" style="fill:none;"/><clipPath id="_clip1"><rect x="0" y="0" width="883.489" height="589.954"/></clipPath><g clip-path="url(#_clip1)"><path d="M741.52,211.959c-0,-0 -84.857,-9.683 -111.717,81.83l-4.926,103.013l83.296,-84.778l33.347,-100.065Z" style="fill:#c1c2e6;"/><path d="M157.711,535.908l0.963,76.553l-18.46,0.471l-4.949,-84.105l22.446,7.081Z" style="fill:#6d85a8;"/><path d="M124.115,519.951l10.557,98.954l13.434,-0.493l-5.303,-89.85l-18.688,-8.611Z" style="fill:#d3dce9;"/><g><path d="M758.694,235.11c0,0 112.33,5.196 103.163,61.819c-9.713,60.003 -53.965,160.758 -53.965,160.758l-148.531,-34.54l99.333,-188.037Z" style="fill:#767c99;"/><path d="M743.45,226.865c0,0 112.33,5.196 103.164,61.819c-9.713,60.002 -53.965,160.757 -53.965,160.757l-148.532,-34.539l99.333,-188.037Z" style="fill:#9badc7;"/><g><clipPath id="_clip2"><path d="M743.45,226.865c0,0 112.33,5.196 103.164,61.819c-9.713,60.002 -53.965,160.757 -53.965,160.757l-148.532,-34.539l99.333,-188.037Z"/></clipPath><g clip-path="url(#_clip2)"><path d="M753.699,204.833c0,0 112.33,5.196 103.163,61.819c-9.713,60.003 -53.965,160.758 -53.965,160.758l-148.532,-34.54l99.334,-188.037Z" style="fill:#464e74;"/><path d="M755.88,237.572c-0,0 66.055,66.862 35.438,141.893c-25.28,61.953 -60.221,92.266 -60.221,92.266l-93.433,-58.998l118.216,-175.161Z" style="fill:#6d77a8;"/></g></g></g><path d="M822.949,214.98c-24.856,-30.731 -32.622,-40.679 -37.029,-71.11c-3.446,-23.74 -23.18,-55.825 -62.797,-59.711c-65.582,-6.434 -54.727,28.921 -54.727,28.921c21.361,-10.996 41.857,13.193 45.895,23.48c13.206,33.655 -4.53,19.631 26.458,50.112c23.584,23.197 -4.486,45.021 19.056,83.465c8.48,13.848 31.31,44.715 59.62,43.106c3.743,-0.213 7.583,-0.993 11.498,-2.457c34.016,-12.712 30.019,-48.833 -7.974,-95.806Z" style="fill:#1f235c;"/><path d="M226.94,583.569c0,0 -67.614,-35.835 -96.885,-51.348c-8.501,-4.506 -14.941,-12.114 -17.981,-21.243c-12.405,-37.252 -45.738,-137.345 -58.086,-174.425c-5.324,-15.987 -3.255,-33.515 5.647,-47.823c6.049,-9.723 15.638,-19.204 30.842,-24.796c41.049,-15.096 42.987,-15.315 41.017,-15.205c-1.97,0.109 -41.017,15.205 -41.017,15.205l140.635,270.867l-4.172,48.768Z" style="fill:#dbe2ed;"/><path d="M134.232,513.125c-4.685,-2.587 -8.215,-6.853 -9.878,-11.938c-11.581,-35.403 -58.068,-177.517 -58.068,-177.517c-8.991,-27.459 5.414,-57.101 32.56,-66.998c11.254,-4.104 23.289,-8.492 34.739,-12.666c13.89,-5.065 29.256,-4.163 42.459,2.491c13.204,6.654 23.07,18.469 27.262,32.647c17.691,59.82 43.568,147.327 43.568,147.327l-11.4,7.934l99.881,52.981l-91.137,86.456c0,0 -84.367,-46.575 -109.986,-60.717Z" style="fill:#9ba2c7;"/><g><clipPath id="_clip3"><path d="M134.232,513.125c-4.685,-2.587 -8.215,-6.853 -9.878,-11.938c-11.581,-35.403 -58.068,-177.517 -58.068,-177.517c-8.991,-27.459 5.414,-57.101 32.56,-66.998c11.254,-4.104 23.289,-8.492 34.739,-12.666c13.89,-5.065 29.256,-4.163 42.459,2.491c13.204,6.654 23.07,18.469 27.262,32.647c17.691,59.82 43.568,147.327 43.568,147.327l-11.4,7.934l99.881,52.981l-91.137,86.456c0,0 -84.367,-46.575 -109.986,-60.717Z"/></clipPath><g clip-path="url(#_clip3)"><path d="M128.659,521.898c0,0 -0.514,-22.949 22.5,-35.394c23.015,-12.444 79.408,-39.372 79.408,-39.372l41.798,-37.892l-80.85,-203.468c0,0 -83.546,34.015 -102.669,96.983c-19.52,64.272 3.669,226.48 3.669,226.48l36.144,-7.337Z" style="fill:#848db6;"/></g></g><path d="M188.003,490.031c0,0 -27.586,20.967 -9.034,39.79c18.553,18.823 54.22,31.763 54.22,31.763l19.36,-32.63l-64.546,-38.923Z" style="fill:#757ead;"/><path id="_-" serif:id=" " d="M681.019,275.414c25.071,-17.743 41.426,-43.384 23.99,-77.074l50.329,-29.892c-2.224,32.468 -2.013,65.247 3.706,98.729c0,-0 -8.503,13.881 -28.442,10.927c-13.928,-2.064 -49.583,-2.69 -49.583,-2.69Z" style="fill:#d16d53;"/><clipPath id="_clip4"><path d="M681.019,275.414c25.071,-17.743 41.426,-43.384 23.99,-77.074l50.329,-29.892c-2.224,32.468 -2.013,65.247 3.706,98.729c0,-0 -8.503,13.881 -28.442,10.927c-13.928,-2.064 -49.583,-2.69 -49.583,-2.69Z"/></clipPath><g clip-path="url(#_clip4)"><path d="M702.419,238.075c0,0 0.741,12.549 13.435,9.976c27.103,-5.494 43.19,-28.975 43.19,-28.975l1.881,106.362l-96.955,-19.569l38.449,-67.794Z" style="fill:#c1c2e6;"/></g><path d="M166.666,447.37c0,0 -4.172,63.723 35.775,85.216c39.946,21.494 74.22,-14.345 74.22,-14.345l25.935,-74.64l-135.93,3.769Z" style="fill:#c6d0df;"/><path d="M639.348,283.73c0,0 8.63,-33.511 26.621,-21.621c7.866,5.198 11.879,7.624 14.392,6.911c4.023,-1.142 13.307,-17.289 19.386,-17.655c6.079,-0.366 12.008,15.546 17.086,15.457c5.079,-0.089 6.698,-14.092 13.385,-15.99c7.51,-2.131 23.229,-3.016 31.675,3.204c8.446,6.221 16.085,23.199 18.806,31.845c3.329,10.579 -1.056,24.891 -2.073,27.564c-6.068,15.939 -32.859,57.566 -51.883,68.882c-18.142,10.791 -32.327,16.749 -62.906,7.288c-20.383,-6.306 -24.512,-33.969 -24.512,-33.969l0.023,-71.916Z" style="fill:#c1c2e6;"/><g><clipPath id="_clip5"><path d="M639.348,283.73c0,0 8.63,-33.511 26.621,-21.621c7.866,5.198 11.879,7.624 14.392,6.911c4.023,-1.142 13.307,-17.289 19.386,-17.655c6.079,-0.366 12.008,15.546 17.086,15.457c5.079,-0.089 6.698,-14.092 13.385,-15.99c7.51,-2.131 23.229,-3.016 31.675,3.204c8.446,6.221 16.085,23.199 18.806,31.845c3.329,10.579 -1.056,24.891 -2.073,27.564c-6.068,15.939 -32.859,57.566 -51.883,68.882c-18.142,10.791 -32.327,16.749 -62.906,7.288c-20.383,-6.306 -24.512,-33.969 -24.512,-33.969l0.023,-71.916Z"/></clipPath><g clip-path="url(#_clip5)"><path d="M628.713,348.493c0,0 27.893,99.517 89.184,58.524c61.292,-40.993 72.403,-96.095 73.483,-99.785c4.558,-15.573 -29.295,-55.302 -29.295,-55.302c0,0 5.976,59.747 -8.941,71.308c-5.562,4.311 -2.407,-16.716 -20.829,-40.663c-0.73,-0.949 -1.996,-1.306 -3.114,-0.88c-1.119,0.426 -1.826,1.536 -1.739,2.729c1.083,13.532 2.15,40.09 -3.979,57c-0.259,0.602 -0.864,0.982 -1.519,0.951c-0.655,-0.031 -1.222,-0.465 -1.423,-1.089c-2.69,-8.236 -9.102,-26.806 -15.125,-35.648c-0.8,-1.169 -2.242,-1.719 -3.618,-1.38c-1.376,0.339 -2.396,1.496 -2.561,2.903c-1.208,12.598 -4.625,40.179 -11.561,48.564c-9.337,11.289 4.686,-55.177 -14.508,-76.042c-19.194,-20.865 -44.157,7.767 -44.455,68.81Z" style="fill:#a4a6cf;"/></g></g><path d="M750.812,593.523l-587.455,-4.252l288.954,-275.968l366.155,100.15l0,33.413l-67.654,146.657Z" style="fill:#f8ae9d;"/><g><clipPath id="_clip6"><path d="M750.812,593.523l-587.455,-4.252l288.954,-275.968l366.155,100.15l0,33.413l-67.654,146.657Z"/></clipPath><g clip-path="url(#_clip6)"><path d="M831.019,387.995l-135.236,286.403l57.272,-19.872l89.359,-214.215l-11.395,-52.316Z" style="fill:#7a6436;"/><path d="M214.393,480.576c0,0 194.188,42.276 274.849,-14.089c49.574,-34.643 -39.308,-54.026 -53.324,-101.843c-6.552,-22.353 78.98,-11.15 123.554,-10.58c12.999,0.166 17.373,11.094 38.485,22.12c16.398,8.564 20.477,-4.564 32.7,-0.801c19.934,6.137 26.219,14.441 33.55,15.621c67.283,10.83 87.513,-11.759 80.953,-19.526c-10.579,-12.525 -122.008,-33.68 -170.611,-35.503c-11.353,-0.425 -164.602,-14.907 -164.602,-14.907l-195.554,159.508Z" style="fill:#893e2d;fill-opacity:0.33;"/><g><g><path d="M342.287,484.369l-53.906,67.115l152.508,71.824l43.016,-80.589l-141.618,-58.35Z" style="fill:#933d2c;fill-opacity:0.49;"/><path d="M342.864,480.649l-53.906,67.115l152.508,71.823l43.017,-80.589l-141.619,-58.349Z" style="fill:#f7f8fa;"/><g><clipPath id="_clip7"><path d="M342.864,480.649l-53.906,67.115l152.508,71.823l43.017,-80.589l-141.619,-58.349Z"/></clipPath><g clip-path="url(#_clip7)"><path d="M310.127,489.411c0,0 29.81,9.026 62.791,-0.497c32.981,-9.523 -25.541,-15.643 -25.541,-15.643l-37.25,16.14Z" style="fill:#c7cad9;"/></g></g></g><g><path d="M373.661,484.209l-64.9,56.553l137.447,97.6l56.558,-71.737l-129.105,-82.416Z" style="fill:#c7cad9;fill-opacity:0.49;"/><path d="M374.886,480.649l-64.9,56.553l137.447,97.6l56.557,-71.737l-129.104,-82.416Z" style="fill:#f7f8fa;"/><g><clipPath id="_clip8"><path d="M374.886,480.649l-64.9,56.553l137.447,97.6l56.557,-71.737l-129.104,-82.416Z"/></clipPath><g clip-path="url(#_clip8)"><path d="M343.091,487.757c0,0 29.32,10.509 62.737,2.65c33.417,-7.859 -24.725,-16.903 -24.725,-16.903l-38.012,14.253Z" style="fill:#c7cad9;"/></g></g></g></g></g></g><path d="M485.552,453.961c0.971,-3.26 2.245,-6.65 3.861,-10.16c8.031,-17.296 11.541,-27.731 11.448,-36.25c-0.087,-7.949 -3.425,-14.107 -8.827,-22.768c-7.631,-12.299 -17.105,-32.586 -15.569,-51.899c0.929,-11.678 5.782,-23.026 17.317,-32.131c7.834,-6.17 18.732,-11.491 33.679,-12.164c9.815,-0.443 21.404,1.118 35.042,5.818c0.942,0.315 1.452,1.336 1.137,2.278c-0.315,0.942 -1.335,1.452 -2.278,1.137c-13.151,-4.254 -24.275,-5.57 -33.67,-4.974c-13.761,0.874 -23.733,5.904 -30.851,11.719c-10.1,8.234 -14.262,18.345 -14.941,28.711c-1.182,18.063 8.025,36.856 15.294,48.259c6.221,9.806 9.827,16.89 9.965,25.931c0.139,9.144 -3.395,20.427 -11.996,38.999c-1.598,3.423 -2.839,6.716 -3.764,9.871c4.639,1.987 8.977,4.134 12.787,6.55c6.623,4.198 11.681,9.231 14.285,15.483c2.11,5.077 2.729,12.764 0.648,18.4c-1.736,4.702 -5.207,8.066 -10.807,8.304c-7.526,0.314 -17.674,-6.307 -22.516,-18.88c-2.793,-7.251 -3.851,-16.506 -1.493,-27.39c-7.978,-3.249 -16.601,-6.167 -24.779,-9.285c-10.42,-3.983 -16.748,-9.247 -20.55,-14.578c-8.713,-12.215 -4.334,-24.934 -4.334,-24.934c0.336,-1.007 1.426,-1.551 2.433,-1.215c1.006,0.336 1.551,1.426 1.215,2.433c0,0 -3.499,10.913 4.11,21.232c3.495,4.739 9.313,9.306 18.739,12.739c8.053,2.942 16.514,5.704 24.415,8.764Zm4.618,7.361c-1.233,6.18 -1.222,11.749 -0.339,16.618c1.558,8.593 5.809,14.946 10.573,18.431c2.588,1.892 5.285,2.943 7.693,2.866c3.816,-0.12 5.593,-3.184 6.308,-6.698c0.819,-4.028 0.291,-8.755 -1.045,-12.079c-2.794,-6.969 -9.334,-12.038 -17.492,-16.355c-1.825,-0.965 -3.731,-1.891 -5.698,-2.783Z" style="fill:#3f414b;"/><path d="M273.048,346.265c23.923,31.936 45.802,51.099 66.862,63.656l16.819,-11.391c-8.53,-11.082 -17.389,-23.993 -26.525,-38.439c-11.425,-18.065 -23.281,-38.53 -35.467,-60.82l-21.689,46.994Z" style="fill:#a35f47;"/><path d="M138.226,441.682c0,0 -35.28,-121.998 -24.025,-166.578c11.256,-44.58 92.368,-89.607 92.368,-89.607l84.646,25.823c0,0 34.335,54.07 46.29,72.897c2.54,4 3.003,8.978 1.243,13.378c-4.312,10.782 -12.473,31.191 -16.282,40.714c-1.176,2.942 -4.344,4.564 -7.42,3.8c-3.196,-0.795 -6.635,-1.651 -6.635,-1.651l8.847,83.121l-79.19,28.333l-60.941,-10.342l-38.901,0.112Z" style="fill:#f5f7fa;"/><g><clipPath id="_clip9"><path d="M138.226,441.682c0,0 -35.28,-121.998 -24.025,-166.578c11.256,-44.58 94.931,-103.428 94.931,-103.428l82.083,39.644c0,0 34.335,54.07 46.29,72.897c2.54,4 3.003,8.978 1.243,13.378c-4.312,10.782 -12.473,31.191 -16.282,40.714c-1.176,2.942 -4.344,4.564 -7.42,3.8c-3.196,-0.795 -6.635,-1.651 -6.635,-1.651l8.847,83.121l-79.19,28.333l-60.941,-10.342l-38.901,0.112Z"/></clipPath><g clip-path="url(#_clip9)"><path d="M212.338,541.766c-10.818,-75.394 -56.842,-222.592 -54.762,-246.789c-0,-0 0.621,-40.71 8.969,-49.992c11.085,-12.324 24.644,-25.993 24.644,-25.993c2.464,31.587 12.822,58.368 20.793,69.393l26.188,-27.224c0,0 6.533,-90.972 25.545,-90.387c140.07,4.309 146.245,105.522 146.245,105.522l-71.796,233.126l-125.826,32.344Z" style="fill:#c6cadf;"/><g><clipPath id="_clip10"><path d="M212.338,541.766c-10.818,-75.394 -34.447,-164.265 -60.235,-264.59c0,0 6.094,-22.909 14.442,-32.191c11.085,-12.324 24.644,-25.993 24.644,-25.993c2.464,31.587 12.822,58.368 20.793,69.393l26.188,-27.224c0,0 6.533,-90.972 25.545,-90.387c140.07,4.309 146.245,105.522 146.245,105.522l-71.796,233.126l-125.826,32.344Z"/></clipPath><g clip-path="url(#_clip10)"><path d="M254.52,248.654l46.795,-4.052l-25.666,10.96l-15.527,14.644l-5.602,-21.552Z" style="fill:#9eaabb;"/><path d="M265.176,300.276c-0,-0 22.139,41.617 20.862,105.134c0,0 3.079,-55.971 -19.755,-112.884c-0.908,-2.263 -3.524,-5.531 -5.425,-6.689" style="fill:#9ea3bb;"/><path d="M244.64,254.038l-32.105,34.286l27.603,-16.067l17.983,-0.494l-13.481,-17.725Z" style="fill:#9eaabb;"/></g></g></g></g><path d="M197.546,190.75c0,0 0.165,55.541 40.473,70.387l8.78,0.231c7.37,9.674 14.354,27.666 18.416,39.044c0,0 7.821,-22.568 1.321,-86.94c0,0 14.256,-1.191 23.185,-10.802c5.1,-5.489 11.062,-27.668 11.062,-27.668c0,0 6.626,-2.508 4.039,-8.112c-2.587,-5.603 -8.559,-16.707 -8.559,-16.707c0,0 10.581,-61.581 -26.108,-82.258c-34.936,-19.689 -63.302,-20.927 -85.341,2.068c-22.075,23.034 -22.571,71.127 -14.459,81.568c16.719,21.522 23.852,21.197 27.191,39.189Z" style="fill:#f3775b;"/><clipPath id="_clip11"><path d="M197.546,190.75c0,0 0.165,55.541 40.473,70.387l8.78,0.231c7.37,9.674 14.354,27.666 18.416,39.044c0,0 7.821,-22.568 1.321,-86.94c0,0 14.256,-1.191 23.185,-10.802c5.1,-5.489 11.062,-27.668 11.062,-27.668c0,0 6.626,-2.508 4.039,-8.112c-2.587,-5.603 -8.559,-16.707 -8.559,-16.707c0,0 10.581,-61.581 -26.108,-82.258c-34.936,-19.689 -63.302,-20.927 -85.341,2.068c-22.075,23.034 -22.571,71.127 -14.459,81.568c16.719,21.522 23.852,21.197 27.191,39.189Z"/></clipPath><g clip-path="url(#_clip11)"><path d="M288.429,175.26c-0,0 10.267,5.681 18.968,-5.489l2.612,11.748c0,-0 -11.611,4.265 -21.58,-6.259Z" style="fill:#a35f47;"/><path d="M278.534,189.998c0,-0 4.237,1.598 9.252,1.64c1.322,0.01 2.698,-0.072 4.054,-0.353c2.886,-0.6 5.67,-1.941 7.762,-4.442c0.205,-0.211 0.2,-0.549 -0.012,-0.754c-0.211,-0.205 -0.549,-0.2 -0.754,0.011c-2.149,1.912 -4.756,2.631 -7.344,2.884c-1.655,0.162 -3.302,0.12 -4.83,-0.045c-3.966,-0.428 -7.098,-1.643 -7.098,-1.643c-0.746,-0.285 -1.582,0.09 -1.866,0.836c-0.284,0.746 0.091,1.582 0.836,1.866Z" style="fill:#2f2826;fill-opacity:0.7;"/><path d="M248.037,61.7c-0,-0 -6.457,8.647 -8.521,30.864c-1.771,19.063 6.342,46.176 12.244,61.117c6.294,15.936 -8.682,44.623 -20.38,47.811c-8.109,2.21 -13.848,0.312 -17.768,-2.604c-1.214,-0.884 -2.834,-0.978 -4.142,-0.239c-1.309,0.739 -2.065,2.174 -1.935,3.671c1.744,20.652 5.016,58.247 5.016,58.247l-81.312,-84.09l47.424,-145.66l69.374,30.883Z" style="fill:#f3ab9b;"/></g><g><clipPath id="_clip12"><path d="M197.546,190.75c0,0 0.165,55.541 40.473,70.387l8.78,0.231c7.37,9.674 14.354,27.666 18.416,39.044c0,0 7.821,-22.568 1.321,-86.94c0,0 16.445,0.767 25.374,-8.844c5.1,-5.489 4.172,-7.212 6.76,-9.57c3.638,-3.314 -0.376,-7.409 -0.376,-7.409c0,0 2.531,-1.118 4.268,-5.945c0.835,-2.32 -1.779,-6.702 -1.779,-6.702c0,0 7.728,-5.142 5.141,-10.746c-2.587,-5.603 -9.661,-14.073 -9.661,-14.073c0,0 9.778,-63.9 -26.911,-84.577c-34.936,-19.689 -65.611,-18.172 -87.65,4.823c-8.213,8.571 -13.271,19.976 -15.869,31.672c-4.384,19.739 -1.762,40.304 4.522,49.46c15.42,22.471 23.852,21.197 27.191,39.189Z"/></clipPath><g clip-path="url(#_clip12)"><path d="M307.84,200.3c-4.458,4.151 -11.811,-0.725 -15.468,4.298c-9.646,13.251 -37.733,9.52 -53.336,3.497c-1.021,-0.432 -2.205,-0.126 -2.889,0.746c-0.684,0.873 -0.699,2.095 -0.037,2.984c6.58,8.206 14.016,14.879 18.049,22.949c1.434,2.869 -1.174,8.496 -0.889,11.558c2.534,27.229 8.141,60.915 12.114,76.559l42.456,-122.591Z" style="fill:#a46048;"/><path d="M235.623,51.08c0,0 52.802,32.965 50.538,69.545c-2.263,36.579 39.409,46.682 39.409,46.682c6.734,-0.545 3.086,-43.723 -15.108,-79.9c-11.589,-23.044 -48.073,-34.5 -74.839,-36.327Z" style="fill:#a46048;fill-opacity:0.47;"/><g><clipPath id="_clip13"><path d="M235.623,51.08c0,0 52.802,32.965 50.538,69.545c-2.263,36.579 37.679,48.721 37.679,48.721c6.734,-0.545 4.816,-45.762 -13.378,-81.939c-11.589,-23.044 -48.073,-34.5 -74.839,-36.327Z"/></clipPath><g clip-path="url(#_clip13)"><path d="M295.211,138.606c1.702,-0.116 3.223,1.821 3.394,4.323c0.172,2.502 -1.071,4.628 -2.773,4.745c-1.702,0.116 -3.223,-1.82 -3.394,-4.323c-0.172,-2.502 1.071,-4.628 2.773,-4.745Z" style="fill:#181b1d;fill-opacity:0.75;"/></g></g><path d="M255.028,136.902c0,-0 1.603,-1.783 4.147,-3.554c0.894,-0.622 1.912,-1.191 3.014,-1.735c0.491,-0.241 0.999,-0.467 1.518,-0.693c0.498,-0.217 0.993,-0.449 1.523,-0.638c0.776,-0.275 1.556,-0.541 2.428,-0.682c0.849,-0.137 1.695,-0.264 2.648,-0.221c0.455,0.106 0.91,-0.18 1.016,-0.635c0.105,-0.455 -0.18,-0.911 -0.636,-1.016c-1.731,-0.719 -3.367,-1.002 -4.981,-0.974c-1.204,0.022 -2.35,0.267 -3.416,0.653c-0.659,0.238 -1.275,0.562 -1.851,0.921c-0.891,0.555 -1.692,1.186 -2.391,1.868c-2.9,2.831 -4.231,5.959 -4.231,5.959c-0.205,0.335 -0.101,0.774 0.233,0.98c0.335,0.206 0.774,0.101 0.979,-0.233Z" style="fill:#31231e;fill-opacity:0.6;"/><path d="M306.27,126.432c-0,0 -1.886,-1.77 -4.976,-3.007c-1.157,-0.464 -2.47,-0.813 -3.896,-0.943c-0.666,-0.06 -1.357,-0.057 -2.054,0.031c-0.669,0.085 -1.342,0.24 -2.01,0.48c-0.755,0.27 -1.499,0.594 -2.223,1.059c-0.962,0.617 -1.857,1.347 -2.73,2.311c-0.372,0.283 -0.445,0.815 -0.163,1.187c0.283,0.373 0.815,0.445 1.187,0.163c0.821,-0.405 1.605,-0.632 2.392,-0.863c0.816,-0.24 1.594,-0.344 2.364,-0.444c0.531,-0.069 1.046,-0.087 1.554,-0.123c0.533,-0.037 1.052,-0.07 1.56,-0.084c1.16,-0.028 2.244,0 3.244,0.14c2.9,0.404 4.954,1.273 4.954,1.273c0.326,0.22 0.769,0.134 0.989,-0.191c0.22,-0.326 0.134,-0.769 -0.192,-0.989Z" style="fill:#31231e;fill-opacity:0.6;"/><path d="M187.945,160.065c0,0 0.832,4.493 4.439,9.435c1.268,1.738 2.882,3.513 4.935,5.102c0.908,0.702 1.909,1.363 3.01,1.93c1.021,0.527 2.121,0.977 3.302,1.344c1.604,0.498 3.307,0.867 5.174,1.05c1.648,0.161 3.336,0.164 5.184,0.049c0.155,0.015 0.294,-0.1 0.308,-0.256c0.015,-0.156 -0.1,-0.294 -0.256,-0.309c-2.093,-0.518 -3.907,-1.21 -5.653,-1.927c-1.912,-0.786 -3.577,-1.688 -5.142,-2.6c-0.899,-0.524 -1.752,-1.048 -2.568,-1.571c-1.347,-0.862 -2.586,-1.716 -3.686,-2.617c-1.439,-1.179 -2.677,-2.349 -3.707,-3.502c-3.08,-3.449 -4.396,-6.417 -4.396,-6.417c-0.08,-0.26 -0.356,-0.407 -0.617,-0.328c-0.26,0.08 -0.407,0.356 -0.327,0.617Z" style="fill:#a46048;"/><path d="M291.718,81.378c-0,0 -9.541,13.959 -29.191,10.803c-21.974,-3.529 -36.745,-0.336 -44.864,8.255c-7.822,8.277 -9.92,19.443 -0.778,27.25c3.881,3.314 7.151,16.403 7.151,16.403l-5.311,4.614c0,0 -8.549,-11.922 -18.118,-8.413c-3.967,1.455 -10.074,6.303 -10.396,12.903c-0.489,10.05 4.535,14.532 4.535,14.532l-1.485,14.16c0,0 -52.596,-31.344 -54.13,-31.991c-1.535,-0.647 13.082,-89.837 13.082,-89.837l92.495,-24.424l47.01,45.745Z" style="fill:#1f235c;"/><g><clipPath id="_clip14"><path d="M281.329,74.755c0,0 -3.361,12.823 -23.011,9.667c-21.974,-3.529 -36.294,-0.747 -44.413,7.844c-7.822,8.277 -6.162,27.613 2.98,35.42c3.881,3.314 7.151,16.403 7.151,16.403l-5.311,4.614c0,0 -8.549,-11.922 -18.118,-8.413c-3.967,1.455 -10.074,6.303 -10.396,12.903c-0.489,10.05 4.535,14.532 4.535,14.532l-1.485,14.16c0,0 -52.596,-31.344 -54.13,-31.991c-1.535,-0.647 13.082,-89.837 13.082,-89.837l92.495,-24.424l36.621,39.122Z"/></clipPath><g clip-path="url(#_clip14)"><path d="M157.024,179.706c0,0 35.362,11.247 25.53,-7.272c-17.659,-33.265 -4.114,-82.612 19.682,-101.318c18,-14.149 54.423,-17.153 77.942,4.167c5.184,4.7 3.05,-6.34 3.05,-6.34c0,0 -39.161,-56.321 -115.076,-13.632c-44.448,24.994 -11.128,124.395 -11.128,124.395Z" style="fill:#5b5d7f;"/></g></g><path d="M197.648,159.301c0,0 -0.288,-4.293 1.9,-7.497c0.433,-0.633 1,-1.177 1.69,-1.677c0.403,-0.291 0.864,-0.534 1.369,-0.783c0.776,-0.382 1.631,-0.801 2.715,-1.027c0.672,-0.195 1.561,-0.226 2.532,0.027c0.961,0.25 1.919,0.581 2.812,1.222c0.104,0.117 0.284,0.127 0.401,0.023c0.116,-0.105 0.126,-0.285 0.022,-0.401c-0.769,-1.355 -1.841,-2.344 -2.986,-3.063c-1.079,-0.677 -2.201,-0.879 -3.123,-0.932c-1.516,0.019 -2.816,0.236 -3.916,0.672c-0.843,0.334 -1.555,0.811 -2.156,1.337c-1.019,0.891 -1.765,1.926 -2.235,3.049c-0.668,1.594 -0.894,3.262 -0.831,4.781c0.104,2.541 0.842,4.485 0.842,4.485c0.06,0.265 0.324,0.433 0.59,0.374c0.265,-0.06 0.433,-0.324 0.374,-0.59Z" style="fill:#f3775b;"/></g></g><path d="M377.886,393.437c0,0 61.528,-4.936 80.992,-6.497c1.377,-0.11 2.727,0.433 3.644,1.468c0.916,1.035 1.293,2.44 1.017,3.794c-1.427,7.007 -3.761,18.462 -4.634,22.748c-0.225,1.106 -0.74,2.132 -1.492,2.974c-2.792,3.128 -10.029,11.235 -14.41,16.141c-2.176,2.438 -5.501,3.51 -8.692,2.8c-18.872,-4.194 -82.983,-18.442 -82.983,-18.442l26.558,-24.986Z" style="fill:#f7f8fa;"/><g><clipPath id="_clip15"><path d="M377.886,393.437c0,0 61.528,-4.936 80.992,-6.497c1.377,-0.11 2.727,0.433 3.644,1.468c0.916,1.035 1.293,2.44 1.017,3.794c-1.427,7.007 -3.761,18.462 -4.634,22.748c-0.225,1.106 -0.74,2.132 -1.492,2.974c-2.792,3.128 -10.029,11.235 -14.41,16.141c-2.176,2.438 -5.501,3.51 -8.692,2.8c-18.872,-4.194 -82.983,-18.442 -82.983,-18.442l26.558,-24.986Z"/></clipPath><g clip-path="url(#_clip15)"><path d="M473.61,416.493c0,0 -86.141,-0.233 -96.911,-0.262c-0.61,-0.002 -1.106,-0.494 -1.112,-1.104c-0.004,-0.359 -0.008,-0.776 -0.012,-1.208c-0.021,-1.999 0.855,-3.903 2.386,-5.188c4.697,-3.942 14.595,-12.25 14.595,-12.25l-54.257,19.646l15.648,32.055l86.064,12.336l33.599,-44.025Z" style="fill:#b1bfd3;"/><path d="M446.297,392.993c0.894,-0.053 1.761,0.319 2.338,1.004c0.578,0.685 0.797,1.603 0.594,2.475c-0.633,2.706 -1.489,6.366 -2.131,9.115c-0.536,2.29 -2.56,3.922 -4.911,3.96c-9.759,0.156 -34.681,0.556 -44.194,0.708c-0.783,0.012 -1.514,-0.391 -1.92,-1.061c-0.407,-0.67 -0.427,-1.505 -0.054,-2.193c1.415,-2.616 3.366,-6.22 4.691,-8.669c0.918,-1.695 2.646,-2.795 4.569,-2.909c8.434,-0.5 31.81,-1.885 41.018,-2.43Z" style="fill:#404251;"/></g></g><path d="M549.025,317.619c-0.605,-9.956 1.567,-38.77 22.668,-40.371c16.716,-1.268 60.051,-2.87 77.343,-3.481c6.084,-0.22 12.03,1.851 16.661,5.803c2.308,1.982 4.864,4.542 7.449,7.813c6.347,8.033 8.94,15.998 9.97,20.493c0.212,0.931 0.01,1.909 -0.554,2.68c-0.563,0.772 -1.434,1.261 -2.386,1.342c-2.067,0.176 -4.26,0.363 -4.26,0.363c0,0 0.835,41.614 -19.295,45.327c-22.889,4.221 -76.641,6.705 -77.415,6.678c-13.133,-0.454 -27.83,-7.933 -30.181,-46.647Z" style="fill:#363a4c;"/><g><clipPath id="_clip16"><path d="M549.025,317.619c-0.605,-9.956 1.567,-38.77 22.668,-40.371c16.716,-1.268 60.051,-2.87 77.343,-3.481c6.084,-0.22 12.03,1.851 16.661,5.803c2.308,1.982 4.864,4.542 7.449,7.813c6.347,8.033 8.94,15.998 9.97,20.493c0.212,0.931 0.01,1.909 -0.554,2.68c-0.563,0.772 -1.434,1.261 -2.386,1.342c-2.067,0.176 -4.26,0.363 -4.26,0.363c0,0 0.835,41.614 -19.295,45.327c-22.889,4.221 -76.641,6.705 -77.415,6.678c-13.133,-0.454 -27.83,-7.933 -30.181,-46.647Z"/></clipPath><g clip-path="url(#_clip16)"><path d="M554.628,305.349c0,0 11.878,-18.042 20.16,-8.886c5.282,5.841 8.814,12.881 10.68,17.214c1.034,2.423 3.479,3.933 6.108,3.774c19.998,-1.207 99.443,-6.008 99.443,-6.008l-9.477,55.503l-137.358,16.404l-4.738,-49.328l15.182,-28.673Z" style="fill:#212433;"/><path d="M548.949,288.798c0,0 11.163,-9.122 19.418,-8.324c8.255,0.798 13.874,11.167 13.874,11.167l97.974,-2.351l-9.074,-21.664l-107.533,2.452l-14.659,18.72Z" style="fill:#4a4f66;"/><path d="M551.144,300.911c0,0 2.522,-10.095 8.324,-15.912c2.642,-2.648 5.994,-4.382 10.181,-3.566c3.926,0.759 6.985,4.428 9.488,8.885c3.739,6.657 6.091,15.197 7.22,20.052c0.359,1.556 1.258,2.881 2.461,3.805c1.207,0.927 2.731,1.436 4.344,1.381c2.574,-0.106 6.224,-0.223 10.496,-0.434c4.692,-0.231 10.133,-0.546 15.734,-0.898c6.666,-0.419 13.546,-0.904 19.659,-1.349c11.115,-0.807 19.653,-1.509 19.653,-1.509c0.157,-0.006 0.279,-0.138 0.272,-0.294c-0.006,-0.157 -0.138,-0.279 -0.294,-0.273c0,0 -8.567,-0.03 -19.711,0.035c-6.129,0.036 -13.026,0.091 -19.704,0.196c-5.611,0.087 -11.061,0.198 -15.756,0.335c-4.276,0.124 -7.923,0.292 -10.498,0.387c-0.71,0.032 -1.383,-0.184 -1.921,-0.585c-0.542,-0.403 -0.959,-0.981 -1.134,-1.676c-1.326,-5.048 -4.012,-13.916 -8.16,-20.729c-3.122,-5.129 -7.086,-9.072 -11.73,-9.771c-5.035,-0.748 -8.992,1.378 -11.99,4.685c-5.765,6.36 -7.898,17.019 -7.898,17.019c-0.059,0.265 0.108,0.53 0.374,0.589c0.266,0.06 0.53,-0.108 0.59,-0.373Z" style="fill:#5a607b;"/></g></g><path d="M339.802,346.862c0.909,2.135 7.756,8.263 16.943,13.293c3.931,2.153 18.306,5.672 25.818,3.616c11.417,-3.126 36.772,-22.328 43.441,-22.224c16.035,0.251 82.556,3.559 116.316,5.274c8.201,0.417 14.469,0.74 17.61,0.903c1.674,0.087 3.341,-0.269 4.834,-1.031c4.493,-2.393 13.423,-8.683 14.757,-21.778c1.131,-11.106 -5.763,-20.068 -10.02,-24.461c-1.822,-1.869 -4.412,-2.781 -7.004,-2.468c-9.612,1.16 -36.007,8.235 -63.861,11.485c-30.737,3.587 -63.251,3.365 -76.944,4.5c-6.756,0.56 -24.986,-0.163 -29.449,0.603c-2.659,0.457 -18.697,5.554 -30.1,3.11c-1.615,-0.346 -5.462,-0.694 -5.296,3.219c0.134,3.168 1.516,5.267 4.668,6.684c9.483,4.261 21.476,5.144 21.476,5.144c0,0 -9.029,2.13 -12.16,2.434c-5.427,0.527 -17.483,-2.816 -23.039,-2.723c-1.423,0.024 -4.998,1.038 -7.142,3.134c-1.86,1.819 -2.147,8.23 -0.848,11.286Z" style="fill:#f3775b;"/><clipPath id="_clip17"><path d="M339.802,346.862c0.909,2.135 7.756,8.263 16.943,13.293c3.931,2.153 18.306,5.672 25.818,3.616c11.417,-3.126 36.772,-22.328 43.441,-22.224c16.035,0.251 82.556,3.559 116.316,5.274c8.201,0.417 14.469,0.74 17.61,0.903c1.674,0.087 3.341,-0.269 4.834,-1.031c4.493,-2.393 13.423,-8.683 14.757,-21.778c1.131,-11.106 -5.763,-20.068 -10.02,-24.461c-1.822,-1.869 -4.412,-2.781 -7.004,-2.468c-9.612,1.16 -36.007,8.235 -63.861,11.485c-30.737,3.587 -63.251,3.365 -76.944,4.5c-6.756,0.56 -24.986,-0.163 -29.449,0.603c-2.659,0.457 -18.697,5.554 -30.1,3.11c-1.615,-0.346 -5.462,-0.694 -5.296,3.219c0.134,3.168 1.516,5.267 4.668,6.684c9.483,4.261 21.476,5.144 21.476,5.144c0,0 -9.029,2.13 -12.16,2.434c-5.427,0.527 -17.483,-2.816 -23.039,-2.723c-1.423,0.024 -4.998,1.038 -7.142,3.134c-1.86,1.819 -2.147,8.23 -0.848,11.286Z"/></clipPath><g clip-path="url(#_clip17)"><path d="M397.374,323.953c23.385,7.706 85.922,11.46 116.881,10.503c23.979,-0.741 53.215,-1.72 69.38,-12.097c10.365,-6.654 28.315,0.14 28.315,0.14l-29.894,38.463l-151.145,26.037l-99.669,-12.654c-2.729,-0.467 -8.85,-18.147 -8.63,-30.632c0.148,-8.391 22.872,-21.282 26.264,-13.898c0.205,0.446 -9.35,3.554 -7.467,8.705c5.35,14.635 21.84,18.189 31.854,13.402c12.954,-6.19 12.864,-17.08 12.774,-18.707c-1.857,-0.475 -3.793,-0.531 -6.236,-0.664c-6.576,-0.358 -13.43,-2.719 -21.208,-4.125c-5.513,-0.997 14.419,-4.486 21.33,-5.359c6.683,-0.844 12.877,-0.621 17.451,0.886Z" style="fill:#a35f47;fill-opacity:0.42;"/><path d="M351.78,304.968c-0,0 5.323,16.775 24.483,15.545c14.372,-0.923 21.459,-4.262 31.948,-4.517c18.594,-0.452 54.079,10.628 83.499,8.366c55.289,-4.252 90.023,-27 91.913,-29.385c1.891,-2.386 -223.603,-2.724 -223.603,-2.724l-8.24,12.715Z" style="fill:#f3ab9b;"/><path d="M340.372,331.858c0,-0 2.664,4.721 5.926,8.722c1.751,2.148 3.709,4.024 5.446,5.028c2.31,1.234 4.929,2.118 7.444,2.517c3.117,0.493 6.01,0.315 7.782,0.066c0.694,-0.118 1.829,-0.518 3.063,-1.127c2.706,-1.334 5.981,-3.415 5.981,-3.415c0.222,-0.11 0.312,-0.379 0.203,-0.601c-0.111,-0.221 -0.38,-0.312 -0.602,-0.202c-0,0 -2.843,1.044 -5.48,1.855c-1.39,0.429 -2.695,0.784 -3.407,0.788c-1.606,0.063 -4.164,-0.243 -6.949,-0.768c-2.193,-0.413 -4.546,-0.921 -6.614,-1.915c-1.586,-0.698 -3.386,-2.194 -5.121,-3.843c-3.648,-3.472 -6.926,-7.604 -6.926,-7.604c-0.138,-0.206 -0.418,-0.261 -0.623,-0.123c-0.206,0.137 -0.26,0.417 -0.123,0.622Z" style="fill:#a35f47;"/><path d="M343.287,331.705c-0,-0 4.599,3.57 9.328,6.357c2.546,1.5 5.14,2.736 7.062,3.191c1.179,0.262 2.355,0.467 3.508,0.586c1.224,0.127 2.421,0.176 3.557,0.143c2.904,-0.085 5.41,-0.627 7.077,-1.326c0.565,-0.249 1.464,-0.679 2.459,-1.186c2.482,-1.265 5.555,-2.951 5.555,-2.951c0.15,-0.07 0.216,-0.247 0.146,-0.397c-0.068,-0.15 -0.246,-0.216 -0.396,-0.148l-8.378,3.049c-1.285,0.423 -3.082,0.636 -5.153,0.685c-1.008,0.024 -2.076,-0 -3.187,-0.059c-1.531,-0.081 -3.141,-0.222 -4.757,-0.526c-1.803,-0.301 -4.245,-1.342 -6.704,-2.533c-4.883,-2.366 -9.777,-5.377 -9.777,-5.377c-0.135,-0.094 -0.322,-0.06 -0.416,0.076c-0.094,0.135 -0.059,0.322 0.076,0.416Z" style="fill:#a35f47;"/></g><path d="M742.181,146.386c-13.67,-19.762 -33.073,-39.222 -61.847,-58.188c0,0 -6.328,5.103 -10.444,13.257c-7.005,13.876 -3.821,26.866 -5.078,36.314c-1.207,9.063 -3.694,13.521 -6.168,17.597c-6.145,10.126 -7.644,9.827 -0.678,13.175c0.098,0.047 6.537,1.273 10.803,14.199c8.242,24.979 26.745,25.433 36.701,23.866c17.509,-2.756 30.634,-20.107 30.634,-20.107c6.141,-4.062 10.331,-14.302 10.331,-14.302c0,-0 10.774,-3.333 12.5,-17.96c1.244,-10.543 -8.382,-13.492 -16.754,-7.851Z" style="fill:#f3ab9b;"/><clipPath id="_clip18"><path d="M742.181,146.386c-13.67,-19.762 -33.073,-39.222 -61.847,-58.188c0,0 -6.328,5.103 -10.444,13.257c-7.005,13.876 -3.821,26.866 -5.078,36.314c-1.207,9.063 -3.694,13.521 -6.168,17.597c-6.145,10.126 -7.644,9.827 -0.678,13.175c0.098,0.047 6.537,1.273 10.803,14.199c8.242,24.979 26.745,25.433 36.701,23.866c17.509,-2.756 30.634,-20.107 30.634,-20.107c6.141,-4.062 10.331,-14.302 10.331,-14.302c0,-0 10.774,-3.333 12.5,-17.96c1.244,-10.543 -8.382,-13.492 -16.754,-7.851Z"/></clipPath><g clip-path="url(#_clip18)"><g><path d="M701.658,88.583c-0,-0 -13.233,11.579 -20.364,13.356c-0,0 -13.037,29.515 8.701,46.838c9.081,7.237 4.05,18.2 1.633,24.852c-2.89,7.952 14.476,51.014 43.83,42.158l39.028,-60.408l-28.353,-43.627c-0,-0 -44.203,-24.219 -44.475,-23.169Z" style="fill:#f3775b;"/><path d="M683.982,141.424c1.21,-0.141 2.379,0.625 3.15,1.9c0.44,0.727 0.751,1.619 0.865,2.602c0.316,2.706 -0.972,5.084 -2.873,5.305c-1.901,0.221 -3.701,-1.796 -4.016,-4.502c-0.177,-1.523 0.153,-2.941 0.814,-3.929c0.513,-0.77 1.228,-1.28 2.06,-1.376Z" style="fill:#4f322d;"/><path d="M703.073,88.941c-0.171,-0.25 2.38,0.641 2.827,0.864c1.963,0.982 3.375,3.136 4.805,4.806c4.364,5.09 7.928,10.639 9.162,17.419c0.546,3.006 0.491,5.908 -0,8.861c-0.726,4.347 -0.95,15.67 -0.759,16.434c0.602,2.408 2.749,5.958 3.344,8.454c0.964,4.038 13.967,3.371 18.739,0.191c2.463,-1.642 5.227,-2.904 7.509,-4.805c1.964,-1.638 3.708,-3.613 4.955,-5.858c1.718,-3.093 1.941,-6.892 1.652,-10.361c-0.903,-10.836 -7.735,-21.107 -14.867,-28.833c-3.787,-4.104 -7.796,-9.155 -12.915,-11.715c-2.455,-1.227 -5.178,-2.176 -7.809,-2.702c-2.56,-0.512 -5.251,1.049 -7.509,1.952c-4.185,1.674 -7.78,2.675 -11.113,6.007" style="fill:#1f235c;"/><path d="M646.851,165.327c-0,0 2.454,3.09 6.383,5.433c0.967,0.576 2.027,1.074 3.155,1.461c0.742,0.255 1.515,0.458 2.309,0.558c1.318,0.166 2.676,0.14 4.02,-0.162c1.837,-0.414 3.599,-1.227 5.268,-2.631c0.415,-0.254 0.545,-0.796 0.291,-1.21c-0.254,-0.414 -0.796,-0.545 -1.21,-0.292c-1.013,0.413 -1.985,0.582 -2.958,0.713c-0.999,0.133 -1.948,0.079 -2.897,-0.008c-0.645,-0.059 -1.271,-0.183 -1.895,-0.297c-0.649,-0.12 -1.287,-0.25 -1.913,-0.405c-1.382,-0.339 -2.695,-0.752 -3.885,-1.245c-3.308,-1.368 -5.644,-2.983 -5.644,-2.983c-0.296,-0.283 -0.764,-0.272 -1.047,0.023c-0.282,0.294 -0.272,0.763 0.023,1.045Z" style="fill:#f3775b;"/><path d="M743.588,150.579c0,0 2.541,-0.508 5.085,0.09c0.748,0.175 1.412,0.567 2.1,1.073c0.386,0.285 0.834,0.539 1.189,0.992c0.499,0.483 0.977,1.016 1.446,1.778c0.439,0.713 0.884,1.369 1.308,2.323c0.017,0.161 0.162,0.279 0.325,0.263c0.161,-0.018 0.279,-0.162 0.262,-0.324c0.239,-1.117 0.341,-1.984 0.335,-2.9c-0.008,-1.231 -0.361,-2.176 -0.682,-3.073c-0.379,-0.766 -0.828,-1.405 -1.374,-1.895c-0.955,-0.854 -2.108,-1.299 -3.244,-1.441c-1.125,-0.141 -2.221,-0.06 -3.233,0.233c-2.325,0.67 -3.97,1.961 -3.97,1.961c-0.253,0.125 -0.358,0.433 -0.234,0.686c0.126,0.254 0.434,0.359 0.687,0.234Z" style="fill:#9b5e4b;"/></g></g><path d="M156.891,441.529c0,0 17.487,48.047 63.936,43.745c50.52,-4.679 95.116,-25.747 123.002,-32.087c7.501,-1.706 21.03,7.339 43.056,0.571c22.025,-6.768 30.07,-20.673 30.07,-20.673c0,0 -34.958,-7.959 -50.031,-11.391c-1.531,-0.348 -2.791,-1.431 -3.368,-2.891c-0.576,-1.461 -0.394,-3.113 0.486,-4.413c1.84,-2.716 3.638,-5.371 3.638,-5.371c0,0 11.536,-3.625 15.698,-5.899c4.224,-2.308 8.216,-6.424 11.312,-10.223c1.069,-1.307 1.181,-3.152 0.277,-4.578c-0.904,-1.427 -2.62,-2.113 -4.258,-1.703c-13.609,3.202 -36.508,8.671 -39.893,9.965c-4.217,1.612 -25.849,19.651 -25.849,19.651l-88.121,18.777c0,0 -16.398,-18.65 -17.688,-20.157c-0.464,-0.541 -13.818,15.804 -19.935,23.35c-1.905,2.351 -4.779,3.704 -7.805,3.673c-10.487,-0.105 -34.527,-0.346 -34.527,-0.346Z" style="fill:#f3775b;"/><clipPath id="_clip19"><path d="M156.891,441.529c0,0 17.487,48.047 63.936,43.745c50.52,-4.679 95.116,-25.747 123.002,-32.087c7.501,-1.706 21.03,7.339 43.056,0.571c22.025,-6.768 30.07,-20.673 30.07,-20.673c0,0 -34.958,-7.959 -50.031,-11.391c-1.531,-0.348 -2.791,-1.431 -3.368,-2.891c-0.576,-1.461 -0.394,-3.113 0.486,-4.413c1.84,-2.716 3.638,-5.371 3.638,-5.371c0,0 11.536,-3.625 15.698,-5.899c4.224,-2.308 8.216,-6.424 11.312,-10.223c1.069,-1.307 1.181,-3.152 0.277,-4.578c-0.904,-1.427 -2.62,-2.113 -4.258,-1.703c-13.609,3.202 -36.508,8.671 -39.893,9.965c-4.217,1.612 -25.849,19.651 -25.849,19.651l-88.121,18.777c0,0 -16.398,-18.65 -17.688,-20.157c-0.464,-0.541 -13.818,15.804 -19.935,23.35c-1.905,2.351 -4.779,3.704 -7.805,3.673c-10.487,-0.105 -34.527,-0.346 -34.527,-0.346Z"/></clipPath><g clip-path="url(#_clip19)"><path d="M160.073,426.795c0,0 50.34,-20.782 64.137,-14.158c7.196,3.455 16.571,17.645 13.867,20.779c-2.999,3.477 -23.999,2.304 -28.454,6.994c-11.526,12.138 -15.291,27.441 -11.546,29.031c41.497,17.62 119.625,-30.944 129.593,-34.309c9.968,-3.365 21.753,7.623 51.671,8.636c18.324,0.62 53.544,-39.585 58.396,-36.026c9.258,6.789 -25.916,65.173 -23.194,56.527c1.493,-4.743 -159.103,45.809 -159.103,45.809c0,0 -105.282,-16.335 -107.545,-15.875c-1.132,0.23 -12.167,-32.46 -8.835,-49.386c3.324,-16.893 21.013,-18.022 21.013,-18.022Z" style="fill:#a35f47;fill-opacity:0.47;"/><path d="M384.392,425.909c0,0 -15.18,-3.704 -26.03,-6.352c-2.196,-0.536 -3.937,-2.209 -4.559,-4.383c-0.622,-2.174 -0.03,-4.514 1.55,-6.131c3.523,-3.605 6.924,-7.084 6.924,-7.084l39.968,-12.384l-17.853,36.334Z" style="fill:#a46048;"/><path d="M276.19,421.002c-0,-0 -78.558,29.912 -60.05,36.685c18.507,6.774 104.874,-22.211 115.216,-31.393c10.342,-9.182 41.04,-44.797 41.04,-44.797l-96.206,39.505Z" style="fill:#f3ab9b;"/></g><path d="M266.124,143.47c1.948,-0.176 3.74,2.006 3.999,4.871c0.259,2.864 -1.112,5.332 -3.06,5.508c-1.949,0.176 -3.741,-2.006 -3.999,-4.87c-0.259,-2.864 1.112,-5.333 3.06,-5.509Z" style="fill:#181b1d;fill-opacity:0.75;"/><path d="M684.274,180.022c0,-0 -1.205,2.734 -5.143,3.695c-0.821,0.201 -1.745,0.349 -2.807,0.396c-1.289,0.057 -2.746,0.018 -4.434,-0.266c-0.237,-0.062 -0.481,0.08 -0.543,0.317c-0.063,0.237 0.079,0.481 0.316,0.543c2.138,0.771 3.976,1.146 5.58,1.203c1.538,0.054 2.841,-0.196 3.936,-0.552c4.045,-1.314 5.311,-4.39 5.311,-4.39c0.262,-0.612 -0.023,-1.32 -0.634,-1.581c-0.612,-0.261 -1.32,0.023 -1.582,0.635Z" style="fill:#2f2826;fill-opacity:0.7;"/><path d="M822.949,214.98c-24.856,-30.731 -27.138,-40.362 -26.945,-71.11c0.167,-26.7 -18.541,-76.064 -66.52,-78.822c-53.291,-3.062 -64.288,24.865 -65.483,28.474c-0.074,0.255 -0.047,0.527 0.074,0.763c21.241,41.526 43.47,24.487 55.673,49.585c19.375,39.851 19.544,28.465 33.583,42.188c20.967,20.496 -5.249,12.192 18.293,50.636c8.48,13.848 89.318,25.259 51.325,-21.714Z" style="fill:#1f235c;"/><path d="M663.963,94.102c0,0 3.856,30.118 48.208,44.696c-0,-0 -17.137,-13.374 -30.242,-42.84c-4.45,-10.005 -17.966,-1.856 -17.966,-1.856Z" style="fill:#1f235c;"/></g></svg>