<?xml version="1.0" encoding="UTF-8" standalone="no"?><!DOCTYPE svg PUBLIC "-//W3C//DTD SVG 1.1//EN" "http://www.w3.org/Graphics/SVG/1.1/DTD/svg11.dtd"><svg width="24px" height="24px" version="1.1" xmlns="http://www.w3.org/2000/svg" xmlns:xlink="http://www.w3.org/1999/xlink" xml:space="preserve" xmlns:serif="http://www.serif.com/" style="fill-rule:evenodd;clip-rule:evenodd;stroke-linejoin:round;stroke-miterlimit:2;"><rect id="Facebook" x="0" y="0" width="24" height="24" style="fill:none;"/><path d="M16.32,13.665l0.569,-3.712l-3.56,0l0,-2.408c0,-1.015 0.496,-2.006 2.092,-2.006l1.62,0l0,-3.16c0,0 -1.47,-0.251 -2.875,-0.251c-2.932,0 -4.849,1.777 -4.849,4.996l0,2.829l-3.261,0l0,3.712l3.261,0l0,8.971c0.654,0.103 1.323,0.155 2.006,0.155c0.682,0 1.352,-0.054 2.006,-0.155l0,-8.971l2.991,0Z" style="fill:#1670ca;fill-rule:nonzero;"/></svg>