<svg width="24" height="24" viewBox="0 0 24 24" fill="none" xmlns="http://www.w3.org/2000/svg">
<path d="M21 24H3V0H15L21 6V24Z" fill="#D5D5DD"/>
<path d="M21 6H15V0L21 6Z" fill="white"/>
<circle cx="12" cy="15" r="6.5" stroke="#464653"/>
<path d="M18.4169 14.2899C18.4169 15.3024 15.5439 16.1233 12 16.1233C8.45608 16.1233 5.58316 15.3024 5.58316 14.2899" stroke="#464653"/>
<path d="M12 21.5C11.7549 21.5 11.4795 21.3862 11.1835 21.094C10.8853 20.7997 10.5938 20.3491 10.3383 19.7528C9.82788 18.5619 9.5 16.8819 9.5 15C9.5 13.1181 9.82788 11.4381 10.3383 10.2472C10.5938 9.65089 10.8853 9.20026 11.1835 8.90597C11.4795 8.6138 11.7549 8.5 12 8.5C12.2451 8.5 12.5205 8.6138 12.8165 8.90597C13.1147 9.20026 13.4062 9.65089 13.6617 10.2472C14.1721 11.4381 14.5 13.1181 14.5 15C14.5 16.8819 14.1721 18.5619 13.6617 19.7528C13.4062 20.3491 13.1147 20.7997 12.8165 21.094C12.5205 21.3862 12.2451 21.5 12 21.5Z" stroke="#464653"/>
</svg>
