<?xml version="1.0" encoding="UTF-8" standalone="no"?>
<!DOCTYPE svg PUBLIC "-//W3C//DTD SVG 1.1//EN" "http://www.w3.org/Graphics/SVG/1.1/DTD/svg11.dtd">
<svg width="100%" height="100%" viewBox="0 0 65 65" version="1.1" xmlns="http://www.w3.org/2000/svg" xmlns:xlink="http://www.w3.org/1999/xlink" xml:space="preserve" xmlns:serif="http://www.serif.com/" style="fill-rule:evenodd;clip-rule:evenodd;stroke-linecap:round;stroke-linejoin:round;stroke-miterlimit:1.5;">
    <rect id="Implementation-Resources" x="0.849" y="0.458" width="64" height="64" style="fill:none;"/>
    <path d="M52.849,12.458C52.849,11.354 51.954,10.458 50.849,10.458C44.021,10.458 21.677,10.458 14.849,10.458C13.745,10.458 12.849,11.354 12.849,12.458C12.849,20.499 12.849,50.418 12.849,58.458C12.849,59.563 13.745,60.458 14.849,60.458C21.677,60.458 44.021,60.458 50.849,60.458C51.954,60.458 52.849,59.563 52.849,58.458C52.849,50.418 52.849,20.499 52.849,12.458Z" style="fill:#f1765a;"/>
    <clipPath id="_clip1">
        <path d="M52.849,12.458C52.849,11.354 51.954,10.458 50.849,10.458C44.021,10.458 21.677,10.458 14.849,10.458C13.745,10.458 12.849,11.354 12.849,12.458C12.849,20.499 12.849,50.418 12.849,58.458C12.849,59.563 13.745,60.458 14.849,60.458C21.677,60.458 44.021,60.458 50.849,60.458C51.954,60.458 52.849,59.563 52.849,58.458C52.849,50.418 52.849,20.499 52.849,12.458Z"/>
    </clipPath>
    <g clip-path="url(#_clip1)">
        <path d="M43.823,12.326C44.892,10.798 45.023,8.803 44.162,7.149C43.301,5.496 41.591,4.458 39.727,4.458C37.22,4.458 34.723,4.458 32.933,4.458C31.302,4.458 29.773,5.254 28.837,6.591C26.781,9.528 23.33,14.458 23.33,14.458L42.33,14.458C42.33,14.458 42.951,13.571 43.823,12.326Z" style="fill:#389d15;"/>
    </g>
    <path d="M42.349,9.458C42.349,6.697 40.111,4.458 37.349,4.458C34.572,4.458 31.127,4.458 28.349,4.458C25.588,4.458 23.349,6.697 23.349,9.458C23.349,11.958 23.349,14.458 23.349,14.458L42.349,14.458L42.349,9.458Z" style="fill:#cecfeb;"/>
    <clipPath id="_clip2">
        <path d="M42.349,9.458C42.349,6.697 40.111,4.458 37.349,4.458C34.572,4.458 31.127,4.458 28.349,4.458C25.588,4.458 23.349,6.697 23.349,9.458C23.349,11.958 23.349,14.458 23.349,14.458L42.349,14.458L42.349,9.458Z"/>
    </clipPath>
    <g clip-path="url(#_clip2)">
        <path d="M42.349,10.82C42.349,8.059 40.111,5.82 37.349,5.82C34.572,5.82 31.127,5.82 28.349,5.82C25.588,5.82 23.349,8.059 23.349,10.82C23.349,13.32 23.349,15.82 23.349,15.82L42.349,15.82L42.349,10.82Z" style="fill:#c2c5e7;"/>
    </g>
    <g>
        <path d="M19.349,39.115L21.349,41.115L27.006,35.458" style="fill:none;stroke:#fff;stroke-width:2px;"/>
        <rect x="30.349" y="37.958" width="16" height="2" style="fill:#fff;"/>
    </g>
    <g>
        <path d="M19.349,26.615L21.349,28.615L27.006,22.958" style="fill:none;stroke:#fff;stroke-width:2px;"/>
        <rect x="30.349" y="25.458" width="16" height="2" style="fill:#fff;"/>
    </g>
    <g>
        <path d="M19.349,50.147L21.349,52.158L27.006,46.47" style="fill:none;stroke:#fff;stroke-width:2px;"/>
        <rect x="30.349" y="48.984" width="16" height="2.011" style="fill:#fff;"/>
    </g>
    <path d="M62.723,48.387C63.745,48.051 64.301,46.95 63.966,45.928C63.965,45.927 63.965,45.926 63.965,45.925C63.629,44.903 62.528,44.347 61.506,44.682C55.045,46.805 33.88,53.759 33.88,53.759L31.213,56.687L35.097,57.463C35.097,57.463 56.262,50.509 62.723,48.387Z" style="fill:#2b307e;fill-opacity:0.24;"/>
    <path d="M59.498,32.094C59.97,31.622 60.234,30.983 60.234,30.316C60.234,29.649 59.97,29.01 59.498,28.539C59.498,28.538 59.497,28.538 59.497,28.538C59.026,28.066 58.386,27.801 57.719,27.801C57.053,27.801 56.413,28.066 55.942,28.538C50.161,34.319 32.264,52.216 32.264,52.216L31.213,56.822L35.82,55.772C35.82,55.772 53.717,37.875 59.498,32.094Z" style="fill:#2b307e;"/>
    <clipPath id="_clip3">
        <path d="M59.498,32.094C59.97,31.622 60.234,30.983 60.234,30.316C60.234,29.649 59.97,29.01 59.498,28.539C59.498,28.538 59.497,28.538 59.497,28.538C59.026,28.066 58.386,27.801 57.719,27.801C57.053,27.801 56.413,28.066 55.942,28.538C50.161,34.319 32.264,52.216 32.264,52.216L31.213,56.822L35.82,55.772C35.82,55.772 53.717,37.875 59.498,32.094Z"/>
    </clipPath>
    <g clip-path="url(#_clip3)">
        <path d="M35.116,53.019L29.07,51.463L29.07,59.492L36.629,59.492L35.116,53.019Z" style="fill:#c2c5e7;"/>
        <path d="M32.823,55.359L26.777,53.803L26.777,61.832L34.336,61.832L32.823,55.359Z" style="fill:#2b307e;"/>
    </g>
</svg>
