<svg width="24" height="24" viewBox="0 0 24 24" fill="none" xmlns="http://www.w3.org/2000/svg">
<g clip-path="url(#clip0)">
<path d="M12 23.1538C16.4182 23.1538 20 19.5472 20 15.098C20 10.789 17.3334 6.08972 12 1C6.66658 6.08972 4 10.789 4 15.098C4 19.5472 7.58178 23.1538 12 23.1538Z" fill="#FF3355"/>
<path d="M7.17514 18.6313C6.82684 18.1983 6.89748 17.5664 7.33268 17.2201C7.76788 16.8737 8.40296 16.9439 8.75127 17.3769C10.1866 19.1617 12.8047 19.4512 14.5991 18.0233C14.8389 17.8322 15.057 17.6156 15.2487 17.3769C15.5971 16.9439 16.2321 16.8737 16.6673 17.2201C17.1025 17.5664 17.1732 18.1983 16.8249 18.6313C16.5398 18.9857 16.2164 19.3077 15.8599 19.5913C13.1953 21.7121 9.30684 21.2821 7.17514 18.6313V18.6313Z" fill="white"/>
</g>
<defs>
<clipPath id="clip0">
<rect width="16" height="22.1538" fill="white" transform="translate(4 1)"/>
</clipPath>
</defs>
</svg>
