<?xml version="1.0" encoding="UTF-8" standalone="no"?><!DOCTYPE svg PUBLIC "-//W3C//DTD SVG 1.1//EN" "http://www.w3.org/Graphics/SVG/1.1/DTD/svg11.dtd"><svg width="24px" height="24px" version="1.1" xmlns="http://www.w3.org/2000/svg" xmlns:xlink="http://www.w3.org/1999/xlink" xml:space="preserve" xmlns:serif="http://www.serif.com/" style="fill-rule:evenodd;clip-rule:evenodd;stroke-linejoin:round;stroke-miterlimit:2;"><rect id="Twitter" x="0" y="0" width="24" height="24" style="fill:none;"/><path d="M19.736,6.688c0.803,-0.531 1.42,-1.372 1.711,-2.374c-0.752,0.492 -1.585,0.849 -2.472,1.041c-0.71,-0.834 -1.721,-1.355 -2.841,-1.355c-2.149,0 -3.892,1.921 -3.892,4.292c0,0.336 0.035,0.663 0.101,0.978c-3.235,-0.179 -6.103,-1.888 -8.022,-4.484c-0.335,0.633 -0.527,1.371 -0.527,2.157c0,1.489 0.687,2.803 1.731,3.572c-0.638,-0.022 -1.238,-0.215 -1.763,-0.537c0,0.018 0,0.036 0,0.054c0,2.08 1.342,3.814 3.122,4.209c-0.326,0.098 -0.67,0.15 -1.025,0.15c-0.251,0 -0.495,-0.027 -0.733,-0.077c0.496,1.705 1.933,2.946 3.636,2.981c-1.332,1.151 -3.01,1.837 -4.834,1.837c-0.314,0 -0.624,-0.021 -0.928,-0.06c1.722,1.217 3.768,1.928 5.966,1.928c7.159,0 11.074,-6.54 11.074,-12.211c0,-0.186 -0.004,-0.371 -0.011,-0.555c0.76,-0.605 1.42,-1.361 1.942,-2.222c-0.698,0.342 -1.448,0.572 -2.235,0.676Z" style="fill:#1670ca;fill-rule:nonzero;"/></svg>