<svg xmlns="http://www.w3.org/2000/svg" width="16" height="16" viewBox="0 0 16 16">
  <path fill="#879099" d="M13.5621818,1.25013333 C13.5621818,1.25013333 11.3747879,0.833333333 7,0.833333333 C2.62521212,0.833333333 0.437818182,1.25013333 0.437818182,1.25013333 C0.437818182,1.25013333 0,3.33333333 0,5.83333333 C0,8.33333333 0.437818182,10.4165333 0.437818182,10.4165333 C0.437818182,10.4165333 2.62521212,10.8333333 7,10.8333333 C11.3747879,10.8333333 13.5621818,10.4165333 13.5621818,10.4165333 C13.5621818,10.4165333 14,8.33333333 14,5.83333333 C14,3.33333333 13.5621818,1.25013333 13.5621818,1.25013333 Z M5.0246582,8.89656576 L5.0246582,2.77010091 L10.3939394,5.83333333 L5.0246582,8.89656576 Z" transform="translate(1 2.167)"/>
</svg>
