<svg width="24" height="24" viewBox="0 0 24 24" fill="none" xmlns="http://www.w3.org/2000/svg">
<path d="M21 24H3V0H15L21 6V24Z" fill="#185ABD"/>
<path d="M21 6H15V0L21 6Z" fill="#41A5EE"/>
<path d="M18 11L15.7507 19H13.6261L12.2136 13.8675C12.1385 13.5997 12.093 13.3003 12.0772 12.9693H12.0534C12.0178 13.3338 11.9664 13.6332 11.8991 13.8675L10.451 19H8.23739L6 11H8.09496L9.29377 16.3278C9.3452 16.5546 9.38279 16.8596 9.40653 17.2427H9.44214C9.45796 16.9563 9.51533 16.6439 9.61424 16.3054L11.1573 11H13.2107L14.6053 16.3724C14.6568 16.5695 14.7023 16.8559 14.7418 17.2315H14.7656C14.7814 16.9377 14.8229 16.6402 14.8902 16.3389L16.0653 11H18Z" fill="white"/>
<path d="M18 11L15.7507 19H13.6261L12.2136 13.8675C12.1385 13.5997 12.093 13.3003 12.0772 12.9693H12.0534C12.0178 13.3338 11.9664 13.6332 11.8991 13.8675L10.451 19H8.23739L6 11H8.09496L9.29377 16.3278C9.3452 16.5546 9.38279 16.8596 9.40653 17.2427H9.44214C9.45796 16.9563 9.51533 16.6439 9.61424 16.3054L11.1573 11H13.2107L14.6053 16.3724C14.6568 16.5695 14.7023 16.8559 14.7418 17.2315H14.7656C14.7814 16.9377 14.8229 16.6402 14.8902 16.3389L16.0653 11H18Z" fill="white"/>
</svg>
