<svg width="24" height="24" viewBox="0 0 24 24" fill="none" xmlns="http://www.w3.org/2000/svg">
<path d="M21 24H3V0H15L21 6V24Z" fill="#107C41"/>
<path d="M21 6H15V0L21 6Z" fill="#33C481"/>
<path d="M16 19H13.6945L12.2077 16.3947C12.1515 16.298 12.0933 16.1195 12.0331 15.8591H12.009C11.9809 15.9819 11.9147 16.1678 11.8104 16.417L10.3175 19H8L10.7509 15L8.23476 11H10.6005L11.8345 13.3989C11.9308 13.5886 12.0171 13.8136 12.0933 14.0739H12.1174C12.1655 13.9177 12.2558 13.6853 12.3883 13.3766L13.7607 11H15.9278L13.3394 14.9665L16 19Z" fill="white"/>
</svg>
